<?xml version="1.0" standalone="no"?><!-- Generator: Gravit.io --><svg xmlns="http://www.w3.org/2000/svg" xmlns:xlink="http://www.w3.org/1999/xlink" style="isolation:isolate" viewBox="0 0 300 240" width="300" height="240"><defs><clipPath id="_clipPath_Hu9z5LEsxrJ8EroRjNhXAyvU9d2ysV04"><rect width="300" height="240"/></clipPath></defs><g clip-path="url(#_clipPath_Hu9z5LEsxrJ8EroRjNhXAyvU9d2ysV04)"><g id="Group"><path d=" M 152.114 27.77 C 160.35 27.6 168.553 28.9 176.361 31.614 C 194.605 37.83 208.793 52.808 214.411 71.783 C 218.944 84.583 220.746 98.243 219.693 111.829 C 218.442 142.055 205.096 170.389 182.842 190.061 C 173.935 198.361 164.151 205.597 153.674 211.633 L 153.194 211.881 L 152.234 212.253 C 151.634 212.253 151.033 212.253 150.433 212.005 L 149.593 211.385 L 148.273 210.641 L 144.912 208.782 L 140.11 206.178 C 130.091 200.264 120.784 193.148 112.383 184.977 C 98.22 170.742 87.844 152.98 82.254 133.402 C 79.734 124.312 78.244 114.951 77.813 105.506 L 77.813 104.142 C 77.809 102.53 77.809 100.919 77.813 99.307 C 77.833 81.431 83.953 64.135 95.098 50.459 C 101.764 42.665 110.228 36.738 119.705 33.225 C 129.675 29.366 140.269 27.515 150.913 27.77 L 152.114 27.77 Z  M 149.353 211.261 L 149.473 211.261 L 149.353 211.137 L 149.353 211.261 Z " fill-rule="evenodd" fill="rgb(0,0,0)" fill-opacity="0.2"/><path d=" M 155.902 202.015 C 154.396 199.74 90.368 176.491 87.229 103.078 C 87.229 103.078 82.207 37.247 150.881 33.457 C 219.679 29.666 219.303 100.804 219.303 100.804 C 218.926 146.545 197.96 177.881 155.902 202.015 Z " fill-rule="evenodd" fill="rgb(134,214,107)"/><path d=" M 156.405 30.424 L 164.691 30.803 C 169.712 31.435 174.86 32.446 179.756 34.088 C 197.442 39.948 211.203 54.08 216.666 71.995 C 220.214 81.58 222.083 91.713 222.19 101.941 L 222.19 103.584 C 221.941 113.126 220.678 122.615 218.424 131.887 C 213.212 152.153 201.95 170.322 186.159 183.946 C 177.543 191.787 168.066 198.613 157.911 204.289 L 157.409 204.542 L 156.53 204.921 C 155.902 204.921 155.275 204.921 154.647 204.668 L 153.894 204.163 L 152.638 203.404 C 151.383 202.899 150.378 202.141 149.249 201.635 C 145.177 199.489 141.198 197.171 137.322 194.686 C 130.355 190.146 123.838 184.941 117.862 179.144 C 107.704 169.28 99.484 157.577 93.632 144.649 C 87.918 131.875 84.761 118.092 84.342 104.089 L 84.342 98.277 C 84.373 81.372 90.28 65.012 101.039 52.031 C 107.514 44.591 115.767 38.938 125.018 35.605 C 134.65 32.002 144.877 30.287 155.149 30.55 L 156.405 30.424 Z  M 153.768 203.91 L 153.768 204.036 L 153.643 203.784 L 153.643 203.91 L 153.768 203.91 Z  M 155.651 36.11 C 146.001 36.197 136.426 37.818 127.278 40.912 C 117.252 44.695 108.501 51.268 102.044 59.865 L 100.035 62.897 C 93.38 73.661 89.897 86.105 89.991 98.782 L 89.991 103.331 C 90.582 113.548 92.438 123.65 95.515 133.404 C 98.793 143.272 103.579 152.565 109.702 160.949 C 119.299 174.16 131.637 185.111 145.859 193.043 L 151.132 196.076 L 155.526 198.35 L 155.777 198.603 L 156.028 198.603 L 157.786 197.592 L 165.569 192.538 C 171.847 188.368 178.124 183.693 183.773 178.386 C 192.741 169.95 200.213 160.036 205.869 149.072 C 212.122 136.62 215.633 122.958 216.164 109.017 C 216.308 106.661 216.391 104.302 216.415 101.941 L 216.415 100.046 C 216.337 95.362 215.748 90.701 214.658 86.147 C 213.038 78.25 210.289 70.632 206.497 63.529 C 202.239 56.179 196.406 49.877 189.423 45.081 C 179.407 39.088 167.929 36.025 156.279 36.236 L 155.651 36.236 L 155.651 36.11 Z  M 161.426 155.769 C 162.431 155.895 155.526 142.88 171.219 124.685 C 171.219 124.685 184.025 110.281 195.449 120.01 C 206.748 129.866 192.059 144.523 192.059 144.523 C 181.89 153.494 172.851 157.158 161.426 155.895 L 161.426 155.769 Z  M 145.106 155.769 C 143.976 155.895 150.881 142.88 135.188 124.685 C 135.188 124.685 122.382 110.281 110.957 120.01 C 99.658 129.866 114.347 144.523 114.347 144.523 C 124.516 153.494 133.555 157.158 144.98 155.895 L 145.106 155.769 Z " fill-rule="evenodd" fill="rgb(67,50,49)"/></g></g></svg>