<?xml version="1.0" standalone="no"?><!-- Generator: Gravit.io --><svg xmlns="http://www.w3.org/2000/svg" xmlns:xlink="http://www.w3.org/1999/xlink" style="isolation:isolate" viewBox="0 0 250 300" width="250" height="300"><defs><clipPath id="_clipPath_Xk9Fy9qkg9Q5WnyMToYyqO9O6675qIgd"><rect width="250" height="300"/></clipPath></defs><g clip-path="url(#_clipPath_Xk9Fy9qkg9Q5WnyMToYyqO9O6675qIgd)"><g id="Group"><path d=" M 74.57 69.641 C 80.026 64.789 84.859 62.614 84.859 62.614 C 84.547 61.443 73.479 34.171 92.185 29.821 C 110.892 25.471 111.671 44.377 111.671 44.377 C 111.671 37.685 115.569 25.973 128.819 28.483 C 149.553 32.163 140.979 59.937 140.979 59.937 C 152.359 65.458 157.503 68.637 168.883 85.201 C 173.559 92.06 174.027 99.422 173.092 105.78 C 175.742 105.78 178.236 105.78 179.483 106.616 C 182.445 108.289 182.913 112.639 171.221 113.643 L 170.598 114.982 C 172.156 114.982 174.027 115.651 174.962 117.324 C 176.21 119.499 172.936 121.841 167.636 121.339 L 167.324 121.841 C 167.947 121.674 171.533 122.511 194.604 137.568 C 222.976 155.972 203.958 178.392 203.958 178.392 C 199.749 184.75 203.49 187.928 203.49 187.928 C 207.076 189.936 211.285 189.936 203.958 201.313 C 196.631 212.69 182.133 209.344 182.133 209.344 C 181.354 213.025 179.951 215.033 179.951 215.033 C 179.951 215.033 186.966 228.417 182.289 246.152 C 177.613 264.054 181.51 266.229 181.51 266.229 C 186.186 272.42 181.666 273.256 181.666 273.256 C 162.803 283.295 132.405 269.241 132.405 269.241 C 136.458 262.381 132.872 248.494 132.872 248.494 C 121.648 253.514 103.253 248.494 103.253 248.494 C 100.447 254.518 99.824 270.412 99.824 270.412 C 83.611 280.785 54.304 269.073 54.304 269.073 C 49.628 265.727 53.369 261.712 53.369 261.712 C 55.863 258.868 57.422 256.358 55.863 246.654 C 52.434 225.238 58.981 204.157 58.981 204.157 C 54.304 197.632 54.772 191.944 54.772 191.944 C 44.172 184.415 35.13 173.54 41.366 155.303 C 45.73 142.922 55.084 135.059 60.696 131.211 C 57.89 130.541 55.084 128.366 54.148 126.191 C 53.369 124.518 56.331 123.012 59.137 122.176 C 56.487 122.176 53.057 121.841 49.784 121.339 C 41.989 120.001 49.316 115.484 49.316 115.484 L 60.696 115.484 C 60.101 111.721 59.736 107.92 59.605 104.106 C 54.928 100.593 45.886 98.418 37.78 97.581 C 46.354 93.231 49.16 91.558 49.004 83.36 C 48.848 74.995 36.065 73.991 36.065 73.991 C 48.536 71.314 49.628 54.416 49.628 54.416 C 50.095 57.427 52.122 63.618 58.669 66.629 C 65.217 69.641 68.023 57.26 68.023 57.26 C 69.893 63.952 72.699 67.8 74.57 69.641 Z " fill-rule="evenodd" fill="rgb(0,0,0)" fill-opacity="0.2"/><path d=" M 78.467 65.291 C 83.923 60.606 88.756 58.431 88.756 58.431 C 88.288 57.093 77.376 29.988 96.083 25.638 C 114.789 21.121 115.413 40.027 115.413 40.027 C 115.725 33.502 119.31 21.79 132.561 24.133 C 153.294 27.981 144.876 55.754 144.876 55.754 C 156.1 61.275 161.4 64.287 172.624 81.018 C 177.301 87.71 177.924 95.239 176.989 101.43 C 179.483 101.43 182.133 101.43 183.38 102.266 C 186.342 104.106 186.654 108.457 174.962 109.293 L 174.495 110.799 C 175.898 110.799 177.924 111.301 178.86 112.974 C 180.107 115.316 176.833 117.659 171.377 117.157 C 171.319 117.265 171.267 117.377 171.221 117.491 L 171.221 117.659 C 171.689 117.324 175.43 118.328 198.502 133.218 C 226.873 151.622 207.699 174.209 207.699 174.209 C 203.646 180.567 207.387 183.578 207.387 183.578 C 210.973 185.753 215.026 185.586 207.855 196.963 C 200.528 208.508 185.875 205.161 185.875 205.161 C 185.095 208.842 183.848 210.683 183.848 210.683 C 183.848 210.683 190.863 224.067 186.031 241.969 C 181.354 259.871 185.407 262.047 185.407 262.047 C 190.084 268.07 185.563 269.073 185.563 269.073 C 166.7 279.112 136.302 265.058 136.302 265.058 C 140.199 258.198 136.77 244.144 136.77 244.144 C 125.39 249.331 107.151 244.479 107.151 244.479 C 105.028 251.517 103.821 258.837 103.565 266.229 C 87.509 276.602 58.202 264.723 58.202 264.723 C 53.525 261.377 57.266 257.529 57.266 257.529 C 59.605 254.685 61.163 252.175 59.605 242.471 C 56.175 220.888 63.034 199.975 63.034 199.975 C 58.046 193.45 58.669 187.761 58.669 187.761 C 47.913 180.232 38.871 169.357 45.263 150.953 C 49.628 138.572 58.981 130.876 64.593 127.028 C 61.787 126.191 58.825 124.184 57.89 122.009 C 57.11 120.335 60.228 118.662 63.034 117.826 C 60.228 117.826 56.799 117.659 53.681 116.989 C 45.886 115.818 53.213 111.301 53.213 111.301 L 64.593 111.301 C 63.932 107.488 63.515 103.631 63.346 99.756 C 58.669 96.41 49.628 94.235 41.521 93.399 C 50.095 89.049 52.745 87.376 52.745 79.01 C 52.59 70.645 39.807 69.808 39.807 69.808 C 52.122 67.131 53.369 50.233 53.369 50.233 C 53.837 53.244 55.707 59.268 62.411 62.279 C 68.958 65.291 71.764 53.077 71.764 53.077 C 73.479 59.77 76.441 63.45 78.311 65.291 L 78.467 65.291 Z " fill-rule="evenodd" fill="rgb(255,255,255)"/><path d=" M 101.85 24.3 L 103.877 24.3 L 104.189 24.467 L 104.501 24.467 L 104.812 24.635 L 105.436 24.635 L 105.748 24.802 L 106.059 24.802 L 106.371 25.136 L 106.839 25.136 L 107.151 25.304 L 107.462 25.471 L 107.618 25.471 L 107.93 25.806 L 108.242 25.806 L 108.398 25.973 L 108.71 26.14 L 108.865 26.14 L 109.177 26.475 L 109.333 26.475 L 109.645 26.81 L 109.801 26.81 L 109.957 27.144 L 110.268 27.144 L 110.268 27.479 L 110.58 27.479 L 110.736 27.813 L 111.048 27.813 L 111.048 28.148 L 111.36 28.148 L 111.516 28.483 L 111.671 28.65 L 111.827 28.817 L 111.983 28.985 L 112.139 29.319 L 112.295 29.319 L 112.451 29.654 L 112.607 29.821 L 112.763 29.988 L 112.763 30.156 L 113.074 30.49 L 113.23 30.825 L 113.386 30.992 L 113.386 31.327 L 113.698 31.327 L 113.698 31.662 L 113.854 31.829 L 113.854 31.996 L 114.166 32.498 L 114.322 32.833 L 114.477 33.335 L 114.633 33.669 L 114.789 34.171 L 114.945 34.506 L 115.101 34.84 L 115.101 35.342 L 115.257 35.677 L 115.257 35.844 L 115.413 35.51 L 115.413 35.008 L 115.88 34.673 L 115.88 34.339 L 116.036 34.004 L 116.036 33.502 L 116.348 33.167 L 116.348 32.331 L 116.504 31.996 L 116.816 31.662 L 116.816 31.327 L 117.128 30.825 L 117.283 30.49 L 117.439 30.156 L 117.907 29.654 L 117.907 29.487 L 118.219 28.985 L 118.375 28.65 L 118.686 28.315 L 118.842 27.981 L 118.998 27.981 L 119.154 27.646 L 119.31 27.646 L 119.31 27.144 L 119.622 27.144 L 119.622 26.977 L 119.934 26.81 L 120.245 26.642 L 120.245 26.308 L 120.557 26.308 L 120.557 25.973 L 120.869 25.973 L 121.025 25.806 L 121.181 25.638 L 121.337 25.471 L 121.492 25.471 L 121.648 25.136 L 122.272 25.136 L 122.584 24.802 L 122.74 24.635 L 123.363 24.635 L 123.675 24.3 L 123.987 24.3 L 124.143 23.965 L 124.298 23.965 L 124.61 23.798 L 124.766 23.798 L 125.078 23.631 L 125.546 23.631 L 125.702 23.463 L 126.169 23.463 L 126.481 23.296 L 127.26 23.296 L 127.26 23.129 L 131.781 23.129 L 132.093 23.296 L 133.028 23.296 L 133.496 23.463 L 133.964 23.631 L 134.431 23.631 L 134.899 23.965 L 135.211 23.965 L 135.678 24.133 L 136.146 24.3 L 136.614 24.467 L 136.926 24.635 L 137.393 24.802 L 137.705 24.969 L 138.173 25.304 L 138.484 25.304 L 138.796 25.638 L 139.108 25.806 L 139.576 26.14 L 139.887 26.308 L 140.199 26.642 L 140.511 26.642 L 140.823 26.977 L 141.135 27.312 L 141.29 27.646 L 141.602 27.813 L 141.914 28.148 L 142.226 28.315 L 142.382 28.65 L 142.693 28.985 L 142.849 29.319 L 143.161 29.487 L 143.317 29.821 L 143.629 30.156 L 143.629 30.49 L 143.941 30.825 L 144.096 31.16 L 144.408 31.327 L 144.408 31.662 L 144.72 31.996 L 144.72 32.331 L 145.032 32.665 L 145.032 33 L 145.344 33.335 L 145.344 33.669 L 145.499 34.004 L 145.655 34.339 L 145.655 34.673 L 145.811 35.175 L 145.967 35.51 L 145.967 35.844 L 146.123 36.179 L 146.123 36.514 L 146.279 36.848 L 146.279 37.183 L 146.435 37.517 L 146.435 38.019 L 146.591 38.521 L 146.591 39.19 L 146.747 39.525 L 146.747 40.529 L 146.902 41.031 L 146.902 47.389 L 146.747 48.058 L 146.747 49.229 L 146.591 49.731 L 146.435 50.4 L 146.435 50.902 L 146.279 51.404 L 146.279 51.906 L 146.123 52.408 L 146.123 52.743 L 145.967 53.244 L 145.811 53.579 L 145.811 54.081 L 145.499 54.583 L 145.499 55.252 L 145.967 55.587 L 146.902 56.089 L 147.994 56.591 L 148.929 57.093 L 149.864 57.594 L 150.332 57.762 L 150.8 58.096 L 151.111 58.264 L 151.579 58.598 L 152.047 58.766 L 152.514 59.1 L 152.982 59.268 L 153.294 59.602 L 153.762 59.77 L 154.229 60.104 L 154.541 60.271 L 155.009 60.606 L 155.32 60.941 L 155.788 61.108 L 156.256 61.443 L 156.568 61.777 L 157.035 62.112 L 157.347 62.279 L 157.815 62.614 L 158.126 62.948 L 158.594 63.283 L 158.906 63.618 L 159.374 63.952 L 159.685 64.287 L 160.153 64.621 L 160.465 65.123 L 160.932 65.458 L 161.4 65.793 L 161.712 66.295 L 162.18 66.629 L 162.491 67.131 L 162.959 67.466 L 163.271 67.968 L 163.738 68.47 L 164.206 68.804 L 164.518 69.306 L 164.986 69.808 L 165.453 70.31 L 165.921 70.812 L 166.233 71.481 L 166.7 71.983 L 167.168 72.485 L 167.636 73.154 L 168.103 73.656 L 168.571 74.325 L 169.039 74.995 L 169.506 75.664 L 169.974 76.333 L 170.442 77.002 L 170.909 77.672 L 171.377 78.341 L 172.001 79.177 L 172.468 79.847 L 172.936 80.683 L 173.248 81.018 L 173.404 81.352 L 173.715 81.687 L 173.715 82.022 L 174.027 82.356 L 174.183 82.524 L 174.495 82.858 L 174.495 83.193 L 174.807 83.527 L 174.807 83.862 L 175.118 84.197 L 175.118 84.531 L 175.43 84.866 L 175.43 85.201 L 175.742 85.535 L 175.742 85.87 L 175.898 86.204 L 176.054 86.539 L 176.21 86.874 L 176.21 87.208 L 176.365 87.543 L 176.521 87.877 L 176.521 88.212 L 176.677 88.547 L 176.833 88.881 L 176.833 89.216 L 176.989 89.551 L 176.989 90.053 L 177.145 90.387 L 177.145 91.056 L 177.301 91.224 L 177.301 91.558 L 177.457 91.893 L 177.457 92.897 L 177.613 93.231 L 177.613 94.57 L 177.768 94.904 L 177.768 99.756 L 177.613 100.426 L 177.613 100.76 L 180.574 100.76 L 180.73 100.928 L 181.666 100.928 L 181.822 101.095 L 182.133 101.095 L 182.445 101.262 L 182.757 101.262 L 182.913 101.43 L 183.225 101.43 L 183.38 101.597 L 183.536 101.597 L 183.692 101.764 L 183.692 101.931 L 184.004 101.931 L 184.004 102.099 L 184.316 102.266 L 184.472 102.433 L 184.628 102.601 L 184.628 102.768 L 184.783 102.768 L 184.939 103.103 L 185.095 103.27 L 185.095 103.437 L 185.251 103.605 L 185.251 103.772 L 185.407 103.939 L 185.407 104.441 L 185.563 104.608 L 185.563 105.612 L 185.407 105.947 L 185.251 106.282 L 184.939 106.616 L 184.783 106.951 L 184.628 106.951 L 184.472 107.118 L 184.316 107.285 L 184.16 107.453 L 184.004 107.62 L 183.692 107.62 L 183.536 107.955 L 183.225 107.955 L 183.069 108.122 L 182.757 108.122 L 182.601 108.457 L 182.289 108.457 L 181.977 108.624 L 181.666 108.624 L 181.354 108.791 L 181.042 108.791 L 180.73 108.958 L 180.419 109.126 L 179.951 109.126 L 179.639 109.293 L 179.171 109.293 L 178.86 109.46 L 178.392 109.46 L 177.924 109.628 L 176.989 109.628 L 176.521 109.795 L 175.43 109.795 L 175.274 110.13 L 175.586 110.13 L 175.742 110.297 L 176.21 110.297 L 176.365 110.464 L 176.677 110.464 L 176.833 110.632 L 177.145 110.632 L 177.145 110.799 L 177.457 110.799 L 177.457 110.966 L 177.768 110.966 L 177.768 111.133 L 178.08 111.301 L 178.392 111.635 L 178.704 111.803 L 178.704 111.97 L 178.86 112.137 L 179.016 112.305 L 179.016 112.472 L 179.171 112.639 L 179.171 112.807 L 179.327 112.807 L 179.327 113.141 L 179.483 113.141 L 179.483 115.316 L 179.327 115.316 L 179.327 115.484 L 179.171 115.484 L 179.171 115.818 L 179.016 115.818 L 178.704 116.153 L 178.392 116.32 L 178.392 116.487 L 178.236 116.487 L 178.08 116.655 L 177.768 116.822 L 177.457 116.989 L 177.145 117.157 L 176.833 117.157 L 176.833 117.324 L 176.521 117.324 L 176.365 117.491 L 176.054 117.491 L 175.742 117.659 L 175.274 117.659 L 174.962 117.826 L 173.871 117.826 L 174.027 117.993 L 174.651 118.328 L 175.118 118.495 L 175.742 118.83 L 176.521 119.332 L 177.301 119.666 L 178.08 120.168 L 179.016 120.67 L 179.951 121.172 L 181.042 121.841 L 182.133 122.511 L 183.38 123.18 L 184.628 124.016 L 186.186 124.853 L 187.589 125.857 L 189.148 126.861 L 190.707 127.864 L 192.578 129.036 L 194.449 130.207 L 196.475 131.545 L 198.658 132.884 L 199.281 133.218 L 199.905 133.72 L 200.528 134.222 L 201.152 134.557 L 201.775 135.059 L 202.399 135.561 L 202.867 135.895 L 203.49 136.397 L 203.958 136.899 L 204.581 137.234 L 205.049 137.736 L 205.517 138.238 L 205.984 138.74 L 206.452 139.074 L 206.92 139.576 L 207.231 140.078 L 207.699 140.413 L 208.167 140.915 L 208.479 141.416 L 208.79 141.918 L 209.258 142.253 L 209.57 142.755 L 209.882 143.257 L 210.193 143.591 L 210.505 144.093 L 210.817 144.595 L 211.129 145.097 L 211.285 145.432 L 211.596 145.934 L 211.752 146.436 L 212.064 146.77 L 212.22 147.272 L 212.532 147.774 L 212.688 148.276 L 212.843 148.611 L 212.999 149.113 L 213.155 149.615 L 213.311 149.949 L 213.467 150.451 L 213.623 150.953 L 213.623 151.288 L 213.779 151.79 L 213.935 152.292 L 213.935 152.626 L 214.091 153.128 L 214.091 153.463 L 214.246 153.965 L 214.246 154.801 L 214.402 155.303 L 214.402 159.988 L 214.246 160.322 L 214.246 161.159 L 214.091 161.494 L 214.091 161.828 L 213.935 162.163 L 213.935 162.665 L 213.779 162.999 L 213.779 163.334 L 213.467 163.669 L 213.467 164.338 L 213.311 164.672 L 213.155 165.007 L 213.155 165.342 L 212.843 165.676 L 212.843 166.011 L 212.688 166.346 L 212.688 166.68 L 212.376 167.015 L 212.376 167.182 L 212.22 167.517 L 212.064 167.851 L 212.064 168.186 L 211.752 168.353 L 211.752 168.688 L 211.44 169.19 L 211.129 169.692 L 210.817 170.194 L 210.661 170.696 L 210.349 171.198 L 210.037 171.532 L 209.882 172.034 L 209.57 172.369 L 209.414 172.703 L 209.102 173.038 L 209.102 173.373 L 208.79 173.54 L 208.634 173.707 L 208.479 174.042 L 208.167 174.376 L 208.167 174.544 L 207.855 174.878 L 207.699 175.046 L 207.699 175.38 L 207.387 175.548 L 207.387 175.882 L 207.076 176.217 L 207.076 176.719 L 206.764 176.886 L 206.764 177.221 L 206.608 177.555 L 206.608 177.89 L 206.452 178.225 L 206.452 178.726 L 206.296 179.061 L 206.296 181.069 L 206.452 181.236 L 206.452 181.571 L 206.608 181.571 L 206.608 181.905 L 206.764 181.905 L 206.764 182.24 L 206.92 182.24 L 206.92 182.575 L 207.076 182.575 L 207.076 182.742 L 207.231 182.742 L 207.231 182.909 L 207.387 182.909 L 207.387 183.076 L 207.699 183.076 L 208.167 183.411 L 208.479 183.411 L 208.79 183.746 L 209.102 183.746 L 209.414 184.08 L 209.726 184.08 L 209.882 184.248 L 210.037 184.415 L 210.193 184.415 L 210.349 184.582 L 210.505 184.582 L 210.661 184.75 L 210.817 184.917 L 210.973 184.917 L 210.973 185.084 L 211.285 185.252 L 211.285 185.419 L 211.44 185.586 L 211.596 185.586 L 211.596 185.921 L 211.752 185.921 L 211.752 186.255 L 211.908 186.423 L 211.908 186.59 L 212.064 186.757 L 212.064 187.092 L 212.22 187.427 L 212.22 189.267 L 212.064 189.434 L 212.064 189.769 L 211.908 190.103 L 211.908 190.438 L 211.752 190.605 L 211.596 190.94 L 211.44 191.275 L 211.44 191.609 L 211.129 192.111 L 210.973 192.446 L 210.817 192.78 L 210.505 193.282 L 210.505 193.617 L 210.193 194.119 L 209.882 194.454 L 209.57 194.955 L 209.414 195.457 L 209.102 195.959 L 208.79 196.461 L 208.479 196.963 L 208.167 197.465 L 208.011 197.632 L 207.699 197.967 L 207.699 198.302 L 207.387 198.469 L 207.231 198.804 L 207.076 198.971 L 206.764 199.306 L 206.764 199.473 L 206.452 199.64 L 206.296 199.975 L 205.984 200.142 L 205.984 200.309 L 205.673 200.644 L 205.361 200.644 L 205.361 200.979 L 205.049 201.146 L 204.737 201.313 L 204.581 201.481 L 204.425 201.815 L 204.114 201.815 L 203.958 202.15 L 203.646 202.15 L 203.49 202.484 L 203.178 202.484 L 203.178 202.819 L 202.867 202.819 L 202.555 202.986 L 202.399 203.154 L 202.087 203.321 L 201.931 203.321 L 201.619 203.656 L 201.464 203.656 L 201.152 203.823 L 200.996 203.823 L 200.684 204.157 L 200.216 204.157 L 200.061 204.325 L 199.749 204.492 L 199.593 204.492 L 199.281 204.659 L 199.125 204.659 L 198.813 204.827 L 198.658 204.827 L 198.19 205.161 L 197.722 205.161 L 197.255 205.329 L 196.787 205.496 L 196.319 205.496 L 195.852 205.663 L 195.384 205.831 L 194.449 205.831 L 193.981 205.998 L 193.201 205.998 L 192.734 206.165 L 186.966 206.165 L 186.654 205.998 L 186.186 205.998 L 186.186 206.332 L 186.031 206.667 L 186.031 206.834 L 185.875 207.169 L 185.875 207.504 L 185.719 207.838 L 185.719 208.006 L 185.563 208.34 L 185.407 208.508 L 185.407 208.842 L 185.251 208.842 L 185.251 209.177 L 185.095 209.344 L 185.095 209.511 L 184.783 210.013 L 184.783 210.181 L 184.472 210.515 L 184.472 211.017 L 184.628 211.352 L 184.783 211.854 L 185.095 212.356 L 185.251 212.858 L 185.251 213.192 L 185.407 213.359 L 185.563 213.694 L 185.719 214.196 L 185.719 214.531 L 186.031 214.865 L 186.031 215.2 L 186.186 215.702 L 186.186 216.036 L 186.498 216.538 L 186.498 217.04 L 186.654 217.375 L 186.81 217.877 L 186.81 218.379 L 187.122 218.881 L 187.122 219.55 L 187.278 220.052 L 187.278 220.554 L 187.434 221.056 L 187.434 221.725 L 187.589 222.227 L 187.745 222.896 L 187.745 223.565 L 187.901 224.067 L 187.901 225.406 L 188.057 226.075 L 188.057 234.44 L 187.901 234.775 L 187.901 235.612 L 187.745 235.946 L 187.745 236.783 L 187.589 237.117 L 187.589 237.619 L 187.434 237.954 L 187.434 238.289 L 187.278 238.791 L 187.278 239.125 L 187.122 239.627 L 187.122 239.962 L 186.966 240.464 L 186.966 240.798 L 186.654 241.3 L 186.654 242.137 L 186.342 242.973 L 186.031 243.81 L 186.031 244.479 L 185.719 245.316 L 185.563 245.985 L 185.407 246.654 L 185.407 247.491 L 185.095 248.16 L 185.095 248.662 L 184.939 249.331 L 184.939 250 L 184.628 250.502 L 184.628 252.175 L 184.472 252.677 L 184.472 253.681 L 184.316 254.183 L 184.316 258.7 L 184.472 258.868 L 184.472 259.37 L 184.628 259.704 L 184.628 260.039 L 184.783 260.206 L 184.783 260.541 L 184.939 260.541 L 184.939 260.708 L 185.095 260.875 L 185.095 261.043 L 185.251 261.043 L 185.251 261.21 L 185.407 261.377 L 185.563 261.377 L 185.563 261.545 L 186.031 261.879 L 186.031 262.214 L 186.342 262.548 L 186.498 262.716 L 186.654 263.05 L 186.81 263.218 L 186.966 263.552 L 187.122 263.72 L 187.122 264.054 L 187.434 264.222 L 187.434 264.556 L 187.589 264.891 L 187.589 265.058 L 187.745 265.393 L 187.745 265.727 L 187.901 265.895 L 187.901 267.735 L 187.745 267.902 L 187.745 268.07 L 187.589 268.237 L 187.434 268.404 L 187.434 268.572 L 187.278 268.572 L 187.278 268.739 L 187.122 268.739 L 187.122 268.906 L 186.966 268.906 L 186.81 269.073 L 186.654 269.073 L 186.498 269.241 L 186.342 269.241 L 186.186 269.408 L 186.031 269.408 L 185.719 269.575 L 185.251 269.91 L 184.783 270.077 L 184.316 270.245 L 183.848 270.412 L 183.38 270.747 L 182.913 270.747 L 182.445 271.081 L 181.977 271.249 L 181.51 271.249 L 181.042 271.583 L 180.419 271.583 L 179.951 271.918 L 179.483 271.918 L 179.016 272.085 L 178.548 272.085 L 177.924 272.42 L 176.989 272.42 L 176.521 272.587 L 175.898 272.587 L 175.43 272.754 L 174.962 272.754 L 174.339 272.922 L 173.404 272.922 L 172.78 273.089 L 170.286 273.089 L 169.662 273.256 L 164.986 273.256 L 164.518 273.089 L 162.959 273.089 L 162.491 272.922 L 161.4 272.922 L 160.932 272.754 L 160.465 272.754 L 159.841 272.587 L 159.374 272.587 L 158.906 272.42 L 158.438 272.42 L 157.815 272.252 L 157.347 272.252 L 156.879 272.085 L 156.412 272.085 L 155.476 271.75 L 154.541 271.75 L 153.606 271.416 L 152.67 271.249 L 151.735 270.914 L 150.8 270.747 L 149.864 270.412 L 149.085 270.412 L 148.15 270.077 L 147.37 269.743 L 146.591 269.575 L 145.811 269.241 L 145.032 269.073 L 144.252 268.739 L 143.473 268.572 L 142.849 268.404 L 142.226 268.07 L 141.914 268.07 L 141.602 267.902 L 140.979 267.568 L 140.355 267.568 L 139.887 267.233 L 139.264 267.066 L 138.796 266.898 L 138.017 266.564 L 137.237 266.229 L 136.614 265.895 L 135.523 265.225 L 135.99 264.556 L 135.99 264.389 L 136.146 264.222 L 136.146 264.054 L 136.302 263.887 L 136.302 263.72 L 136.458 263.552 L 136.458 263.218 L 136.614 263.05 L 136.614 262.883 L 136.77 262.716 L 136.77 262.381 L 136.926 261.879 L 137.081 261.545 L 137.081 261.21 L 137.237 260.708 L 137.237 260.373 L 137.393 260.039 L 137.393 259.202 L 137.549 258.7 L 137.549 256.693 L 137.705 256.191 L 137.705 252.51 L 137.549 252.008 L 137.549 250.837 L 137.393 250.502 L 137.393 249.833 L 137.237 248.996 L 137.081 248.327 L 137.081 247.658 L 136.926 247.156 L 136.77 246.654 L 136.77 246.152 L 136.614 245.65 L 136.614 245.316 L 136.458 244.981 L 136.302 244.981 L 135.99 245.316 L 135.367 245.316 L 135.211 245.483 L 134.899 245.65 L 134.587 245.65 L 134.275 245.817 L 133.964 245.817 L 133.652 245.985 L 133.34 245.985 L 133.028 246.152 L 132.872 246.152 L 132.561 246.319 L 131.937 246.319 L 131.625 246.487 L 131.314 246.487 L 130.69 246.654 L 130.066 246.654 L 129.443 246.821 L 128.819 246.821 L 128.196 246.989 L 126.325 246.989 L 125.702 247.156 L 118.842 247.156 L 118.219 246.989 L 117.128 246.989 L 116.504 246.821 L 116.036 246.821 L 115.413 246.654 L 114.477 246.654 L 113.854 246.487 L 113.386 246.487 L 112.451 246.152 L 111.671 246.152 L 110.892 245.817 L 110.113 245.817 L 109.333 245.65 L 108.71 245.483 L 108.242 245.483 L 107.774 245.316 L 107.462 245.316 L 107.462 245.483 L 107.151 245.817 L 107.151 246.152 L 106.995 246.487 L 106.995 246.821 L 106.839 247.156 L 106.683 247.658 L 106.683 247.993 L 106.527 248.327 L 106.371 248.829 L 106.371 249.164 L 106.215 249.666 L 106.215 250 L 106.059 250.502 L 106.059 250.837 L 105.904 251.339 L 105.748 251.673 L 105.748 252.677 L 105.592 253.012 L 105.436 254.016 L 105.28 254.852 L 105.28 255.856 L 104.968 256.693 L 104.968 258.366 L 104.812 259.37 L 104.812 260.039 L 104.656 260.875 L 104.656 261.712 L 104.501 262.381 L 104.501 263.72 L 104.345 264.723 L 104.345 266.564 L 103.565 267.066 L 103.098 267.233 L 102.786 267.4 L 102.318 267.735 L 102.006 267.902 L 101.539 268.07 L 101.071 268.237 L 100.759 268.572 L 100.292 268.572 L 99.824 268.906 L 99.356 268.906 L 99.044 269.241 L 98.577 269.241 L 98.109 269.408 L 97.641 269.575 L 97.174 269.743 L 96.706 269.743 L 96.238 270.077 L 95.459 270.077 L 94.991 270.245 L 94.524 270.412 L 94.056 270.412 L 93.588 270.579 L 92.653 270.579 L 92.185 270.747 L 91.25 270.747 L 90.782 270.914 L 89.223 270.914 L 88.756 271.081 L 81.585 271.081 L 81.117 270.914 L 79.714 270.914 L 79.247 270.747 L 78.311 270.747 L 77.376 270.412 L 76.596 270.412 L 75.661 270.245 L 74.726 270.077 L 73.946 269.91 L 73.011 269.743 L 72.232 269.575 L 71.296 269.408 L 70.517 269.241 L 69.737 268.906 L 68.958 268.906 L 68.178 268.572 L 67.399 268.572 L 66.62 268.237 L 65.996 268.07 L 65.372 267.902 L 64.593 267.568 L 63.969 267.568 L 63.346 267.233 L 62.878 267.233 L 62.255 266.898 L 61.787 266.898 L 60.852 266.397 L 59.916 266.062 L 59.293 265.895 L 58.669 265.727 L 58.357 265.56 L 57.89 265.393 L 57.578 265.225 L 57.422 265.058 L 57.11 264.891 L 57.11 264.723 L 56.799 264.389 L 56.643 264.389 L 56.487 264.054 L 56.331 264.054 L 56.175 263.72 L 55.863 263.385 L 55.707 263.05 L 55.707 262.883 L 55.551 262.716 L 55.551 262.548 L 55.396 262.381 L 55.396 261.712 L 55.24 261.712 L 55.24 259.704 L 55.396 259.704 L 55.396 259.202 L 55.551 259.035 L 55.707 258.7 L 55.863 258.366 L 55.863 258.198 L 56.175 258.031 L 56.175 257.864 L 56.331 257.696 L 56.331 257.529 L 56.487 257.362 L 56.643 257.362 L 56.643 257.195 L 56.799 257.195 L 56.954 256.86 L 57.266 256.525 L 57.422 256.358 L 57.578 256.023 L 57.89 255.856 L 57.89 255.521 L 58.202 255.187 L 58.202 255.02 L 58.357 254.852 L 58.357 254.685 L 58.513 254.685 L 58.513 254.35 L 58.669 254.35 L 58.669 254.016 L 58.825 254.016 L 58.825 253.681 L 58.981 253.514 L 58.981 253.346 L 59.137 253.179 L 59.137 252.844 L 59.293 252.51 L 59.293 252.008 L 59.449 251.841 L 59.449 250.502 L 59.605 250.335 L 59.605 245.65 L 59.449 245.316 L 59.449 244.479 L 59.293 244.144 L 59.293 243.308 L 59.137 242.806 L 59.137 242.471 L 58.981 241.969 L 58.981 241.467 L 58.825 240.966 L 58.825 239.794 L 58.669 239.292 L 58.669 238.791 L 58.513 238.289 L 58.513 236.783 L 58.357 236.281 L 58.357 234.775 L 58.202 234.273 L 58.202 222.06 L 58.357 221.223 L 58.357 220.386 L 58.513 219.55 L 58.669 218.713 L 58.669 217.71 L 58.825 217.04 L 58.825 216.204 L 59.137 215.367 L 59.137 214.531 L 59.293 213.861 L 59.293 213.025 L 59.449 212.356 L 59.605 211.519 L 59.76 210.85 L 59.76 210.181 L 60.072 209.511 L 60.072 208.842 L 60.228 208.173 L 60.384 207.504 L 60.54 207.002 L 60.54 206.332 L 60.852 205.831 L 60.852 205.329 L 61.163 204.325 L 61.319 203.321 L 61.631 202.484 L 61.631 201.815 L 61.943 201.146 L 61.943 200.644 L 62.255 200.309 L 62.255 199.975 L 61.943 199.64 L 61.943 199.473 L 61.631 199.138 L 61.319 198.804 L 61.319 198.469 L 61.008 198.134 L 60.852 197.967 L 60.696 197.632 L 60.54 197.298 L 60.384 196.963 L 60.228 196.629 L 60.072 196.461 L 59.916 196.127 L 59.916 195.792 L 59.605 195.625 L 59.605 195.29 L 59.449 194.955 L 59.449 194.788 L 59.137 194.454 L 59.137 193.952 L 58.981 193.617 L 58.981 193.45 L 58.825 193.115 L 58.825 192.948 L 58.669 192.613 L 58.669 192.446 L 58.513 192.279 L 58.513 191.609 L 58.202 191.107 L 58.202 189.267 L 58.046 188.932 L 58.046 188.096 L 57.89 187.928 L 57.266 187.594 L 56.799 187.259 L 56.331 186.757 L 55.863 186.423 L 55.396 186.088 L 54.928 185.586 L 54.304 185.252 L 53.837 184.917 L 53.369 184.415 L 52.901 184.08 L 52.434 183.578 L 52.122 183.244 L 51.654 182.742 L 51.187 182.24 L 50.719 181.905 L 50.251 181.403 L 49.939 180.901 L 49.472 180.567 L 49.004 180.065 L 48.692 179.563 L 48.225 179.061 L 48.225 178.559 L 47.757 178.559 L 47.757 178.225 L 47.601 178.057 L 47.445 177.723 L 47.133 177.555 L 47.133 177.221 L 46.822 177.053 L 46.822 176.719 L 46.51 176.551 L 46.51 176.217 L 46.198 175.882 L 46.042 175.715 L 46.042 175.213 L 45.73 175.046 L 45.73 174.711 L 45.419 174.376 L 45.419 174.209 L 45.107 173.874 L 45.107 173.54 L 44.951 173.373 L 44.795 173.038 L 44.639 172.703 L 44.639 172.369 L 44.327 172.201 L 44.327 171.867 L 44.172 171.532 L 44.172 171.198 L 44.016 170.863 L 43.86 170.696 L 43.86 170.361 L 43.704 170.026 L 43.704 169.692 L 43.392 169.357 L 43.392 168.688 L 43.08 168.521 L 43.08 168.019 L 42.924 167.684 L 42.924 167.349 L 42.769 167.015 L 42.769 166.346 L 42.613 166.011 L 42.613 164.505 L 42.457 164.171 L 42.457 159.486 L 42.613 158.984 L 42.613 158.482 L 42.769 157.98 L 42.769 157.311 L 42.924 156.809 L 42.924 156.474 L 43.08 156.14 L 43.08 155.638 L 43.548 155.136 L 43.704 154.634 L 43.704 154.299 L 43.86 153.797 L 44.016 153.463 L 44.172 152.961 L 44.172 152.626 L 44.483 152.124 L 44.483 151.79 L 44.639 151.288 L 44.795 150.786 L 45.107 150.284 L 45.263 149.615 L 45.575 149.113 L 45.73 148.611 L 46.042 147.942 L 46.198 147.44 L 46.51 146.938 L 46.666 146.268 L 46.978 145.767 L 47.289 145.265 L 47.601 144.763 L 47.757 144.261 L 48.069 143.759 L 48.381 143.257 L 48.692 142.755 L 49.004 142.253 L 49.316 141.751 L 49.628 141.249 L 49.939 140.747 L 50.251 140.413 L 50.563 139.911 L 50.875 139.409 L 51.187 138.907 L 51.498 138.572 L 51.81 138.07 L 52.122 137.736 L 52.434 137.234 L 52.745 136.899 L 53.213 136.397 L 53.525 136.063 L 53.837 135.728 L 54.148 135.393 L 54.46 134.891 L 54.772 134.557 L 55.24 134.222 L 55.551 133.888 L 55.863 133.553 L 56.175 133.218 L 56.487 132.884 L 56.954 132.549 L 57.266 132.214 L 57.578 131.88 L 57.89 131.545 L 58.202 131.211 L 58.513 130.876 L 58.825 130.709 L 59.293 130.374 L 59.605 130.039 L 59.916 129.872 L 60.228 129.538 L 60.54 129.203 L 60.852 129.036 L 61.475 128.534 L 62.099 128.032 L 62.722 127.697 L 63.19 127.195 L 62.878 127.195 L 62.566 127.028 L 62.411 126.861 L 62.099 126.693 L 61.787 126.693 L 61.631 126.359 L 61.319 126.359 L 61.008 126.024 L 60.852 126.024 L 60.54 125.689 L 60.228 125.689 L 59.916 125.355 L 59.76 125.355 L 59.449 125.02 L 59.293 124.853 L 59.137 124.686 L 58.825 124.518 L 58.825 124.184 L 58.513 124.184 L 58.357 123.849 L 58.202 123.682 L 58.046 123.347 L 57.89 123.18 L 57.734 123.012 L 57.734 122.678 L 57.422 122.511 L 57.422 122.009 L 57.11 122.009 L 57.11 120.335 L 57.266 120.335 L 57.266 120.168 L 57.422 120.001 L 57.578 120.001 L 57.578 119.834 L 57.734 119.834 L 57.89 119.666 L 58.046 119.499 L 58.202 119.332 L 58.357 119.164 L 58.669 119.164 L 58.825 118.83 L 58.981 118.83 L 59.293 118.662 L 59.449 118.495 L 59.76 118.495 L 58.981 118.495 L 58.357 118.328 L 57.11 118.328 L 56.487 118.16 L 55.863 118.16 L 55.24 117.993 L 54.616 117.993 L 53.993 117.826 L 53.369 117.826 L 53.057 117.659 L 52.434 117.659 L 52.122 117.491 L 51.81 117.491 L 51.654 117.324 L 51.342 117.157 L 51.187 117.157 L 50.875 116.989 L 50.719 116.655 L 50.407 116.655 L 50.407 116.487 L 50.251 116.487 L 50.251 116.32 L 50.095 116.32 L 50.095 116.153 L 49.939 116.153 L 49.939 115.985 L 49.784 115.818 L 49.784 115.484 L 49.628 115.316 L 49.628 114.145 L 49.784 113.81 L 49.939 113.643 L 49.939 113.309 L 50.095 113.141 L 50.251 112.974 L 50.407 112.639 L 50.563 112.639 L 50.563 112.472 L 50.719 112.472 L 50.875 112.137 L 51.031 112.137 L 51.187 111.803 L 51.498 111.635 L 51.81 111.468 L 51.966 111.301 L 52.122 111.133 L 52.434 110.966 L 52.745 110.632 L 52.901 110.632 L 53.213 110.464 L 64.125 110.464 L 63.969 109.962 L 63.814 109.293 L 63.814 108.624 L 63.346 108.289 L 63.346 106.114 L 63.19 105.445 L 63.19 103.939 L 63.034 103.103 L 63.034 102.266 L 62.878 101.597 L 62.878 100.258 L 62.566 100.091 L 62.566 99.924 L 62.255 99.756 L 61.787 99.756 L 61.631 99.422 L 61.319 99.422 L 61.008 99.255 L 60.852 99.087 L 60.54 98.92 L 60.228 98.753 L 59.916 98.418 L 59.605 98.418 L 59.293 98.251 L 58.981 98.083 L 58.669 98.083 L 58.357 97.916 L 58.046 97.749 L 57.734 97.581 L 57.422 97.581 L 57.11 97.414 L 56.799 97.247 L 56.487 97.247 L 56.175 97.08 L 55.863 96.912 L 55.084 96.745 L 54.46 96.41 L 53.681 96.243 L 53.057 96.076 L 52.278 95.908 L 51.498 95.741 L 50.719 95.574 L 50.095 95.406 L 49.316 95.239 L 48.536 95.072 L 47.757 94.904 L 46.978 94.904 L 46.198 94.57 L 45.419 94.57 L 44.639 94.403 L 43.86 94.403 L 43.08 94.235 L 42.301 94.235 L 39.339 93.733 L 42.924 92.06 L 43.704 91.558 L 44.327 91.224 L 44.951 90.889 L 45.575 90.554 L 46.198 90.22 L 46.354 90.053 L 46.666 89.885 L 46.978 89.718 L 47.289 89.551 L 47.445 89.383 L 47.757 89.216 L 47.913 89.049 L 48.225 88.881 L 48.381 88.714 L 48.536 88.547 L 48.848 88.379 L 49.004 88.212 L 49.16 88.045 L 49.316 87.877 L 49.472 87.71 L 49.784 87.543 L 49.784 87.376 L 50.095 87.208 L 50.095 87.041 L 50.251 86.874 L 50.407 86.706 L 50.563 86.539 L 50.719 86.372 L 50.719 86.037 L 50.875 86.037 L 51.031 85.702 L 51.031 85.535 L 51.187 85.368 L 51.342 85.033 L 51.498 84.699 L 51.498 84.364 L 51.654 84.197 L 51.654 83.695 L 51.81 83.527 L 51.81 83.193 L 51.966 82.858 L 51.966 81.854 L 52.122 81.52 L 52.122 77.672 L 51.966 77.337 L 51.966 77.002 L 51.81 76.835 L 51.81 76.5 L 51.654 76.5 L 51.654 76.166 L 51.498 75.999 L 51.498 75.831 L 51.342 75.831 L 51.342 75.497 L 51.187 75.497 L 51.187 75.329 L 50.875 75.329 L 50.875 74.995 L 50.719 74.827 L 50.563 74.66 L 50.407 74.493 L 50.251 74.325 L 50.095 74.158 L 49.939 73.991 L 49.628 73.824 L 49.316 73.489 L 49.004 73.154 L 48.848 73.154 L 48.536 72.82 L 48.225 72.82 L 47.757 72.485 L 47.445 72.318 L 47.133 72.15 L 46.822 71.983 L 46.51 71.983 L 46.198 71.648 L 45.73 71.648 L 45.263 71.481 L 44.639 71.481 L 44.327 71.314 L 44.016 71.314 L 43.86 71.147 L 43.08 71.147 L 42.613 70.812 L 41.677 70.812 L 41.21 70.645 L 40.43 70.645 L 40.274 70.477 L 39.963 70.477 L 35.598 69.975 L 40.118 68.972 L 40.898 68.972 L 41.054 68.804 L 41.366 68.804 L 41.677 68.637 L 41.833 68.47 L 42.145 68.47 L 42.301 68.302 L 42.613 68.302 L 42.769 67.968 L 43.08 67.968 L 43.236 67.8 L 43.548 67.8 L 43.704 67.633 L 44.016 67.466 L 44.016 67.298 L 44.327 67.298 L 44.639 66.964 L 44.951 66.797 L 45.107 66.629 L 45.419 66.462 L 45.419 66.295 L 45.73 66.127 L 45.886 65.96 L 46.042 65.793 L 46.354 65.625 L 46.354 65.458 L 46.666 65.291 L 46.666 65.123 L 46.978 64.956 L 47.133 64.789 L 47.289 64.621 L 47.445 64.454 L 47.601 64.12 L 47.757 64.12 L 47.757 63.785 L 48.069 63.618 L 48.069 63.45 L 48.381 63.283 L 48.381 63.116 L 48.536 62.781 L 48.692 62.781 L 48.848 62.446 L 48.848 62.279 L 49.16 62.112 L 49.316 61.61 L 49.628 61.275 L 49.784 60.773 L 50.095 60.439 L 50.095 59.77 L 50.407 59.435 L 50.563 58.933 L 50.719 58.598 L 50.875 58.096 L 51.031 57.762 L 51.187 57.26 L 51.342 56.925 L 51.498 56.591 L 51.654 56.089 L 51.654 55.754 L 51.81 55.419 L 51.966 54.918 L 51.966 54.75 L 52.122 54.416 L 52.122 54.081 L 52.278 53.746 L 52.278 53.412 L 52.434 53.077 L 52.434 52.743 L 52.59 52.241 L 52.59 51.739 L 52.745 51.237 L 52.745 50.568 L 52.901 50.4 L 53.369 45.381 L 54.148 50.4 L 54.148 50.735 L 54.304 51.069 L 54.304 51.404 L 54.46 51.739 L 54.46 52.073 L 54.616 52.408 L 54.772 52.743 L 54.928 53.077 L 54.928 53.579 L 55.084 53.579 L 55.084 53.914 L 55.24 54.081 L 55.396 54.248 L 55.396 54.75 L 55.551 54.75 L 55.551 55.085 L 55.707 55.252 L 55.863 55.419 L 55.863 55.754 L 56.175 55.754 L 56.175 56.089 L 56.331 56.256 L 56.487 56.591 L 56.799 56.925 L 56.799 57.093 L 57.11 57.26 L 57.11 57.594 L 57.422 57.594 L 57.422 57.929 L 57.734 58.096 L 57.734 58.264 L 58.046 58.598 L 58.202 58.598 L 58.357 58.933 L 58.513 58.933 L 58.825 59.268 L 58.981 59.435 L 59.137 59.602 L 59.449 59.77 L 59.605 59.937 L 59.916 60.271 L 60.072 60.271 L 60.384 60.606 L 60.54 60.606 L 60.852 60.941 L 61.008 60.941 L 61.319 61.108 L 61.631 61.275 L 61.943 61.443 L 62.099 61.61 L 62.411 61.61 L 62.722 61.945 L 63.346 61.945 L 63.346 62.112 L 63.969 62.112 L 64.281 62.279 L 65.684 62.279 L 65.84 62.112 L 66.152 62.112 L 66.308 61.945 L 66.464 61.945 L 66.464 61.443 L 66.62 61.443 L 66.775 61.275 L 66.931 61.275 L 67.243 60.941 L 67.555 60.606 L 67.711 60.606 L 67.867 60.271 L 68.023 60.104 L 68.178 59.937 L 68.334 59.77 L 68.49 59.435 L 68.646 59.268 L 68.802 59.1 L 68.958 58.766 L 69.114 58.598 L 69.27 58.264 L 69.426 58.096 L 69.426 57.762 L 69.737 57.594 L 69.737 57.26 L 69.893 57.093 L 69.893 56.758 L 70.205 56.591 L 70.205 56.089 L 70.361 55.921 L 70.673 55.419 L 70.673 54.918 L 70.984 54.75 L 70.984 54.248 L 71.14 53.914 L 71.14 53.746 L 71.296 53.412 L 71.296 53.077 L 72.076 50.568 L 72.855 53.412 L 72.855 54.081 L 73.167 54.75 L 73.323 55.252 L 73.479 55.754 L 73.79 56.256 L 73.79 56.758 L 74.102 57.26 L 74.258 57.762 L 74.57 58.264 L 74.726 58.766 L 75.038 59.1 L 75.193 59.602 L 75.349 59.937 L 75.661 60.271 L 75.817 60.773 L 75.973 61.108 L 76.285 61.443 L 76.441 61.777 L 76.752 62.112 L 76.908 62.279 L 77.064 62.614 L 77.376 62.948 L 77.532 63.116 L 77.688 63.45 L 77.999 63.618 L 77.999 63.952 L 78.311 63.952 L 78.467 64.287 L 78.623 64.454 L 79.247 63.952 L 79.714 63.618 L 80.338 63.116 L 80.805 62.781 L 81.273 62.446 L 81.741 62.112 L 82.208 61.777 L 82.676 61.443 L 83.144 61.108 L 83.611 60.773 L 83.923 60.439 L 84.391 60.271 L 84.703 59.937 L 85.17 59.77 L 85.482 59.435 L 85.794 59.435 L 86.262 59.1 L 86.573 58.933 L 86.885 58.766 L 87.353 58.431 L 87.82 58.264 L 88.132 58.096 L 87.976 57.594 L 87.82 57.093 L 87.509 56.423 L 87.509 55.921 L 87.197 55.587 L 87.197 55.085 L 86.885 54.583 L 86.885 54.081 L 86.573 53.579 L 86.573 53.077 L 86.262 52.408 L 86.262 51.906 L 86.106 51.237 L 85.95 50.735 L 85.794 50.066 L 85.638 49.396 L 85.482 48.727 L 85.482 48.058 L 85.17 47.389 L 85.17 46.05 L 85.014 45.716 L 85.014 45.046 L 84.859 44.712 L 84.859 42.871 L 84.703 42.537 L 84.703 38.019 L 84.859 37.685 L 84.859 37.183 L 85.014 36.681 L 85.014 36.012 L 85.17 35.677 L 85.17 35.008 L 85.326 34.673 L 85.326 34.339 L 85.482 34.004 L 85.638 33.669 L 85.794 33.335 L 85.794 33 L 86.106 32.665 L 86.106 32.331 L 86.417 31.996 L 86.417 31.829 L 86.729 31.327 L 86.729 31.16 L 87.041 30.825 L 87.197 30.49 L 87.509 30.323 L 87.509 29.988 L 87.976 29.654 L 88.288 29.654 L 88.288 29.152 L 88.6 28.817 L 88.756 28.65 L 89.068 28.315 L 89.379 28.148 L 89.691 27.813 L 89.847 27.646 L 90.159 27.479 L 90.471 27.144 L 90.782 27.144 L 91.406 26.642 L 91.874 26.308 L 92.185 25.973 L 92.653 25.973 L 92.965 25.638 L 93.277 25.638 L 93.744 25.471 L 94.212 25.304 L 94.991 25.304 L 95.459 24.969 L 96.238 24.969 L 96.706 24.635 L 97.953 24.635 L 98.421 24.467 L 99.668 24.467 L 99.98 24.3 L 101.85 24.3 Z  M 77.688 65.458 L 77.532 65.291 L 77.376 65.123 L 77.064 64.789 L 76.908 64.621 L 76.596 64.287 L 76.441 64.12 L 76.285 63.785 L 75.973 63.45 L 75.817 63.116 L 75.505 62.781 L 75.349 62.446 L 75.038 62.112 L 74.882 61.777 L 74.57 61.443 L 74.414 61.108 L 74.258 60.606 L 73.946 60.271 L 73.79 59.77 L 73.479 59.268 L 73.323 58.766 L 73.011 58.431 L 72.855 57.929 L 72.699 57.26 L 72.387 56.758 L 72.232 56.256 L 72.076 55.754 L 71.92 55.252 L 71.92 55.587 L 71.608 56.089 L 71.452 56.591 L 71.452 56.758 L 71.296 57.093 L 71.14 57.26 L 71.14 57.594 L 70.829 57.929 L 70.829 58.096 L 70.673 58.431 L 70.517 58.598 L 70.361 58.933 L 70.205 59.1 L 70.205 59.435 L 69.893 59.77 L 69.737 59.937 L 69.581 60.271 L 69.426 60.439 L 69.27 60.773 L 69.114 60.941 L 68.802 61.108 L 68.646 61.443 L 68.49 61.61 L 68.178 61.777 L 68.023 62.112 L 67.867 62.112 L 67.555 62.446 L 67.243 62.446 L 67.243 62.614 L 67.087 62.614 L 67.087 62.781 L 66.775 62.781 L 66.775 62.948 L 66.464 62.948 L 66.308 63.116 L 66.152 63.116 L 65.84 63.283 L 65.217 63.283 L 65.217 63.45 L 63.346 63.45 L 63.034 63.283 L 62.722 63.283 L 62.722 63.116 L 62.411 63.116 L 61.943 62.781 L 61.631 62.781 L 61.319 62.446 L 61.008 62.446 L 60.696 62.112 L 60.54 62.112 L 60.228 61.777 L 59.916 61.777 L 59.605 61.443 L 59.449 61.443 L 59.137 61.108 L 58.825 60.941 L 58.669 60.773 L 58.357 60.606 L 58.202 60.271 L 58.046 60.271 L 57.734 59.937 L 57.578 59.77 L 57.422 59.435 L 57.11 59.435 L 56.954 59.1 L 56.799 58.933 L 56.643 58.598 L 56.487 58.431 L 56.175 58.264 L 56.175 57.929 L 55.863 57.762 L 55.863 57.594 L 55.551 57.26 L 55.551 57.093 L 55.396 56.925 L 55.24 56.591 L 55.084 56.423 L 55.084 56.256 L 54.772 55.921 L 54.772 55.754 L 54.616 55.587 L 54.616 55.252 L 54.46 55.085 L 54.304 54.918 L 54.304 54.583 L 53.993 54.583 L 53.993 54.248 L 53.837 54.081 L 53.681 53.579 L 53.681 53.412 L 53.525 53.746 L 53.525 54.081 L 53.369 54.416 L 53.369 54.75 L 53.213 55.085 L 53.057 55.587 L 53.057 55.921 L 52.745 56.256 L 52.745 56.758 L 52.59 57.093 L 52.434 57.594 L 52.278 57.929 L 52.122 58.431 L 51.966 58.766 L 51.81 59.268 L 51.654 59.77 L 51.342 60.104 L 51.187 60.606 L 51.031 60.941 L 50.719 61.443 L 50.563 61.945 L 50.251 62.279 L 49.939 62.781 L 49.939 62.948 L 49.784 63.116 L 49.628 63.45 L 49.472 63.618 L 49.316 63.785 L 49.16 64.12 L 48.848 64.454 L 48.848 64.621 L 48.536 64.789 L 48.381 65.123 L 48.225 65.123 L 48.069 65.458 L 47.913 65.625 L 47.757 65.793 L 47.601 66.127 L 47.289 66.127 L 47.289 66.462 L 46.978 66.462 L 46.822 66.797 L 46.51 66.964 L 46.51 67.131 L 46.198 67.298 L 46.042 67.466 L 45.73 67.633 L 45.575 67.8 L 45.263 67.968 L 45.107 68.135 L 44.951 68.135 L 44.639 68.47 L 44.327 68.804 L 44.172 68.804 L 43.86 68.972 L 43.548 68.972 L 43.392 69.306 L 43.08 69.306 L 42.769 69.473 L 43.08 69.473 L 43.548 69.641 L 43.86 69.641 L 44.172 69.808 L 44.327 69.808 L 44.639 69.975 L 44.951 69.975 L 45.263 70.143 L 45.575 70.143 L 45.886 70.477 L 46.198 70.477 L 46.51 70.645 L 46.822 70.645 L 47.133 70.979 L 47.445 70.979 L 47.757 71.147 L 48.069 71.314 L 48.381 71.481 L 48.692 71.648 L 49.004 71.816 L 49.316 71.983 L 49.628 72.318 L 49.784 72.318 L 50.095 72.652 L 50.407 72.82 L 50.719 73.154 L 50.875 73.322 L 51.031 73.322 L 51.031 73.656 L 51.342 73.656 L 51.342 73.824 L 51.498 73.824 L 51.498 74.158 L 51.81 74.158 L 51.81 74.325 L 51.966 74.493 L 51.966 74.66 L 52.122 74.827 L 52.278 74.995 L 52.434 75.329 L 52.59 75.664 L 52.745 75.999 L 52.901 76.333 L 53.057 76.668 L 53.057 77.002 L 53.213 77.17 L 53.213 77.672 L 53.369 78.006 L 53.369 82.858 L 53.213 83.193 L 53.213 83.695 L 53.057 84.029 L 53.057 84.364 L 52.901 84.531 L 52.901 84.866 L 52.745 85.201 L 52.59 85.368 L 52.59 85.702 L 52.434 85.87 L 52.278 86.204 L 52.278 86.372 L 51.966 86.539 L 51.966 86.874 L 51.81 87.041 L 51.654 87.208 L 51.498 87.543 L 51.342 87.543 L 51.187 87.877 L 50.875 88.212 L 50.563 88.547 L 50.251 88.881 L 50.095 89.049 L 49.784 89.216 L 49.628 89.383 L 49.472 89.551 L 49.16 89.718 L 49.004 89.885 L 48.692 90.053 L 48.536 90.387 L 48.225 90.387 L 47.913 90.722 L 47.757 90.722 L 47.445 91.056 L 47.133 91.056 L 46.978 91.391 L 46.666 91.391 L 46.042 91.893 L 45.419 92.228 L 44.795 92.562 L 44.016 92.897 L 43.704 93.064 L 43.86 93.064 L 44.639 93.231 L 45.419 93.231 L 46.198 93.399 L 46.978 93.566 L 47.757 93.733 L 48.536 93.733 L 49.316 94.068 L 50.095 94.068 L 50.875 94.403 L 51.654 94.403 L 52.434 94.737 L 53.213 94.904 L 53.837 95.072 L 54.616 95.239 L 55.396 95.574 L 56.019 95.741 L 56.331 95.741 L 56.799 95.908 L 57.11 96.076 L 57.422 96.243 L 57.734 96.243 L 58.046 96.41 L 58.357 96.578 L 58.669 96.745 L 58.981 96.745 L 59.293 97.08 L 59.605 97.08 L 59.916 97.247 L 60.228 97.414 L 60.54 97.414 L 60.852 97.749 L 61.163 97.749 L 61.319 97.916 L 61.631 98.083 L 61.943 98.251 L 62.255 98.418 L 62.411 98.585 L 62.722 98.753 L 62.878 98.92 L 63.19 99.087 L 63.346 99.255 L 63.814 99.589 L 63.814 100.76 L 63.969 101.597 L 63.969 103.103 L 64.125 103.939 L 64.125 105.445 L 64.281 106.114 L 64.281 106.783 L 64.437 107.453 L 64.437 108.122 L 64.593 108.791 L 64.593 109.46 L 64.905 110.13 L 64.905 110.632 L 65.217 112.137 L 52.901 112.137 L 52.901 112.305 L 52.59 112.472 L 52.434 112.639 L 52.122 112.807 L 52.122 112.974 L 51.81 113.141 L 51.498 113.476 L 51.342 113.643 L 51.187 113.81 L 51.031 113.978 L 50.875 114.145 L 50.875 114.647 L 50.719 114.647 L 50.719 115.484 L 50.875 115.484 L 51.031 115.651 L 51.342 115.818 L 51.654 115.985 L 51.966 116.153 L 52.434 116.153 L 52.745 116.32 L 53.057 116.32 L 53.369 116.487 L 53.681 116.487 L 54.304 116.655 L 54.928 116.655 L 55.551 116.822 L 56.799 116.822 L 57.422 116.989 L 58.513 116.989 L 59.137 117.157 L 60.852 117.157 L 61.475 117.324 L 62.566 117.324 L 66.931 117.491 L 62.722 118.83 L 62.411 118.83 L 62.099 118.997 L 61.943 118.997 L 61.631 119.164 L 61.319 119.332 L 61.163 119.332 L 60.852 119.499 L 60.696 119.499 L 60.384 119.834 L 60.228 119.834 L 59.916 120.168 L 59.605 120.168 L 59.449 120.503 L 59.293 120.503 L 59.293 120.67 L 58.669 120.67 L 58.669 120.837 L 58.513 121.005 L 58.513 121.172 L 58.357 121.172 L 58.357 122.009 L 58.513 122.176 L 58.513 122.343 L 58.669 122.511 L 58.825 122.678 L 58.981 122.845 L 58.981 123.18 L 59.293 123.18 L 59.293 123.514 L 59.605 123.514 L 59.76 123.849 L 59.916 123.849 L 60.072 124.184 L 60.384 124.184 L 60.384 124.518 L 60.696 124.518 L 61.008 124.853 L 61.163 124.853 L 61.475 125.02 L 61.475 125.187 L 61.787 125.355 L 62.099 125.522 L 62.255 125.522 L 62.566 125.689 L 62.878 125.857 L 63.034 125.857 L 63.346 126.024 L 63.502 126.191 L 63.814 126.191 L 63.969 126.359 L 64.281 126.359 L 65.84 126.861 L 64.281 128.032 L 63.658 128.534 L 63.034 128.868 L 62.566 129.37 L 61.943 129.705 L 61.319 130.207 L 61.008 130.541 L 60.696 130.709 L 60.384 131.043 L 60.072 131.211 L 59.76 131.545 L 59.449 131.88 L 59.137 132.047 L 58.669 132.382 L 58.357 132.716 L 58.046 133.051 L 57.734 133.386 L 57.422 133.553 L 57.11 133.888 L 56.799 134.222 L 56.487 134.557 L 56.019 134.891 L 55.707 135.393 L 55.396 135.728 L 55.084 136.063 L 54.772 136.397 L 54.46 136.732 L 54.148 137.066 L 53.837 137.568 L 53.369 137.903 L 53.057 138.238 L 52.745 138.74 L 52.434 139.074 L 52.122 139.576 L 51.81 139.911 L 51.498 140.413 L 51.187 140.915 L 50.875 141.249 L 50.563 141.751 L 50.251 142.253 L 49.939 142.588 L 49.784 143.09 L 49.472 143.591 L 49.16 144.093 L 48.848 144.595 L 48.536 145.097 L 48.381 145.599 L 48.069 146.101 L 47.757 146.603 L 47.757 146.77 L 47.445 147.272 L 47.133 147.774 L 46.978 148.276 L 46.666 148.945 L 46.51 149.447 L 46.354 149.949 L 46.042 150.618 L 45.886 151.12 L 45.73 151.622 L 45.73 151.957 L 45.419 152.459 L 45.419 152.794 L 45.263 153.295 L 45.107 153.63 L 45.107 153.965 L 44.951 154.467 L 44.795 154.801 L 44.795 155.303 L 44.639 155.638 L 44.639 155.972 L 44.483 156.474 L 44.483 156.809 L 44.327 157.144 L 44.327 157.478 L 44.172 157.98 L 44.172 158.649 L 44.016 158.984 L 44.016 160.657 L 43.86 160.992 L 43.86 165.676 L 44.016 166.011 L 44.016 166.68 L 44.172 167.015 L 44.172 167.684 L 44.327 168.019 L 44.327 168.186 L 44.483 168.521 L 44.483 168.855 L 44.639 169.19 L 44.639 169.524 L 44.795 169.692 L 44.795 170.026 L 45.107 170.361 L 45.107 170.863 L 45.263 171.198 L 45.419 171.532 L 45.419 171.699 L 45.73 172.034 L 45.73 172.369 L 45.886 172.536 L 45.886 172.871 L 46.198 173.205 L 46.198 173.373 L 46.354 173.707 L 46.51 173.874 L 46.666 174.209 L 46.822 174.376 L 46.822 174.711 L 47.133 175.046 L 47.133 175.213 L 47.445 175.548 L 47.445 175.715 L 47.757 176.05 L 47.757 176.217 L 48.069 176.551 L 48.069 176.719 L 48.381 177.053 L 48.536 177.221 L 48.692 177.388 L 48.848 177.723 L 49.16 177.89 L 49.16 178.225 L 49.628 178.726 L 50.095 179.061 L 50.407 179.563 L 50.875 180.065 L 51.187 180.4 L 51.654 180.901 L 51.966 181.403 L 52.434 181.738 L 52.901 182.24 L 53.369 182.575 L 53.837 183.076 L 54.304 183.411 L 54.772 183.746 L 55.084 184.248 L 55.551 184.582 L 56.175 184.917 L 56.643 185.252 L 57.11 185.753 L 57.578 186.088 L 58.046 186.423 L 58.513 186.757 L 59.293 187.427 L 59.293 190.103 L 59.449 190.438 L 59.449 191.275 L 59.605 191.609 L 59.605 191.944 L 59.76 191.944 L 59.76 192.446 L 59.916 192.78 L 59.916 192.948 L 60.072 193.282 L 60.072 193.45 L 60.228 193.784 L 60.228 193.952 L 60.54 194.286 L 60.54 194.788 L 60.852 194.955 L 60.852 195.29 L 61.008 195.457 L 61.008 195.792 L 61.319 196.127 L 61.319 196.294 L 61.631 196.629 L 61.631 196.963 L 61.943 197.13 L 61.943 197.465 L 62.255 197.8 L 62.411 197.967 L 62.566 198.302 L 62.878 198.636 L 62.878 198.971 L 63.19 199.138 L 63.658 199.807 L 63.502 200.309 L 63.502 200.644 L 63.346 200.979 L 63.19 201.481 L 63.034 202.15 L 62.722 202.819 L 62.566 203.656 L 62.411 204.659 L 62.099 205.663 L 62.099 206.165 L 61.943 206.667 L 61.787 207.169 L 61.631 207.838 L 61.631 208.508 L 61.319 209.009 L 61.319 209.679 L 61.163 210.348 L 61.008 211.017 L 61.008 211.854 L 60.696 212.523 L 60.696 213.192 L 60.54 214.029 L 60.54 214.698 L 60.384 215.535 L 60.228 216.371 L 60.228 217.04 L 60.072 217.877 L 59.916 218.713 L 59.916 219.55 L 59.76 220.554 L 59.76 221.39 L 59.605 222.227 L 59.605 224.067 L 59.449 224.904 L 59.449 236.448 L 59.605 236.95 L 59.605 238.289 L 59.76 238.791 L 59.76 239.292 L 59.916 239.794 L 59.916 240.798 L 60.072 241.3 L 60.072 241.802 L 60.228 242.304 L 60.228 242.806 L 60.384 243.308 L 60.384 244.144 L 60.54 244.479 L 60.54 245.316 L 60.696 245.65 L 60.696 247.156 L 60.852 247.491 L 60.852 251.841 L 60.696 252.008 L 60.696 252.51 L 60.54 252.677 L 60.54 253.179 L 60.228 253.179 L 60.228 253.681 L 60.072 253.848 L 60.072 254.183 L 59.916 254.183 L 59.916 254.518 L 59.76 254.518 L 59.76 254.852 L 59.605 254.852 L 59.605 255.187 L 59.449 255.187 L 59.449 255.521 L 59.293 255.521 L 59.137 256.023 L 58.825 256.191 L 58.669 256.525 L 58.513 256.86 L 58.202 257.195 L 58.046 257.362 L 57.89 257.696 L 57.578 258.031 L 57.422 258.031 L 57.422 258.198 L 57.266 258.366 L 57.11 258.533 L 57.11 258.7 L 56.954 258.868 L 56.799 259.035 L 56.799 259.202 L 56.643 259.37 L 56.643 259.704 L 56.487 259.871 L 56.487 260.206 L 56.331 260.373 L 56.331 261.879 L 56.487 262.047 L 56.487 262.381 L 56.643 262.381 L 56.643 262.716 L 56.954 262.716 L 56.954 263.05 L 57.266 263.05 L 57.266 263.385 L 57.422 263.385 L 57.578 263.552 L 57.734 263.72 L 58.046 263.887 L 58.046 264.054 L 58.357 264.054 L 58.513 264.222 L 58.981 264.389 L 59.449 264.556 L 60.228 264.891 L 61.008 265.058 L 61.943 265.393 L 62.566 265.56 L 63.034 265.727 L 63.658 266.062 L 64.281 266.062 L 64.905 266.397 L 65.528 266.397 L 66.152 266.731 L 66.775 266.898 L 67.555 267.066 L 68.334 267.233 L 69.114 267.568 L 69.893 267.568 L 70.673 267.902 L 71.452 267.902 L 72.232 268.237 L 73.167 268.404 L 73.946 268.404 L 74.882 268.739 L 75.661 268.739 L 76.596 269.073 L 77.532 269.073 L 78.311 269.241 L 79.247 269.241 L 79.714 269.408 L 80.65 269.408 L 81.117 269.575 L 83.456 269.575 L 83.923 269.743 L 90.626 269.743 L 91.094 269.575 L 92.029 269.575 L 92.497 269.408 L 93.432 269.408 L 93.744 269.241 L 94.212 269.241 L 94.68 269.073 L 95.147 268.906 L 95.615 268.906 L 96.083 268.739 L 96.394 268.739 L 96.862 268.404 L 97.33 268.404 L 97.797 268.237 L 98.109 268.07 L 98.577 268.07 L 99.044 267.735 L 99.356 267.735 L 99.824 267.4 L 100.292 267.4 L 100.603 267.066 L 101.071 266.898 L 101.383 266.731 L 101.85 266.564 L 102.162 266.229 L 102.63 266.062 L 102.942 265.895 L 102.942 264.556 L 103.098 263.552 L 103.098 262.214 L 103.253 261.545 L 103.253 260.708 L 103.409 260.039 L 103.409 259.202 L 103.565 258.366 L 103.565 257.362 L 103.877 256.525 L 103.877 255.689 L 104.033 254.685 L 104.033 253.848 L 104.345 252.844 L 104.345 252.008 L 104.501 251.506 L 104.501 251.004 L 104.656 250.669 L 104.656 250.168 L 104.812 249.666 L 104.968 249.331 L 104.968 248.829 L 105.124 248.494 L 105.124 247.993 L 105.436 247.658 L 105.436 247.156 L 105.592 246.821 L 105.592 246.487 L 105.748 246.152 L 105.904 245.65 L 106.059 245.316 L 106.059 244.981 L 106.371 244.646 L 106.371 244.312 L 106.839 243.642 L 107.462 243.642 L 108.086 243.977 L 108.554 243.977 L 109.021 244.144 L 109.645 244.144 L 110.268 244.479 L 111.048 244.479 L 111.827 244.646 L 112.763 244.814 L 113.698 244.981 L 114.166 244.981 L 114.633 245.148 L 115.101 245.148 L 115.569 245.316 L 116.66 245.316 L 117.283 245.483 L 118.375 245.483 L 118.842 245.65 L 120.713 245.65 L 121.181 245.817 L 127.884 245.817 L 128.508 245.65 L 129.131 245.65 L 129.755 245.483 L 130.378 245.483 L 131.002 245.316 L 131.158 245.316 L 131.469 245.148 L 132.093 245.148 L 132.405 244.981 L 132.717 244.981 L 133.028 244.814 L 133.184 244.814 L 133.496 244.646 L 133.808 244.646 L 134.12 244.479 L 134.431 244.479 L 134.587 244.312 L 134.899 244.312 L 135.211 244.144 L 135.367 244.144 L 135.678 243.81 L 136.302 243.81 L 137.081 243.308 L 137.393 244.144 L 137.393 244.646 L 137.549 244.981 L 137.549 245.316 L 137.705 245.817 L 137.705 246.319 L 137.861 246.821 L 138.017 247.491 L 138.017 248.16 L 138.329 248.829 L 138.329 250.335 L 138.484 250.669 L 138.484 252.008 L 138.64 252.343 L 138.64 254.852 L 138.796 255.354 L 138.796 258.533 L 138.64 258.868 L 138.64 259.704 L 138.484 260.206 L 138.484 260.708 L 138.329 261.043 L 138.329 261.545 L 138.173 261.879 L 138.173 262.381 L 137.861 262.716 L 137.861 263.385 L 137.705 263.385 L 137.705 263.72 L 137.549 263.887 L 137.549 264.054 L 137.393 264.222 L 137.393 264.389 L 137.237 264.556 L 137.237 264.723 L 137.861 264.891 L 138.64 265.225 L 139.42 265.56 L 139.887 265.727 L 140.355 265.895 L 140.979 266.229 L 141.602 266.397 L 142.07 266.564 L 142.693 266.898 L 143.473 267.066 L 144.096 267.233 L 144.72 267.568 L 145.499 267.735 L 146.279 268.07 L 147.058 268.237 L 147.838 268.404 L 148.617 268.739 L 149.553 268.906 L 150.332 269.241 L 151.267 269.408 L 152.203 269.575 L 152.982 269.91 L 153.917 270.077 L 154.853 270.245 L 155.788 270.412 L 156.723 270.747 L 157.815 270.747 L 158.282 270.914 L 158.75 270.914 L 159.218 271.081 L 159.685 271.081 L 160.153 271.249 L 161.244 271.249 L 161.712 271.416 L 162.803 271.416 L 163.271 271.583 L 164.206 271.583 L 164.83 271.75 L 167.792 271.75 L 168.415 271.918 L 172.936 271.918 L 173.404 271.75 L 174.495 271.75 L 174.962 271.583 L 175.43 271.583 L 175.898 271.416 L 176.365 271.416 L 176.989 271.249 L 177.457 271.249 L 177.924 271.081 L 178.392 271.081 L 178.86 270.747 L 179.327 270.747 L 179.795 270.579 L 180.263 270.579 L 180.73 270.245 L 181.198 270.245 L 181.666 269.91 L 182.133 269.91 L 182.601 269.575 L 183.069 269.575 L 183.536 269.241 L 184.004 269.073 L 184.472 268.906 L 184.939 268.572 L 185.407 268.404 L 185.719 268.404 L 185.719 268.237 L 186.031 268.237 L 186.031 268.07 L 186.186 268.07 L 186.342 267.902 L 186.498 267.735 L 186.654 267.568 L 186.654 267.4 L 186.81 267.233 L 186.81 265.56 L 186.654 265.56 L 186.654 265.225 L 186.498 265.058 L 186.498 264.891 L 186.342 264.723 L 186.342 264.389 L 186.031 264.389 L 186.031 264.054 L 185.875 263.72 L 185.719 263.552 L 185.563 263.218 L 185.407 263.05 L 185.095 262.716 L 184.783 262.381 L 184.628 262.214 L 184.628 262.047 L 184.472 262.047 L 184.472 261.879 L 184.316 261.879 L 184.316 261.545 L 184.16 261.545 L 184.16 261.377 L 184.004 261.21 L 184.004 260.875 L 183.848 260.708 L 183.848 260.541 L 183.692 260.206 L 183.692 259.871 L 183.536 259.537 L 183.536 259.035 L 183.38 258.868 L 183.38 258.031 L 183.225 257.696 L 183.225 252.51 L 183.38 252.008 L 183.38 251.506 L 183.536 251.004 L 183.536 250.335 L 183.692 249.666 L 183.692 249.164 L 184.004 248.494 L 184.004 247.825 L 184.16 247.156 L 184.316 246.487 L 184.472 245.65 L 184.628 244.981 L 184.783 244.144 L 185.095 243.475 L 185.251 242.639 L 185.407 241.802 L 185.563 241.3 L 185.563 240.966 L 185.719 240.464 L 185.875 240.129 L 185.875 239.627 L 186.031 239.292 L 186.031 238.958 L 186.186 238.456 L 186.186 238.121 L 186.342 237.787 L 186.342 236.95 L 186.498 236.448 L 186.498 236.114 L 186.654 235.779 L 186.654 234.608 L 186.81 234.273 L 186.81 233.102 L 186.966 232.767 L 186.966 224.904 L 186.81 224.235 L 186.81 223.063 L 186.654 222.562 L 186.498 221.892 L 186.498 221.39 L 186.342 220.888 L 186.342 220.219 L 186.031 219.717 L 186.031 218.713 L 185.719 218.211 L 185.719 217.877 L 185.563 217.375 L 185.563 216.873 L 185.251 216.538 L 185.251 216.036 L 185.095 215.702 L 184.939 215.367 L 184.939 214.865 L 184.783 214.531 L 184.628 214.196 L 184.472 213.861 L 184.472 213.694 L 184.316 213.359 L 184.004 212.858 L 184.004 212.356 L 183.692 212.021 L 183.536 211.686 L 183.536 211.352 L 183.38 211.352 L 183.069 210.683 L 183.38 210.181 L 183.38 210.013 L 183.692 209.846 L 183.692 209.511 L 183.848 209.344 L 184.004 209.009 L 184.004 208.842 L 184.16 208.675 L 184.16 208.508 L 184.316 208.173 L 184.472 207.838 L 184.472 207.504 L 184.628 207.336 L 184.628 207.002 L 184.783 206.834 L 184.783 206.5 L 184.939 206.332 L 184.939 205.998 L 185.095 205.663 L 185.095 205.329 L 185.407 204.325 L 186.186 204.492 L 186.654 204.492 L 186.966 204.659 L 187.745 204.659 L 188.369 204.827 L 193.981 204.827 L 194.449 204.659 L 195.384 204.659 L 195.696 204.492 L 196.163 204.492 L 196.631 204.157 L 197.099 204.157 L 197.566 203.99 L 197.878 203.99 L 198.346 203.656 L 198.813 203.656 L 199.125 203.488 L 199.437 203.321 L 199.749 203.321 L 199.905 202.986 L 200.372 202.986 L 200.528 202.819 L 200.84 202.652 L 200.996 202.652 L 201.308 202.484 L 201.464 202.317 L 201.619 202.317 L 201.931 201.982 L 202.087 201.982 L 202.243 201.815 L 202.555 201.648 L 202.711 201.481 L 203.022 201.481 L 203.022 201.146 L 203.334 201.146 L 203.49 200.811 L 203.802 200.811 L 203.958 200.477 L 204.114 200.477 L 204.425 200.142 L 204.737 199.807 L 204.893 199.64 L 205.205 199.473 L 205.205 199.138 L 205.517 199.138 L 205.673 198.804 L 205.828 198.636 L 206.14 198.302 L 206.14 198.134 L 206.452 197.967 L 206.452 197.632 L 206.764 197.465 L 206.92 197.13 L 207.076 196.963 L 207.231 196.629 L 207.543 196.127 L 207.855 195.625 L 208.167 195.123 L 208.479 194.621 L 208.79 194.286 L 208.946 193.784 L 209.258 193.45 L 209.414 192.948 L 209.726 192.613 L 209.726 192.111 L 210.037 191.777 L 210.037 191.442 L 210.349 191.107 L 210.349 190.773 L 210.505 190.438 L 210.661 190.271 L 210.661 189.936 L 210.817 189.602 L 210.817 189.434 L 210.973 189.1 L 210.973 188.765 L 211.129 188.43 L 211.129 186.925 L 210.973 186.59 L 210.817 186.423 L 210.661 186.255 L 210.661 186.088 L 210.505 186.088 L 210.349 185.921 L 210.193 185.753 L 210.037 185.753 L 210.037 185.586 L 209.726 185.586 L 209.726 185.419 L 209.57 185.419 L 209.414 185.252 L 209.102 185.252 L 208.79 184.917 L 208.479 184.917 L 208.011 184.582 L 207.699 184.582 L 207.387 184.248 L 206.92 184.08 L 206.764 183.746 L 206.608 183.578 L 206.452 183.578 L 206.296 183.244 L 206.14 182.909 L 205.984 182.742 L 205.828 182.407 L 205.828 182.24 L 205.673 182.073 L 205.673 181.905 L 205.517 181.905 L 205.517 181.571 L 205.361 181.236 L 205.361 180.567 L 205.205 180.4 L 205.205 178.225 L 205.361 177.89 L 205.361 177.388 L 205.517 177.221 L 205.517 176.886 L 205.673 176.719 L 205.828 176.384 L 205.828 176.05 L 206.14 175.882 L 206.14 175.548 L 206.296 175.213 L 206.452 175.046 L 206.608 174.711 L 206.764 174.376 L 206.92 174.042 L 207.231 173.707 L 207.387 173.373 L 207.699 173.205 L 207.699 173.038 L 208.011 172.703 L 208.011 172.536 L 208.323 172.201 L 208.479 171.867 L 208.79 171.532 L 208.946 171.198 L 209.258 170.863 L 209.414 170.361 L 209.726 170.026 L 210.037 169.524 L 210.193 169.023 L 210.505 168.521 L 210.661 168.019 L 210.817 167.851 L 210.817 167.517 L 211.129 167.349 L 211.129 166.847 L 211.285 166.513 L 211.44 166.178 L 211.44 166.011 L 211.596 165.676 L 211.752 165.342 L 211.908 165.007 L 211.908 164.672 L 212.064 164.338 L 212.22 164.171 L 212.22 163.836 L 212.376 163.501 L 212.376 163.167 L 212.532 162.832 L 212.688 162.497 L 212.688 162.163 L 212.843 161.828 L 212.843 160.992 L 212.999 160.657 L 212.999 160.322 L 213.155 159.988 L 213.155 158.817 L 213.311 158.482 L 213.311 153.965 L 213.155 153.63 L 213.155 153.128 L 212.999 152.794 L 212.999 152.292 L 212.843 151.957 L 212.843 151.455 L 212.532 151.12 L 212.532 150.618 L 212.376 150.284 L 212.22 149.782 L 212.064 149.447 L 211.908 148.945 L 211.752 148.611 L 211.596 148.109 L 211.285 147.774 L 211.129 147.272 L 210.973 146.938 L 210.661 146.436 L 210.505 146.101 L 210.193 145.599 L 209.882 145.097 L 209.57 144.763 L 209.414 144.261 L 209.102 143.926 L 208.79 143.424 L 208.479 142.922 L 208.011 142.588 L 207.699 142.086 L 207.387 141.584 L 206.92 141.249 L 206.608 140.747 L 206.14 140.413 L 205.673 139.911 L 205.361 139.409 L 204.893 139.074 L 204.425 138.572 L 203.958 138.238 L 203.334 137.736 L 202.867 137.234 L 202.399 136.899 L 201.775 136.397 L 201.152 136.063 L 200.684 135.561 L 200.061 135.059 L 199.437 134.724 L 198.813 134.222 L 198.19 133.888 L 196.007 132.549 L 193.981 131.211 L 192.11 130.039 L 190.395 128.868 L 188.681 127.864 L 187.122 126.861 L 185.563 125.857 L 184.16 125.02 L 182.913 124.184 L 181.666 123.514 L 180.574 122.845 L 179.483 122.176 L 178.704 121.674 L 177.768 121.172 L 176.989 120.67 L 176.21 120.335 L 175.586 120.001 L 174.962 119.666 L 174.339 119.332 L 173.871 118.997 L 173.404 118.997 L 173.092 118.662 L 172.468 118.662 L 172.156 118.495 L 172.001 118.328 L 171.533 118.328 L 170.909 119.332 L 170.442 117.659 L 170.442 117.324 L 170.598 117.324 L 170.598 117.157 L 170.753 117.157 L 170.753 116.989 L 171.065 116.487 L 174.962 116.487 L 175.118 116.32 L 175.586 116.32 L 175.898 116.153 L 176.21 116.153 L 176.21 115.985 L 176.521 115.985 L 176.677 115.818 L 176.989 115.818 L 176.989 115.651 L 177.301 115.651 L 177.457 115.484 L 177.613 115.316 L 177.768 115.316 L 177.924 115.149 L 177.924 114.982 L 178.08 114.982 L 178.08 114.814 L 178.236 114.814 L 178.236 114.647 L 178.392 114.48 L 178.392 113.309 L 178.236 113.141 L 177.924 112.807 L 177.768 112.639 L 177.613 112.639 L 177.613 112.472 L 177.301 112.472 L 177.301 112.305 L 177.145 112.305 L 177.145 112.137 L 176.833 112.137 L 176.833 111.97 L 176.521 111.97 L 176.365 111.803 L 176.054 111.803 L 175.742 111.635 L 175.274 111.635 L 174.962 111.468 L 173.559 111.468 L 174.027 110.13 L 174.183 109.795 L 174.183 109.46 L 174.651 108.624 L 176.521 108.624 L 176.989 108.457 L 177.924 108.457 L 178.392 108.289 L 178.704 108.289 L 179.171 108.122 L 179.483 108.122 L 179.951 107.955 L 180.263 107.955 L 180.574 107.787 L 180.886 107.787 L 181.198 107.62 L 181.51 107.62 L 181.666 107.285 L 182.289 107.285 L 182.445 107.118 L 182.601 106.951 L 182.913 106.951 L 183.069 106.783 L 183.225 106.616 L 183.38 106.616 L 183.536 106.449 L 183.848 106.114 L 184.004 106.114 L 184.004 105.78 L 184.16 105.78 L 184.16 105.612 L 184.316 105.612 L 184.316 104.943 L 184.472 104.943 L 184.472 104.106 L 184.316 104.106 L 184.316 103.939 L 184.16 103.605 L 184.004 103.605 L 184.004 103.437 L 183.848 103.437 L 183.848 103.27 L 183.536 103.27 L 183.225 103.103 L 183.069 102.935 L 182.913 102.935 L 182.757 102.768 L 182.445 102.768 L 182.445 102.601 L 181.822 102.601 L 181.822 102.433 L 181.042 102.433 L 180.73 102.266 L 176.21 102.266 L 176.521 100.76 L 176.521 98.418 L 176.677 98.083 L 176.677 93.399 L 176.521 93.064 L 176.521 92.228 L 176.365 91.893 L 176.365 91.224 L 176.21 90.889 L 176.21 90.554 L 176.054 90.22 L 176.054 89.885 L 175.898 89.718 L 175.898 89.383 L 175.742 89.049 L 175.742 88.714 L 175.586 88.212 L 175.43 87.877 L 175.43 87.543 L 175.118 87.208 L 175.118 86.874 L 174.962 86.539 L 174.651 86.204 L 174.651 85.87 L 174.495 85.535 L 174.339 85.201 L 174.183 84.866 L 174.027 84.531 L 173.871 84.197 L 173.715 83.862 L 173.559 83.527 L 173.404 83.36 L 173.092 83.026 L 173.092 82.691 L 172.78 82.356 L 172.624 82.022 L 172.312 81.687 L 172.312 81.52 L 171.689 80.85 L 171.065 80.014 L 170.598 79.345 L 170.13 78.675 L 169.662 77.839 L 169.195 77.17 L 168.727 76.5 L 168.259 75.999 L 167.792 75.329 L 167.324 74.66 L 166.856 74.158 L 166.389 73.489 L 165.921 72.987 L 165.453 72.485 L 165.141 71.983 L 164.674 71.481 L 164.206 70.979 L 163.894 70.477 L 163.427 69.975 L 162.959 69.473 L 162.647 68.972 L 162.18 68.637 L 161.868 68.135 L 161.4 67.8 L 161.088 67.298 L 160.621 66.964 L 160.309 66.629 L 159.841 66.295 L 159.529 65.793 L 159.062 65.458 L 158.75 65.123 L 158.282 64.789 L 157.971 64.454 L 157.659 64.287 L 157.191 63.952 L 156.879 63.618 L 156.412 63.283 L 156.1 62.948 L 155.632 62.781 L 155.32 62.446 L 154.853 62.112 L 154.541 61.945 L 154.073 61.61 L 153.762 61.443 L 153.294 61.108 L 152.826 60.941 L 152.514 60.606 L 152.047 60.439 L 151.579 60.104 L 151.267 59.937 L 150.8 59.602 L 150.332 59.435 L 149.864 59.1 L 149.397 58.933 L 148.461 58.431 L 147.526 57.929 L 146.591 57.427 L 145.655 56.925 L 144.096 56.256 L 144.252 55.252 L 144.252 54.75 L 144.564 54.248 L 144.564 53.746 L 144.72 53.244 L 144.72 53.077 L 144.876 52.743 L 144.876 52.241 L 145.188 51.739 L 145.188 50.902 L 145.344 50.233 L 145.344 49.731 L 145.499 49.229 L 145.499 48.56 L 145.655 48.058 L 145.655 46.887 L 145.811 46.217 L 145.811 39.692 L 145.655 39.358 L 145.655 38.689 L 145.499 38.354 L 145.499 37.685 L 145.188 37.35 L 145.188 37.015 L 145.032 36.681 L 145.032 36.346 L 144.876 36.012 L 144.876 35.342 L 144.564 35.008 L 144.408 34.673 L 144.408 34.339 L 144.096 34.004 L 144.096 33.669 L 143.941 33.502 L 143.941 33 L 143.785 32.833 L 143.629 32.498 L 143.473 32.163 L 143.317 31.996 L 143.161 31.662 L 142.849 31.327 L 142.382 30.825 L 142.382 30.49 L 142.07 30.323 L 141.914 29.988 L 141.758 29.654 L 141.29 29.654 L 141.29 29.152 L 140.979 28.985 L 140.667 28.65 L 140.511 28.65 L 140.199 28.148 L 139.732 27.981 L 139.264 27.646 L 138.952 27.312 L 138.64 27.312 L 138.329 26.81 L 138.173 26.81 L 137.705 26.642 L 137.393 26.308 L 137.081 26.308 L 136.614 26.14 L 136.302 25.973 L 135.834 25.806 L 135.523 25.638 L 135.055 25.638 L 134.743 25.136 L 133.34 25.136 L 132.872 24.802 L 132.405 24.802 L 132.093 24.635 L 126.637 24.635 L 126.481 24.802 L 125.702 24.802 L 125.39 24.969 L 125.234 24.969 L 125.078 25.136 L 124.61 25.136 L 124.454 25.304 L 124.143 25.304 L 124.143 25.471 L 123.831 25.471 L 123.675 25.638 L 123.519 25.638 L 123.207 25.806 L 123.207 25.973 L 122.895 25.973 L 122.895 26.308 L 122.584 26.308 L 122.428 26.475 L 122.272 26.475 L 122.116 26.642 L 121.96 26.81 L 121.804 26.977 L 121.648 26.977 L 121.492 27.144 L 121.337 27.312 L 121.181 27.479 L 121.025 27.479 L 121.025 27.981 L 120.713 27.981 L 120.557 28.148 L 120.401 28.148 L 120.245 28.483 L 119.934 28.817 L 119.778 28.985 L 119.622 29.152 L 119.466 29.654 L 119.154 29.988 L 118.998 30.323 L 118.842 30.658 L 118.531 30.992 L 118.375 31.327 L 118.219 31.662 L 118.063 31.996 L 117.907 32.331 L 117.751 32.665 L 117.595 33 L 117.439 33.502 L 117.439 33.837 L 117.128 34.171 L 117.128 34.506 L 116.972 34.673 L 116.972 35.008 L 116.816 35.342 L 116.816 35.844 L 116.66 36.179 L 116.66 36.346 L 116.348 36.848 L 116.348 38.521 L 116.192 38.856 L 116.192 40.194 L 114.789 40.194 L 114.789 38.521 L 114.477 38.019 L 114.477 37.685 L 114.322 37.35 L 114.322 37.015 L 114.166 36.681 L 114.166 36.346 L 114.01 36.012 L 114.01 35.677 L 113.698 35.342 L 113.698 34.506 L 113.542 34.171 L 113.23 33.837 L 113.23 33.502 L 113.074 33 L 112.919 32.665 L 112.763 32.498 L 112.763 32.331 L 112.451 32.163 L 112.451 31.662 L 112.295 31.662 L 112.139 31.327 L 111.671 30.825 L 111.671 30.658 L 111.516 30.49 L 111.36 30.323 L 111.36 30.156 L 110.892 29.988 L 110.892 29.654 L 110.58 29.487 L 110.268 28.985 L 110.113 28.65 L 109.645 28.65 L 109.645 28.483 L 109.489 28.315 L 109.333 27.981 L 109.021 27.981 L 109.021 27.646 L 108.554 27.646 L 108.554 27.312 L 107.93 27.312 L 107.618 26.81 L 107.151 26.81 L 106.995 26.475 L 106.527 26.475 L 106.215 26.308 L 105.436 26.308 L 105.124 25.973 L 104.968 25.973 L 104.656 25.806 L 103.877 25.806 L 103.877 25.638 L 102.942 25.638 L 102.474 25.471 L 98.577 25.471 L 98.265 25.638 L 97.33 25.638 L 97.018 25.806 L 96.55 25.806 L 96.083 26.308 L 95.303 26.308 L 94.991 26.475 L 94.524 26.642 L 94.212 26.81 L 93.744 26.81 L 93.432 27.144 L 93.121 27.144 L 92.809 27.479 L 92.497 27.479 L 92.185 27.981 L 91.874 27.981 L 91.406 28.315 L 91.094 28.483 L 90.782 28.65 L 90.471 28.817 L 90.315 29.152 L 90.003 29.319 L 89.691 29.487 L 89.847 29.654 L 89.535 29.654 L 89.223 29.821 L 89.068 30.156 L 88.756 30.323 L 88.756 30.658 L 88.288 30.992 L 88.288 31.327 L 88.132 31.662 L 87.976 31.829 L 87.82 32.163 L 87.665 32.331 L 87.509 32.665 L 87.353 33 L 87.197 33.335 L 87.197 33.502 L 86.729 33.837 L 86.729 34.673 L 86.573 35.008 L 86.573 35.342 L 86.417 35.677 L 86.417 36.012 L 86.106 36.346 L 86.106 36.681 L 85.95 37.015 L 85.95 37.685 L 85.794 38.019 L 85.794 39.358 L 85.638 39.692 L 85.638 44.544 L 85.794 44.879 L 85.794 45.548 L 85.95 45.883 L 85.95 46.552 L 86.106 47.221 L 86.262 47.891 L 86.262 48.392 L 86.573 49.062 L 86.573 49.731 L 86.729 50.4 L 86.885 50.902 L 87.041 51.571 L 87.197 52.073 L 87.353 52.575 L 87.509 53.077 L 87.665 53.746 L 87.82 54.081 L 87.82 54.75 L 88.132 55.252 L 88.132 55.587 L 88.444 56.089 L 88.6 56.758 L 88.912 57.26 L 88.912 57.762 L 89.068 58.096 L 89.379 58.933 L 88.6 59.268 L 88.444 59.268 L 88.132 59.602 L 87.665 59.77 L 87.041 60.104 L 86.729 60.271 L 86.573 60.439 L 86.106 60.606 L 85.794 60.773 L 85.482 61.108 L 85.17 61.275 L 84.703 61.443 L 84.235 61.777 L 83.923 62.112 L 83.456 62.279 L 82.988 62.614 L 82.52 62.948 L 82.208 63.283 L 81.741 63.618 L 81.117 63.952 L 80.65 64.454 L 80.182 64.789 L 79.714 65.123 L 79.247 65.625 L 78.311 66.295 L 77.688 65.793 L 77.532 65.625 L 77.688 65.458 Z " fill-rule="evenodd" fill="rgb(207,207,207)"/><path d=" M 82.988 128.366 C 75.504 122.498 70.689 113.5 69.737 103.605 C 68.334 85.87 80.961 69.473 99.824 62.279 L 98.733 62.279 C 98.733 62.279 85.95 36.681 97.486 32.833 C 109.021 28.817 112.139 54.081 111.36 57.929 L 106.995 59.937 C 111.907 58.765 116.928 58.204 121.96 58.264 C 120.557 52.743 120.401 29.821 131.625 31.494 C 142.538 33 136.77 55.419 135.523 59.937 C 153.606 64.454 167.012 77.672 168.415 94.57 C 168.961 104.106 165.865 113.469 159.841 120.503 C 170.753 123.514 199.905 135.561 207.231 153.965 C 212.999 168.521 190.707 184.08 190.707 184.08 C 190.707 184.08 193.046 184.248 193.201 186.423 C 193.201 186.423 194.76 179.228 199.437 179.73 C 199.437 179.73 200.684 185.419 205.205 188.096 C 209.726 190.94 194.604 200.979 190.395 199.807 C 187.278 198.804 183.069 196.461 180.419 193.952 C 181.198 204.157 176.365 208.842 176.365 208.842 C 183.069 218.379 176.833 254.685 176.989 258.366 C 176.989 262.047 180.73 264.556 180.73 264.556 C 166.233 268.572 142.849 262.047 142.849 262.047 C 146.123 254.016 142.226 233.604 142.226 233.604 C 127.26 243.141 104.189 234.106 104.189 234.106 C 99.044 240.296 98.577 261.879 98.577 261.879 C 87.353 266.564 62.099 260.206 62.099 260.206 C 64.749 258.533 66.152 250.168 66.152 250.168 C 63.19 206.5 72.387 200.142 72.387 200.142 C 68.49 194.788 66.152 189.267 64.905 183.746 C 55.24 178.225 48.692 168.353 50.095 155.805 C 51.966 139.911 75.349 131.211 81.585 129.203 L 82.364 128.366 L 82.988 128.366 Z  M 181.198 162.33 L 181.042 166.011 C 182.325 164.905 183.813 164.106 185.407 163.669 C 185.407 163.669 183.536 163.669 181.042 162.33 L 181.198 162.33 Z " fill-rule="evenodd" fill="rgb(247,236,239)"/><path d=" M 101.227 239.292 C 97.174 240.464 83.456 242.471 66.464 226.912 L 65.684 226.242 L 66.464 221.892 L 68.023 208.842 L 71.92 200.477 C 86.106 205.831 135.211 222.227 176.21 209.511 L 177.145 210.181 L 178.86 219.885 L 178.236 241.635 L 178.236 242.806 C 166.866 244.512 155.338 244.624 143.941 243.141 L 142.538 234.106 L 132.717 237.452 L 118.375 237.452 L 105.124 234.44 L 102.318 235.612 L 101.227 239.292 Z " fill-rule="evenodd" fill="rgb(237,124,154)"/><path d=" M 63.502 184.75 C 58.515 181.663 54.374 177.219 51.498 171.867 C 48.228 165.135 47.774 157.228 50.251 150.117 C 51.954 146.171 54.521 142.727 57.734 140.078 C 61.196 137.077 65.025 134.6 69.114 132.716 C 72.251 131.059 75.479 129.607 78.779 128.366 C 79.402 128.366 79.87 128.032 80.338 127.864 C 79.126 126.714 77.98 125.485 76.908 124.184 L 75.661 125.02 L 70.984 128.366 L 69.737 127.864 L 70.049 126.693 L 74.726 123.514 L 75.817 122.845 L 75.193 122.009 C 74.758 121.411 74.342 120.797 73.946 120.168 L 71.14 121.005 L 64.281 123.012 L 63.19 122.343 L 63.814 121.172 L 70.673 119.332 L 73.011 118.662 C 72.44 117.633 71.92 116.572 71.452 115.484 L 71.452 115.316 L 56.643 115.316 L 55.863 114.312 L 56.643 113.476 L 70.673 113.476 C 67.654 105.688 67.487 96.963 70.205 89.049 C 67.867 89.885 65.684 90.889 65.217 91.893 C 64.125 93.733 64.593 101.931 65.217 106.951 C 64.75 101.925 63.539 97.011 61.631 92.395 C 60.072 90.889 54.46 90.722 51.031 91.224 C 54.148 90.889 60.072 89.049 61.008 87.208 C 61.943 85.535 61.475 77.17 61.008 72.15 C 61.475 76.835 63.19 85.368 64.593 86.706 C 65.372 87.71 67.867 88.045 70.517 88.045 L 70.673 87.71 C 71.764 85.033 73.011 82.524 74.57 80.181 C 74.102 77.672 73.323 75.162 73.011 74.493 C 72.076 73.656 68.49 73.489 66.464 73.824 C 68.334 73.489 71.92 72.318 72.387 71.314 C 73.011 69.975 72.699 64.621 72.387 61.443 C 72.699 64.454 73.946 69.975 74.57 70.979 C 75.505 71.983 78.935 71.983 81.117 71.648 C 79.091 71.983 75.661 73.154 75.038 74.325 C 74.666 76.08 74.561 77.888 74.726 79.679 L 78.155 75.329 C 83.353 69.308 89.747 64.619 96.862 61.61 C 94.682 56.556 92.96 51.29 91.718 45.883 L 91.406 43.875 L 91.406 42.202 L 91.25 41.198 C 91.25 39.023 91.562 37.015 92.497 35.175 L 92.809 34.673 C 93.291 33.971 93.869 33.35 94.524 32.833 C 95.147 32.346 95.829 31.952 96.55 31.662 C 97.541 31.206 98.594 30.924 99.668 30.825 L 99.98 30.825 C 100.996 30.865 101.997 31.091 102.942 31.494 L 103.565 31.829 C 105.575 33.089 107.2 34.949 108.242 37.183 C 108.519 37.56 108.779 37.95 109.021 38.354 L 109.801 40.027 C 111.867 45.326 112.927 51.014 112.919 56.758 L 112.919 57.26 L 115.569 56.925 L 116.504 56.925 L 120.401 56.758 L 120.245 55.085 C 119.835 49.694 120.257 44.267 121.492 39.023 L 121.96 37.685 L 122.428 36.681 C 123.143 34.577 124.383 32.725 126.013 31.327 L 126.793 30.825 C 127.904 30.209 129.128 29.866 130.378 29.821 L 130.846 29.821 L 133.652 30.323 C 134.622 30.705 135.52 31.272 136.302 31.996 L 136.77 32.665 C 138.157 34.416 139.025 36.572 139.264 38.856 L 139.42 40.027 C 139.586 41.245 139.639 42.478 139.576 43.708 C 139.594 45.893 139.438 48.076 139.108 50.233 C 138.705 53.113 138.132 55.963 137.393 58.766 C 144.042 60.775 150.318 64.001 155.944 68.302 C 159.529 71.314 162.803 74.995 165.297 79.177 C 169.894 87.18 171.245 96.85 169.039 105.947 L 170.598 105.947 L 181.822 104.274 L 182.757 105.11 L 182.133 106.114 L 170.909 107.62 L 168.571 107.955 C 168.204 109.09 167.788 110.207 167.324 111.301 L 167.168 111.803 L 175.742 112.974 L 176.365 113.978 L 175.43 114.814 L 168.415 113.643 L 166.389 113.309 L 166.077 113.978 L 164.674 116.487 L 170.13 119.332 L 170.598 120.503 L 169.506 120.837 L 164.362 118.328 L 163.738 117.993 C 163.335 118.561 162.919 119.119 162.491 119.666 L 164.986 120.503 C 172.17 123.159 179.153 126.404 185.875 130.207 C 190.793 133.125 195.439 136.543 199.749 140.413 C 202.662 143.372 205.181 146.751 207.231 150.451 C 208.275 152.329 209.062 154.357 209.57 156.474 C 209.882 158.649 209.726 160.824 209.258 162.832 C 208.724 165.072 207.883 167.214 206.764 169.19 C 204.976 172.554 202.715 175.601 200.061 178.225 L 200.216 178.225 C 200.48 178.379 200.696 178.611 200.84 178.894 L 200.996 179.396 L 202.087 182.073 C 202.869 183.857 204.046 185.408 205.517 186.59 L 206.296 186.925 L 206.296 187.092 C 206.871 187.488 207.31 188.076 207.543 188.765 L 207.543 189.602 C 207.511 190.63 207.184 191.623 206.608 192.446 L 206.296 192.78 C 206.146 193.008 205.99 193.231 205.828 193.45 L 205.205 194.119 C 204.451 194.941 203.615 195.67 202.711 196.294 C 200.273 198.009 197.657 199.413 194.916 200.477 L 193.046 201.146 C 192.43 201.275 191.802 201.331 191.175 201.313 C 190.915 201.327 190.655 201.327 190.395 201.313 L 189.46 200.979 C 188.064 200.555 186.707 199.995 185.407 199.306 C 184.221 198.661 183.075 197.935 181.977 197.13 L 181.977 197.8 C 181.977 198.971 181.822 200.142 181.51 201.146 C 181.042 203.99 179.951 206.5 178.392 208.842 L 178.392 209.344 C 179.483 211.352 179.951 213.527 180.419 215.702 C 180.913 218.683 181.122 221.71 181.042 224.737 C 181.196 232.295 180.727 239.854 179.639 247.323 L 178.86 255.187 L 178.704 256.191 L 178.704 257.529 L 178.548 258.198 L 178.548 258.7 C 178.548 259.202 178.86 259.871 179.171 260.373 C 179.517 261.179 180.055 261.871 180.73 262.381 L 181.666 263.218 L 181.822 263.552 L 182.133 263.887 C 182.356 264.36 182.356 264.919 182.133 265.393 C 182.133 265.393 182.133 265.727 181.822 265.727 C 181.64 265.888 181.427 266.002 181.198 266.062 L 180.574 266.229 C 170.952 267.901 161.126 267.674 151.579 265.56 C 148.598 265.056 145.635 264.442 142.693 263.72 L 142.226 263.385 C 141.755 263.181 141.406 262.744 141.29 262.214 L 141.29 261.545 L 141.446 261.21 L 141.602 260.875 C 142.027 259.522 142.289 258.117 142.382 256.693 L 142.538 251.673 C 142.479 246.501 141.957 241.346 140.979 236.281 C 140.823 236.286 140.667 236.286 140.511 236.281 L 140.043 236.615 L 137.237 237.787 C 132.717 239.46 128.04 239.794 123.363 239.627 C 117.009 239.492 110.708 238.365 104.656 236.281 C 104.018 237.328 103.495 238.451 103.098 239.627 L 101.539 244.981 C 100.514 250.434 99.992 255.982 99.98 261.545 L 99.98 262.047 L 99.824 262.214 L 99.824 262.548 L 99.512 263.05 L 99.2 263.385 L 98.577 263.385 L 97.797 263.887 C 95.571 264.61 93.264 265.004 90.938 265.058 C 86.523 265.473 82.079 265.361 77.688 264.723 C 72.493 264.123 67.339 263.173 62.255 261.879 L 61.943 261.879 C 61.659 261.846 61.39 261.731 61.163 261.545 C 61.045 261.449 60.94 261.337 60.852 261.21 C 60.573 260.692 60.573 260.055 60.852 259.537 C 60.852 259.202 60.852 259.202 61.163 259.035 L 61.475 258.868 L 61.475 258.7 C 61.782 258.412 62.045 258.073 62.255 257.696 C 63.345 255.311 64.132 252.778 64.593 250.168 L 64.437 248.327 L 64.437 246.319 L 64.125 241.635 C 63.869 232.412 64.286 223.182 65.372 214.029 C 66.112 210.184 67.209 206.429 68.646 202.819 L 70.205 200.309 L 69.737 199.473 L 69.114 198.636 C 66.755 194.809 64.918 190.64 63.658 186.255 L 63.346 184.917 L 63.502 184.75 Z  M 176.989 244.312 C 169.427 245.129 161.83 245.52 154.229 245.483 C 151.516 245.347 148.811 245.068 146.123 244.646 L 145.188 244.646 C 145.547 248.538 145.652 252.451 145.499 256.358 C 145.499 258.031 145.188 259.537 144.72 261.043 L 146.279 261.377 C 154.188 263.103 162.219 264.11 170.286 264.389 C 172.624 264.389 175.118 264.222 177.457 263.72 L 177.613 263.72 L 177.457 263.385 L 177.145 263.218 C 176.84 262.685 176.579 262.126 176.365 261.545 C 175.663 260.167 175.39 258.584 175.586 257.027 L 175.742 254.852 L 176.521 248.662 C 176.521 247.156 176.833 245.65 176.989 244.312 Z  M 67.087 229.254 L 67.087 229.923 C 66.922 236.62 67.078 243.321 67.555 250 L 67.555 250.837 C 66.947 253.717 66.059 256.521 64.905 259.202 C 71.487 260.611 78.156 261.506 84.859 261.879 L 91.25 261.879 C 93.277 261.712 95.147 261.377 97.018 260.708 L 97.174 259.035 L 97.33 257.362 C 97.736 251.898 98.518 246.473 99.668 241.133 C 96.674 241.657 93.621 241.657 90.626 241.133 C 82.949 239.97 75.72 236.554 69.737 231.262 C 68.837 230.561 67.953 229.836 67.087 229.087 L 67.087 229.254 Z  M 72.543 201.982 C 71.74 203.183 71.061 204.473 70.517 205.831 L 69.27 209.846 C 68.196 213.88 67.568 218.036 67.399 222.227 L 67.243 225.908 L 68.646 227.246 L 72.232 230.09 C 77.797 234.362 84.193 237.223 90.938 238.456 C 94.096 238.953 97.307 238.897 100.447 238.289 L 100.759 237.452 L 101.227 236.281 C 101.662 235.335 102.184 234.438 102.786 233.604 L 102.942 233.269 C 103.069 233.074 103.227 232.904 103.409 232.767 C 103.761 232.626 104.149 232.626 104.501 232.767 L 104.656 232.767 L 105.436 232.935 C 111.698 235.034 118.207 236.161 124.766 236.281 C 127.572 236.448 130.222 236.281 132.872 235.612 C 135.929 234.998 138.875 233.868 141.602 232.265 L 141.758 232.265 L 142.226 232.098 C 142.716 232.098 143.178 232.346 143.473 232.767 L 143.629 233.269 L 143.941 234.273 L 145.032 241.969 L 145.344 241.969 C 150.18 242.874 155.093 243.21 159.997 242.973 C 165.73 242.832 171.453 242.386 177.145 241.635 C 177.736 235.13 177.996 228.595 177.924 222.06 C 177.743 219.413 177.378 216.785 176.833 214.196 C 176.722 213.461 176.566 212.734 176.365 212.021 L 175.898 211.017 L 175.118 211.017 L 174.807 211.184 C 163.851 214.446 152.499 215.913 141.135 215.535 C 127.804 215.438 114.524 213.755 101.539 210.515 C 92.849 208.554 84.263 206.097 75.817 203.154 L 72.699 201.982 L 72.543 201.982 Z  M 173.871 208.842 L 174.183 208.173 L 174.339 208.173 C 175.055 207.546 175.684 206.814 176.21 205.998 C 177.22 204.32 177.908 202.443 178.236 200.477 C 179.067 194.873 178.64 189.137 176.989 183.746 C 175.723 184.783 174.299 185.575 172.78 186.088 L 171.221 186.423 L 170.13 186.255 L 169.506 185.252 L 169.506 183.913 C 170.286 183.411 170.286 183.244 170.753 183.244 L 171.065 183.244 L 171.377 183.076 C 172.473 182.723 173.521 182.217 174.495 181.571 C 175.391 181.004 176.183 180.267 176.833 179.396 C 178.156 177.43 178.964 175.118 179.171 172.703 L 179.171 171.532 L 179.327 170.194 L 179.327 168.521 C 179.181 162.939 177.904 157.458 175.586 152.459 L 174.183 150.618 L 174.495 149.28 L 175.43 148.611 L 176.521 148.611 C 177.071 148.963 177.507 149.489 177.768 150.117 C 177.991 150.44 178.199 150.775 178.392 151.12 L 179.795 154.467 C 180.469 156.539 180.99 158.664 181.354 160.824 L 181.822 160.824 L 182.133 161.159 L 182.601 161.326 L 184.472 161.996 L 185.875 161.996 L 186.342 162.33 C 186.779 162.749 186.959 163.396 186.81 164.003 C 186.783 164.178 186.731 164.348 186.654 164.505 C 186.485 164.722 186.272 164.893 186.031 165.007 L 185.719 165.007 L 185.407 165.174 L 184.939 165.342 C 184.047 165.718 183.208 166.225 182.445 166.847 L 182.445 171.699 C 182.258 175.051 181.235 178.287 179.483 181.069 L 179.951 182.24 C 180.886 185.753 181.51 189.434 181.666 193.115 L 182.133 193.45 C 184.617 195.604 187.48 197.197 190.551 198.134 L 192.578 198.134 L 194.449 197.465 C 196.328 196.708 198.109 195.696 199.749 194.454 C 201.1 193.544 202.355 192.478 203.49 191.275 C 203.915 190.891 204.283 190.439 204.581 189.936 L 204.581 189.602 C 204.307 189.462 204.046 189.294 203.802 189.1 C 201.336 187.113 199.489 184.371 198.502 181.236 L 198.19 181.236 L 197.722 181.571 C 197.366 181.787 197.05 182.071 196.787 182.407 C 196.195 183.03 195.719 183.768 195.384 184.582 C 195.105 185.224 194.896 185.897 194.76 186.59 L 194.76 186.757 L 194.604 187.092 L 194.604 187.259 L 194.137 187.594 C 193.683 187.946 193.088 188.01 192.578 187.761 C 192.404 187.681 192.246 187.568 192.11 187.427 C 191.949 187.24 191.841 187.008 191.798 186.757 L 191.798 186.423 L 191.487 186.088 C 191.34 186.006 191.182 185.95 191.019 185.921 L 190.707 185.921 L 190.395 185.753 L 189.928 185.586 C 189.611 185.346 189.389 184.988 189.304 184.582 C 189.173 184.056 189.29 183.494 189.616 183.076 L 189.928 182.909 L 190.395 182.575 L 191.019 182.073 C 195.739 178.324 199.938 173.874 203.49 168.855 L 205.205 165.342 C 205.969 163.768 206.495 162.074 206.764 160.322 C 206.954 158.063 206.521 155.794 205.517 153.797 C 204.325 150.956 202.69 148.353 200.684 146.101 C 197.209 141.949 193.161 138.394 188.681 135.561 C 182.651 131.47 176.221 128.104 169.506 125.522 L 160.465 122.176 C 156.093 127.381 150.792 131.591 144.876 134.557 C 128.247 143.328 108.868 143.818 91.874 135.895 C 88.756 134.222 85.794 132.549 82.988 130.207 L 82.676 130.374 L 81.897 130.709 C 76.347 132.564 70.972 134.973 65.84 137.903 C 62.378 140.09 59.184 142.731 56.331 145.767 C 54.01 148.443 52.396 151.735 51.654 155.303 L 51.342 157.311 C 51.054 161.95 51.971 166.584 53.993 170.696 L 55.24 172.871 C 58.428 177.789 62.864 181.622 68.023 183.913 C 71.321 185.603 74.845 186.732 78.467 187.259 L 80.961 187.427 L 83.144 187.594 C 86.668 187.932 90.208 188.044 93.744 187.928 L 96.55 187.427 C 96.862 187.427 97.174 187.427 97.486 187.092 L 97.953 186.925 L 98.109 186.757 L 98.577 186.423 L 99.512 186.423 L 99.668 186.59 L 99.98 186.59 C 100.927 187.131 101.919 187.579 102.942 187.928 C 106.498 189.092 110.297 189.092 113.854 187.928 L 114.477 187.427 C 115.257 187.092 116.036 186.757 116.504 186.255 C 116.921 185.926 117.288 185.531 117.595 185.084 L 117.751 184.917 C 118.063 184.415 118.219 183.913 117.907 183.244 L 117.907 183.076 C 117.771 182.935 117.613 182.822 117.439 182.742 C 117.252 182.547 117.042 182.379 116.816 182.24 L 116.348 181.905 L 116.036 181.571 C 115.694 181.012 115.694 180.289 116.036 179.73 C 116.215 179.564 116.429 179.449 116.66 179.396 L 117.128 179.228 C 118.481 178.693 119.632 177.693 120.401 176.384 L 120.557 176.384 C 120.713 176.05 120.869 175.548 120.713 175.213 C 120.53 174.862 120.26 174.573 119.934 174.376 C 119.352 174 118.722 173.718 118.063 173.54 L 117.439 173.54 L 116.972 173.205 L 116.816 173.038 L 116.66 172.871 L 116.504 172.369 L 116.504 171.867 C 116.504 171.365 116.66 170.863 117.283 170.528 L 117.907 170.528 C 118.163 170.231 118.373 169.892 118.531 169.524 C 118.695 168.982 118.799 168.42 118.842 167.851 C 119.146 166.111 118.811 164.313 117.907 162.832 C 117.243 161.952 116.386 161.262 115.413 160.824 C 114.16 160.359 112.841 160.133 111.516 160.155 C 109.312 160.185 107.117 160.465 104.968 160.992 L 104.033 160.992 C 103.443 160.696 103.12 160.003 103.253 159.319 L 103.409 158.817 L 103.409 158.482 L 103.721 157.98 C 104.232 156.12 104.597 154.217 104.812 152.292 L 104.812 150.284 C 104.809 148.681 104.376 147.113 103.565 145.767 L 103.098 145.265 C 102.907 144.971 102.699 144.692 102.474 144.428 C 101.211 143.383 99.697 142.745 98.109 142.588 L 97.33 142.588 L 96.238 142.42 L 93.277 142.42 L 92.497 142.588 C 92.178 142.673 91.865 142.784 91.562 142.922 C 91.015 143.063 90.489 143.288 90.003 143.591 L 90.003 143.759 C 90.003 144.093 90.003 144.261 90.315 144.428 L 91.094 145.265 L 91.406 145.599 L 92.185 146.603 C 93.121 147.774 93.744 149.28 94.212 150.786 C 95.172 153.453 95.649 156.292 95.615 159.151 L 95.615 160.155 L 95.459 160.992 L 95.459 161.661 L 94.835 163.334 C 94.606 163.846 94.221 164.259 93.744 164.505 L 93.588 164.505 L 92.965 164.672 L 92.185 164.672 C 89.806 164.945 87.4 164.6 85.17 163.669 C 82.088 162.196 79.875 159.195 79.247 155.638 L 80.338 153.797 C 80.855 154.357 81.375 154.915 81.897 155.47 L 82.208 155.805 C 82.634 157.259 83.383 158.58 84.391 159.653 L 85.014 160.155 C 86.573 161.326 88.288 161.828 90.159 161.828 L 92.341 161.828 L 92.653 161.326 L 92.653 160.49 C 92.922 158.543 92.87 156.561 92.497 154.634 L 91.874 151.957 C 91.508 150.766 90.983 149.639 90.315 148.611 C 90.077 148.257 89.817 147.922 89.535 147.607 C 89.223 147.607 89.068 147.272 88.912 147.105 L 88.6 146.77 C 88.166 146.332 87.798 145.824 87.509 145.265 C 87.118 144.492 87.061 143.576 87.353 142.755 L 87.509 142.253 C 88.047 141.455 88.813 140.867 89.691 140.58 C 90.576 140.134 91.525 139.852 92.497 139.743 L 93.432 139.743 L 96.55 139.409 C 98.109 139.409 99.512 139.743 100.915 140.245 C 102.45 140.767 103.842 141.687 104.968 142.922 C 105.478 143.58 105.898 144.313 106.215 145.097 C 107.307 147.272 107.618 149.782 107.462 152.124 L 107.462 153.63 C 107.31 154.935 107.049 156.223 106.683 157.478 L 107.93 157.478 C 108.448 157.408 108.968 157.353 109.489 157.311 L 112.139 157.311 C 114.56 157.392 116.9 158.268 118.842 159.821 C 119.125 160.074 119.386 160.354 119.622 160.657 L 120.713 162.33 L 121.492 164.505 C 121.984 166.819 121.708 169.245 120.713 171.365 L 120.713 171.532 L 121.181 171.699 C 121.709 172.067 122.182 172.518 122.584 173.038 C 123.191 173.777 123.524 174.73 123.519 175.715 C 123.519 177.221 122.74 178.392 121.96 179.396 L 121.492 179.898 C 120.995 180.373 120.475 180.819 119.934 181.236 L 119.934 181.571 C 120.19 181.929 120.399 182.323 120.557 182.742 C 120.658 183.294 120.658 183.863 120.557 184.415 C 120.298 185.856 119.582 187.157 118.531 188.096 C 118.147 188.474 117.729 188.811 117.283 189.1 C 116.558 189.646 115.772 190.096 114.945 190.438 L 112.295 191.275 C 109.246 191.922 106.099 191.807 103.098 190.94 C 101.767 190.609 100.463 190.162 99.2 189.602 L 98.733 189.602 C 97.935 189.985 97.098 190.266 96.238 190.438 L 93.432 190.773 C 90.269 191.078 87.087 191.078 83.923 190.773 L 80.805 190.438 C 76.772 189.953 72.8 188.999 68.958 187.594 C 68.271 187.286 67.595 186.951 66.931 186.59 C 68.325 190.989 70.378 195.115 73.011 198.804 L 73.011 199.138 L 73.323 199.138 L 73.323 199.473 L 73.479 199.64 L 74.414 200.142 C 82.627 203.206 91.009 205.721 99.512 207.671 C 113.363 210.789 127.453 212.525 141.602 212.858 C 152.369 212.962 163.106 211.613 173.559 208.842 L 173.871 208.842 Z  M 124.61 195.457 C 125.815 195.537 127.013 195.705 128.196 195.959 C 128.975 195.959 129.755 196.294 130.378 196.629 L 131.314 197.298 L 131.781 197.967 L 131.937 198.469 L 131.937 199.807 C 131.82 200.109 131.663 200.391 131.469 200.644 C 131.124 201.16 130.703 201.612 130.222 201.982 C 129.593 202.458 128.912 202.851 128.196 203.154 C 127.015 203.698 125.702 203.815 124.454 203.488 C 123.399 203.203 122.432 202.626 121.648 201.815 C 121.241 201.475 120.874 201.081 120.557 200.644 L 120.869 198.469 C 121.596 198.749 122.324 199.027 123.051 199.306 C 123.507 199.901 124.098 200.362 124.766 200.644 L 125.39 200.644 C 126.325 200.811 127.416 200.477 128.196 199.807 C 128.476 199.613 128.737 199.389 128.975 199.138 C 127.45 198.674 125.881 198.393 124.298 198.302 L 123.051 196.796 L 124.61 195.457 Z  M 98.109 186.757 L 98.109 186.925 L 98.109 186.757 Z  M 153.138 161.326 L 157.191 157.144 L 158.75 156.474 L 160.309 157.144 L 160.932 158.817 L 160.309 160.49 L 156.256 164.672 L 160.309 168.855 L 160.932 170.528 L 160.309 172.201 L 158.75 172.871 L 157.191 172.201 L 153.138 167.851 L 148.929 172.201 L 147.37 172.871 L 145.811 172.201 L 145.188 170.528 L 145.967 168.855 L 149.864 164.672 L 145.967 160.49 L 145.188 158.817 L 145.811 157.144 L 147.37 156.474 L 148.929 157.144 L 153.138 161.494 L 153.138 161.326 Z  M 74.57 115.484 L 75.349 116.989 L 75.973 117.993 L 77.22 117.491 L 78.311 118.16 L 77.688 119.164 L 76.908 119.499 L 78.467 121.172 L 79.247 120.67 L 80.338 121.005 L 80.182 122.176 L 79.402 122.678 C 83.729 127.648 89.063 131.484 94.991 133.888 C 106.499 139.025 119.26 139.966 131.314 136.565 C 139.223 134.461 146.65 130.647 153.138 125.355 C 156.1 122.845 158.75 119.834 160.932 116.655 L 159.374 115.985 L 159.062 114.814 L 160.153 114.312 L 161.868 115.149 L 163.115 112.974 L 161.556 112.639 L 160.777 111.635 L 161.712 110.966 L 163.894 111.301 L 163.894 111.133 L 164.986 108.791 L 164.986 108.289 L 160.309 108.958 L 159.374 108.289 L 159.997 107.285 L 165.765 106.449 L 166.077 105.278 C 167.284 100.588 167.444 95.658 166.544 90.889 C 165.792 87.327 164.474 83.932 162.647 80.85 C 160.363 76.988 157.46 73.59 154.073 70.812 C 149.599 67.448 144.722 64.747 139.576 62.781 C 132.29 60.24 124.607 59.273 116.972 59.937 C 108.784 60.673 100.799 63.057 93.432 66.964 C 88.6 69.641 84.079 73.154 80.338 77.337 C 77.688 80.683 75.349 84.197 73.635 88.212 L 73.479 88.714 C 71.046 94.899 70.501 101.751 71.92 108.289 C 72.387 110.13 73.011 111.97 73.79 113.643 L 78.467 113.643 L 79.402 114.48 L 78.623 115.484 L 74.57 115.484 Z  M 117.128 105.445 C 120.557 104.608 124.143 108.122 124.922 113.309 C 126.013 118.495 123.987 123.347 120.401 124.016 C 116.972 124.686 113.386 121.172 112.607 115.985 C 111.516 110.966 113.542 105.947 117.128 105.278 L 117.128 105.445 Z  M 100.447 89.718 C 102.63 89.718 104.501 92.395 104.501 95.406 C 104.501 98.585 102.63 101.095 100.447 101.095 C 98.109 101.095 96.238 98.585 96.238 95.406 C 96.238 92.395 98.109 89.885 100.447 89.885 L 100.447 89.718 Z  M 136.458 90.387 C 136.77 90.722 136.458 91.893 136.146 92.395 C 135.211 93.231 131.314 94.737 131.314 95.741 C 131.314 96.578 135.055 97.08 135.99 97.749 C 136.614 98.083 136.926 99.255 136.77 99.756 C 136.614 100.091 135.678 100.593 135.055 100.426 C 133.496 100.091 129.131 97.916 127.884 97.414 L 127.572 97.414 L 127.26 96.912 C 127.125 96.648 127.02 96.367 126.949 96.076 L 126.949 95.574 L 127.105 95.406 L 127.26 95.072 L 127.572 94.737 L 134.587 89.885 C 135.211 89.551 136.146 89.885 136.458 90.387 Z  M 131.469 81.52 C 131.625 81.854 131.469 83.193 131.158 83.527 C 130.69 84.364 129.599 85.201 128.663 85.87 C 127.728 86.539 126.637 87.877 125.857 88.212 C 125.234 88.379 124.298 88.212 123.987 87.877 C 123.675 87.543 123.831 86.539 124.143 85.87 C 124.61 85.201 126.013 84.197 126.949 83.527 C 127.728 82.858 128.663 81.687 129.443 81.352 C 130.066 81.018 131.002 81.185 131.469 81.52 Z  M 102.162 83.527 C 102.942 84.364 104.345 85.201 104.812 85.87 C 105.28 86.539 105.436 87.543 105.124 87.877 C 104.812 88.379 103.721 88.379 103.253 88.212 C 102.474 87.877 101.383 86.539 100.447 85.87 C 99.512 85.033 98.265 84.197 97.797 83.527 C 97.486 83.026 97.33 81.854 97.641 81.52 C 97.953 81.185 98.889 81.018 99.512 81.352 C 100.292 81.687 101.227 82.858 102.162 83.527 Z  M 54.304 56.925 C 54.616 59.937 55.863 65.291 56.643 66.295 C 57.422 67.298 60.852 67.466 63.034 67.131 C 61.008 67.466 57.578 68.637 56.954 69.641 C 56.555 72.861 56.555 76.124 56.954 79.345 C 56.799 76.333 55.551 70.979 54.772 69.975 C 53.993 68.972 50.563 68.972 48.381 69.139 C 50.407 68.972 53.837 67.8 54.46 66.629 C 54.859 63.409 54.859 60.146 54.46 56.925 L 54.304 56.925 Z  M 110.424 57.594 L 110.113 54.918 C 110.026 52.437 109.712 49.971 109.177 47.556 C 108.442 44.487 107.397 41.514 106.059 38.689 C 105.778 38.112 105.466 37.553 105.124 37.015 C 104.254 35.738 103.065 34.752 101.695 34.171 C 101.19 33.99 100.666 33.878 100.136 33.837 L 99.824 33.837 C 98.67 33.863 97.543 34.209 96.55 34.84 C 96.137 35.108 95.769 35.447 95.459 35.844 C 94.707 36.971 94.273 38.308 94.212 39.692 L 94.212 40.194 C 94.087 41.418 94.087 42.652 94.212 43.875 C 94.407 45.351 94.72 46.807 95.147 48.225 C 95.708 50.753 96.491 53.218 97.486 55.587 L 99.668 60.606 L 104.189 59.1 L 103.721 57.427 L 99.512 43.541 L 100.292 41.867 L 102.006 42.537 C 103.775 47.761 105.336 53.064 106.683 58.431 L 108.554 58.096 L 110.736 57.594 L 110.424 57.594 Z  M 134.587 58.096 C 136.039 52.26 136.722 46.234 136.614 40.194 L 136.458 39.023 L 136.302 38.187 L 136.146 37.517 C 135.786 36.215 135.082 35.053 134.12 34.171 L 133.652 33.502 C 132.791 32.989 131.83 32.703 130.846 32.665 L 130.378 32.665 C 129.573 32.634 128.772 32.806 128.04 33.167 C 126.832 33.905 125.855 35.012 125.234 36.346 L 124.922 37.015 L 124.454 37.852 L 124.143 38.856 L 123.675 40.194 C 123.293 41.673 123.032 43.184 122.895 44.712 C 122.509 48.605 122.509 52.53 122.895 56.423 L 123.363 56.423 L 126.793 56.758 C 127.197 51.701 127.873 46.673 128.819 41.7 L 130.378 40.529 L 131.469 42.202 L 131.158 44.042 L 130.846 46.217 L 129.755 54.583 L 129.443 57.093 L 134.431 57.929 L 134.587 58.096 Z " fill-rule="evenodd" fill="rgb(67,50,49)"/><path d=" M 117.595 108.289 L 117.283 108.289 C 116.699 108.57 116.209 109.037 115.88 109.628 L 115.88 109.962 L 115.569 110.464 L 115.413 110.966 C 114.857 112.883 114.912 114.943 115.569 116.822 C 116.027 118.114 116.777 119.263 117.751 120.168 L 118.063 120.503 C 118.531 120.837 119.154 121.172 119.934 121.172 L 120.089 121.005 C 120.752 120.794 121.311 120.313 121.648 119.666 L 121.648 119.499 L 121.96 118.997 L 122.116 118.495 L 122.272 117.659 C 122.567 115.984 122.459 114.257 121.96 112.639 C 121.661 111.471 121.129 110.386 120.401 109.46 C 120.089 109.46 120.089 109.293 119.934 109.126 L 119.778 108.958 C 119.21 108.46 118.482 108.219 117.751 108.289 L 117.595 108.289 Z  M 116.816 102.266 C 117.752 102.113 118.707 102.17 119.622 102.433 L 120.401 102.601 C 122.272 103.27 123.831 104.776 125.078 106.282 C 126.412 108.149 127.32 110.327 127.728 112.639 C 128.196 114.842 128.196 117.129 127.728 119.332 C 127.18 121.972 125.735 124.298 123.675 125.857 C 122.077 127.019 120.11 127.442 118.219 127.028 L 117.128 126.693 C 115.191 125.965 113.506 124.623 112.295 122.845 C 109.619 119.016 108.755 114.07 109.957 109.46 C 110.58 107.453 111.516 105.612 113.074 104.274 L 113.698 103.605 C 114.506 103.042 115.405 102.645 116.348 102.433 L 116.816 102.433 L 116.816 102.266 Z " fill="rgb(237,76,82)"/></g></g></svg>