<?xml version="1.0" standalone="no"?><!-- Generator: Gravit.io --><svg xmlns="http://www.w3.org/2000/svg" xmlns:xlink="http://www.w3.org/1999/xlink" style="isolation:isolate" viewBox="0 0 300 300" width="300" height="300"><defs><clipPath id="_clipPath_PeMSpwuxw63ok8fEcc7SROa746tWiLdz"><rect width="300" height="300"/></clipPath></defs><g clip-path="url(#_clipPath_PeMSpwuxw63ok8fEcc7SROa746tWiLdz)"><g id="Group"><path d=" M 77.585 252.159 C 65.905 249.759 20.465 203.999 54.545 123.519 C 55.825 120.319 56.945 117.119 58.385 114.079 C 60.683 109.339 63.359 104.791 66.385 100.479 L 70.065 95.999 C 72.366 93.7 75.08 91.854 78.065 90.559 L 79.985 89.919 L 81.265 89.599 C 82.865 88.959 93.585 84.799 94.545 84.159 C 94.865 83.839 103.825 41.919 116.945 39.039 C 121.585 38.079 135.025 59.679 133.745 59.679 C 138.545 63.999 176.945 70.079 177.265 65.919 C 175.025 65.439 198.065 40.959 221.905 36.479 L 223.505 36.479 C 223.985 36.639 224.465 37.279 224.785 36.959 C 227.985 33.919 249.425 68.479 238.225 98.559 C 237.425 100.639 239.505 96.799 238.225 98.559 C 238.225 99.359 242.065 103.999 243.505 108.159 C 247.212 117.169 248.747 126.926 247.985 136.639 L 247.985 136.799 L 248.465 141.439 L 248.945 146.719 C 250.139 161.999 250.832 177.314 251.025 192.639 C 250.901 197.03 250.527 201.411 249.905 205.759 C 248.757 212.005 246.822 218.08 244.145 223.839 C 239.466 233.621 232.495 242.128 223.825 248.639 C 218.225 252.959 212.145 256.639 205.905 259.519 C 182.693 269.328 157.338 272.966 132.305 270.079 C 116.707 268.289 101.484 264.079 87.185 257.599 C 85.288 256.641 83.421 255.627 81.585 254.559 C 80.145 253.759 79.025 252.479 77.585 252.159 Z " fill-rule="evenodd" fill="rgb(0,0,0)" fill-opacity="0.2"/><path d=" M 84.465 244.799 C 72.785 242.399 27.505 196.799 61.425 116.159 L 65.265 106.719 C 67.553 101.974 70.229 97.425 73.265 93.119 C 74.385 91.519 75.665 90.079 77.105 88.799 C 79.406 86.5 82.12 84.654 85.105 83.359 L 86.865 82.719 L 88.145 82.239 C 89.745 81.759 100.465 77.439 101.425 76.799 C 101.745 76.479 110.865 34.559 123.825 31.839 C 128.625 30.719 141.905 52.319 140.625 52.319 C 145.425 56.639 183.825 62.719 184.145 58.719 C 181.905 57.919 204.945 33.599 228.945 28.959 L 230.545 29.119 C 230.865 29.119 231.345 29.759 231.665 29.439 C 234.865 26.559 256.465 60.959 245.105 91.039 C 244.465 93.119 246.385 89.279 245.105 91.039 C 245.105 91.839 248.945 96.479 250.545 100.639 L 253.265 109.439 C 254.842 115.872 255.382 122.516 254.865 129.119 L 254.865 129.279 L 255.345 133.919 L 255.825 139.199 C 257.018 154.479 257.712 169.794 257.905 185.119 C 257.792 189.505 257.472 193.883 256.945 198.239 C 255.759 204.547 253.77 210.677 251.025 216.479 C 246.346 226.261 239.375 234.768 230.705 241.279 C 218.074 250.514 203.619 256.951 188.305 260.159 C 172.184 263.726 155.576 264.538 139.185 262.559 C 123.587 260.769 108.364 256.559 94.065 250.079 C 92.219 249.18 90.405 248.22 88.625 247.199 C 87.025 246.399 86.065 244.959 84.465 244.639 L 84.465 244.799 Z " fill-rule="evenodd" fill="rgb(255,255,255)" vector-effect="non-scaling-stroke" stroke-width="1.44" stroke="rgb(207,207,207)" stroke-linejoin="round" stroke-linecap="butt" stroke-miterlimit="1.41"/><path d=" M 66.385 205.439 C 66.385 205.439 52.625 169.599 63.185 145.279 C 63.185 145.279 73.105 97.919 91.505 91.519 C 117.425 82.879 110.705 81.599 111.665 76.479 C 111.665 76.479 115.985 58.079 121.265 47.199 C 121.265 47.199 125.425 38.879 128.945 47.999 C 132.625 56.959 134.385 65.599 140.785 67.359 C 140.785 67.359 177.905 75.039 186.225 72.639 C 186.225 72.639 207.985 50.079 216.465 43.999 C 224.945 38.079 228.145 41.919 232.465 50.559 C 236.785 59.199 239.345 88.639 232.465 95.679 C 232.465 95.679 245.105 116.159 242.865 135.039 C 242.865 135.039 247.345 179.999 244.945 195.199 C 232.145 275.839 80.945 267.519 66.385 205.439 Z " fill-rule="evenodd" fill="rgb(209,173,86)"/><path d=" M 64.625 205.759 C 62.921 201.056 61.532 196.246 60.465 191.359 C 57.943 180.566 57.027 169.46 57.745 158.399 C 58.332 153.786 59.515 149.268 61.265 144.959 L 61.265 144.799 L 61.745 142.879 L 62.385 140.479 C 64.914 130.453 68.286 120.658 72.465 111.199 C 74.502 106.891 76.911 102.769 79.665 98.879 C 80.625 97.599 81.745 96.159 83.025 95.039 C 85.141 92.934 87.639 91.25 90.385 90.079 L 91.985 89.439 L 93.105 89.119 L 97.265 87.519 L 100.145 86.399 L 102.385 85.599 L 104.305 84.799 L 105.585 84.159 L 108.305 82.559 C 108.66 82.277 108.982 81.955 109.265 81.599 C 109.483 81.372 109.647 81.099 109.745 80.799 L 109.745 78.559 L 109.585 77.119 L 109.745 75.839 L 110.385 73.759 C 112.871 64.497 115.972 55.41 119.665 46.559 L 119.825 46.079 C 120.289 45.148 120.882 44.286 121.585 43.519 C 122.057 43.066 122.597 42.688 123.185 42.399 C 123.874 42.04 124.648 41.875 125.425 41.919 L 126.225 42.079 C 127.665 42.559 128.625 43.679 129.425 44.959 L 129.585 45.439 L 130.065 46.239 L 130.385 47.199 L 131.185 48.959 L 131.985 51.519 L 133.265 54.719 L 133.905 56.479 L 134.705 58.239 L 135.345 59.519 C 135.345 59.999 135.665 60.319 135.825 60.799 C 136.785 62.399 138.065 63.999 139.665 65.119 C 152.626 67.776 165.708 69.805 178.865 71.199 L 182.065 71.199 L 185.265 71.039 L 188.465 67.839 C 189.265 66.719 190.225 65.919 191.185 64.959 C 198.476 57.787 205.945 50.799 213.585 43.999 C 215.286 42.661 217.107 41.483 219.025 40.479 C 220.366 39.797 221.84 39.415 223.345 39.359 C 224.221 39.355 225.09 39.517 225.905 39.839 C 227.825 40.639 229.105 42.079 230.385 43.679 L 231.025 44.639 L 231.825 45.919 L 232.945 47.839 C 234.441 50.598 235.52 53.563 236.145 56.639 C 237.547 62.082 238.352 67.662 238.545 73.279 C 238.634 79.027 238.098 84.767 236.945 90.399 C 236.465 92.319 235.665 94.239 234.545 95.839 L 235.345 97.119 C 235.345 97.599 235.665 97.919 235.825 98.399 C 238.945 104.355 241.413 110.632 243.185 117.119 C 244.657 122.862 245.197 128.805 244.785 134.719 L 244.785 135.039 L 245.105 139.039 L 245.425 143.839 C 246.584 157.572 247.278 171.339 247.505 185.119 C 247.429 188.327 247.215 191.53 246.865 194.719 L 246.545 196.959 C 245.366 202.59 243.54 208.067 241.105 213.279 C 236.9 222.141 230.581 229.833 222.705 235.679 C 217.905 239.519 212.305 242.719 206.705 245.279 C 185.67 254.195 162.667 257.45 139.985 254.719 C 125.835 253.123 112.018 249.344 99.025 243.519 C 96.062 242.073 93.178 240.47 90.385 238.719 C 81.915 233.513 74.79 226.388 69.585 217.919 C 67.427 214.222 65.811 210.235 64.785 206.079 L 64.625 205.759 Z  M 187.185 74.079 L 187.025 74.239 L 186.545 74.239 L 185.745 74.559 L 183.025 74.879 C 179.923 74.992 176.818 74.831 173.745 74.399 C 162.706 73.454 151.746 71.743 140.945 69.279 L 140.465 69.279 C 139.312 68.938 138.229 68.396 137.265 67.679 C 135.025 66.079 133.425 63.679 132.145 61.279 C 131.576 60.199 131.094 59.076 130.705 57.919 L 129.745 55.199 L 128.145 51.039 C 128.145 50.399 127.665 49.759 127.505 48.959 C 127.148 47.992 126.664 47.077 126.065 46.239 C 125.919 46.065 125.758 45.905 125.585 45.759 L 125.265 45.599 L 124.785 45.599 C 124.051 46.218 123.452 46.98 123.025 47.839 L 122.545 48.959 C 119.856 54.609 117.713 60.502 116.145 66.559 L 114.385 73.119 L 113.745 75.679 L 113.425 76.959 L 113.425 77.279 C 113.265 78.079 113.425 78.879 113.425 79.519 L 113.425 79.999 C 113.489 80.813 113.38 81.631 113.105 82.399 C 112.411 83.864 111.297 85.09 109.905 85.919 L 108.945 86.399 L 107.825 87.039 L 106.225 87.839 L 104.305 88.799 C 100.303 90.612 96.188 92.162 91.985 93.439 L 91.345 93.439 C 88.999 94.522 86.881 96.043 85.105 97.919 L 81.905 101.919 L 78.705 107.199 C 75.249 113.148 72.51 119.486 70.545 126.079 C 68.301 132.472 66.431 138.989 64.945 145.599 L 64.945 145.919 L 64.465 146.879 L 64.145 147.999 C 61.56 154.835 60.469 162.146 60.945 169.439 C 61.187 179.739 63.022 189.94 66.385 199.679 L 67.985 204.799 L 68.145 204.959 L 68.465 206.079 L 68.785 207.199 C 69.736 210.443 71.079 213.56 72.785 216.479 C 77.661 224.543 84.482 231.255 92.625 235.999 C 95.688 237.95 98.898 239.661 102.225 241.119 C 109.751 244.731 117.709 247.366 125.905 248.959 C 149.712 254.098 174.462 252.772 197.585 245.119 C 207.185 241.599 216.465 236.639 224.145 229.759 C 233.109 221.663 239.459 211.079 242.385 199.359 C 243.549 194.324 244.086 189.165 243.985 183.999 C 244.126 173.85 243.699 163.7 242.705 153.599 L 241.105 135.679 L 241.105 133.919 L 241.265 133.119 C 241.493 128.159 240.953 123.194 239.665 118.399 C 237.914 110.772 234.942 103.478 230.865 96.799 L 230.865 96.639 L 230.705 96.319 C 230.643 96.056 230.643 95.782 230.705 95.519 L 230.865 94.719 L 231.345 94.079 L 231.665 93.759 C 232.555 92.444 233.205 90.981 233.585 89.439 C 234.243 87.038 234.619 84.568 234.705 82.079 C 235.164 76.638 235.003 71.163 234.225 65.759 C 233.545 61.091 232.474 56.488 231.025 51.999 C 230.085 50.063 229.016 48.192 227.825 46.399 C 227.825 46.079 227.825 45.919 227.505 45.599 L 227.025 44.959 C 226.267 43.983 225.191 43.304 223.985 43.039 L 223.025 43.039 C 222.479 43.071 221.941 43.179 221.425 43.359 C 218.651 44.637 216.11 46.367 213.905 48.479 L 211.185 50.719 C 202.994 57.923 195.197 65.56 187.825 73.599 L 187.505 73.599 L 187.505 73.759 L 187.185 73.919 L 187.185 74.079 Z " fill="rgb(67,50,49)"/><path d=" M 188.625 80.319 C 188.625 80.319 199.985 58.879 220.305 48.799 C 240.785 38.879 226.225 110.399 226.225 110.399 C 226.225 110.399 221.905 117.599 211.825 108.479 C 201.905 99.199 189.905 88.319 188.625 80.319 Z " fill-rule="evenodd" fill="rgb(192,158,76)"/><path d=" M 204.945 94.719 C 204.945 94.719 207.825 79.359 214.065 73.919 C 220.465 68.799 215.665 89.599 215.345 89.919 C 215.025 89.919 213.745 97.279 204.945 94.719 Z  M 122.865 48.319 C 122.865 48.319 119.025 63.679 129.265 73.439 C 129.265 73.439 137.105 76.159 138.865 72.479 C 138.865 72.479 130.065 59.199 127.345 51.199 C 125.425 45.759 122.865 48.479 122.865 48.479 L 122.865 48.319 Z " fill-rule="evenodd" fill="rgb(183,147,60)"/><path d=" M 110.225 239.999 C 68.945 228.639 52.945 175.679 75.985 122.239 C 75.985 122.239 79.505 114.239 87.985 115.839 C 94.705 117.439 91.825 122.239 91.185 129.119 C 90.545 135.999 87.825 142.879 98.705 144.159 C 109.585 145.439 136.305 149.439 152.785 153.279 C 169.265 157.279 170.385 156.319 178.385 150.399 C 186.385 144.479 209.905 133.439 229.585 149.919 C 229.585 149.919 240.945 160.479 219.985 190.079 C 199.185 219.679 173.265 250.399 110.225 239.999 Z  M 177.425 131.199 C 177.425 131.199 176.145 125.599 167.825 118.079 C 159.825 110.559 162.065 110.079 162.065 110.079 C 162.065 110.079 156.305 96.639 146.865 109.599 C 140.625 117.919 145.745 124.319 146.065 125.599 C 146.705 127.679 146.385 133.919 146.385 133.919 C 146.385 133.919 140.145 145.599 150.545 146.719 C 160.945 147.999 180.465 143.199 177.585 131.199 L 177.425 131.199 Z  M 96.785 117.279 C 96.785 117.279 93.105 137.759 110.385 129.279 C 110.385 129.279 114.865 126.079 116.785 119.679 C 118.545 112.959 124.785 111.999 124.785 111.999 C 124.785 111.999 136.785 103.519 128.465 97.119 C 119.985 90.719 111.825 100.319 106.225 104.799 C 102.317 108.324 99.113 112.559 96.785 117.279 Z " fill-rule="evenodd" fill="rgb(216,196,132)"/><path d=" M 86.865 190.399 C 86.865 190.399 101.905 202.719 123.185 199.679 C 144.305 196.799 155.505 203.999 155.825 206.079 C 155.985 207.999 159.025 219.199 128.785 220.159 C 91.505 221.439 86.865 190.559 86.865 190.559 L 86.865 190.399 Z  M 82.225 175.839 C 81.425 178.559 79.345 181.119 73.905 179.999 C 73.905 179.999 62.065 155.679 80.145 121.919 C 80.145 121.919 90.865 111.839 88.785 128.799 C 86.705 145.759 84.945 146.399 87.665 146.879 C 90.385 147.679 95.025 145.599 96.945 146.879 C 98.545 147.839 111.825 154.559 114.865 158.559 C 117.905 162.559 118.065 168.479 116.625 179.359 C 115.025 190.079 135.025 190.559 135.025 190.559 C 135.025 190.559 92.945 199.999 84.945 183.199 C 83.763 180.856 82.85 178.387 82.225 175.839 Z  M 154.225 157.439 C 160.305 158.239 167.025 161.759 177.105 157.439 C 180.625 155.839 183.025 151.679 185.745 152.959 C 188.465 154.399 198.865 160.959 179.025 167.039 C 159.185 173.119 151.505 167.519 149.585 165.439 C 143.825 158.879 151.185 157.119 154.385 157.439 L 154.225 157.439 Z " fill-rule="evenodd" fill="rgb(201,182,123)"/><path d=" M 93.745 175.039 C 93.745 175.039 112.465 184.959 116.465 184.959 C 120.305 184.959 141.425 183.039 143.665 182.559 C 145.905 181.919 105.585 197.919 88.145 183.679 C 75.345 172.959 93.745 175.039 93.745 175.039 Z  M 122.865 163.839 L 124.465 164.319 C 127.967 165.078 131.394 166.149 134.705 167.519 C 141.745 170.399 148.465 173.919 155.025 177.759 L 152.785 176.639 C 144.383 172.275 135.531 168.842 126.385 166.399 L 124.145 165.919 L 122.545 165.599 L 122.385 165.599 L 121.745 164.479 L 122.705 163.839 L 122.865 163.839 Z  M 81.265 158.719 L 81.585 158.719 L 82.225 159.839 L 81.265 160.479 L 79.985 160.479 C 75.574 161.999 71.336 163.984 67.345 166.399 L 59.345 171.839 L 60.945 170.559 C 65.062 167.241 69.391 164.195 73.905 161.439 C 75.185 160.639 76.625 159.999 77.905 159.519 C 78.923 159.086 80.003 158.816 81.105 158.719 L 81.265 158.719 Z  M 82.065 156.959 L 82.385 156.959 L 83.185 157.919 L 82.225 158.719 L 81.745 158.719 C 80.308 158.574 78.861 158.574 77.425 158.719 L 71.505 159.679 C 65.745 160.639 60.305 162.239 54.705 163.839 L 56.625 163.039 C 63.121 160.822 69.746 159.006 76.465 157.599 C 78.065 157.279 79.665 156.959 81.265 156.959 L 81.905 156.959 L 82.065 156.959 Z  M 128.465 156.479 C 135.025 156.479 141.585 157.119 148.145 158.079 L 146.065 157.919 C 137.847 157.461 129.607 157.675 121.425 158.559 C 120.993 158.644 120.565 158.751 120.145 158.879 L 119.025 158.239 L 119.505 157.119 L 121.105 156.959 L 122.705 156.639 L 127.505 156.479 L 128.465 156.479 Z  M 146.545 147.679 L 144.465 147.839 C 136.333 148.934 128.305 150.7 120.465 153.119 L 119.185 153.599 L 117.905 153.279 L 118.225 152.159 C 121.357 151.072 124.566 150.216 127.825 149.599 L 131.825 148.959 C 136.625 148.319 141.585 147.839 146.545 147.519 L 146.545 147.679 Z  M 52.625 148.319 C 62.173 148.906 71.681 150.027 81.105 151.679 L 81.745 152.799 L 80.625 153.439 L 80.145 153.279 L 79.185 152.959 C 75.506 151.923 71.765 151.121 67.985 150.559 C 62.545 149.599 57.105 148.959 51.665 148.319 L 52.625 148.319 Z  M 58.225 131.679 C 65.288 136.248 72.123 141.16 78.705 146.399 L 80.625 147.999 L 82.065 149.439 L 82.065 150.719 L 80.785 150.719 C 80.785 150.399 80.465 150.239 80.465 150.239 C 77.91 147.452 75.127 144.883 72.145 142.559 C 67.665 138.719 63.025 135.199 58.225 131.679 Z " fill-rule="evenodd" fill="rgb(61,55,43)"/><path d=" M 83.985 176.639 C 85.105 175.039 88.465 174.879 90.865 174.879 L 93.585 174.879 C 93.585 174.879 105.425 181.279 112.305 183.839 C 102.531 183.025 92.96 180.592 83.985 176.639 Z  M 87.025 163.679 C 86.065 162.719 78.705 153.119 88.145 146.719 C 97.745 140.479 110.865 148.639 111.825 151.199 C 111.825 151.199 117.105 165.119 98.065 168.799 L 94.385 169.279 C 94.385 169.279 90.065 166.399 87.025 163.679 Z  M 147.345 133.599 C 147.345 133.599 147.665 127.199 159.185 123.039 C 168.145 119.679 177.265 131.839 177.265 131.839 C 177.265 131.839 170.865 143.039 159.665 140.959 C 148.305 138.879 147.345 133.599 147.345 133.599 Z  M 114.225 118.559 C 114.225 118.559 110.545 109.599 102.545 112.959 C 94.225 116.159 98.545 126.079 98.545 126.079 C 98.545 126.079 104.305 132.799 110.865 124.959 L 114.385 118.559 L 114.225 118.559 Z " fill-rule="evenodd" fill="rgb(0,0,0)"/><path d=" M 159.185 138.559 C 159.185 138.559 156.145 132.799 159.025 129.439 C 161.745 126.079 164.465 128.319 164.465 128.319 C 164.465 128.319 159.825 121.919 154.065 129.439 C 147.665 137.599 159.025 140.639 159.185 138.559 Z  M 102.225 126.079 C 102.225 126.079 98.225 119.519 103.025 118.079 C 103.025 118.079 104.305 117.279 105.585 118.079 C 106.705 118.879 106.545 114.879 103.345 115.359 C 100.145 115.999 95.505 122.399 102.225 126.079 Z  M 110.545 116.799 C 111.345 116.799 111.985 117.439 111.985 118.079 C 111.985 118.879 111.345 119.519 110.545 119.519 C 109.793 119.519 109.185 118.91 109.185 118.159 C 109.185 117.408 109.793 116.799 110.545 116.799 Z " fill-rule="evenodd" fill="rgb(255,255,255)"/></g></g></svg>