<?xml version="1.0" standalone="no"?><!-- Generator: Gravit.io --><svg xmlns="http://www.w3.org/2000/svg" xmlns:xlink="http://www.w3.org/1999/xlink" style="isolation:isolate" viewBox="0 0 300 300" width="300" height="300"><defs><clipPath id="_clipPath_r3Cm2whBLy5xAxunmf5nvaiI9zHmisGL"><rect width="300" height="300"/></clipPath></defs><g clip-path="url(#_clipPath_r3Cm2whBLy5xAxunmf5nvaiI9zHmisGL)"><g id="Group"><path d=" M 122.373 83.819 L 126.846 77.765 L 126.846 76.216 L 128.747 73.4 L 136.686 68.613 L 139.594 68.331 L 141.83 70.725 C 145.838 69.679 149.927 69.207 154.019 69.317 C 159.281 69.196 164.536 69.858 169.675 71.288 L 171.8 69.035 L 174.707 69.317 L 182.647 74.245 L 184.548 76.92 L 184.548 78.891 C 184.995 79.313 186.225 81.003 187.902 83.537 C 193.292 81.684 198.343 78.528 202.775 74.245 C 213.063 91.563 206.242 101.841 201.657 106.346 L 203.334 109.162 L 203.446 110.852 L 203.67 112.26 L 204.117 116.343 C 206.81 123.765 210.52 130.533 215.076 136.336 L 216.53 138.167 L 216.977 138.73 C 219.107 141.481 220.847 144.672 222.121 148.163 L 222.792 149.994 C 224.117 154.001 224.43 158.426 223.686 162.665 C 223.257 164.632 222.494 166.457 221.45 168.016 C 220.693 169.391 219.746 170.583 218.654 171.535 C 217.705 172.402 216.694 173.156 215.635 173.788 L 216.53 176.745 C 217.679 180.858 218.985 184.899 220.443 188.853 L 220.779 189.417 L 221.226 190.261 L 221.785 191.669 C 224.556 197.548 226.735 203.839 228.271 210.395 L 228.607 212.789 L 228.83 214.479 C 229.214 218.24 228.708 222.059 227.377 225.461 C 226.789 226.78 226.034 227.97 225.14 228.981 C 224.246 229.825 223.351 230.67 222.345 231.233 C 220.779 232.078 218.99 232.641 217.312 232.923 C 215.082 233.181 212.839 233.228 210.603 233.064 L 207.024 232.641 L 205.571 232.501 C 198.638 231.797 191.704 231.515 184.771 231.515 C 177.055 231.515 169.339 231.515 161.623 231.797 C 142.968 232.387 124.326 233.514 105.711 235.176 L 105.152 235.176 C 100.071 235.782 94.948 235.45 89.944 234.19 C 86.265 233.142 82.918 230.741 80.327 227.291 C 79.107 225.445 78.228 223.281 77.755 220.955 C 77.419 218.984 77.195 216.731 77.307 214.619 C 77.531 210.959 78.202 207.298 79.208 203.778 L 79.991 201.244 L 81.109 197.724 L 82.116 194.063 C 81.916 194.292 81.69 194.482 81.445 194.626 C 80.846 194.893 80.183 194.788 79.656 194.345 C 79.487 194.183 79.337 193.994 79.208 193.781 C 78.854 193.208 78.623 192.529 78.537 191.81 C 78.466 191.204 78.428 190.593 78.426 189.98 L 78.426 189.698 C 77.589 189.568 76.765 189.332 75.965 188.994 C 75.039 189.669 74.066 190.234 73.058 190.684 C 72.729 190.812 72.393 190.907 72.051 190.965 L 70.933 190.965 C 70.339 190.778 69.845 190.259 69.591 189.557 C 69.526 189.331 69.488 189.094 69.479 188.853 C 69.479 188.149 69.479 187.446 69.815 186.742 L 70.374 185.193 L 70.598 184.63 C 70.313 184.182 70.051 183.712 69.815 183.222 L 69.256 183.222 C 68.747 183.429 68.222 183.571 67.69 183.644 L 66.572 183.644 C 66.411 183.525 66.261 183.383 66.125 183.222 C 65.685 182.824 65.4 182.21 65.342 181.532 L 65.342 180.406 L 66.46 178.153 L 68.026 175.619 C 68.002 174.299 68.077 172.979 68.249 171.676 C 68.249 170.972 68.249 170.409 68.473 169.846 C 68.721 168.071 69.096 166.327 69.591 164.636 C 70.433 161.659 71.559 158.822 72.946 156.189 C 76.455 149.157 80.922 142.961 86.141 137.885 L 88.378 135.773 L 89.72 134.506 L 90.391 133.802 C 94.269 130.089 97.73 125.732 100.679 120.849 L 103.922 115.639 L 103.922 115.498 L 104.145 114.935 L 104.145 114.654 L 105.711 109.022 C 105.711 108.74 106.382 107.754 107.276 106.206 C 102.803 101.982 95.982 91.563 106.158 74.245 C 106.158 74.245 114.769 82.693 122.485 83.819 L 122.373 83.819 Z " fill-rule="evenodd" fill="rgb(0,0,0)" fill-opacity="0.2"/><path d=" M 127.964 79.877 L 132.437 73.822 L 132.437 72.414 L 134.338 69.599 L 142.278 64.671 L 145.185 64.53 L 147.422 66.783 C 151.393 65.747 155.444 65.275 159.499 65.375 C 164.765 65.3 170.02 66.009 175.154 67.487 L 177.391 65.234 L 180.298 65.375 L 188.238 70.302 L 190.139 73.118 L 190.027 74.949 C 190.586 75.371 191.816 77.061 193.382 79.595 C 200.762 77.765 208.366 70.302 208.366 70.302 C 218.654 87.621 211.833 98.039 207.248 102.404 C 208.366 104.094 208.814 105.22 208.814 105.22 L 209.037 107.05 L 209.149 108.458 L 209.708 112.401 C 212.435 119.834 216.183 126.602 220.779 132.394 L 222.233 134.224 L 222.68 134.928 C 224.799 137.638 226.539 140.78 227.824 144.221 L 228.495 146.051 C 229.783 150.074 230.056 154.498 229.278 158.723 C 228.855 160.665 228.133 162.483 227.153 164.073 C 226.37 165.481 225.364 166.608 224.357 167.593 C 223.408 168.46 222.398 169.214 221.338 169.846 L 222.121 172.943 C 223.31 177.012 224.653 181.005 226.147 184.911 L 226.482 185.615 L 226.929 186.46 L 227.488 187.586 C 230.268 193.51 232.447 199.848 233.974 206.453 L 234.31 208.847 L 234.533 210.536 C 234.917 214.297 234.411 218.117 233.08 221.518 C 232.494 222.84 231.738 224.029 230.843 225.038 C 229.949 226.024 228.942 226.728 228.048 227.291 C 224.255 229.01 220.204 229.635 216.194 229.121 L 212.839 228.699 L 211.274 228.699 C 204.341 227.854 197.407 227.573 190.474 227.573 C 182.758 227.573 175.042 227.573 167.327 227.854 C 148.671 228.444 130.029 229.57 111.414 231.233 L 110.743 231.233 C 105.699 231.819 100.615 231.487 95.647 230.248 C 91.982 229.239 88.635 226.888 86.03 223.49 C 84.79 221.66 83.909 219.49 83.458 217.154 C 83.01 215.042 82.899 212.93 83.01 210.677 C 83.257 206.051 84.166 201.52 85.694 197.301 L 86.812 193.781 C 87.036 192.655 87.372 191.388 87.819 190.261 C 87.578 190.456 87.314 190.599 87.036 190.684 C 86.471 190.905 85.858 190.802 85.359 190.402 C 85.194 190.236 85.044 190.047 84.911 189.839 C 84.565 189.26 84.335 188.583 84.24 187.868 L 84.017 186.178 L 84.017 185.756 C 83.181 185.619 82.357 185.383 81.557 185.052 C 80.666 185.719 79.731 186.284 78.761 186.742 C 78.432 186.87 78.096 186.964 77.755 187.023 L 76.636 187.023 C 76.042 186.835 75.548 186.317 75.294 185.615 C 75.237 185.435 75.199 185.245 75.183 185.052 C 75.183 184.207 75.183 183.644 75.406 182.94 L 76.077 181.25 L 76.301 180.687 C 75.982 180.339 75.683 179.962 75.406 179.561 L 74.847 179.561 C 74.334 179.721 73.81 179.815 73.282 179.842 L 72.163 179.842 C 71.491 179.53 71.015 178.768 70.933 177.871 L 70.933 176.604 C 71.133 175.841 71.436 175.127 71.828 174.492 L 73.393 171.817 L 73.393 169.424 L 73.505 168.016 L 73.729 166.044 C 74.605 161.207 76.198 156.621 78.426 152.528 C 81.867 145.52 86.257 139.325 91.397 134.224 L 93.634 131.972 L 95.087 130.704 L 95.758 130.141 C 99.644 126.385 103.106 121.98 106.046 117.047 L 109.289 111.838 L 109.289 111.697 L 109.401 111.134 L 109.401 110.852 L 111.078 105.22 C 111.078 104.939 111.749 103.953 112.644 102.545 C 108.171 98.18 101.238 87.902 111.526 70.443 C 111.526 70.443 120.136 78.891 127.852 80.017 L 127.964 79.877 Z " fill-rule="evenodd" fill="rgb(255,255,255)" vector-effect="non-scaling-stroke" stroke-width="0.438" stroke="rgb(207,207,207)" stroke-linejoin="round" stroke-linecap="butt" stroke-miterlimit="1.41"/><path d=" M 214.069 166.889 C 215.97 174.351 217.76 180.406 219.102 183.081 C 224.357 193.218 236.994 226.024 209.037 222.082 C 181.081 218.139 114.321 224.334 114.321 224.334 C 114.321 224.334 81.333 230.529 91.397 195.893 L 95.87 180.546 C 89.049 183.362 81.892 179.983 80.997 170.691 C 79.656 157.315 90.614 140.701 100.008 132.112 C 105.443 126.484 110.158 119.836 113.986 112.401 C 113.986 112.401 121.59 71.57 157.598 70.302 C 189.468 69.317 202.328 97.054 203.111 107.614 C 203.111 109.022 203.446 111.134 203.782 113.809 C 205.123 117.751 208.814 126.762 214.964 134.647 C 222.456 143.798 226.706 159.99 214.069 167.03 L 214.069 166.889 Z " fill-rule="evenodd" fill="rgb(249,114,99)"/><path d=" M 108.954 202.511 C 112.979 202.37 116.334 205.608 116.446 209.832 C 116.446 214.056 113.315 217.576 109.289 217.576 C 105.264 217.717 101.909 214.479 101.797 210.255 C 101.797 206.031 104.928 202.652 108.954 202.511 Z  M 208.59 199.413 C 204.564 199.413 201.433 202.933 201.433 207.157 C 201.545 211.381 204.9 214.619 208.925 214.479 C 212.951 214.479 216.194 210.959 216.082 206.735 C 216.082 202.511 212.728 199.272 208.59 199.413 Z  M 118.794 197.301 C 120.136 197.301 121.143 198.709 121.255 200.399 C 121.255 202.088 120.136 203.496 119.018 203.637 C 117.676 203.637 116.558 202.229 116.558 200.54 C 116.558 198.85 117.564 197.442 118.794 197.301 Z  M 103.251 195.471 C 104.593 195.471 105.711 196.879 105.711 198.568 C 105.711 200.258 104.704 201.666 103.474 201.666 C 102.132 201.666 101.014 200.399 101.014 198.709 C 101.014 197.02 102.021 195.471 103.251 195.471 Z  M 198.638 194.908 C 198.004 194.904 197.398 195.239 196.971 195.829 C 196.545 196.42 196.338 197.211 196.401 198.005 C 196.401 199.836 197.519 201.103 198.638 201.103 C 199.979 201.103 200.986 199.695 200.986 197.864 C 200.986 196.175 199.868 194.767 198.638 194.908 Z  M 111.414 193.077 C 112.756 193.077 113.874 194.485 113.874 196.175 C 113.874 197.864 112.868 199.272 111.638 199.272 C 110.296 199.272 109.177 198.005 109.177 196.316 C 109.177 194.626 110.184 193.077 111.414 193.077 Z  M 214.069 192.092 C 213.435 192.088 212.83 192.423 212.403 193.014 C 211.977 193.604 211.77 194.395 211.833 195.189 C 211.833 197.02 212.951 198.287 214.069 198.287 C 215.411 198.287 216.418 196.879 216.418 195.049 C 216.418 193.359 215.3 191.951 214.069 192.092 Z  M 123.491 197.864 C 123.491 197.864 125.28 191.388 123.938 189.698 C 122.596 188.009 120.584 191.529 119.913 192.373 C 119.242 193.218 123.603 198.005 123.603 198.005 L 123.491 197.864 Z  M 205.794 190.121 C 204.452 190.121 203.558 191.529 203.558 193.359 C 203.558 195.049 204.676 196.457 205.794 196.457 C 207.136 196.457 208.255 195.049 208.143 193.218 C 208.143 191.529 207.024 190.121 205.794 190.121 Z  M 192.711 195.753 C 192.711 195.753 190.81 189.276 192.04 187.586 C 193.27 185.756 195.395 189.135 196.177 189.98 C 196.96 190.825 192.823 195.753 192.823 195.753 L 192.711 195.753 Z  M 103.922 192.092 C 103.922 192.092 105.711 185.474 107.5 185.052 C 109.401 184.63 109.289 188.994 109.513 190.261 C 109.737 191.388 103.922 192.092 103.922 192.092 Z  M 111.638 190.965 C 111.638 190.965 114.545 185.334 116.446 185.334 C 118.347 185.615 117.341 189.839 117.341 190.965 C 117.341 192.373 111.638 190.965 111.638 190.965 Z  M 204.452 188.149 C 204.452 188.149 201.21 182.518 199.309 182.799 C 197.519 183.222 198.638 187.305 198.749 188.431 C 198.749 189.839 204.341 188.009 204.341 188.009 L 204.452 188.149 Z  M 212.057 188.713 C 212.057 188.713 210.156 182.236 208.255 181.954 C 206.354 181.673 206.689 185.897 206.465 187.164 C 206.354 188.572 212.057 188.572 212.057 188.572 L 212.057 188.713 Z  M 95.535 179.983 C 95.535 179.983 93.634 186.319 91.845 186.601 C 89.944 187.023 90.95 181.391 89.944 181.391 C 89.72 181.391 95.423 181.391 95.535 179.983 Z  M 88.154 180.687 C 88.154 180.687 84.352 184.066 82.563 183.081 C 80.886 182.095 83.234 178.857 83.234 177.449 C 83.234 176.886 87.707 181.391 88.154 180.687 Z  M 81.668 168.297 C 81.668 168.297 77.643 172.943 78.09 175.337 C 78.537 177.59 81.668 175.759 82.563 175.337 C 82.899 175.337 80.774 168.579 81.668 168.297 Z  M 178.062 156.048 C 178.062 156.048 173.253 152.809 173.253 150.416 C 173.253 150.416 177.279 150.134 177.726 149.008 C 177.726 148.726 177.503 156.048 178.062 156.048 Z  M 178.062 147.037 C 178.062 147.037 175.49 144.643 175.825 142.25 C 176.384 139.997 179.515 141.687 180.41 141.968 C 181.416 142.25 178.174 147.037 178.174 147.037 L 178.062 147.037 Z  M 187.791 138.307 C 187.791 138.307 183.318 134.365 181.64 135.491 C 179.963 136.477 181.976 139.856 182.423 141.123 C 182.87 142.109 187.791 138.307 187.791 138.307 Z  M 126.287 85.227 C 126.287 85.227 118.794 85.649 112.868 76.779 C 112.868 76.779 106.382 98.18 118.235 99.588 L 126.399 85.227 L 126.287 85.227 Z  M 191.257 85.509 C 191.257 85.509 200.986 85.649 206.913 76.779 C 206.913 76.779 215.97 97.617 200.65 99.87 C 198.526 94.66 196.513 89.451 191.257 85.509 Z " fill-rule="evenodd" fill="rgb(244,224,82)"/><path d=" M 174.931 89.028 C 180.969 85.79 188.573 90.859 191.928 100.433 C 195.283 110.148 193.27 120.567 187.231 123.946 C 181.305 127.184 173.812 122.116 170.458 112.542 C 166.991 102.827 169.004 92.408 174.931 89.028 Z  M 143.843 89.028 C 137.917 85.79 130.312 90.859 126.958 100.433 C 123.603 110.148 125.616 120.567 131.542 123.946 C 137.581 127.184 145.073 122.116 148.54 112.542 C 151.895 102.827 149.77 92.408 143.843 89.028 Z " fill-rule="evenodd" fill="rgb(252,247,213)"/><path d=" M 175.042 88.324 C 180.298 85.509 187.008 89.873 189.915 98.321 C 192.934 106.769 191.033 116.061 185.889 119.018 C 180.634 121.834 173.924 117.329 171.017 108.881 C 167.997 100.433 169.898 91.14 175.042 88.324 Z  M 143.731 88.324 C 138.476 85.509 131.878 89.873 128.859 98.321 C 125.839 106.769 127.74 116.061 132.996 119.018 C 138.14 121.834 144.85 117.329 147.869 108.881 C 150.776 100.433 148.987 91.14 143.731 88.324 Z  M 180.186 103.39 C 181.299 102.792 182.586 103.416 183.094 104.798 C 183.498 106.159 183.014 107.683 181.976 108.318 C 181.429 108.649 180.798 108.687 180.228 108.421 C 179.659 108.156 179.2 107.61 178.956 106.91 C 178.496 105.471 179.046 103.834 180.186 103.249 L 180.186 103.39 Z  M 138.699 103.39 C 138.152 103.058 137.521 103.021 136.952 103.286 C 136.383 103.552 135.923 104.097 135.68 104.798 C 135.276 106.159 135.76 107.683 136.798 108.318 C 137.345 108.649 137.976 108.687 138.545 108.421 C 139.115 108.156 139.574 107.61 139.818 106.91 C 140.292 105.509 139.797 103.888 138.699 103.249 L 138.699 103.39 Z  M 182.311 92.408 C 184.324 91.281 186.784 92.408 187.679 94.942 C 188.573 97.476 187.679 100.433 185.442 101.559 C 183.429 102.686 180.969 101.559 180.075 99.166 C 179.225 96.522 180.222 93.51 182.311 92.408 Z  M 136.463 92.408 C 135.485 91.838 134.367 91.785 133.358 92.261 C 132.349 92.738 131.534 93.703 131.095 94.942 C 130.201 97.476 131.207 100.433 133.332 101.559 C 135.456 102.686 137.805 101.559 138.699 99.166 C 139.594 96.632 138.699 93.534 136.463 92.408 Z  M 175.266 96.772 C 176.378 96.175 177.666 96.799 178.174 98.18 C 178.648 99.58 178.153 101.202 177.055 101.841 C 176.508 102.173 175.878 102.21 175.308 101.945 C 174.739 101.679 174.28 101.133 174.036 100.433 C 173.575 98.994 174.125 97.358 175.266 96.772 Z  M 143.62 96.772 C 143.073 96.441 142.442 96.403 141.872 96.669 C 141.303 96.934 140.844 97.48 140.6 98.18 C 140.126 99.58 140.621 101.202 141.719 101.841 C 142.949 102.404 144.291 101.841 144.738 100.433 C 145.212 99.033 144.717 97.411 143.62 96.772 Z " fill-rule="evenodd" fill="rgb(20,17,27)"/><path d=" M 145.521 118.877 C 145.521 118.877 146.639 110.007 141.271 115.498 C 138.14 118.737 137.805 116.906 135.233 114.372 C 133.22 112.26 133.555 111.697 131.319 112.964 C 129.082 114.372 128.747 114.654 126.846 112.964 C 125.057 111.415 125.728 116.202 125.728 116.202 L 129.082 122.257 L 135.68 125.213 L 141.495 122.82 L 145.521 118.877 Z  M 173.365 118.737 C 173.365 118.737 172.247 110.007 177.503 115.498 C 180.634 118.737 181.081 116.906 183.541 114.372 C 185.554 112.26 185.219 111.697 187.455 112.964 C 189.692 114.372 190.027 114.654 191.928 112.964 C 193.717 111.415 193.27 115.217 193.27 115.217 L 190.81 120.849 L 185.219 125.072 L 178.621 123.665 L 173.253 118.737 L 173.365 118.737 Z " fill-rule="evenodd" fill="rgb(10,161,230)"/><path d=" M 133.891 76.92 L 133.891 75.512 L 135.568 72.978 L 142.949 68.331 L 145.632 68.05 L 147.645 70.302 C 151.319 69.305 155.07 68.833 158.828 68.895 C 163.682 68.819 168.525 69.481 173.253 70.866 L 175.154 68.754 L 177.838 69.035 L 185.219 73.541 L 186.896 76.075 L 186.896 78.046 C 189.132 79.736 191.145 81.707 193.046 83.96 C 196.94 83.416 200.647 81.569 203.782 78.61 C 204.676 77.765 205.347 76.779 206.018 75.794 L 206.13 75.653 L 206.354 75.512 C 206.459 75.443 206.572 75.395 206.689 75.371 L 207.248 75.371 C 207.52 75.447 207.759 75.648 207.919 75.934 L 208.143 76.498 L 208.478 77.624 C 209.261 79.877 209.82 82.411 210.156 84.805 C 210.379 86.635 210.379 88.465 210.156 90.296 C 209.943 92.309 209.37 94.235 208.478 95.928 C 207.964 96.943 207.322 97.846 206.577 98.603 C 205.459 99.729 204.229 100.433 202.887 100.996 C 203.455 102.813 203.867 104.701 204.117 106.628 L 204.341 108.318 L 204.341 109.585 L 204.9 113.386 C 207.358 120.406 210.763 126.837 214.964 132.394 L 216.306 134.083 C 216.83 134.832 217.352 135.583 217.871 136.336 C 219.602 139.01 220.997 142.001 222.009 145.206 C 223.233 149.051 223.506 153.272 222.792 157.315 C 222.421 159.098 221.775 160.773 220.891 162.243 C 220.108 163.651 219.213 164.636 218.207 165.622 L 215.523 167.734 C 216.843 173.115 218.526 178.343 220.555 183.362 L 221.114 184.489 C 223.677 190.113 225.668 196.121 227.041 202.37 C 227.276 203.673 227.462 204.988 227.6 206.312 C 227.934 209.829 227.469 213.393 226.258 216.59 C 225.721 217.871 225 219.017 224.134 219.97 C 223.393 220.81 222.565 221.52 221.674 222.082 C 218.222 223.754 214.498 224.334 210.827 223.771 L 207.584 223.49 L 206.242 223.208 C 192.795 222.418 179.332 222.183 165.873 222.504 C 148.708 223.069 131.557 224.149 114.433 225.742 L 113.874 225.883 C 109.699 226.446 105.482 226.256 101.35 225.32 L 99.896 224.897 C 96.506 223.89 93.431 221.635 91.062 218.421 C 89.976 216.631 89.212 214.565 88.825 212.367 C 88.445 210.386 88.294 208.347 88.378 206.312 C 88.49 202.792 89.161 199.413 90.055 196.175 L 90.838 193.641 L 91.733 190.402 L 92.739 187.023 C 92.533 187.204 92.307 187.347 92.068 187.446 C 91.539 187.642 90.967 187.54 90.503 187.164 C 90.335 187.058 90.183 186.915 90.055 186.742 C 89.741 186.154 89.548 185.476 89.496 184.77 C 89.393 184.214 89.319 183.649 89.273 183.081 L 89.273 182.799 C 88.509 182.666 87.759 182.43 87.036 182.095 C 86.212 182.734 85.352 183.299 84.464 183.785 C 84.174 183.916 83.874 184.011 83.569 184.066 L 82.451 184.066 C 81.718 183.833 81.181 183.043 81.109 182.095 C 81.109 181.391 81.109 180.687 81.333 180.124 C 81.551 179.396 81.813 178.69 82.116 178.012 C 81.831 177.565 81.569 177.094 81.333 176.604 L 81.109 176.745 C 80.603 176.965 80.077 177.107 79.544 177.167 C 79.208 177.167 78.873 177.167 78.537 176.886 C 77.892 176.558 77.456 175.79 77.419 174.915 L 77.419 174.07 L 78.202 171.958 L 79.767 169.564 L 79.767 165.763 C 79.908 164.475 80.133 163.203 80.438 161.961 C 80.894 159.771 81.532 157.648 82.339 155.625 L 84.24 151.12 C 87.878 143.581 92.667 137.025 98.33 131.831 L 99.672 130.564 L 100.231 130 C 103.838 126.495 107.037 122.372 109.737 117.751 L 112.644 112.823 L 112.644 112.542 L 112.868 112.119 L 112.868 111.838 C 113.682 107.954 114.884 104.217 116.446 100.715 C 114.474 99.817 112.734 98.26 111.414 96.209 C 110.958 95.427 110.582 94.575 110.296 93.675 C 109.446 90.847 109.214 87.784 109.625 84.805 L 109.848 83.397 C 110.335 80.927 111.009 78.523 111.861 76.216 L 111.861 75.934 C 112.021 75.648 112.261 75.447 112.532 75.371 L 113.315 75.371 C 113.439 75.439 113.553 75.534 113.65 75.653 L 113.762 75.794 L 114.21 76.357 L 116.446 79.032 C 119.388 81.76 122.87 83.417 126.51 83.819 C 128.776 81.206 131.249 78.894 133.891 76.92 Z  M 134.785 79.736 C 132.943 81.22 131.187 82.867 129.53 84.664 L 127.069 86.917 C 122.82 91.985 119.242 98.18 117.005 105.22 L 114.992 113.668 L 114.881 113.95 L 113.986 117.188 L 97.659 177.731 L 96.653 181.673 L 95.87 184.489 L 93.41 192.937 L 92.404 196.738 L 92.18 197.583 C 91.397 200.399 90.838 203.356 90.726 206.453 C 90.614 208.283 90.726 209.973 91.062 211.663 C 91.381 213.331 91.951 214.908 92.739 216.309 C 94.369 218.949 96.651 220.832 99.225 221.659 C 99.672 221.659 100.008 221.941 100.343 222.082 C 101.512 222.503 102.71 222.786 103.922 222.926 L 106.382 223.208 L 109.625 223.208 C 111.118 223.202 112.611 223.108 114.098 222.926 C 137.809 220.86 161.564 219.687 185.33 219.406 C 192.83 219.496 200.326 219.871 207.807 220.533 L 209.82 220.814 L 210.715 220.814 C 212.951 221.096 214.964 221.096 217.089 220.674 C 218.319 220.392 219.661 219.97 220.779 219.266 C 221.896 218.597 222.887 217.637 223.686 216.45 C 224.891 214.11 225.478 211.35 225.364 208.565 L 225.364 207.439 L 225.252 206.031 L 225.028 204.06 C 224.77 202.287 224.396 200.545 223.91 198.85 C 222.698 194.137 221.006 189.641 218.878 185.474 L 218.431 184.489 L 217.871 183.503 L 217.648 182.94 C 216.187 178.795 214.881 174.567 213.734 170.268 L 213.398 168.86 L 212.616 169.283 C 210.156 170.268 207.584 170.972 204.9 171.254 C 198.514 172.245 192.037 170.926 186.225 167.452 C 182.379 164.923 179.224 160.999 177.167 156.189 C 176.161 155.485 175.266 154.781 174.483 153.936 C 173.921 153.377 173.43 152.712 173.03 151.965 C 172.863 151.568 172.75 151.14 172.694 150.698 C 172.582 149.994 172.694 149.29 173.03 148.726 C 173.165 148.565 173.316 148.423 173.477 148.304 C 174.036 148.022 174.595 147.882 175.266 147.882 C 175.564 147.85 175.863 147.85 176.161 147.882 L 176.496 146.192 C 176.496 145.91 176.273 145.77 176.161 145.488 C 175.991 145.126 175.841 144.75 175.713 144.362 C 175.381 143.688 175.225 142.9 175.266 142.109 C 175.306 141.815 175.382 141.53 175.49 141.264 L 175.825 140.701 C 175.991 140.521 176.18 140.378 176.384 140.279 C 176.746 140.137 177.126 140.089 177.503 140.138 L 179.18 140.56 L 179.963 140.842 L 180.969 139.856 L 181.193 139.715 L 180.969 139.293 L 180.746 138.73 L 180.522 138.167 C 180.248 137.357 180.248 136.442 180.522 135.632 L 180.634 135.21 L 180.969 134.787 C 181.108 134.669 181.258 134.575 181.416 134.506 C 181.662 134.353 181.927 134.257 182.199 134.224 L 182.311 134.224 C 183.128 134.323 183.924 134.609 184.659 135.069 L 186.337 136.195 L 187.231 136.759 L 188.014 136.759 L 190.027 136.618 C 194.655 136.819 199.1 138.948 202.663 142.672 C 203.381 143.061 204.131 143.344 204.9 143.517 L 205.235 143.517 L 208.143 144.925 C 207.925 145.304 207.661 145.637 207.36 145.91 C 206.237 146.543 204.979 146.692 203.782 146.333 C 203.283 146.208 202.796 146.019 202.328 145.77 C 202.023 145.598 201.725 145.41 201.433 145.206 L 200.874 144.643 C 200.296 144.139 199.699 143.669 199.085 143.235 L 197.519 142.109 C 189.803 136.336 174.595 143.798 178.845 153.795 L 178.956 154.077 C 179.364 155.441 179.929 156.722 180.634 157.878 L 181.752 159.709 C 182.952 161.373 184.348 162.798 185.889 163.932 C 190.755 167.513 196.374 169.135 201.992 168.579 C 205.288 168.332 208.551 167.624 211.721 166.467 L 212.616 166.185 L 215.411 164.636 L 215.411 164.496 C 216.719 163.525 217.891 162.288 218.878 160.835 C 219.854 159.331 220.508 157.537 220.779 155.625 C 221.226 152.809 220.779 149.712 220.108 146.896 L 219.549 145.488 C 218.361 142.047 216.695 138.9 214.629 136.195 L 213.51 134.787 C 210.814 131.347 208.45 127.52 206.465 123.383 C 206.465 123.383 202.44 114.794 202.104 112.119 L 202.104 108.881 L 201.88 107.473 L 201.88 107.05 C 201.646 105.363 201.271 103.711 200.762 102.123 L 199.644 98.884 L 199.197 98.18 C 198.055 95.575 196.706 93.122 195.171 90.859 L 194.947 90.436 L 192.599 87.057 L 189.803 84.241 C 188.461 82.833 187.12 81.707 185.778 80.581 L 184.659 81.707 L 182.087 81.425 L 174.707 76.92 L 172.918 74.386 L 172.918 73.822 L 171.8 73.541 C 163.892 71.297 155.696 71.201 147.757 73.259 L 147.757 73.682 L 146.08 76.216 L 138.699 80.862 L 136.015 81.003 L 134.897 79.595 L 134.785 79.736 Z  M 109.401 201.666 L 110.519 201.666 C 111.411 201.83 112.278 202.162 113.091 202.652 C 113.874 203.215 114.657 203.919 115.328 204.764 C 115.775 205.468 116.222 206.171 116.446 207.016 C 117.226 209.014 117.226 211.354 116.446 213.352 C 116.102 214.192 115.648 214.954 115.104 215.605 C 113.45 217.479 111.29 218.486 109.066 218.421 C 106.87 218.525 104.733 217.51 103.139 215.605 C 102.174 214.478 101.51 213.002 101.238 211.381 C 100.976 209.037 101.548 206.667 102.803 204.904 C 103.439 204.032 104.197 203.316 105.04 202.792 C 106.26 202.048 107.598 201.663 108.954 201.666 L 109.401 201.666 Z  M 108.842 203.356 C 106.936 203.427 105.129 204.438 103.81 206.171 C 103.052 207.213 102.616 208.562 102.58 209.973 C 102.463 210.949 102.621 211.945 103.027 212.789 C 103.251 213.493 103.698 214.197 104.145 214.619 C 105.487 216.027 107.5 216.872 109.289 216.731 C 111.137 216.775 112.917 215.859 114.21 214.197 C 114.66 213.668 115.038 213.05 115.328 212.367 C 116.166 210.093 115.71 207.396 114.21 205.749 C 113.07 204.414 111.619 203.575 110.072 203.356 L 108.954 203.356 L 108.842 203.356 Z  M 209.037 198.568 L 210.156 198.568 L 212.728 199.554 C 213.568 200.083 214.325 200.799 214.964 201.666 C 216.794 203.909 217.248 207.393 216.082 210.255 C 215.744 211.099 215.29 211.862 214.74 212.507 C 213.086 214.381 210.926 215.389 208.702 215.323 C 206.514 215.367 204.395 214.36 202.775 212.507 C 202.241 211.899 201.788 211.186 201.433 210.395 C 200.669 208.453 200.629 206.184 201.321 204.2 C 201.594 203.378 201.972 202.617 202.44 201.948 C 203.065 201.025 203.824 200.261 204.676 199.695 C 205.9 198.964 207.236 198.58 208.59 198.568 L 209.037 198.568 Z  M 103.922 189.839 L 104.145 189.276 C 104.606 187.988 105.168 186.762 105.823 185.615 C 106.174 185.052 106.637 184.615 107.165 184.348 L 107.836 184.348 C 107.984 184.329 108.134 184.329 108.283 184.348 L 108.618 184.489 C 109.289 184.911 109.625 185.897 109.737 186.742 L 109.737 187.164 L 109.96 187.868 L 109.96 188.572 C 110.705 188.538 111.451 188.538 112.197 188.572 C 112.832 187.55 113.543 186.607 114.321 185.756 C 114.882 185.123 115.586 184.729 116.334 184.63 L 116.446 184.63 C 116.807 184.647 117.156 184.794 117.452 185.052 L 117.676 185.193 C 118.123 185.897 118.347 186.882 118.235 187.727 L 118.235 188.853 L 118.123 189.839 L 118.123 189.98 L 120.024 190.965 L 120.472 190.402 L 120.695 190.121 C 121.026 189.643 121.402 189.218 121.814 188.853 C 122.126 188.636 122.467 188.493 122.82 188.431 L 123.267 188.431 C 123.827 188.431 124.274 188.853 124.609 189.417 L 124.945 190.261 C 125.057 190.965 125.168 191.669 125.057 192.514 C 124.992 193.702 124.843 194.88 124.609 196.034 L 125.392 198.005 C 126.363 201.564 126.363 205.429 125.392 208.987 C 125.005 210.829 124.481 212.62 123.827 214.338 L 122.261 215.042 L 121.814 213.071 C 122.989 210.082 123.674 206.826 123.827 203.496 C 123.827 202.088 123.491 200.54 123.267 198.991 C 122.149 193.077 109.96 189.135 104.257 192.796 C 102.915 193.5 101.573 194.626 100.455 195.893 C 97.88 199.191 96.197 203.429 95.647 208.002 L 95.647 208.283 L 94.305 209.691 L 93.186 208.002 L 93.298 207.298 C 93.814 203.741 94.878 200.345 96.429 197.301 C 98.164 194.175 100.569 191.734 103.363 190.261 L 103.922 189.839 Z  M 208.478 200.258 L 207.36 200.258 C 206.655 200.464 205.977 200.796 205.347 201.244 C 204.629 201.7 203.984 202.321 203.446 203.074 C 202.648 204.095 202.171 205.445 202.104 206.875 C 202.121 208.652 202.73 210.338 203.782 211.522 C 205.235 212.93 207.136 213.775 208.925 213.775 C 210.715 213.775 212.616 212.789 213.958 211.099 C 214.363 210.608 214.703 210.037 214.964 209.41 C 215.529 207.894 215.529 206.139 214.964 204.623 C 214.727 203.894 214.385 203.226 213.958 202.652 C 213.408 201.951 212.765 201.379 212.057 200.962 C 211.344 200.586 210.59 200.348 209.82 200.258 L 208.478 200.258 Z  M 205.906 185.615 L 205.906 184.77 C 205.964 184.146 206.076 183.533 206.242 182.94 C 206.364 182.52 206.555 182.136 206.801 181.814 L 207.136 181.391 C 207.587 181.103 208.11 181.052 208.59 181.25 C 208.885 181.256 209.166 181.408 209.373 181.673 C 209.82 182.095 210.267 182.658 210.603 183.362 C 211.16 184.338 211.646 185.375 212.057 186.46 L 212.616 186.742 C 215.095 187.885 217.293 189.827 218.99 192.373 C 221.27 195.597 222.816 199.538 223.463 203.778 L 223.463 203.919 L 222.345 205.608 L 221.114 204.341 L 221.003 203.919 L 220.891 203.356 C 220.192 199.713 218.812 196.334 216.865 193.5 C 217.275 194.74 217.192 196.151 216.641 197.301 C 216.456 197.627 216.229 197.913 215.97 198.146 C 214.898 199.398 213.241 199.398 212.168 198.146 C 211.952 197.899 211.763 197.614 211.609 197.301 C 210.896 195.71 211.077 193.721 212.057 192.373 C 212.563 191.724 213.237 191.324 213.958 191.247 L 214.629 191.247 C 211.05 186.319 195.954 188.009 193.382 196.175 L 193.158 196.879 C 192.744 198.612 192.63 200.436 192.823 202.229 C 193.179 205.141 193.936 207.952 195.059 210.536 L 195.059 210.677 L 194.724 212.789 L 193.158 212.226 C 192.171 210.062 191.419 207.742 190.922 205.327 C 190.238 202.289 190.238 199.072 190.922 196.034 L 191.593 193.922 C 191.302 192.539 191.115 191.125 191.033 189.698 L 191.033 188.572 L 191.369 187.305 C 191.649 186.682 192.147 186.264 192.711 186.178 L 193.27 186.178 C 193.829 186.319 194.276 186.742 194.724 187.164 L 195.73 188.29 L 195.954 188.713 L 197.967 187.586 L 197.855 186.882 L 197.743 186.46 C 197.645 185.811 197.607 185.149 197.631 184.489 C 197.631 184.066 197.631 183.644 197.855 183.222 L 198.19 182.799 C 198.538 182.336 199.026 182.08 199.532 182.095 L 200.315 182.095 L 201.88 183.503 C 202.551 184.066 203.222 184.911 203.782 185.756 C 204.527 185.702 205.272 185.655 206.018 185.615 L 205.906 185.615 Z  M 119.018 196.457 C 119.465 196.457 119.801 196.597 120.136 196.879 C 120.684 197.172 121.151 197.661 121.478 198.287 C 122.277 199.976 122.046 202.135 120.919 203.496 C 120.692 203.786 120.428 204.024 120.136 204.2 C 119.423 204.592 118.613 204.592 117.9 204.2 C 117.265 203.895 116.72 203.355 116.334 202.652 C 115.65 201.03 115.876 199.039 116.893 197.724 C 117.4 197.074 118.074 196.674 118.794 196.597 L 119.018 196.597 L 119.018 196.457 Z  M 118.906 198.146 C 118.683 198.146 118.459 198.146 118.235 198.428 C 118.115 198.504 118.002 198.599 117.9 198.709 L 117.564 199.132 C 117.16 199.951 117.16 200.988 117.564 201.807 L 117.9 202.229 L 118.347 202.652 L 119.577 202.652 C 119.902 202.48 120.176 202.185 120.36 201.807 C 120.764 200.988 120.764 199.951 120.36 199.132 C 120.201 198.779 119.969 198.487 119.689 198.287 C 119.504 198.25 119.315 198.25 119.13 198.287 L 118.906 198.287 L 118.906 198.146 Z  M 103.586 194.626 C 104.312 194.676 104.994 195.08 105.487 195.753 L 106.046 196.457 C 106.646 197.763 106.646 199.374 106.046 200.68 C 105.701 201.374 105.193 201.915 104.593 202.229 C 103.91 202.567 103.151 202.567 102.468 202.229 C 101.883 201.953 101.376 201.463 101.014 200.821 C 100.271 199.259 100.406 197.273 101.35 195.893 C 101.831 195.18 102.512 194.727 103.251 194.626 L 103.586 194.626 Z  M 198.861 194.063 C 199.309 194.063 199.644 194.063 199.979 194.345 C 200.527 194.637 200.994 195.127 201.321 195.753 C 201.822 196.738 201.949 197.952 201.668 199.067 C 201.387 200.182 200.728 201.083 199.868 201.525 C 199.164 201.931 198.363 201.982 197.631 201.666 C 197.027 201.361 196.517 200.817 196.177 200.117 C 195.578 198.81 195.578 197.2 196.177 195.893 C 196.702 194.802 197.626 194.115 198.638 194.063 L 198.861 194.063 Z  M 103.363 196.316 C 102.792 196.378 102.286 196.803 102.021 197.442 C 101.57 198.405 101.71 199.633 102.356 200.399 L 102.803 200.821 L 104.033 200.821 L 104.481 200.399 L 104.816 199.976 C 105.329 198.982 105.187 197.664 104.481 196.879 C 104.24 196.573 103.925 196.375 103.586 196.316 L 103.363 196.316 Z  M 198.638 195.753 C 198.259 195.781 197.901 195.981 197.631 196.316 C 197.503 196.434 197.39 196.577 197.296 196.738 C 196.872 197.733 197.059 198.965 197.743 199.695 L 198.19 200.117 C 198.876 200.482 199.671 200.187 200.091 199.413 C 200.632 198.452 200.537 197.138 199.868 196.316 C 199.622 196.018 199.31 195.821 198.973 195.753 L 198.414 195.753 L 198.638 195.753 Z  M 111.749 192.233 C 112.761 192.285 113.685 192.972 114.21 194.063 C 114.95 195.719 114.721 197.793 113.65 199.132 C 113.387 199.431 113.085 199.669 112.756 199.836 C 112.403 200.029 112.022 200.125 111.638 200.117 C 110.943 200.143 110.265 199.842 109.737 199.272 C 108.59 198.004 108.269 195.921 108.954 194.204 C 109.115 193.939 109.303 193.703 109.513 193.5 C 109.728 193.157 109.994 192.87 110.296 192.655 C 110.641 192.417 111.022 192.273 111.414 192.233 L 111.749 192.233 Z  M 111.526 193.922 L 110.855 194.063 C 110.728 194.183 110.615 194.325 110.519 194.485 C 110.129 194.939 109.907 195.577 109.907 196.245 C 109.907 196.914 110.129 197.552 110.519 198.005 C 110.824 198.361 111.222 198.562 111.638 198.568 C 112.186 198.536 112.687 198.168 112.979 197.583 C 113.521 196.622 113.426 195.308 112.756 194.485 C 112.48 194.16 112.126 193.962 111.749 193.922 L 111.526 193.922 Z  M 214.069 192.937 C 213.691 192.965 213.333 193.165 213.063 193.5 C 212.94 193.625 212.827 193.767 212.728 193.922 C 212.357 194.768 212.4 195.805 212.839 196.597 L 213.175 197.02 C 213.469 197.285 213.82 197.433 214.181 197.442 L 214.74 197.442 L 215.188 197.02 L 215.523 196.597 C 216.064 195.636 215.969 194.322 215.3 193.5 C 215.201 193.343 215.089 193.201 214.964 193.077 C 214.784 192.995 214.596 192.948 214.405 192.937 L 214.069 192.937 Z  M 206.018 189.276 C 207.03 189.328 207.954 190.015 208.478 191.106 C 209.037 192.514 209.037 194.063 208.478 195.33 C 208.303 195.706 208.076 196.04 207.807 196.316 C 207.581 196.606 207.316 196.844 207.024 197.02 C 206.346 197.388 205.578 197.388 204.9 197.02 C 204.299 196.706 203.791 196.165 203.446 195.471 C 202.677 193.846 202.86 191.775 203.893 190.402 C 204.09 190.129 204.316 189.892 204.564 189.698 C 204.919 189.516 205.299 189.42 205.683 189.417 L 206.018 189.417 L 206.018 189.276 Z  M 205.906 190.965 C 205.571 190.965 205.459 190.965 205.235 191.247 C 204.958 191.453 204.728 191.743 204.564 192.092 C 204.18 192.867 204.18 193.851 204.564 194.626 L 204.9 195.049 L 205.347 195.471 L 205.906 195.471 C 206.307 195.503 206.704 195.353 207.024 195.049 C 207.109 194.917 207.184 194.775 207.248 194.626 C 207.608 193.842 207.608 192.876 207.248 192.092 C 207.116 191.759 206.925 191.47 206.689 191.247 C 206.517 191.114 206.328 191.019 206.13 190.965 L 205.906 190.965 Z  M 123.715 194.204 L 123.715 193.641 C 123.835 192.805 123.873 191.954 123.827 191.106 L 123.827 190.684 L 123.267 189.98 L 122.932 190.121 C 122.736 190.24 122.549 190.381 122.373 190.543 L 121.255 191.81 L 121.926 192.233 C 122.58 192.8 123.181 193.462 123.715 194.204 Z  M 194.947 189.557 L 194.724 189.276 C 194.413 188.909 194.076 188.579 193.717 188.29 C 193.524 188.083 193.294 187.938 193.046 187.868 C 192.711 187.868 192.599 188.149 192.487 188.572 L 192.487 191.247 L 192.711 192.092 C 193.202 191.307 193.765 190.598 194.388 189.98 L 194.947 189.557 Z  M 116.893 189.557 L 116.893 189.135 L 117.005 188.431 C 117.011 188.29 117.011 188.149 117.005 188.009 L 117.005 187.727 C 117.051 187.401 117.051 187.067 117.005 186.742 L 116.782 186.319 L 116.558 186.319 L 115.887 186.46 C 115.087 187.119 114.371 187.926 113.762 188.853 L 114.545 188.994 L 116.893 189.557 Z  M 108.842 188.572 L 108.73 187.868 L 108.73 187.446 C 108.669 187.204 108.594 186.969 108.506 186.742 L 108.506 186.601 C 108.451 186.445 108.375 186.303 108.283 186.178 L 108.059 185.897 L 107.836 185.897 C 107.388 185.897 107.165 186.178 106.941 186.46 L 106.941 186.601 L 106.605 187.023 C 106.313 187.513 106.051 188.031 105.823 188.572 L 105.599 189.276 C 106.623 188.921 107.671 188.685 108.73 188.572 L 108.842 188.572 Z  M 202.328 186.038 C 201.915 185.476 201.466 184.958 200.986 184.489 C 200.739 184.272 200.477 184.083 200.203 183.926 C 200.032 183.79 199.842 183.695 199.644 183.644 C 199.42 183.644 199.309 183.644 199.197 183.926 L 199.197 184.207 C 198.973 184.63 198.973 184.911 199.085 185.334 L 199.085 185.756 C 199.137 186.184 199.212 186.607 199.309 187.023 L 201.545 186.319 L 202.328 186.038 Z  M 210.491 186.038 C 210.184 185.238 209.809 184.482 209.373 183.785 C 209.174 183.514 208.949 183.278 208.702 183.081 C 208.574 182.941 208.42 182.844 208.255 182.799 L 208.031 182.799 L 207.807 183.081 L 207.584 183.644 L 207.584 184.207 L 207.472 184.63 L 207.472 185.193 L 207.36 185.615 L 208.478 185.615 L 210.491 186.038 Z  M 93.857 182.799 C 92.818 182.953 91.771 183 90.726 182.94 L 90.726 183.222 C 90.739 183.945 90.853 184.66 91.062 185.334 L 91.174 185.615 L 91.397 185.756 L 91.956 185.756 L 92.068 185.615 L 92.18 185.615 L 92.404 185.334 L 92.515 185.193 L 92.739 184.911 L 93.075 184.348 L 93.298 183.785 L 93.634 183.081 L 93.857 182.799 Z  M 83.234 179.279 L 83.234 179.42 L 83.01 179.842 C 82.822 180.339 82.672 180.858 82.563 181.391 L 82.563 182.095 C 82.675 182.377 82.899 182.377 83.122 182.377 L 83.681 182.377 L 84.017 182.236 L 84.464 181.954 C 84.847 181.799 85.22 181.611 85.582 181.391 C 84.733 180.87 83.943 180.207 83.234 179.42 L 83.234 179.279 Z  M 95.087 179.138 C 100.531 159.9 105.75 140.562 110.743 121.13 L 110.184 121.693 C 107.618 125.624 104.773 129.253 101.685 132.535 L 99.896 134.224 C 93.869 140.057 88.815 147.33 85.023 155.625 C 83.911 158.357 83.049 161.238 82.451 164.214 C 82.268 165.327 82.156 166.457 82.116 167.593 C 81.221 170.831 87.036 185.052 94.976 179.138 L 95.087 179.138 Z  M 79.879 171.817 L 79.656 172.239 L 79.32 172.803 L 79.096 173.366 L 78.985 173.788 L 78.873 173.929 L 78.873 174.211 L 78.761 174.351 L 78.761 174.633 C 78.761 174.774 78.761 175.196 78.985 175.337 L 79.879 175.337 L 80.662 175.196 C 80.293 174.114 80.03 172.979 79.879 171.817 Z  M 176.049 149.43 L 174.931 149.43 L 174.26 149.712 L 174.036 149.994 L 174.036 150.979 L 174.483 151.542 C 175.024 152.368 175.666 153.081 176.384 153.654 C 176.095 152.278 175.981 150.852 176.049 149.43 Z  M 178.733 142.109 C 178.33 141.97 177.918 141.876 177.503 141.827 L 176.72 141.827 C 176.516 142.09 176.471 142.489 176.608 142.813 L 176.608 143.235 L 176.832 143.517 L 176.943 143.939 L 177.167 144.362 L 177.503 143.939 C 177.832 143.289 178.206 142.676 178.621 142.109 L 178.733 142.109 Z  M 185.33 137.322 C 184.965 137.069 184.592 136.834 184.212 136.618 C 183.651 136.258 183.047 136.02 182.423 135.914 L 181.976 135.914 L 181.864 136.055 L 181.64 136.336 L 181.64 137.322 L 181.864 137.603 L 181.864 137.885 L 182.087 138.307 L 182.199 138.73 C 183.318 138.167 184.212 137.603 185.33 137.322 Z  M 140.153 86.917 L 141.271 86.917 C 143.358 87.234 145.313 88.367 146.863 90.155 C 147.492 90.87 148.055 91.673 148.54 92.548 C 150.217 95.646 151 99.307 151 102.967 C 151.005 110.123 148.51 116.92 144.179 121.553 C 141.764 124.261 138.686 125.851 135.456 126.058 C 133.001 126.044 130.627 124.948 128.747 122.961 C 128.032 122.218 127.394 121.367 126.846 120.426 C 125.185 117.307 124.326 113.621 124.386 109.866 C 124.422 105.648 125.348 101.518 127.069 97.899 C 127.923 95.914 129.017 94.108 130.312 92.548 C 132.803 89.411 136.086 87.468 139.594 87.057 L 140.153 87.057 L 140.153 86.917 Z  M 174.931 87.902 C 176.452 87.114 178.097 86.777 179.739 86.917 C 182.423 87.198 184.995 88.747 187.008 90.718 C 191.907 95.534 194.656 103.033 194.388 110.852 C 194.263 115.04 192.954 119.034 190.698 122.116 C 189.791 123.275 188.732 124.228 187.567 124.932 C 186.02 125.78 184.327 126.119 182.647 125.917 C 179.739 125.776 177.055 124.087 174.819 121.693 C 170.069 116.717 167.492 109.183 167.886 101.419 C 168.107 97.494 169.367 93.776 171.464 90.859 C 172.339 89.715 173.359 88.763 174.483 88.043 L 174.931 87.902 Z  M 158.604 110.57 C 159.065 110.629 159.517 110.771 159.946 110.993 C 161.176 111.697 162.183 112.964 162.965 114.372 C 163.97 116.236 164.831 118.216 165.537 120.285 L 165.649 122.679 L 164.419 124.509 L 162.406 124.65 L 161.064 122.961 L 160.617 121.975 L 160.17 120.849 C 159.685 119.666 159.124 118.536 158.492 117.469 C 157.632 119.271 156.811 121.102 156.032 122.961 L 154.467 124.368 L 152.566 124.368 L 152.566 124.228 L 151.336 122.397 L 151.336 120.004 C 151.878 118.725 152.437 117.458 153.013 116.202 L 153.46 115.217 L 153.907 114.513 C 154.616 113.04 155.618 111.826 156.815 110.993 L 157.262 110.852 L 158.157 110.57 L 158.604 110.57 Z  M 143.172 89.873 C 142.243 89.429 141.259 89.191 140.265 89.169 C 137.743 89.176 135.283 90.159 133.22 91.985 C 130.704 94.306 128.765 97.48 127.629 101.137 C 126.51 104.094 126.063 107.473 126.175 110.711 C 126.272 114.493 127.465 118.099 129.53 120.849 C 131.227 122.819 133.487 123.836 135.792 123.665 C 138.252 123.665 140.712 122.257 142.725 120.285 C 145.761 117.217 147.888 112.952 148.764 108.177 C 149.211 105.783 149.323 103.39 149.099 100.996 C 148.902 97.742 147.838 94.666 146.08 92.267 C 145.317 91.358 144.45 90.599 143.508 90.014 L 143.172 90.014 L 143.172 89.873 Z  M 175.266 90.155 C 174.304 90.696 173.431 91.46 172.694 92.408 C 170.905 94.66 170.01 97.758 169.675 100.855 C 169.364 104.72 169.906 108.617 171.24 112.119 C 172.359 115.217 173.924 118.033 176.049 120.145 C 178.269 122.508 181.082 123.805 183.988 123.805 C 184.995 123.686 185.978 123.353 186.896 122.82 C 188.16 122.133 189.273 121.07 190.139 119.722 C 191.704 117.329 192.487 114.09 192.599 110.993 C 192.828 106.144 191.765 101.338 189.58 97.335 C 188.461 95.364 187.12 93.534 185.554 92.126 C 183.181 89.895 180.221 88.888 177.279 89.31 C 176.664 89.463 176.064 89.699 175.49 90.014 L 175.266 90.014 L 175.266 90.155 Z  M 201.88 98.321 L 202.999 97.758 C 204.696 96.995 206.122 95.498 207.024 93.534 C 207.919 91.563 208.143 88.888 207.919 86.494 L 207.919 85.227 C 207.787 83.983 207.563 82.757 207.248 81.566 L 206.577 79.313 L 206.465 79.595 C 203.325 83.195 199.454 85.631 195.283 86.635 C 197.899 90.129 200.12 94.061 201.88 98.321 Z  M 124.497 86.353 L 123.827 86.353 C 119.888 85.226 116.259 82.796 113.315 79.313 L 113.203 79.595 C 112.489 81.799 112.037 84.124 111.861 86.494 C 111.749 88.888 111.861 91.563 112.979 93.675 C 113.413 94.6 113.982 95.412 114.657 96.068 C 115.328 96.913 116.111 97.476 116.893 97.758 L 117.564 98.18 C 119.494 93.905 121.822 89.935 124.497 86.353 Z " fill-rule="evenodd" fill="rgb(67,50,49)"/></g></g></svg>