<?xml version="1.0" standalone="no"?><!-- Generator: Gravit.io --><svg xmlns="http://www.w3.org/2000/svg" xmlns:xlink="http://www.w3.org/1999/xlink" style="isolation:isolate" viewBox="0 0 300 300" width="300" height="300"><defs><clipPath id="_clipPath_5iQZHlkpq6UmfGlB0fqg5PTXdpOc66dr"><rect width="300" height="300"/></clipPath></defs><g clip-path="url(#_clipPath_5iQZHlkpq6UmfGlB0fqg5PTXdpOc66dr)"><g id="Group"><path d=" M 86.929 113.376 C 92.453 103.663 99.704 94.727 108.428 86.88 L 111.594 84.196 C 113.122 82.773 114.706 81.394 116.342 80.06 C 118.683 77.867 120.801 75.511 122.673 73.016 C 123.201 72.234 123.861 71.451 123.992 70.445 C 123.992 68.656 129.532 68.209 130.324 71.004 C 130.587 71.898 131.643 72.681 132.302 73.463 L 133.885 74.805 C 134.192 75.02 134.553 75.173 134.94 75.252 L 159.341 75.252 C 159.843 75.077 160.294 74.81 160.66 74.47 L 162.375 72.904 L 164.221 70.221 C 164.881 69.103 168.046 67.985 170.289 70.668 C 170.948 71.563 171.212 72.681 171.871 73.687 C 173.493 76.004 175.442 78.144 177.675 80.06 C 179.404 81.685 181.208 83.251 183.083 84.755 L 184.534 85.873 L 185.325 86.544 C 189.508 90.095 193.263 93.99 196.536 98.172 C 200.641 103.189 204.3 108.459 207.484 113.935 C 213.73 118.309 219.471 123.175 224.631 128.47 C 230.282 134.442 234.333 141.385 236.502 148.818 C 238.158 155.388 237.749 162.212 235.314 168.606 C 234.971 169.25 234.527 169.851 233.995 170.395 C 233.072 171.178 229.643 174.644 224.103 174.867 L 223.707 174.867 L 223.707 177.215 C 223.371 186.794 222.402 196.349 220.806 205.836 C 219.939 211.333 218.927 216.812 217.772 222.271 L 217.244 224.954 L 217.244 225.178 C 216.682 227.023 215.646 228.741 214.211 230.209 C 213.136 231.307 211.784 232.186 210.254 232.78 C 204.894 233.837 199.4 234.325 193.898 234.234 L 179.785 234.569 C 176.082 234.422 172.387 234.161 168.706 233.787 C 166.265 233.412 164.117 232.198 162.77 230.432 C 161.887 229.191 161.262 227.829 160.924 226.408 C 160.509 224.678 160.288 222.918 160.264 221.153 C 160.071 218.548 160.027 215.936 160.133 213.327 L 160.133 213.103 L 134.017 213.103 L 134.017 215.116 C 133.992 218.889 133.728 222.658 133.225 226.408 C 132.775 228.032 131.92 229.557 130.719 230.88 C 129.949 231.79 128.96 232.552 127.817 233.116 C 126.983 233.45 126.093 233.676 125.18 233.787 L 124.784 233.787 L 123.333 234.01 C 120.299 234.234 111.462 234.01 108.56 234.01 C 101.519 234.231 94.468 234.045 87.457 233.451 C 86.293 233.313 85.145 233.089 84.027 232.78 C 82.489 232.147 81.137 231.23 80.07 230.097 C 79.279 229.426 78.751 228.644 78.224 227.861 C 77.635 226.945 77.192 225.968 76.905 224.954 C 74.766 214.947 73.051 204.879 71.761 194.768 C 71.101 187.389 70.442 181.575 70.31 174.308 L 69.914 174.308 C 62.924 175.65 58.043 168.495 57.78 167.6 L 57.252 166.259 L 56.856 164.805 C 55.096 157.958 55.645 150.829 58.439 144.234 C 61.328 137.179 65.909 130.708 71.893 125.227 C 76.468 120.897 81.501 116.93 86.929 113.376 Z " fill-rule="evenodd" fill="rgb(0,0,0)" fill-opacity="0.2"/><path d=" M 93.656 109.911 C 98.565 101.818 104.444 94.176 111.198 87.103 L 115.155 83.302 L 118.321 80.731 L 119.508 79.724 C 122.156 77.488 124.666 75.137 127.026 72.681 C 127.949 71.675 128.741 70.78 129.4 69.662 C 129.928 68.88 130.587 68.097 130.719 67.091 C 130.719 65.19 136.259 64.855 137.05 67.538 C 137.314 68.656 138.369 69.327 139.029 70.109 L 140.612 71.451 C 140.919 71.666 141.28 71.819 141.667 71.898 L 166.2 71.898 C 166.628 71.627 166.987 71.284 167.255 70.892 L 168.97 69.327 L 170.816 66.644 C 171.476 65.526 174.641 64.408 176.884 67.091 C 177.543 67.985 177.807 69.103 178.466 70.109 C 180.072 72.435 182.022 74.577 184.27 76.482 C 186.053 78.1 187.901 79.666 189.81 81.178 L 191.129 82.296 L 191.92 82.967 C 196.05 86.558 199.801 90.449 203.131 94.594 C 207.23 99.615 210.889 104.884 214.079 110.358 C 219.242 114.01 224.091 117.971 228.588 122.209 L 231.226 124.78 C 236.887 130.789 240.938 137.771 243.096 145.24 C 244.59 150.994 244.5 156.962 242.833 162.681 L 242.569 163.575 C 242.133 164.766 241.415 165.87 240.459 166.818 C 238.032 169.345 234.522 170.954 230.698 171.29 L 230.302 171.29 L 230.302 173.637 C 229.999 183.218 229.03 192.775 227.401 202.259 C 226.741 206.507 226.082 210.755 225.158 215.004 L 224.367 218.693 L 223.839 221.265 L 223.839 221.6 C 223.273 223.444 222.237 225.162 220.806 226.631 C 219.722 227.721 218.372 228.599 216.849 229.203 C 211.488 230.255 205.995 230.743 200.493 230.656 C 197.855 230.656 189.15 230.991 186.38 230.88 C 183.165 230.779 179.954 230.592 176.752 230.321 L 175.301 230.209 C 172.844 229.795 170.697 228.541 169.365 226.743 C 168.442 225.625 168.046 224.283 167.519 222.83 L 166.991 219.476 L 166.859 217.575 C 166.703 214.969 166.659 212.358 166.727 209.749 L 166.727 209.526 L 140.744 209.526 L 140.744 215.227 L 140.612 218.023 C 140.492 219.634 140.272 221.238 139.952 222.83 C 139.494 224.452 138.64 225.976 137.446 227.302 C 136.078 228.809 134.108 229.843 131.906 230.209 L 131.511 230.209 L 130.06 230.432 C 127.026 230.656 118.189 230.432 115.287 230.432 C 108.246 230.652 101.195 230.466 94.183 229.873 C 93.027 229.704 91.882 229.48 90.754 229.203 C 89.211 228.576 87.857 227.658 86.797 226.519 C 85.38 225.015 84.388 223.256 83.895 221.377 C 83.171 218.138 82.468 214.895 81.785 211.65 C 80.466 204.83 79.543 198.01 78.619 191.078 C 77.828 183.811 77.169 177.998 77.037 170.731 L 76.641 170.731 C 69.65 172.072 64.77 164.917 64.506 164.022 C 64.345 163.582 64.213 163.134 64.111 162.681 L 63.583 161.227 C 61.84 154.342 62.388 147.181 65.166 140.544 C 68.111 133.612 72.688 127.259 78.619 121.873 C 83.148 117.471 88.185 113.463 93.656 109.911 Z " fill-rule="evenodd" fill="rgb(255,255,255)" vector-effect="non-scaling-stroke" stroke-width="0.5" stroke="rgb(206,206,206)" stroke-linejoin="round" stroke-linecap="butt" stroke-miterlimit="1.41"/><path d=" M 98.272 112.929 C 103.779 103.186 111.13 94.273 120.035 86.544 C 133.489 75.588 133.621 72.122 133.621 69.55 C 133.621 69.55 137.842 78.718 142.062 79.165 L 165.145 79.165 C 169.365 78.718 173.586 69.55 173.586 69.55 C 173.586 72.122 173.718 75.588 187.172 86.544 C 195.086 93.14 202.999 102.532 209.331 113.376 C 234.523 130.817 240.459 147.588 235.842 162.01 C 233.995 167.936 227.664 167.265 224.235 166.482 C 224.235 177.998 222.916 194.432 218.036 216.905 C 218.036 216.905 217.113 221.377 212.628 223.389 C 209.99 224.507 195.481 225.401 180.313 223.948 C 178.466 223.724 174.773 222.718 173.718 217.464 C 173.059 214.109 172.927 208.296 173.059 204.383 C 165.277 204.606 158.418 204.606 153.406 204.606 C 148.525 204.606 141.799 204.606 134.017 204.383 C 134.149 208.296 134.017 213.998 133.357 217.464 C 132.302 222.718 128.609 223.724 126.762 223.948 C 116.026 225.253 105.111 225.064 94.447 223.389 C 89.963 221.488 89.171 216.905 89.171 216.905 C 85.335 200.398 83.217 183.638 82.84 166.818 L 82.84 166.37 C 79.675 167.153 72.552 168.271 70.574 162.01 C 65.957 147.476 72.156 130.482 98.14 113.041 L 98.272 112.929 Z " fill-rule="evenodd" fill="rgb(210,33,94)"/><path d=" M 103.153 224.731 C 103.153 224.731 99.987 221.936 103.812 217.799 C 103.416 220.37 104.208 223.613 106.714 224.842 L 103.153 224.731 Z  M 118.453 224.731 C 118.453 224.731 121.618 221.936 117.661 217.799 C 118.189 220.37 117.266 223.613 114.891 224.842 L 118.453 224.731 Z  M 188.491 224.731 C 188.491 224.731 185.325 221.936 189.15 217.799 C 188.754 220.37 189.546 223.613 192.052 224.842 L 188.491 224.731 Z  M 203.791 224.731 C 203.791 224.731 206.956 221.936 203.131 217.799 C 203.527 220.37 202.736 223.613 200.23 224.842 L 203.791 224.731 Z  M 233.864 166.594 C 233.864 166.594 237.821 164.358 233.995 160.109 C 234.391 162.681 233.6 165.923 231.094 167.153 L 233.732 166.482 L 233.864 166.594 Z  M 73.344 167.041 C 73.344 167.041 70.178 164.246 74.003 159.998 C 73.607 162.569 74.531 165.811 76.905 167.153 L 73.344 166.929 L 73.344 167.041 Z  M 81.257 167.041 C 81.257 167.041 78.092 165.029 80.202 160.109 C 80.73 162.681 81.257 164.693 84.159 165.252 L 81.389 167.041 L 81.257 167.041 Z  M 225.95 167.041 C 225.95 167.041 229.907 165.14 227.796 160.109 C 227.269 162.681 226.345 165.364 223.576 165.923 L 225.95 167.041 Z " fill-rule="evenodd" fill="rgb(129,20,58)"/><radialGradient id="_rgradient_0" fx="50%" fy="49.99999999999996%" cx="50%" cy="49.99999999999996%" r="96%"><stop offset="0%" stop-opacity="1" style="stop-color:rgb(29,29,29)"/><stop offset="100%" stop-opacity="1" style="stop-color:rgb(0,0,0)"/></radialGradient><path d=" M 122.673 108.457 C 122.673 105.495 125.51 103.091 129.005 103.091 C 132.499 103.091 135.336 105.495 135.336 108.457 C 135.336 111.419 132.499 113.824 129.005 113.824 C 125.51 113.824 122.673 111.419 122.673 108.457 Z " fill="url(#_rgradient_0)"/><path d=" M 126.235 109.016 C 127.817 109.016 129.005 110.134 129.005 111.364 C 129.005 112.661 127.764 113.712 126.235 113.712 C 124.705 113.712 123.465 112.661 123.465 111.364 C 123.465 110.022 124.784 109.016 126.235 109.016 Z  M 128.477 106.445 C 129.268 106.445 129.928 106.892 129.928 107.563 C 129.928 108.015 129.606 108.423 129.114 108.596 C 128.621 108.769 128.053 108.673 127.676 108.353 C 127.299 108.034 127.186 107.553 127.39 107.135 C 127.594 106.717 128.075 106.445 128.609 106.445 L 128.477 106.445 Z " fill-rule="evenodd" fill="rgb(255,255,255)"/><radialGradient id="_rgradient_1" fx="50%" fy="50%" cx="50%" cy="50%" r="95.99999999999991%"><stop offset="0%" stop-opacity="1" style="stop-color:rgb(29,29,29)"/><stop offset="100%" stop-opacity="1" style="stop-color:rgb(0,0,0)"/></radialGradient><path d=" M 173.586 108.457 C 173.586 105.495 176.423 103.091 179.917 103.091 C 183.411 103.091 186.248 105.495 186.248 108.457 C 186.248 111.419 183.411 113.824 179.917 113.824 C 176.423 113.824 173.586 111.419 173.586 108.457 Z " fill="url(#_rgradient_1)"/><path d=" M 177.147 109.016 C 178.137 109.016 179.051 109.464 179.546 110.19 C 180.041 110.917 180.041 111.812 179.546 112.538 C 179.051 113.264 178.137 113.712 177.147 113.712 C 176.158 113.712 175.243 113.264 174.749 112.538 C 174.254 111.812 174.254 110.917 174.749 110.19 C 175.243 109.464 176.158 109.016 177.147 109.016 L 177.147 109.016 Z  M 179.522 106.445 C 180.313 106.445 180.841 106.892 180.841 107.563 C 180.841 108.015 180.519 108.423 180.026 108.596 C 179.533 108.769 178.966 108.673 178.589 108.353 C 178.212 108.034 178.099 107.553 178.303 107.135 C 178.507 106.717 178.988 106.445 179.522 106.445 Z " fill-rule="evenodd" fill="rgb(255,255,255)"/><path d=" M 96.953 112.035 C 101.568 104.385 107.093 97.155 113.441 90.457 L 117.398 86.991 L 120.167 84.532 L 121.354 83.637 C 123.858 81.502 126.235 79.264 128.477 76.929 L 130.587 74.022 C 131.14 73.289 131.583 72.5 131.906 71.675 L 131.906 69.55 L 132.17 69.327 L 132.17 68.991 C 132.329 68.694 132.61 68.455 132.962 68.321 C 133.394 68.139 133.901 68.135 134.337 68.309 C 134.774 68.483 135.093 68.817 135.204 69.215 L 135.468 69.662 L 135.863 70.445 C 136.991 72.401 138.315 74.271 139.82 76.035 C 140.084 76.482 140.612 76.929 141.139 77.376 L 142.062 77.712 C 153.538 77.935 153.538 77.935 165.013 77.712 L 165.277 77.712 C 165.717 77.551 166.119 77.324 166.464 77.041 C 167.949 75.648 169.234 74.109 170.289 72.457 L 172.003 69.103 L 172.267 68.768 C 172.491 68.498 172.817 68.301 173.19 68.209 L 173.85 68.209 C 174.114 68.209 174.246 68.209 174.509 68.432 L 175.169 69.327 L 175.169 70.445 L 175.433 71.563 C 175.828 72.681 176.356 73.575 177.015 74.47 C 178.571 76.662 180.431 78.689 182.555 80.507 C 184.61 82.451 186.766 84.317 189.018 86.097 L 189.678 86.656 C 193.589 90.022 197.122 93.69 200.23 97.613 C 204.08 102.351 207.519 107.32 210.518 112.482 C 216.373 116.589 221.8 121.115 226.741 126.01 C 232.076 131.657 235.901 138.218 237.952 145.24 C 239.453 150.692 239.362 156.371 237.689 161.786 L 237.425 162.569 C 237.026 163.717 236.352 164.782 235.446 165.7 C 234.711 166.405 233.813 166.975 232.808 167.377 C 231.972 167.706 231.083 167.932 230.17 168.047 C 228.772 168.232 227.348 168.232 225.95 168.047 C 225.963 173.647 225.655 179.243 225.026 184.818 C 224.158 193.62 222.838 202.386 221.069 211.091 L 220.278 214.557 L 219.75 217.016 L 219.75 217.352 C 219.215 219.117 218.224 220.759 216.849 222.159 C 215.859 223.107 214.646 223.869 213.287 224.395 C 208.226 225.369 203.044 225.82 197.855 225.737 C 192.22 225.817 186.583 225.631 180.972 225.178 L 179.653 224.954 C 177.356 224.571 175.35 223.397 174.114 221.712 C 173.294 220.616 172.714 219.404 172.399 218.134 L 171.871 214.78 L 171.74 213.103 C 171.585 210.646 171.541 208.185 171.608 205.724 L 171.608 205.613 L 153.538 205.613 L 150.636 205.724 L 147.47 205.724 L 135.995 205.613 L 135.995 207.401 C 135.967 209.453 135.879 211.503 135.731 213.55 L 135.731 215.227 L 135.072 218.134 C 134.692 219.67 133.927 221.119 132.83 222.383 C 132.059 223.192 131.12 223.874 130.06 224.395 C 129.269 224.723 128.424 224.95 127.554 225.066 L 127.29 225.066 L 125.839 225.178 C 118.255 225.781 110.63 225.93 103.021 225.625 C 100.092 225.422 97.183 225.049 94.315 224.507 C 92.841 223.937 91.535 223.097 90.49 222.047 C 89.139 220.578 88.234 218.851 87.852 217.016 L 87.325 214.892 C 85.498 206.182 84.046 197.418 82.972 188.619 C 82.181 181.687 81.653 174.755 81.653 167.824 L 81.257 167.824 C 78.729 168.392 76.054 168.274 73.607 167.488 C 72.59 167.105 71.688 166.532 70.969 165.811 C 69.944 164.705 69.264 163.398 68.991 162.01 C 68.018 158.912 67.574 155.712 67.672 152.507 C 67.725 148.658 68.527 144.843 70.046 141.215 C 72.82 134.572 77.175 128.484 82.84 123.327 C 87.153 119.26 91.875 115.519 96.953 112.147 L 96.953 112.035 Z  M 206.824 112.37 C 202.498 105.367 197.374 98.739 191.524 92.581 L 187.699 89.004 L 184.797 86.544 L 183.61 85.538 C 180.518 82.922 177.653 80.119 175.037 77.153 C 174.217 76.169 173.51 75.121 172.927 74.022 L 172.531 74.581 L 172.003 75.252 L 171.212 76.37 C 170.599 77.109 169.938 77.818 169.234 78.494 C 168.208 79.491 166.812 80.161 165.277 80.395 L 153.67 80.507 L 142.062 80.507 L 141.799 80.395 C 141.005 80.305 140.241 80.077 139.556 79.724 C 138.576 79.106 137.729 78.35 137.05 77.488 C 136.467 76.889 135.938 76.254 135.468 75.588 L 134.28 74.022 C 133.621 75.14 132.962 76.258 132.038 77.265 C 131.247 78.383 130.324 79.277 129.4 80.172 C 127.554 82.072 125.575 83.861 123.597 85.538 L 121.882 86.991 L 120.299 88.333 L 119.376 89.116 C 115.419 92.693 111.726 96.606 108.428 100.743 C 101.758 109.182 96.394 118.313 92.469 127.911 C 90.49 132.383 88.908 137.078 87.589 141.774 C 85.343 149.716 84.323 157.871 84.555 166.035 L 84.555 168.383 C 84.765 180.563 86.088 192.711 88.512 204.718 L 90.095 213.55 L 90.622 215.563 L 90.886 217.016 C 91.282 218.134 91.941 219.252 92.733 220.259 C 93.44 221.017 94.343 221.628 95.371 222.047 L 96.162 222.159 C 105.391 223.181 114.725 223.331 123.992 222.606 L 126.103 222.606 L 126.894 222.383 C 127.703 222.273 128.471 222.005 129.136 221.6 C 130.471 220.65 131.398 219.353 131.774 217.911 L 131.906 217.24 C 132.078 216.5 132.21 215.754 132.302 215.004 L 132.302 213.55 C 132.567 210.463 132.655 207.366 132.566 204.271 L 132.566 204.047 C 132.566 203.824 132.566 203.712 132.83 203.488 C 133.077 203.188 133.458 202.986 133.885 202.929 L 134.28 202.929 C 137.446 202.968 140.612 203.006 143.777 203.041 L 156.571 203.041 L 173.19 202.929 L 173.85 202.929 C 174.246 203.153 174.509 203.377 174.641 203.712 L 174.773 204.271 L 174.773 210.196 L 174.905 212.768 L 175.037 214.78 L 175.301 216.122 L 175.301 217.016 L 175.565 217.687 C 175.96 219.252 176.752 220.706 178.203 221.712 L 178.994 222.159 C 179.522 222.383 179.917 222.495 180.445 222.495 L 180.709 222.495 C 182.282 222.711 183.866 222.86 185.457 222.942 C 194.08 223.409 202.736 223.184 211.309 222.271 C 211.623 222.217 211.932 222.142 212.232 222.047 L 212.76 221.712 C 213.551 221.377 214.079 220.818 214.738 220.259 C 215.63 219.265 216.26 218.122 216.585 216.905 L 216.585 216.681 C 218.473 207.895 220.013 199.058 221.201 190.184 C 221.993 183.476 222.52 176.768 222.652 170.172 L 222.652 161.786 C 222.62 159.959 222.532 158.132 222.388 156.308 L 222.257 155.19 C 221.903 151.886 221.33 148.601 220.542 145.352 L 220.278 144.234 C 217.862 134.212 213.87 124.51 208.407 115.389 C 207.937 114.49 207.453 113.595 206.956 112.706 L 206.693 112.482 L 206.824 112.37 Z  M 213.815 118.519 C 218.237 126.905 221.554 135.679 223.707 144.681 L 223.839 145.24 C 224.613 147.993 225.098 150.799 225.29 153.625 L 225.554 155.973 C 225.75 157.833 225.882 159.697 225.95 161.563 L 225.95 165.252 L 227.532 165.476 C 229.247 165.476 230.962 165.476 232.281 164.581 C 232.564 164.415 232.828 164.228 233.072 164.022 C 233.457 163.617 233.768 163.164 233.995 162.681 C 236.298 156.507 236.389 149.893 234.259 143.675 C 231.528 136.241 226.628 129.512 220.014 124.109 C 218.695 122.882 217.331 121.689 215.925 120.532 L 214.211 119.19 L 213.683 118.743 L 213.815 118.519 Z  M 93.656 117.96 C 90.106 120.69 86.758 123.602 83.632 126.681 C 77.966 132.307 73.904 138.963 71.761 146.134 C 70.403 151.627 70.721 157.322 72.684 162.681 C 73.062 163.424 73.651 164.077 74.399 164.581 C 75.718 165.364 77.3 165.588 78.883 165.476 C 79.684 165.419 80.478 165.306 81.257 165.14 L 81.257 164.358 C 81.012 157.209 81.899 150.064 83.895 143.116 C 86.105 134.501 89.377 126.107 93.656 118.072 L 93.656 117.96 Z  M 162.639 109.016 C 162.77 108.999 162.903 108.999 163.034 109.016 C 163.43 109.128 163.826 109.463 163.958 109.687 L 163.958 110.47 C 163.897 112.409 162.951 114.252 161.32 115.613 C 158.204 118.079 153.72 118.856 149.713 117.625 C 147.254 116.871 145.226 115.352 144.041 113.376 C 143.586 112.531 143.318 111.621 143.25 110.693 L 143.25 110.022 C 143.302 109.714 143.491 109.435 143.777 109.24 L 144.173 109.016 C 144.593 108.915 145.044 108.966 145.419 109.157 C 145.794 109.347 146.059 109.66 146.151 110.022 L 146.151 110.581 L 146.679 112.258 C 146.943 112.706 147.338 113.153 147.734 113.376 L 148.657 114.271 C 151.962 116.347 156.561 116.062 159.473 113.6 C 160.472 112.687 161.036 111.492 161.056 110.246 L 161.056 110.022 L 161.188 109.687 C 161.378 109.368 161.71 109.127 162.111 109.016 C 162.242 108.999 162.376 108.999 162.507 109.016 L 162.639 109.016 Z  M 133.357 97.836 L 124.652 97.836 L 122.937 96.271 L 124.652 94.706 L 133.357 94.706 L 135.204 96.271 L 133.357 97.724 L 133.357 97.836 Z  M 184.27 97.836 L 175.697 97.836 L 173.85 96.159 L 175.697 94.594 L 184.27 94.594 L 186.116 96.159 L 184.27 97.613 L 184.27 97.836 Z " fill-rule="evenodd" fill="rgb(55,41,40)"/></g></g></svg>