<?xml version="1.0" standalone="no"?><!-- Generator: Gravit.io --><svg xmlns="http://www.w3.org/2000/svg" xmlns:xlink="http://www.w3.org/1999/xlink" style="isolation:isolate" viewBox="0 0 275 300" width="275" height="300"><defs><clipPath id="_clipPath_VX8yB9QS9adj0whwleokJXBhIV6VDhR8"><rect width="275" height="300"/></clipPath></defs><g clip-path="url(#_clipPath_VX8yB9QS9adj0whwleokJXBhIV6VDhR8)"><g id="Group"><path d=" M 117.09 114.389 C 115.708 111.16 115.372 107.578 116.13 104.149 C 116.688 101.764 117.844 99.562 119.49 97.749 L 119.33 96.949 C 117.484 92.904 117.369 88.281 119.01 84.149 C 119.575 82.698 120.448 81.388 121.57 80.309 L 121.41 79.509 L 121.09 78.549 C 120.75 77.347 120.536 76.114 120.45 74.869 C 120.228 71.698 121.073 68.544 122.85 65.909 L 122.53 65.109 L 122.21 64.309 C 121.82 63.264 121.499 62.195 121.25 61.109 C 120.356 58.071 120.412 54.833 121.41 51.829 C 121.634 51.275 121.901 50.74 122.21 50.229 L 122.21 48.629 C 122.334 45.51 122.709 42.407 123.33 39.349 C 124.886 36.046 127.809 33.591 131.33 32.629 L 131.33 32.309 C 132.832 32.578 134.287 33.063 135.65 33.749 C 139.622 35.609 142.718 38.935 144.29 43.029 C 145.186 45.98 145.511 49.075 145.25 52.149 L 145.57 52.469 L 146.05 52.949 C 147.353 54.558 148.331 56.406 148.93 58.389 C 149.89 61.269 150.05 64.469 150.05 67.509 L 150.21 67.669 C 151.01 68.469 151.81 69.269 152.13 70.069 L 153.41 73.269 L 154.53 78.069 L 155.01 85.429 L 155.01 85.749 L 155.17 86.229 L 155.49 86.709 L 156.45 88.469 C 158.549 93.355 159.321 98.708 158.69 103.989 L 159.17 104.629 C 159.17 104.949 159.49 105.109 159.65 105.429 C 161.34 108.396 162.171 111.776 162.05 115.189 C 162.05 117.109 161.73 118.869 161.25 120.629 L 161.57 121.269 L 166.53 123.509 C 167.01 124.149 191.33 96.789 219.17 86.389 C 222.05 85.429 223.17 85.589 228.13 101.269 C 231.387 114.1 231.222 127.561 227.65 140.309 C 227.313 142.962 227.153 145.634 227.17 148.309 L 227.33 150.389 C 227.33 150.869 227.65 151.349 227.81 151.669 L 228.13 151.669 L 228.45 151.829 C 228.77 151.829 228.93 152.149 229.09 152.309 C 229.62 153.016 229.477 154.018 228.77 154.549 C 228.395 154.803 227.941 154.917 227.49 154.869 L 222.69 154.869 L 223.33 160.789 L 223.33 161.589 C 223.024 162.188 222.403 162.561 221.73 162.549 L 221.09 162.549 L 218.53 161.589 L 217.89 167.349 C 218.05 167.509 223.33 173.749 222.37 194.869 L 222.37 195.509 C 222.37 198.709 225.89 201.909 227.97 204.309 C 228.93 205.429 230.05 206.229 231.17 207.029 C 233.314 208.392 235.707 209.317 238.21 209.749 L 238.37 209.749 L 238.69 209.909 L 239.17 210.389 C 239.597 210.958 239.597 211.74 239.17 212.309 L 238.69 212.789 L 238.37 212.789 L 229.73 215.669 L 239.33 219.349 L 239.65 219.509 L 239.97 219.669 L 240.29 220.149 C 240.499 220.569 240.513 221.059 240.328 221.49 C 240.143 221.922 239.778 222.25 239.33 222.389 L 239.01 222.389 L 228.77 224.309 L 230.85 225.269 C 233.155 226.314 235.398 227.489 237.57 228.789 L 239.33 230.069 C 239.789 230.403 240.218 230.778 240.61 231.189 L 241.25 232.149 L 241.41 232.949 C 241.41 233.749 230.69 240.469 224.77 237.909 C 222.21 243.829 212.13 248.789 204.93 253.749 C 176.13 274.069 123.33 276.949 89.41 259.029 C 87.97 259.829 80.13 249.429 79.81 249.109 C 75.81 246.869 70.21 249.429 69.89 249.429 L 69.41 249.429 C 68.78 249.156 68.394 248.513 68.45 247.829 L 67.81 240.629 C 64.938 240.281 62.057 240.014 59.17 239.829 C 58.539 239.488 58.212 238.768 58.37 238.069 C 58.447 237.76 58.614 237.482 58.85 237.269 L 59.33 236.949 L 63.01 233.269 L 56.61 231.509 L 56.29 231.509 C 55.868 231.503 55.466 231.33 55.17 231.029 C 54.56 230.406 54.56 229.411 55.17 228.789 L 55.17 228.629 L 68.77 214.229 C 66.294 204.373 66.13 194.078 68.29 184.149 L 63.81 183.349 L 63.49 183.349 L 63.49 182.869 C 63.24 182.765 63.019 182.6 62.85 182.389 L 62.85 182.069 L 61.89 179.989 L 55.81 177.589 L 55.49 177.589 L 55.17 177.109 C 54.779 176.674 54.656 176.06 54.85 175.509 L 55.01 175.189 L 56.61 173.589 L 52.45 172.789 L 52.29 172.789 L 51.97 172.629 C 51.185 172.266 50.831 171.344 51.17 170.549 L 51.49 170.069 L 54.21 167.349 C 53.25 165.909 49.41 163.029 30.69 139.669 C 24.77 132.309 27.81 127.029 27.81 127.029 C 27.81 127.029 29.73 123.509 47.49 125.589 C 50.53 125.909 53.41 125.589 56.45 125.429 C 59.83 125.267 63.197 124.893 66.53 124.309 L 69.09 123.829 L 70.53 123.509 C 72.61 123.189 74.85 122.869 76.93 122.869 C 81.876 122.649 86.805 123.58 91.33 125.589 L 96.13 127.669 L 100.13 128.949 C 102.05 129.589 108.61 129.909 112.13 128.309 C 114.37 127.349 114.21 124.949 114.53 123.509 C 115.33 121.109 116.61 118.709 118.21 116.629 C 118.088 116.368 117.981 116.101 117.89 115.829 L 117.41 115.029 L 117.09 114.549 L 117.09 114.389 Z " fill-rule="evenodd" fill="rgb(0,0,0)" fill-opacity="0.2"/><path d=" M 123.49 111.189 C 122.054 107.977 121.662 104.395 122.37 100.949 C 122.52 100.041 122.846 99.171 123.33 98.389 C 123.981 96.985 124.844 95.689 125.89 94.549 L 125.89 94.389 C 125.468 93.231 125.095 92.057 124.77 90.869 C 124.13 87.669 123.97 83.989 125.25 80.789 C 125.912 79.352 126.834 78.05 127.97 76.949 L 127.65 76.149 L 127.49 75.349 C 127.079 74.103 126.81 72.815 126.69 71.509 C 126.468 68.338 127.313 65.184 129.09 62.549 L 128.93 61.749 C 128.328 60.518 127.845 59.232 127.49 57.909 C 126.657 54.854 126.769 51.619 127.81 48.629 C 128.037 48.076 128.304 47.541 128.61 47.029 C 128.586 43.372 128.962 39.724 129.73 36.149 C 131.251 32.882 134.109 30.432 137.57 29.429 L 137.89 29.109 L 139.49 29.429 L 142.21 30.549 C 146.223 32.432 149.328 35.825 150.85 39.989 C 151.741 42.886 152.067 45.928 151.81 48.949 L 152.13 49.269 L 152.45 49.749 C 153.89 51.349 154.85 53.269 155.33 55.189 C 156.29 58.229 156.61 61.269 156.45 64.309 L 156.77 64.629 C 157.57 65.269 158.21 66.229 158.69 67.029 L 159.97 70.069 C 160.921 74.056 161.457 78.131 161.57 82.229 L 161.57 83.029 C 162.046 83.801 162.474 84.603 162.85 85.429 C 164.99 90.248 165.818 95.547 165.25 100.789 L 165.57 101.589 L 166.05 102.229 L 166.21 102.389 L 167.33 104.789 C 168.813 108.854 168.925 113.293 167.65 117.429 L 168.13 118.069 C 168.29 118.389 172.93 120.149 172.93 120.469 C 173.57 121.109 197.73 93.749 225.73 83.349 C 228.45 82.229 229.73 82.389 234.53 98.069 C 237.696 110.517 237.641 123.567 234.37 135.989 L 234.21 137.109 C 233.813 140.507 233.706 143.932 233.89 147.349 C 233.89 147.669 234.05 148.149 234.37 148.469 L 234.69 148.469 L 234.85 148.629 C 235.159 148.706 235.437 148.873 235.65 149.109 C 236.077 149.678 236.077 150.46 235.65 151.029 L 235.33 151.509 C 234.955 151.763 234.501 151.877 234.05 151.829 L 229.09 151.509 L 229.89 157.589 L 229.89 157.909 L 229.73 158.389 C 229.424 158.988 228.803 159.361 228.13 159.349 L 227.49 159.349 L 225.09 158.389 L 224.45 164.149 C 224.45 164.309 229.89 170.709 228.77 191.829 L 228.77 192.309 C 228.93 195.509 232.45 198.709 234.53 201.109 C 235.458 202.167 236.536 203.083 237.73 203.829 C 239.826 205.173 242.162 206.097 244.61 206.549 L 244.93 206.549 L 245.25 206.869 C 245.371 206.96 245.479 207.067 245.57 207.189 C 246.082 207.787 246.082 208.67 245.57 209.269 L 245.09 209.589 L 244.77 209.589 L 236.13 212.629 L 245.89 216.309 L 246.21 216.309 L 246.37 216.629 L 246.85 216.949 C 247.244 217.663 247.037 218.559 246.37 219.029 L 245.89 219.349 L 245.57 219.349 L 235.17 221.109 L 237.25 222.069 C 240.8 223.668 244.134 225.711 247.17 228.149 L 247.81 228.949 L 247.97 229.749 C 247.97 230.549 237.25 237.269 231.17 234.869 C 228.77 240.629 218.69 245.589 211.49 250.549 C 182.69 271.029 129.89 273.749 95.81 255.829 C 94.53 256.629 86.69 246.229 86.21 245.909 C 82.21 243.829 76.61 246.389 76.45 246.389 L 75.81 246.229 C 75.242 245.908 74.926 245.275 75.01 244.629 L 74.21 237.429 C 71.39 237.137 68.562 236.924 65.73 236.789 C 65.285 236.54 64.985 236.095 64.922 235.59 C 64.859 235.084 65.04 234.579 65.41 234.229 L 65.73 233.909 L 69.41 230.229 L 63.01 228.309 L 62.21 228.309 C 61.804 228.165 61.473 227.863 61.292 227.471 C 61.111 227.079 61.096 226.631 61.25 226.229 L 61.57 225.589 L 61.73 225.589 L 75.33 211.029 C 73.73 212.309 71.81 185.109 74.69 180.949 L 70.37 180.149 L 69.89 180.149 L 69.57 179.989 C 69.305 179.835 69.084 179.614 68.93 179.349 L 68.93 179.189 L 68.13 176.949 L 61.89 174.709 L 61.41 174.229 C 61.019 173.794 60.896 173.18 61.09 172.629 L 61.41 172.149 L 62.85 170.549 L 58.85 169.749 L 58.37 169.749 C 58.181 169.621 58.018 169.458 57.89 169.269 C 57.435 168.802 57.308 168.106 57.57 167.509 L 57.89 167.029 L 60.61 164.469 C 59.49 162.869 55.81 160.149 37.09 136.629 C 31.17 129.269 34.05 124.149 34.05 124.149 C 34.05 124.149 36.13 120.309 53.89 122.549 C 56.77 122.869 59.81 122.549 62.69 122.229 C 66.124 122.072 69.544 121.698 72.93 121.109 L 75.33 120.629 L 76.93 120.309 C 79.01 119.989 81.09 119.669 83.33 119.669 C 88.274 119.478 93.197 120.408 97.73 122.389 L 102.53 124.469 L 106.53 125.909 C 108.29 126.389 115.01 126.709 118.53 125.109 C 120.61 124.149 120.45 121.749 120.93 120.309 C 121.73 117.909 123.01 115.509 124.61 113.429 L 124.13 112.789 L 123.81 111.829 L 123.33 111.509 L 123.49 111.349 L 123.49 111.189 Z " fill-rule="evenodd" fill="rgb(255,255,255)" vector-effect="non-scaling-stroke" stroke-width="1.28" stroke="rgb(207,207,207)" stroke-linejoin="round" stroke-linecap="butt" stroke-miterlimit="1.41"/><path d=" M 118.37 132.629 C 118.37 132.629 148.29 129.429 167.33 131.189 C 175.33 131.989 177.73 126.869 178.37 126.069 C 178.85 125.269 184.45 120.949 189.57 118.549 C 194.69 115.989 198.85 100.949 224.77 90.869 C 224.77 90.869 230.53 107.509 222.85 134.549 C 222.85 134.549 220.61 148.149 224.29 148.149 L 218.05 147.829 L 218.85 155.189 L 215.01 153.749 L 214.05 161.749 C 214.05 161.749 223.65 170.229 219.17 192.149 C 219.17 192.149 218.21 204.309 231.97 207.349 L 220.77 211.509 L 232.93 216.309 L 219.17 218.869 C 219.17 218.869 232.61 224.469 233.89 227.669 C 233.89 227.669 220.29 223.669 217.73 226.869 L 221.89 231.349 L 217.41 233.109 L 220.93 237.909 C 220.93 237.909 217.41 237.109 214.21 239.029 C 211.01 241.109 191.81 249.429 191.81 249.429 C 191.81 249.429 145.41 269.749 115.49 251.509 C 115.49 251.509 104.29 247.349 99.97 250.069 C 99.97 250.069 101.09 246.869 98.37 244.149 C 95.65 241.269 91.97 238.069 91.97 238.069 C 91.97 238.069 85.09 236.309 80.45 240.309 C 80.45 240.309 85.57 232.149 85.57 230.709 C 85.57 230.709 78.05 228.469 74.69 230.709 C 74.69 230.709 82.85 226.709 83.97 222.709 L 69.57 224.629 L 83.49 212.309 C 83.49 212.309 80.29 194.389 82.85 181.429 L 84.93 177.429 L 79.01 176.309 L 78.21 173.589 L 72.13 171.189 L 75.01 167.669 L 69.09 166.549 L 72.29 163.349 L 68.61 157.909 C 68.61 157.909 51.33 145.749 47.01 135.829 C 47.01 135.829 40.93 134.229 39.17 127.029 C 39.17 127.029 63.49 130.069 76.93 126.869 C 90.37 123.669 94.53 127.509 102.37 130.549 C 107.438 132.597 112.947 133.313 118.37 132.629 Z " fill-rule="evenodd" fill="rgb(253,243,236)"/><path d=" M 77.89 174.229 C 77.89 174.229 81.25 177.589 84.13 177.429 C 85.89 177.429 87.49 174.869 87.97 172.629 C 88.93 167.509 88.45 149.269 88.45 149.269 C 88.45 149.269 68.45 137.749 59.33 136.629 C 50.37 135.669 49.09 136.629 46.21 135.029 C 43.33 133.749 49.09 139.829 49.09 139.829 L 67.97 157.269 L 71.97 162.869 L 69.41 166.389 L 74.85 168.149 L 72.93 171.509 L 77.89 174.229 Z  M 192.77 137.909 C 192.77 137.909 212.29 129.909 215.49 110.709 C 218.69 91.669 226.21 97.109 226.21 97.109 L 227.01 114.709 L 222.21 136.789 L 222.53 147.509 L 218.21 148.309 L 218.53 154.709 L 215.33 154.229 L 214.69 160.789 L 213.89 162.389 C 213.89 162.389 206.21 149.749 192.77 137.909 Z " fill-rule="evenodd" fill="rgb(247,209,183)"/><path d=" M 74.05 141.749 C 81.57 145.269 88.45 149.269 88.45 149.269 L 88.45 164.629 C 86.126 164.878 83.775 164.605 81.57 163.829 C 69.09 160.469 72.61 145.909 74.05 141.749 Z  M 206.53 129.429 C 206.53 129.429 208.77 123.349 210.05 125.109 C 214.05 130.549 219.65 140.469 209.25 148.949 C 194.37 160.949 193.25 146.389 193.25 146.389 L 192.45 138.069 L 197.73 135.669 L 206.37 129.429 L 206.53 129.429 Z " fill-rule="evenodd" fill="rgb(240,166,116)"/><path d=" M 165.89 193.589 C 165.89 193.589 164.93 176.149 178.69 170.069 C 192.77 164.149 201.41 179.669 195.97 187.669 C 190.53 195.509 183.17 195.829 183.17 195.829 C 183.17 195.829 167.17 198.869 165.89 193.589 Z " fill-rule="evenodd" fill="rgb(224,212,87)"/><path d=" M 135.01 194.549 C 135.01 194.549 132.77 177.269 118.05 173.749 C 103.33 170.389 97.73 187.189 104.45 194.069 C 111.17 200.789 118.53 199.829 118.53 199.829 C 118.53 199.829 134.53 199.829 135.01 194.549 Z " fill-rule="evenodd" fill="rgb(110,201,195)"/><path d=" M 129.89 132.789 C 129.89 132.789 123.97 123.029 131.97 112.629 C 131.97 112.629 125.57 103.349 133.09 95.349 C 133.09 95.349 128.29 84.949 134.85 79.189 C 134.85 79.189 131.17 71.829 135.97 65.589 C 135.97 65.589 131.65 57.269 135.17 51.349 C 135.17 51.349 135.17 39.989 137.57 37.909 C 137.57 37.909 149.41 39.989 148.13 56.469 C 148.13 56.469 152.93 59.669 152.29 70.869 C 152.29 70.869 156.61 72.149 156.61 87.509 C 156.61 87.509 161.09 94.549 159.81 104.469 C 159.81 104.469 164.61 110.549 161.89 119.989 C 161.89 119.989 168.29 126.389 164.77 135.509 C 161.25 144.469 150.21 144.469 146.69 144.149 C 135.17 143.189 129.89 132.789 129.89 132.789 Z " fill-rule="evenodd" fill="rgb(227,157,255)"/><path d=" M 131.97 112.789 C 136.45 118.229 145.89 124.949 162.37 120.789 C 163.97 122.549 167.65 128.309 164.77 135.509 C 161.25 144.469 150.21 144.469 146.69 144.149 C 135.17 143.189 129.89 132.789 129.89 132.789 C 129.89 132.789 123.97 123.029 131.97 112.629 L 131.97 112.789 Z  M 134.69 78.869 C 138.05 79.349 144.61 83.029 157.09 88.469 C 158.21 90.709 160.77 96.469 159.97 103.669 C 155.17 101.109 140.45 93.589 132.77 94.389 C 131.65 91.509 129.57 83.829 134.85 79.189 L 134.85 78.869 L 134.69 78.869 Z  M 135.17 50.549 C 138.37 51.829 142.37 53.909 148.13 56.469 C 148.13 56.469 152.93 59.669 152.29 70.869 C 147.024 68.182 141.43 66.192 135.65 64.949 C 134.69 63.029 132.13 56.309 135.17 51.349 L 135.17 50.549 Z " fill-rule="evenodd" fill="rgb(249,160,160)"/><path d=" M 129.09 110.709 C 127.883 107.658 127.604 104.318 128.29 101.109 C 128.703 99.373 129.465 97.74 130.53 96.309 L 131.33 95.189 L 131.17 94.389 L 130.85 93.429 L 130.37 91.829 C 129.576 88.705 129.743 85.415 130.85 82.389 C 131.399 81.101 132.156 79.912 133.09 78.869 L 132.93 78.069 L 132.61 77.269 C 132.332 76.114 132.171 74.935 132.13 73.749 C 131.908 70.824 132.638 67.905 134.21 65.429 C 133.597 64.019 133.063 62.577 132.61 61.109 C 131.896 58.256 132.007 55.26 132.93 52.469 C 133.102 51.919 133.316 51.384 133.57 50.869 L 133.57 49.429 C 133.736 46.526 134.111 43.638 134.69 40.789 C 134.804 40.138 134.965 39.496 135.17 38.869 C 135.452 38.096 135.887 37.388 136.45 36.789 L 137.09 36.309 L 138.53 36.629 L 140.93 37.589 C 144.921 39.564 147.845 43.19 148.93 47.509 C 149.695 50.211 149.966 53.03 149.73 55.829 L 150.05 56.149 L 150.21 56.469 C 151.49 58.069 152.29 59.669 152.77 61.589 C 153.73 64.309 153.89 67.189 153.73 70.069 L 154.05 70.389 C 154.709 71.037 155.25 71.795 155.65 72.629 L 156.77 75.349 L 157.73 80.149 L 158.05 86.709 L 158.05 87.029 L 158.37 87.509 C 158.727 88.184 159.048 88.879 159.33 89.589 C 161.217 94.139 161.933 99.09 161.41 103.989 L 161.73 104.629 L 162.05 105.269 L 162.05 105.429 L 162.21 105.429 L 163.17 107.669 C 164.488 111.434 164.6 115.517 163.49 119.349 L 163.49 119.509 L 163.97 119.989 L 164.29 120.629 C 165.742 122.801 166.723 125.254 167.17 127.829 L 167.33 129.589 L 167.97 129.589 L 168.77 129.749 C 170.37 129.749 171.97 129.589 173.41 128.789 C 174.116 128.47 174.765 128.038 175.33 127.509 C 175.751 127.126 176.126 126.696 176.45 126.229 L 177.09 125.269 L 177.09 125.109 C 180.496 122.221 184.196 119.7 188.13 117.589 L 189.09 117.109 L 189.25 116.949 C 190.272 115.996 191.234 114.981 192.13 113.909 L 194.53 110.709 C 196.997 107.851 199.614 105.127 202.37 102.549 C 208.472 97.099 215.522 92.814 223.17 89.909 L 223.49 89.909 L 224.29 89.589 C 224.603 89.49 224.938 89.49 225.25 89.589 L 225.57 89.749 L 225.89 90.069 L 226.05 90.549 L 226.37 91.349 C 227.453 96.183 228.043 101.115 228.13 106.069 C 228.327 116.251 226.923 126.402 223.97 136.149 C 223.616 139.337 223.563 142.551 223.81 145.749 C 223.81 145.909 223.81 146.389 224.13 146.709 L 224.45 146.709 L 224.77 146.869 C 224.963 146.992 225.126 147.156 225.25 147.349 C 225.536 147.844 225.536 148.454 225.25 148.949 L 225.09 149.429 C 224.77 149.672 224.37 149.786 223.97 149.749 L 219.65 149.589 L 220.29 155.189 L 220.29 155.509 C 220.018 156.139 219.374 156.525 218.69 156.469 L 218.21 156.469 L 216.13 155.669 L 215.49 160.949 L 215.97 161.429 C 217.57 163.509 218.85 165.909 219.81 168.469 C 221.833 174.38 222.382 180.696 221.41 186.869 C 221.23 188.853 220.963 190.828 220.61 192.789 C 220.706 196.991 222.859 200.878 226.37 203.189 C 228.154 204.427 230.166 205.298 232.29 205.749 L 232.45 205.749 L 232.77 206.069 C 232.77 206.069 233.09 206.069 233.09 206.389 C 233.517 206.958 233.517 207.74 233.09 208.309 L 232.61 208.629 L 232.45 208.629 L 224.93 211.349 L 233.41 214.869 L 233.57 214.869 L 233.73 215.029 L 234.05 215.509 C 234.39 216.304 234.035 217.226 233.25 217.589 L 233.09 217.589 L 223.97 219.349 L 225.89 220.309 L 227.17 220.949 C 229.288 222.018 231.321 223.248 233.25 224.629 L 234.37 225.749 C 234.621 226.042 234.836 226.364 235.01 226.709 L 235.17 227.349 C 235.203 228.074 234.743 228.731 234.05 228.949 L 233.25 228.949 L 232.77 228.789 L 231.97 228.629 C 228.82 227.83 225.609 227.295 222.37 227.029 L 220.13 227.029 L 222.85 230.229 L 223.17 230.709 C 223.323 231.29 223.138 231.908 222.69 232.309 L 222.37 232.469 L 219.65 233.589 L 221.89 236.789 L 222.05 236.949 L 222.05 237.749 C 221.977 238.512 221.373 239.115 220.61 239.189 L 219.49 239.189 C 218.243 239.024 216.974 239.19 215.81 239.669 L 215.01 240.149 C 214.69 240.149 214.53 240.469 214.21 240.629 L 213.09 241.109 L 208.93 243.189 L 204.13 245.429 C 199.774 247.388 195.401 249.308 191.01 251.189 C 176.207 256.979 160.501 260.12 144.61 260.469 C 134.211 260.383 123.992 257.746 114.85 252.789 L 114.69 252.789 C 111.478 251.672 108.15 250.92 104.77 250.549 L 102.21 250.549 C 101.64 250.656 101.097 250.874 100.61 251.189 L 100.29 251.509 L 99.65 251.509 C 98.984 251.472 98.41 251.026 98.21 250.389 L 98.21 249.909 L 98.37 249.429 L 98.37 248.149 C 98.346 247.009 97.888 245.922 97.09 245.109 L 95.49 243.509 L 91.49 239.829 L 91.17 239.509 C 90.433 239.343 89.684 239.236 88.93 239.189 C 86.773 239.045 84.617 239.488 82.69 240.469 C 82.24 240.696 81.812 240.964 81.41 241.269 L 81.25 241.429 L 81.09 241.429 L 80.77 241.749 L 79.97 241.749 C 79.864 241.759 79.757 241.759 79.65 241.749 C 78.865 241.386 78.511 240.464 78.85 239.669 L 78.85 239.509 L 80.13 237.589 L 83.17 232.469 L 83.17 232.149 L 83.49 231.829 L 82.69 231.829 C 81.534 231.564 80.356 231.403 79.17 231.349 C 78.21 231.349 77.41 231.349 76.61 231.669 L 76.29 231.669 L 75.33 232.149 L 75.01 232.149 C 74.602 232.327 74.138 232.327 73.73 232.149 C 73.223 231.786 72.974 231.161 73.09 230.549 C 73.122 230.258 73.232 229.981 73.41 229.749 L 73.89 229.429 C 74.195 229.24 74.516 229.079 74.85 228.949 L 75.01 228.949 L 75.65 228.469 C 77.25 227.509 78.85 226.389 80.45 224.949 L 80.61 224.949 L 80.61 224.789 L 69.57 226.069 L 68.93 226.069 C 68.752 225.992 68.589 225.884 68.45 225.749 C 68.002 225.348 67.817 224.73 67.97 224.149 L 68.29 223.669 L 68.45 223.509 L 81.73 211.829 L 81.57 210.229 L 81.25 208.789 C 80.461 202.206 80.14 195.576 80.29 188.949 C 80.29 187.029 80.61 185.269 80.93 183.349 L 81.09 181.749 L 81.09 181.429 L 81.25 180.949 L 81.25 180.789 L 82.53 178.549 L 78.53 177.749 L 78.37 177.749 L 78.05 177.589 C 77.833 177.425 77.667 177.203 77.57 176.949 L 77.57 176.789 L 76.77 174.869 L 71.49 172.629 L 71.17 172.629 C 71.17 172.309 71.01 172.309 70.85 172.149 C 70.57 171.722 70.511 171.187 70.69 170.709 L 70.85 170.229 L 72.13 168.629 L 68.61 168.149 L 68.29 168.149 L 68.13 167.989 C 67.488 167.582 67.22 166.779 67.49 166.069 C 67.49 165.749 67.65 165.749 67.81 165.589 L 70.05 163.029 L 67.33 158.869 L 66.85 158.549 L 66.05 157.909 L 64.13 156.469 C 58.735 152.142 53.705 147.379 49.09 142.229 C 47.865 140.683 46.793 139.022 45.89 137.269 C 45.723 137.172 45.563 137.066 45.41 136.949 L 44.77 136.629 C 41.196 134.852 38.611 131.561 37.73 127.669 L 37.73 126.709 C 37.88 126.164 38.305 125.738 38.85 125.589 L 39.33 125.589 L 40.93 125.749 C 49.539 126.642 58.198 126.962 66.85 126.709 C 69.803 126.513 72.742 126.139 75.65 125.589 C 76.45 125.589 77.25 125.269 77.89 125.109 L 79.01 124.949 C 80.93 124.469 82.85 124.309 84.77 124.149 C 89.079 123.937 93.372 124.817 97.25 126.709 L 101.41 128.629 C 104.971 130.139 108.754 131.058 112.61 131.349 C 114.313 131.506 116.027 131.506 117.73 131.349 L 117.73 131.189 L 118.05 131.189 L 127.17 130.229 C 125.21 124.243 126.284 117.678 130.05 112.629 L 129.89 111.989 L 129.41 111.189 L 129.09 110.709 Z  M 224.29 94.869 L 223.81 92.949 C 216.273 96.051 209.299 100.376 203.17 105.749 L 198.37 110.869 L 194.53 115.829 L 193.89 116.469 C 193.005 117.703 191.924 118.784 190.69 119.669 L 189.41 120.309 C 186.85 121.589 184.61 123.029 182.37 124.629 L 180.29 126.229 C 180.123 126.381 179.963 126.541 179.81 126.709 L 179.65 126.869 L 179.17 127.669 L 178.85 128.149 C 177.424 130.081 175.399 131.488 173.09 132.149 C 171.173 132.728 169.155 132.891 167.17 132.629 C 166.867 134.42 166.272 136.149 165.41 137.749 C 164.688 139.006 163.77 140.141 162.69 141.109 C 160.251 143.268 157.26 144.708 154.05 145.269 C 150.663 145.864 147.198 145.864 143.81 145.269 C 139.271 144.31 135.169 141.894 132.13 138.389 C 130.903 137.017 129.83 135.515 128.93 133.909 L 128.45 133.269 L 118.85 134.069 L 118.05 134.069 C 116.29 134.389 114.37 134.549 112.61 134.389 C 109.566 134.255 106.553 133.716 103.65 132.789 L 95.97 129.589 L 94.85 128.949 C 93.13 128.291 91.366 127.757 89.57 127.349 C 85.769 126.83 81.901 127.102 78.21 128.149 L 76.61 128.469 L 75.65 128.629 C 70.695 129.565 65.65 129.941 60.61 129.749 C 54.21 129.749 47.81 129.429 41.41 128.789 C 40.77 129.589 45.25 133.749 46.85 134.229 L 47.33 134.389 C 47.65 134.389 47.65 134.389 47.81 134.709 L 48.13 134.869 C 49.144 135.315 50.226 135.585 51.33 135.669 L 53.25 135.509 L 54.37 135.189 L 54.69 135.189 C 56.276 134.886 57.905 134.886 59.49 135.189 L 65.41 136.469 C 75.868 139.868 85.547 145.306 93.89 152.469 L 93.57 154.549 C 93.57 154.549 92.13 154.549 91.49 154.229 L 91.17 153.909 C 88.693 151.644 86.015 149.609 83.17 147.829 C 75.862 143.685 68.07 140.46 59.97 138.229 C 58.54 138.024 57.092 137.971 55.65 138.069 L 55.01 138.069 L 54.37 138.229 L 53.89 138.389 C 52.68 138.636 51.438 138.69 50.21 138.549 L 52.77 141.749 C 56.062 145.71 59.823 149.256 63.97 152.309 C 65.73 153.909 67.65 155.189 69.57 156.629 L 69.89 157.109 L 73.41 162.389 L 73.73 162.869 C 73.778 163.197 73.722 163.533 73.57 163.829 C 73.57 163.989 73.57 164.149 73.25 164.309 L 71.97 165.589 L 75.17 166.229 L 75.49 166.229 L 75.97 166.549 C 76.418 166.949 76.603 167.567 76.45 168.149 C 76.45 168.469 76.29 168.469 76.13 168.629 L 74.53 170.549 L 78.69 172.149 L 78.85 172.309 L 79.17 172.469 L 79.49 172.949 L 79.49 173.109 L 80.13 174.869 L 85.09 175.989 L 85.41 175.989 L 85.89 176.309 C 86.234 176.642 86.41 177.112 86.37 177.589 L 86.21 178.069 L 84.29 181.909 C 83.17 189.326 83.063 196.862 83.97 204.309 L 84.93 211.669 L 84.93 212.629 C 84.922 212.851 84.867 213.069 84.77 213.269 L 84.61 213.589 L 74.21 222.549 L 83.81 221.269 L 84.13 221.269 L 84.45 221.429 C 84.61 221.429 84.77 221.429 84.93 221.749 C 85.274 222.082 85.45 222.552 85.41 223.029 L 85.25 223.829 C 85.038 224.287 84.769 224.717 84.45 225.109 L 83.97 225.749 C 83.504 226.345 82.967 226.883 82.37 227.349 L 81.25 228.469 L 82.05 228.469 L 82.85 228.629 L 85.73 229.269 L 86.05 229.269 L 86.53 229.589 L 86.85 230.069 L 87.01 230.389 C 87.33 231.029 87.01 231.669 86.85 232.149 L 86.53 232.629 L 86.37 233.109 L 85.89 233.909 L 85.25 235.029 L 84.61 236.309 L 84.45 236.629 L 84.93 236.629 L 85.41 236.469 C 87.65 235.989 90.05 236.149 92.29 236.469 L 92.93 236.789 L 93.09 236.949 L 95.33 239.029 L 98.53 241.909 L 98.85 242.549 L 100.13 243.829 C 101.034 244.982 101.589 246.37 101.73 247.829 L 103.01 247.829 C 105.09 247.509 107.17 247.829 109.25 248.309 C 111.584 248.726 113.883 249.314 116.13 250.069 L 117.25 250.869 L 121.89 253.109 C 131.404 257.018 141.74 258.503 151.97 257.429 C 163.072 256.825 174.02 254.56 184.45 250.709 C 188.59 249.276 192.649 247.62 196.61 245.749 C 201.166 243.663 205.7 241.53 210.21 239.349 L 212.93 238.069 C 213.25 238.069 213.41 237.749 213.73 237.589 L 214.21 237.269 C 215.283 236.802 216.413 236.479 217.57 236.309 L 217.89 236.309 L 216.29 234.069 L 216.13 233.749 C 216.028 233.551 215.973 233.331 215.97 233.109 C 215.976 232.687 216.149 232.284 216.45 231.989 L 216.93 231.669 L 219.33 230.709 L 216.61 227.829 L 216.29 227.189 L 216.29 226.709 C 216.296 226.287 216.469 225.884 216.77 225.589 C 216.968 225.408 217.182 225.248 217.41 225.109 C 218.048 224.716 218.754 224.445 219.49 224.309 C 222.209 223.958 224.967 224.066 227.65 224.629 C 224.761 223.042 221.767 221.652 218.69 220.469 L 218.37 220.149 C 217.703 219.679 217.497 218.783 217.89 218.069 L 218.21 217.749 L 218.53 217.589 L 218.85 217.589 L 227.65 215.829 L 220.29 212.789 L 219.97 212.789 L 219.97 212.629 C 219.778 212.505 219.614 212.341 219.49 212.149 C 219.127 211.395 219.406 210.488 220.13 210.069 L 220.29 210.069 L 227.49 207.509 L 226.85 207.189 L 226.37 206.869 C 224.7 206.075 223.183 204.991 221.89 203.669 C 219.07 200.572 217.577 196.494 217.73 192.309 L 217.73 191.989 L 217.89 190.869 C 218.715 186.278 218.983 181.604 218.69 176.949 C 218.212 172.662 216.85 168.522 214.69 164.789 C 214.215 164.053 213.68 163.357 213.09 162.709 L 212.77 162.389 C 212.673 162.189 212.618 161.971 212.61 161.749 L 212.61 161.429 L 213.41 153.589 L 213.57 153.109 C 213.866 152.596 214.419 152.289 215.01 152.309 L 215.49 152.309 L 217.09 152.949 L 216.61 147.989 L 216.61 147.189 C 216.809 146.803 217.155 146.514 217.57 146.389 L 221.09 146.389 L 221.09 145.909 L 220.93 145.429 C 220.747 141.742 220.907 138.046 221.41 134.389 L 221.89 132.309 L 222.37 130.549 C 224.915 119.868 225.725 108.847 224.77 97.909 C 224.44 98.047 224.119 98.207 223.81 98.389 C 222.519 99.337 221.431 100.534 220.61 101.909 C 219.49 103.509 218.69 105.109 218.05 106.709 C 217.09 108.949 216.45 111.029 215.81 113.109 L 215.01 116.309 L 214.53 117.909 L 214.21 119.029 C 212.998 122.534 211.154 125.787 208.77 128.629 C 203.551 134.888 196.198 138.993 188.13 140.149 L 186.53 138.869 L 187.65 137.269 L 188.45 137.109 L 189.41 136.789 C 190.37 136.789 191.01 136.469 191.97 136.149 C 198.781 134.103 204.666 129.746 208.61 123.829 C 209.73 122.229 210.53 120.309 211.17 118.389 L 212.29 114.709 L 212.61 113.109 C 213.575 109.961 214.696 106.864 215.97 103.829 C 217.483 100.675 219.668 97.89 222.37 95.669 C 222.978 95.33 223.622 95.061 224.29 94.869 Z  M 148.45 219.669 L 142.21 215.829 C 141.017 215.016 139.893 214.106 138.85 213.109 L 138.37 212.629 L 138.05 212.309 C 137.369 211.626 136.969 210.712 136.93 209.749 L 136.93 209.269 L 137.09 208.789 L 137.41 208.309 C 137.671 207.978 137.998 207.706 138.37 207.509 C 138.824 207.278 139.309 207.116 139.81 207.029 L 142.69 207.029 C 144.45 207.509 146.21 207.829 148.13 207.989 C 150.649 208.131 153.167 207.693 155.49 206.709 L 156.61 206.069 L 157.09 205.909 C 157.787 205.57 158.556 205.405 159.33 205.429 C 160.048 205.447 160.732 205.732 161.25 206.229 C 161.89 207.029 162.21 207.989 162.05 208.949 C 162.059 210.048 161.841 211.137 161.41 212.149 C 161.19 212.704 160.922 213.239 160.61 213.749 C 160.075 214.68 159.302 215.453 158.37 215.989 L 157.73 216.149 L 156.93 216.469 C 155.064 217.153 153.291 218.067 151.65 219.189 L 151.65 225.589 L 165.41 237.269 L 163.33 239.509 L 152.77 230.229 L 150.05 227.989 L 147.33 230.229 L 136.61 239.509 L 134.69 237.269 L 144.61 228.629 L 148.29 225.429 L 148.45 219.509 L 148.45 219.669 Z  M 136.45 195.029 L 136.29 195.989 C 135.473 197.451 134.172 198.583 132.61 199.189 L 131.81 199.509 L 130.69 199.829 L 129.57 200.149 C 128.154 200.531 126.709 200.799 125.25 200.949 C 123.337 201.156 121.414 201.263 119.49 201.269 L 118.05 201.269 C 115.295 201.369 112.555 200.821 110.05 199.669 C 107.328 198.468 104.878 196.726 102.85 194.549 C 100.947 192.083 99.982 189.02 100.13 185.909 C 100.33 180.65 103.235 175.868 107.81 173.269 C 109.014 172.641 110.31 172.209 111.65 171.989 C 116.204 171.411 120.821 172.368 124.77 174.709 C 127.65 176.629 130.05 179.189 131.97 182.229 C 134.376 185.959 135.957 190.159 136.61 194.549 L 136.61 195.029 L 136.45 195.029 Z  M 114.21 174.869 C 113.41 174.869 112.61 174.869 111.65 175.189 C 110.331 175.478 109.081 176.021 107.97 176.789 C 103.827 179.901 102.15 185.32 103.81 190.229 C 104.241 191.445 104.954 192.541 105.89 193.429 C 108.253 195.821 111.251 197.487 114.53 198.229 L 119.49 198.229 C 123.155 198.107 126.8 197.625 130.37 196.789 L 132.61 195.669 C 133.09 195.349 133.41 195.029 133.41 194.549 C 133.167 192.921 132.793 191.316 132.29 189.749 C 130.69 185.429 128.29 181.109 124.45 178.389 C 122.628 177.01 120.567 175.979 118.37 175.349 C 117.165 175.052 115.931 174.891 114.69 174.869 L 114.21 174.869 Z  M 164.45 193.429 C 164.356 188.923 165.229 184.449 167.01 180.309 C 169.12 175.46 172.854 171.499 177.57 169.109 L 180.29 167.989 C 181.686 167.541 183.145 167.325 184.61 167.349 C 186.897 167.322 189.153 167.872 191.17 168.949 C 196.315 171.782 199.368 177.326 199.01 183.189 C 198.829 185.207 198.111 187.141 196.93 188.789 C 194.079 192.83 189.881 195.723 185.09 196.949 C 184.513 197.101 183.924 197.208 183.33 197.269 L 182.37 197.589 C 178.981 198.088 175.555 198.302 172.13 198.229 L 170.85 198.069 L 169.89 197.909 L 169.09 197.749 C 167.598 197.447 166.247 196.66 165.25 195.509 C 164.978 195.172 164.762 194.794 164.61 194.389 L 164.45 193.749 L 164.45 193.429 Z  M 116.13 180.629 C 112.61 181.269 110.21 185.109 111.01 189.269 C 111.81 193.429 115.33 196.149 119.01 195.669 C 122.53 194.869 124.77 191.029 124.13 186.869 C 123.33 182.709 119.81 179.989 116.13 180.469 L 116.13 180.629 Z  M 184.61 170.229 L 183.33 170.389 C 179.138 171.152 175.345 173.36 172.61 176.629 C 170.162 179.679 168.561 183.322 167.97 187.189 C 167.619 189.145 167.406 191.123 167.33 193.109 L 167.33 193.269 C 167.49 193.749 167.97 194.069 168.29 194.229 L 169.41 194.709 L 171.01 195.029 L 176.13 195.029 C 178.21 195.029 180.45 194.709 182.53 194.389 L 183.33 194.389 C 184.55 194.181 185.735 193.804 186.85 193.269 C 190.257 191.782 193.111 189.263 195.01 186.069 C 195.259 185.66 195.473 185.232 195.65 184.789 C 196.13 183.189 196.13 181.589 195.81 179.829 C 195.22 176.552 193.311 173.66 190.53 171.829 C 188.993 170.857 187.227 170.305 185.41 170.229 L 184.61 170.229 Z  M 181.89 176.629 C 185.57 176.629 188.61 179.829 188.61 184.149 C 188.61 188.309 185.57 191.669 181.89 191.669 C 178.21 191.669 175.33 188.469 175.33 184.149 C 175.33 179.989 178.21 176.469 181.89 176.469 L 181.89 176.629 Z  M 164.29 129.269 C 164.158 126.546 163.21 123.926 161.57 121.749 C 157.488 122.735 153.265 123.006 149.09 122.549 C 142.829 121.627 137.012 118.774 132.45 114.389 L 132.45 114.549 C 131.65 115.669 131.01 116.629 130.53 117.749 C 128.949 121.573 128.835 125.846 130.21 129.749 L 130.85 131.349 L 131.81 132.949 C 132.61 134.069 133.41 135.349 134.53 136.469 C 137.615 139.655 141.664 141.736 146.05 142.389 C 149.727 142.824 153.455 142.386 156.93 141.109 C 158.53 140.469 160.13 139.509 161.25 138.229 C 162.466 136.974 163.347 135.433 163.81 133.749 L 164.13 132.149 L 164.29 130.869 L 164.29 129.269 Z  M 133.89 96.789 C 132.616 98.212 131.685 99.909 131.17 101.749 C 130.643 104.45 130.979 107.249 132.13 109.749 L 133.25 111.029 L 135.49 113.269 C 139.588 116.721 144.581 118.941 149.89 119.669 C 153.41 120.162 156.99 119.999 160.45 119.189 L 160.45 118.709 C 160.867 117.63 161.137 116.5 161.25 115.349 C 161.445 112.535 160.893 109.72 159.65 107.189 L 159.49 107.029 L 158.69 106.389 L 155.33 103.989 C 148.864 99.904 141.511 97.434 133.89 96.789 Z  M 135.49 80.789 C 134.843 81.447 134.303 82.203 133.89 83.029 C 133.036 85.047 132.759 87.262 133.09 89.429 L 133.09 90.709 C 133.331 91.745 133.652 92.762 134.05 93.749 C 137.028 93.999 139.975 94.535 142.85 95.349 C 148.29 96.949 153.73 99.189 158.37 102.389 C 158.599 99.652 158.383 96.896 157.73 94.229 L 157.57 93.909 L 157.09 93.429 C 154.981 90.431 152.253 87.921 149.09 86.069 C 144.939 83.417 140.325 81.571 135.49 80.629 L 135.49 80.789 Z  M 137.09 66.389 L 137.09 66.709 C 136.42 67.527 135.88 68.445 135.49 69.429 C 134.916 71.408 134.861 73.502 135.33 75.509 C 135.33 76.309 135.65 77.109 135.97 77.749 C 138.14 78.192 140.279 78.78 142.37 79.509 C 147.17 81.109 151.49 83.509 155.17 86.709 C 155.028 83.098 154.545 79.509 153.73 75.989 C 153.513 75.1 153.191 74.241 152.77 73.429 C 152.526 72.997 152.2 72.616 151.81 72.309 L 150.69 71.989 L 150.69 71.509 L 150.37 71.189 C 150.05 71.189 149.89 70.869 149.57 70.709 C 146.755 68.839 143.603 67.535 140.29 66.869 L 137.73 66.549 L 137.09 66.549 L 137.09 66.389 Z  M 135.97 52.789 L 135.81 53.589 C 135.217 55.505 135.107 57.539 135.49 59.509 C 135.68 60.436 135.948 61.346 136.29 62.229 L 136.61 63.189 C 141.623 63.379 146.489 64.927 150.69 67.669 C 150.625 65.27 150.193 62.896 149.41 60.629 C 148.95 59.56 148.299 58.584 147.49 57.749 L 147.33 57.909 L 146.85 57.429 L 146.53 57.109 C 145.195 55.691 143.553 54.596 141.73 53.909 C 139.887 53.19 137.944 52.758 135.97 52.629 L 135.97 52.789 Z  M 146.69 53.269 C 146.633 49.914 145.635 46.644 143.81 43.829 C 142.958 42.712 141.931 41.74 140.77 40.949 C 139.969 40.424 139.11 39.994 138.21 39.669 C 137.697 41.124 137.322 42.624 137.09 44.149 L 136.61 49.909 L 138.37 50.069 L 139.97 50.389 C 142.37 51.029 144.77 51.989 146.69 53.269 Z " fill-rule="evenodd" fill="rgb(55,41,40)"/></g></g></svg>