<?xml version="1.0" standalone="no"?><!-- Generator: Gravit.io --><svg xmlns="http://www.w3.org/2000/svg" xmlns:xlink="http://www.w3.org/1999/xlink" style="isolation:isolate" viewBox="0 0 300 300" width="300" height="300"><defs><clipPath id="_clipPath_AKKQRgbVf67Ekh4c9T4HaXx2Tz57qKpL"><rect width="300" height="300"/></clipPath></defs><g clip-path="url(#_clipPath_AKKQRgbVf67Ekh4c9T4HaXx2Tz57qKpL)"><g id="Group"><path d=" M 89.159 104.683 L 90.455 101.763 C 91.881 98.551 93.178 97.091 94.992 94.025 C 99.27 86.871 103.548 84.243 109.382 78.841 C 121.997 67.239 137.692 60.713 153.975 60.299 L 158.253 60.153 L 159.549 60.153 C 169.856 60.102 180.116 61.724 190.012 64.971 C 194.384 66.292 198.708 67.801 202.976 69.497 C 208.654 71.943 214.016 75.233 218.92 79.279 C 227.41 86.445 233.999 96.087 237.976 107.165 C 240.439 114.027 241.865 121.181 242.772 128.335 C 244.494 144.822 242.534 161.534 237.069 176.952 C 233.02 188.913 227.141 199.982 219.698 209.656 C 213.149 217.743 205.211 224.25 196.364 228.781 C 188.311 232.427 179.594 233.829 170.957 232.869 L 170.049 232.723 L 169.401 232.431 L 168.494 232.285 C 163.003 230.911 157.395 230.226 151.771 230.241 C 148.401 230.241 144.901 230.533 141.53 231.555 C 138.083 232.538 134.858 234.329 132.067 236.811 L 130.511 238.271 L 129.863 239.147 C 128.308 240.607 126.752 242.067 125.067 243.235 C 124.083 244.022 122.987 244.615 121.826 244.987 C 121.157 245.246 120.459 245.394 119.752 245.425 C 118.632 245.415 117.543 245.006 116.641 244.257 C 115.345 243.235 107.826 235.497 110.807 216.518 C 111.196 214.474 106.919 216.226 106.53 216.226 C 98.881 216.518 93.955 206.298 93.048 203.524 C 82.677 208.926 70.233 206.298 69.325 206.006 C 67.574 205.625 65.874 204.987 64.27 204.108 C 62.393 203.035 60.888 201.288 59.992 199.144 C 59.554 197.943 59.376 196.642 59.473 195.348 C 59.558 194.122 59.867 192.929 60.381 191.844 C 61.004 190.044 61.88 188.368 62.973 186.88 L 65.566 183.96 C 62.964 183.135 60.444 182.01 58.047 180.602 C 57.329 180.165 56.636 179.678 55.973 179.142 C 55.193 178.471 54.495 177.685 53.899 176.806 C 53.466 176.186 53.117 175.497 52.862 174.762 C 52.416 173.395 52.416 171.895 52.862 170.528 L 53.381 169.36 L 53.899 168.338 C 54.785 166.837 55.879 165.506 57.14 164.396 C 55.649 162.893 54.342 161.175 53.251 159.286 C 51.954 157.291 51.23 154.896 51.177 152.424 C 51.242 151.416 51.461 150.428 51.825 149.504 C 52.104 148.873 52.452 148.285 52.862 147.752 L 52.992 147.46 L 54.807 145.562 C 57.21 143.187 59.815 141.084 62.585 139.284 C 62.585 138.7 62.325 138.116 62.196 137.678 C 59.866 130.015 58.641 121.981 58.566 113.881 C 58.758 110.15 59.549 106.49 60.899 103.077 C 61.805 101.079 62.986 99.255 64.399 97.675 L 64.659 97.383 C 64.807 97.203 64.982 97.055 65.177 96.945 L 65.696 96.945 L 66.214 96.799 L 69.974 96.069 C 72.177 96.069 82.677 95.193 89.159 104.537 L 89.159 104.683 Z " fill-rule="evenodd" fill="rgb(0,0,0)" fill-opacity="0.2"/><path d=" M 94.604 99.135 L 95.9 96.215 C 97.326 93.003 98.622 91.543 100.437 88.477 C 104.844 81.323 108.993 78.695 114.956 73.293 C 128.694 60.695 145.988 54.065 163.697 54.605 L 164.993 54.605 C 175.301 54.554 185.561 56.176 195.457 59.423 C 199.829 60.738 204.154 62.248 208.42 63.949 C 214.098 66.395 219.461 69.685 224.365 73.731 C 232.85 80.902 239.438 90.543 243.421 101.617 C 246.013 108.479 247.439 115.633 248.217 122.787 C 249.939 139.275 247.978 155.986 242.513 171.404 C 238.504 183.355 232.669 194.423 225.272 204.108 C 218.738 212.214 210.796 218.723 201.938 223.233 C 193.863 226.979 185.083 228.384 176.401 227.321 L 175.623 227.175 L 175.364 227.175 L 174.845 227.029 L 174.068 226.737 C 168.535 225.356 162.883 224.671 157.216 224.693 C 153.845 224.693 150.345 225.131 146.975 226.153 C 143.536 227.088 140.312 228.829 137.512 231.263 L 135.956 232.869 L 135.308 233.599 L 130.511 237.833 L 127.4 239.439 C 125.874 240.061 124.189 239.956 122.734 239.147 C 122.505 239.025 122.288 238.879 122.085 238.709 C 120.919 237.687 113.4 229.949 116.382 210.97 C 116.641 208.926 112.493 210.824 111.974 210.824 C 104.456 210.824 99.4 200.75 98.492 197.976 C 88.122 203.378 75.677 200.75 74.9 200.604 C 73.743 200.346 72.614 199.955 71.529 199.436 L 70.622 199.144 L 69.714 198.56 C 67.844 197.478 66.341 195.734 65.436 193.596 C 64.988 192.347 64.81 190.996 64.918 189.654 C 65.068 188.489 65.374 187.357 65.825 186.296 L 66.862 184.106 C 67.982 181.941 69.43 180.014 71.14 178.412 C 68.492 177.604 65.927 176.478 63.492 175.054 C 62.773 174.62 62.08 174.132 61.418 173.594 C 60.634 172.927 59.936 172.141 59.344 171.258 C 58.914 170.689 58.564 170.049 58.307 169.36 C 57.802 167.955 57.802 166.385 58.307 164.98 C 58.453 164.577 58.626 164.186 58.825 163.812 L 59.344 162.936 C 60.227 161.39 61.321 160.011 62.585 158.848 C 61.329 157.538 60.118 156.174 58.955 154.76 C 57.34 152.538 56.468 149.748 56.492 146.876 C 56.557 145.868 56.776 144.88 57.14 143.956 C 57.47 143.243 57.909 142.601 58.436 142.058 C 60.849 139.317 63.547 136.914 66.473 134.905 L 68.029 133.883 L 67.511 132.277 C 65.978 127.401 64.892 122.363 64.27 117.239 C 63.881 114.319 63.751 111.399 63.881 108.479 C 64.114 104.739 64.949 101.079 66.344 97.675 C 67.212 95.565 68.396 93.639 69.844 91.981 L 70.233 91.981 C 70.342 91.814 70.473 91.666 70.622 91.543 L 71.27 91.543 L 71.659 91.397 L 75.548 90.667 C 77.622 90.667 88.122 89.791 94.604 99.281 L 94.604 99.135 Z " fill-rule="evenodd" fill="rgb(255,255,255)" vector-effect="non-scaling-stroke" stroke-width="0.625" stroke="rgb(207,207,207)" stroke-linejoin="round" stroke-linecap="butt" stroke-miterlimit="1.41"/><path d=" M 96.159 109.355 C 101.085 96.361 127.141 41.758 201.679 69.205 C 274.273 96.069 236.939 228.927 173.808 219.875 C 173.808 219.875 147.882 211.992 136.215 224.693 C 117.03 245.571 120.919 212.722 121.956 208.342 C 123.511 201.48 125.456 192.282 135.697 179.142 C 131.808 181.624 124.548 188.34 122.863 195.202 C 120.53 205.13 108.993 208.634 103.03 192.136 C 102.736 191.304 102.434 190.477 102.122 189.654 L 89.029 194.326 C 80.085 197.684 65.825 193.304 71.659 182.062 C 73.344 178.85 75.548 176.66 77.751 175.054 C 69.196 173.01 61.547 168.338 64.14 162.936 C 65.436 160.454 66.992 158.702 68.677 157.534 C 58.696 148.19 63.881 142.642 63.881 142.642 C 64.659 141.328 68.159 138.262 73.603 134.613 C 71.659 129.065 64.529 106.435 75.029 95.777 C 75.029 95.777 85.789 93.879 96.159 109.355 Z " fill-rule="evenodd" fill="rgb(211,98,68)"/><path d=" M 176.142 158.264 C 176.271 158.994 169.271 161.184 169.142 160.016 C 168.422 144.221 173.868 128.861 184.049 117.969 C 184.049 117.969 172.123 134.613 176.271 158.118 L 176.142 158.264 Z  M 99.659 120.889 C 99.141 118.407 104.974 91.981 131.808 77.381 C 131.808 77.381 111.067 91.689 108.215 122.349 L 105.622 125.269 L 99.659 120.889 Z " fill-rule="evenodd" fill="rgb(221,134,111)"/><path d=" M 144.123 174.616 L 138.16 177.974 C 136.734 177.682 125.197 186.296 122.863 195.202 C 122.604 196.662 121.956 198.122 121.308 199.29 C 111.456 143.956 141.401 140.452 157.864 142.35 L 164.216 149.358 C 166.419 151.986 165.901 155.198 163.956 158.118 L 156.956 165.856 L 155.66 166.878 L 156.567 166.44 L 165.382 161.184 L 188.327 167.024 L 171.345 174.324 L 178.475 179.288 L 171.086 187.61 L 190.531 193.012 L 171.086 205.568 L 186.123 207.466 L 176.531 215.642 L 184.309 220.021 C 180.809 220.313 177.308 220.313 173.808 219.729 C 173.808 219.729 147.882 211.992 136.215 224.693 C 117.03 245.425 120.919 212.722 121.956 208.342 C 123.771 200.458 128.697 182.792 142.308 175.784 L 144.123 174.616 Z  M 62.973 143.956 C 71.788 141.62 120.919 130.817 107.956 200.604 C 105.777 198.227 104.095 195.334 103.03 192.136 C 98.752 180.456 94.085 177.828 90.844 175.346 C 83.47 169.999 76.332 164.249 69.455 158.118 C 61.677 151.256 62.066 146.438 62.973 144.102 L 62.973 143.956 Z  M 149.308 134.905 C 149.308 134.905 156.567 121.035 151.253 111.545 C 151.253 111.545 143.475 108.333 133.363 127.313 C 133.363 127.313 142.049 130.233 144.771 131.547 C 146.327 132.277 149.308 134.905 149.308 134.905 Z  M 79.307 131.255 C 79.307 131.255 73.085 116.655 78.918 107.749 C 85.4 107.457 90.585 111.983 95.122 124.101 L 79.307 131.255 Z " fill-rule="evenodd" fill="rgb(239,201,188)"/><path d=" M 96.029 107.019 C 97.645 102.929 99.598 99.018 101.863 95.339 C 109.813 82.518 120.824 72.495 133.623 66.431 C 142.756 62.245 152.541 60.16 162.401 60.299 L 163.568 60.299 C 173.303 60.254 182.994 61.778 192.346 64.825 C 196.457 66.049 200.522 67.462 204.531 69.059 C 209.868 71.337 214.922 74.38 219.568 78.111 C 227.654 84.694 233.941 93.697 237.717 104.099 C 239.921 110.377 241.346 117.239 242.124 123.809 C 243.7 139.171 241.828 154.732 236.68 169.068 C 232.898 180.257 227.366 190.592 220.346 199.582 C 212.583 209.783 202.142 216.941 190.531 220.021 C 185.274 221.463 179.834 221.858 174.457 221.189 L 173.549 221.043 L 172.901 220.897 L 172.123 220.605 C 166.924 219.362 161.624 218.726 156.308 218.707 C 153.067 218.707 149.827 219.145 146.586 220.021 C 143.345 220.928 140.302 222.567 137.641 224.839 L 136.345 226.299 L 135.567 227.029 C 134.271 228.489 132.715 229.803 131.03 230.971 C 130.096 231.601 129.094 232.092 128.048 232.431 C 127.383 232.704 126.682 232.852 125.974 232.869 C 125.201 232.815 124.448 232.565 123.771 232.139 L 123.122 231.847 C 122.01 230.828 121.197 229.454 120.789 227.905 L 120.659 227.175 L 120.4 226.153 L 120.141 224.839 C 119.946 223.439 119.859 222.023 119.882 220.605 C 119.692 217.188 119.866 213.757 120.4 210.386 L 120.919 208.196 L 121.437 205.714 L 122.215 202.794 C 123.692 197.072 125.967 191.651 128.956 186.734 C 127.954 188.05 127.003 189.414 126.104 190.822 C 125.321 192.149 124.669 193.569 124.16 195.056 L 123.9 196.078 L 123.771 196.662 L 122.345 199.728 C 120.928 202.08 118.814 203.788 116.382 204.546 C 114.935 204.954 113.421 204.954 111.974 204.546 C 110.874 204.251 109.823 203.758 108.863 203.086 C 107.798 202.264 106.839 201.281 106.011 200.166 C 104.433 198.18 103.162 195.91 102.252 193.45 L 101.733 191.844 L 101.474 191.26 L 94.344 193.742 L 91.103 194.91 L 89.159 195.64 L 88.64 195.64 L 87.344 196.224 C 83.03 197.121 78.578 196.615 74.511 194.764 L 73.733 194.472 C 72.234 193.61 70.977 192.296 70.103 190.676 C 69.711 189.962 69.447 189.168 69.325 188.34 L 69.325 186.15 C 69.386 185.047 69.605 183.962 69.974 182.938 L 71.011 180.894 C 72.072 178.895 73.432 177.117 75.029 175.638 C 71.825 174.634 68.768 173.109 65.955 171.112 C 65.181 170.489 64.483 169.752 63.881 168.922 C 63.507 168.389 63.202 167.799 62.973 167.17 C 62.533 165.903 62.533 164.495 62.973 163.228 C 63.118 162.824 63.292 162.433 63.492 162.06 L 64.01 161.184 C 64.823 159.752 65.829 158.471 66.992 157.388 L 65.955 156.366 C 65.411 155.761 64.891 155.128 64.399 154.468 L 63.751 153.446 L 63.233 152.716 C 62.066 150.83 61.433 148.591 61.418 146.292 C 61.462 145.281 61.682 144.289 62.066 143.372 C 62.324 142.852 62.628 142.363 62.973 141.912 L 63.103 141.62 L 64.788 139.868 C 66.631 138.046 68.628 136.432 70.751 135.051 L 72.307 134.029 L 71.788 132.569 C 69.595 125.429 68.456 117.932 68.418 110.377 C 68.586 106.846 69.333 103.381 70.622 100.157 C 71.474 98.372 72.567 96.746 73.862 95.339 L 74.122 94.901 L 74.64 94.609 L 75.159 94.463 L 77.103 94.463 C 79.696 94.609 82.159 95.485 84.492 96.653 C 88.77 98.843 92.27 102.493 95.381 106.435 L 95.9 107.019 L 96.029 107.019 Z  M 167.586 162.06 L 166.031 162.644 C 163.452 163.606 160.94 164.777 158.512 166.148 C 154.579 169.671 150.319 172.706 145.808 175.2 C 143.604 176.66 137.252 179.726 136.475 180.164 C 132.788 184.936 129.612 190.179 127.011 195.786 C 125.479 199.325 124.305 203.047 123.511 206.882 L 123.252 208.05 L 122.993 209.072 C 122.038 214.554 121.863 220.172 122.474 225.715 C 122.659 226.409 122.876 227.091 123.122 227.759 L 123.252 228.197 C 123.641 228.927 124.16 229.657 124.808 230.095 L 125.197 230.241 L 125.845 230.387 L 126.882 230.387 L 128.697 229.657 L 131.289 227.759 L 134.271 225.131 L 135.567 223.671 L 135.956 223.379 C 138.298 220.999 141.091 219.251 144.123 218.269 C 148.066 216.895 152.182 216.254 156.308 216.372 C 159.558 216.217 162.814 216.413 166.031 216.956 C 168.734 217.385 171.417 217.97 174.068 218.707 L 174.716 218.707 C 176.779 219.01 178.858 219.156 180.938 219.145 L 176.271 216.372 L 176.142 216.372 L 176.012 216.226 C 175.873 215.954 175.873 215.621 176.012 215.35 L 176.012 215.058 L 184.309 208.196 L 170.957 206.444 L 170.827 206.444 L 170.568 206.152 C 170.321 205.868 170.321 205.414 170.568 205.13 L 170.697 205.13 L 188.716 193.45 L 170.957 188.486 L 170.697 188.486 L 170.568 188.194 C 170.452 187.968 170.452 187.69 170.568 187.464 L 170.568 187.172 L 177.438 179.58 L 170.957 175.2 L 170.697 174.908 C 170.524 174.648 170.524 174.292 170.697 174.032 L 170.957 173.886 L 185.994 167.316 L 167.716 162.06 L 167.586 162.06 Z  M 183.66 218.999 C 189.558 218.334 195.307 216.505 200.642 213.598 L 203.364 212.138 C 213.418 205.669 221.711 196.228 227.346 184.836 C 235.488 169.925 239.962 152.843 240.309 135.343 C 240.503 124.779 238.737 114.287 235.124 104.537 L 235.124 104.683 C 234.902 118.197 231.599 131.419 225.531 143.08 C 222.79 147.556 219.204 151.295 215.031 154.03 C 211.135 156.464 206.78 157.815 202.327 157.972 L 196.235 157.972 C 187.517 158.019 178.827 159.096 170.308 161.184 L 188.457 166.44 L 188.586 166.44 L 188.846 166.732 L 188.846 167.608 L 188.586 167.754 L 172.771 174.616 L 178.864 178.704 L 178.994 178.996 L 178.994 180.018 L 172.382 187.318 L 190.531 192.428 L 190.79 192.428 L 191.049 192.72 L 191.049 193.596 L 190.92 193.742 L 190.79 193.742 L 173.16 205.13 L 186.123 206.882 L 186.383 206.882 L 186.512 207.174 C 186.772 207.32 186.772 207.612 186.772 207.904 L 186.642 208.196 L 186.512 208.196 L 177.827 215.496 L 183.66 218.999 Z  M 119.882 199.144 L 120.141 198.56 C 120.775 197.535 121.256 196.401 121.567 195.202 L 121.826 194.618 L 121.826 194.18 L 122.345 192.866 C 123.122 190.822 124.289 188.924 125.585 187.026 C 127.964 183.744 130.812 180.931 134.012 178.704 L 140.623 175.054 C 143.623 173.438 146.564 171.684 149.438 169.798 C 150.475 169.068 155.53 164.834 156.567 164.25 L 157.475 163.666 L 158.382 162.79 L 160.067 161.33 L 161.234 159.87 L 162.142 158.848 L 162.79 157.826 L 163.308 156.95 C 163.508 156.628 163.681 156.286 163.827 155.928 C 164.25 154.981 164.429 153.919 164.345 152.862 L 164.345 152.278 C 164.126 151.525 163.774 150.829 163.308 150.234 C 144.605 124.07 112.523 115.532 85.4 129.503 C 78.319 132.792 71.651 137.111 65.566 142.35 C 65.241 142.664 64.937 143.006 64.659 143.372 L 64.659 143.518 L 64.399 143.664 C 64.089 144.145 63.868 144.691 63.751 145.27 L 63.492 146 C 63.492 147.46 63.751 148.92 64.399 150.38 L 64.788 150.964 C 66.134 153.25 67.849 155.231 69.844 156.804 L 72.048 158.848 C 78.315 164.272 84.758 169.434 91.363 174.324 L 93.178 175.638 L 93.696 176.076 C 95.097 177.199 96.399 178.47 97.585 179.872 C 100.147 182.973 102.17 186.589 103.548 190.53 L 104.196 192.282 L 104.456 192.866 C 105.298 194.845 106.342 196.706 107.567 198.414 L 108.604 199.728 C 110.678 197.538 114.308 195.64 119.882 199.144 Z  M 77.881 176.514 C 77.881 176.514 77.622 176.514 77.492 176.806 C 75.593 178.246 74 180.14 72.825 182.354 C 72.825 182.646 72.566 182.792 72.437 183.084 L 72.177 183.814 C 71.551 185.212 71.368 186.809 71.659 188.34 L 71.918 189.216 L 72.696 190.384 C 73.214 190.968 73.733 191.552 74.381 191.844 C 75.159 192.428 76.196 192.866 77.103 193.304 C 78.659 193.742 80.214 194.034 81.77 194.034 C 85.013 194.255 88.257 193.605 91.233 192.136 L 100.437 188.924 C 98.682 184.815 96.109 181.218 92.918 178.412 L 90.974 176.952 C 86.666 177.703 82.271 177.555 78.011 176.514 L 77.881 176.514 Z  M 68.807 158.994 L 68.418 159.286 C 67.032 160.541 65.923 162.14 65.177 163.958 C 64.957 164.455 64.867 165.012 64.918 165.564 C 64.918 166.148 65.307 166.732 65.566 167.17 L 66.733 168.63 L 69.066 170.382 C 70.362 171.258 71.918 171.842 73.344 172.426 C 78.04 174.303 83.013 175.145 87.992 174.908 L 87.474 174.324 C 84.97 172.544 82.506 170.694 80.085 168.776 L 68.807 159.14 L 68.807 158.994 Z  M 91.233 156.366 L 92.27 156.95 C 92.529 157.242 92.529 157.972 92.659 158.264 L 92.659 158.848 C 92.659 159.14 92.789 160.162 93.048 160.6 C 93.227 161.298 93.537 161.945 93.955 162.498 L 94.344 162.79 L 97.455 163.812 L 98.104 163.812 L 99.011 163.666 L 100.048 163.52 C 100.307 163.52 100.955 163.52 101.344 163.812 L 101.863 164.834 C 101.863 165.126 101.863 165.856 101.604 166.294 C 101.474 166.586 100.826 166.878 100.567 167.024 L 100.178 167.024 C 99.789 167.024 99.4 167.316 98.881 167.17 C 97.974 167.17 95.511 167.17 94.344 166.732 C 93.307 166.44 92.27 165.272 91.752 164.98 C 90.951 163.364 90.215 161.708 89.548 160.016 L 89.548 157.972 L 90.066 156.804 C 90.326 156.512 90.974 156.512 91.103 156.366 L 91.233 156.366 Z  M 138.16 156.804 L 138.678 157.972 L 138.678 159.578 L 136.993 164.25 L 136.345 164.98 L 135.437 165.856 C 134.919 166.148 134.141 166.732 133.363 166.878 C 132.067 167.17 129.474 167.17 128.437 167.17 L 127.53 167.024 L 126.493 166.294 L 126.234 164.834 C 126.363 164.834 126.623 163.958 126.882 163.812 C 127.271 163.52 128.178 163.52 128.308 163.52 L 128.956 163.52 L 129.863 163.812 L 130.9 163.812 L 133.882 162.644 C 134.141 162.644 134.271 162.352 134.4 162.206 C 134.604 161.939 134.778 161.645 134.919 161.33 C 135.083 160.856 135.213 160.368 135.308 159.87 L 135.437 158.848 L 135.437 158.264 C 135.567 157.972 135.697 157.242 135.956 156.95 C 136.086 156.658 136.734 156.512 136.993 156.366 C 137.252 156.366 137.9 156.512 138.16 156.804 Z  M 232.661 98.551 C 227.624 88.464 220.046 80.284 210.883 75.045 C 208.55 73.585 206.087 72.417 203.624 71.395 L 198.698 69.497 L 191.568 67.307 C 182.633 64.635 173.456 63.117 164.216 62.781 L 162.79 62.781 C 155.665 62.88 148.574 63.909 141.66 65.847 C 121.989 72.06 105.82 87.86 97.585 108.917 L 97.455 108.917 C 97.715 109.647 98.104 110.085 98.492 110.669 C 100.482 114.103 102.216 117.717 103.678 121.473 L 104.067 121.473 C 106.659 121.181 109.252 120.889 111.845 120.889 L 113.141 120.889 C 117.408 120.901 121.663 121.39 125.845 122.349 C 126.61 120.677 127.476 119.068 128.437 117.531 C 130.493 114.12 132.837 110.942 135.437 108.041 C 138.959 104.047 143.267 101.046 148.012 99.281 C 150.673 98.477 153.449 98.279 156.179 98.697 L 156.567 98.697 L 156.827 98.989 L 157.086 99.281 L 157.216 99.281 L 158.123 100.741 C 159.558 102.913 160.573 105.4 161.105 108.041 C 161.783 113.088 161.651 118.23 160.716 123.225 C 159.738 128.168 158.259 132.969 156.308 137.532 L 155.79 138.7 L 160.197 143.08 L 162.53 145.562 L 162.66 144.686 C 163.411 138.284 164.983 132.038 167.327 126.145 C 169.469 120.666 172.761 115.856 176.92 112.129 C 179.139 110.267 181.644 108.881 184.309 108.041 C 186.671 107.288 189.113 106.895 191.568 106.873 L 191.957 106.873 C 196.365 107.066 200.728 107.95 204.92 109.501 L 205.827 111.107 L 204.401 111.837 L 203.624 111.691 C 200.064 110.343 196.356 109.557 192.605 109.355 C 188.717 109.257 184.861 110.156 181.327 111.983 C 179.837 112.808 178.444 113.838 177.179 115.049 C 173.656 118.4 170.899 122.656 169.142 127.459 C 167.855 130.697 166.856 134.072 166.16 137.532 L 164.475 147.606 L 164.993 148.482 L 165.253 148.774 C 165.875 149.625 166.318 150.623 166.549 151.694 L 166.808 152.716 L 166.808 153.446 C 166.703 155.141 166.162 156.764 165.253 158.118 C 165.253 158.41 164.993 158.556 164.864 158.848 L 164.216 159.724 C 164.216 160.016 163.956 160.308 163.697 160.454 C 168.07 158.726 172.587 157.503 177.179 156.804 C 184.299 155.593 191.5 155.105 198.698 155.344 L 200.901 155.344 C 203.577 155.185 206.229 154.696 208.809 153.884 C 211.541 153.005 214.125 151.624 216.457 149.796 C 219.179 147.606 221.642 144.686 223.587 141.62 C 227.093 136.018 229.522 129.653 230.717 122.933 C 232.39 115.593 233.132 108.023 232.92 100.449 L 232.92 99.281 L 232.661 98.989 L 232.661 98.551 Z  M 153.845 137.24 C 156.338 131.161 158.083 124.726 159.03 118.115 L 159.29 116.217 L 159.29 114.757 C 159.4 110.844 158.595 106.967 156.956 103.515 C 156.492 102.692 155.972 101.911 155.401 101.179 L 151.512 101.179 C 148.012 101.763 144.771 103.369 141.789 105.559 L 140.623 106.581 C 137.534 109.041 134.82 112.048 132.586 115.487 C 130.977 117.911 129.505 120.447 128.178 123.079 C 130.059 123.566 131.919 124.15 133.752 124.831 L 137.771 118.407 C 139.067 116.801 140.363 115.195 142.049 113.735 C 144.146 111.904 146.665 110.789 149.308 110.523 L 149.697 110.523 C 150.215 110.523 150.993 110.523 151.512 110.815 L 151.641 110.815 L 151.771 111.107 L 151.901 111.107 L 152.03 111.545 C 152.273 112.016 152.49 112.503 152.678 113.005 C 153.586 115.487 153.716 118.261 153.586 121.035 L 153.456 122.495 C 153.312 123.93 153.051 125.347 152.678 126.729 C 152.074 129.275 151.294 131.765 150.345 134.175 L 153.975 137.24 L 153.845 137.24 Z  M 149.049 133.445 C 150.458 129.701 151.459 125.779 152.03 121.765 L 152.03 120.305 C 152.231 117.546 151.784 114.777 150.734 112.275 C 150.351 112.181 149.96 112.132 149.567 112.129 L 149.308 112.129 C 147.096 112.212 144.963 113.081 143.215 114.611 L 142.308 115.341 C 139.445 118.3 136.959 121.69 134.919 125.415 C 139.933 127.459 144.718 130.154 149.178 133.445 L 149.049 133.445 Z  M 101.344 122.057 C 98.858 116.275 95.721 110.877 92.011 105.997 L 90.196 103.953 C 87.823 101.446 85.053 99.465 82.029 98.113 C 80.239 97.39 78.357 96.996 76.455 96.945 L 75.418 96.945 C 74.398 98.01 73.524 99.24 72.825 100.595 C 71.27 103.807 70.492 107.603 70.492 111.399 L 70.492 113.151 C 70.498 116.293 70.802 119.425 71.399 122.495 C 72.045 125.967 72.912 129.382 73.992 132.715 C 74.381 132.715 74.64 132.423 75.029 132.277 C 75.937 131.547 77.103 130.963 78.14 130.379 L 77.881 129.795 C 76.684 125.535 75.987 121.118 75.807 116.655 C 75.807 115.195 76.066 113.589 76.325 112.275 C 76.653 110.554 77.269 108.919 78.14 107.457 L 78.4 107.019 L 78.788 107.019 L 79.048 106.873 L 80.214 106.873 C 81.895 106.915 83.541 107.416 85.011 108.333 C 89.063 111.48 92.323 115.756 94.474 120.743 L 95.252 122.787 L 95.641 123.371 L 101.344 121.911 L 101.344 122.057 Z  M 94.215 123.663 C 93.214 121.226 92.043 118.883 90.715 116.655 C 89.599 114.831 88.293 113.165 86.826 111.691 L 86.177 110.961 C 84.565 109.438 82.571 108.519 80.474 108.333 L 79.307 108.333 L 78.918 109.209 C 77.724 111.714 77.184 114.549 77.363 117.385 C 77.384 120.15 77.733 122.899 78.4 125.561 L 79.437 129.795 C 84.225 127.23 89.216 125.177 94.344 123.663 L 94.215 123.663 Z " fill-rule="evenodd" fill="rgb(67,50,49)"/></g></g></svg>