<?xml version="1.0" standalone="no"?><!-- Generator: Gravit.io --><svg xmlns="http://www.w3.org/2000/svg" xmlns:xlink="http://www.w3.org/1999/xlink" style="isolation:isolate" viewBox="0 0 320.696 227.331" width="320.696" height="227.331"><defs><clipPath id="_clipPath_9He8sWi508opchF7bEokGQehhjuitwi6"><rect width="320.696" height="227.331"/></clipPath></defs><g clip-path="url(#_clipPath_9He8sWi508opchF7bEokGQehhjuitwi6)"><path d=" M 215.929 156.219 C 274.819 161.192 316.696 173.841 316.696 188.643 C 316.696 207.788 246.638 223.331 160.348 223.331 C 74.057 223.331 4 207.788 4 188.643 C 4 173.976 45.117 161.423 103.185 156.368" fill="none" vector-effect="non-scaling-stroke" stroke-width="2" stroke="rgb(0,0,0)" stroke-linejoin="miter" stroke-linecap="butt" stroke-miterlimit="4"/><path d=" M 160.348 0 C 160.348 0 138.923 21.579 128.979 50.604 C 121.461 45.662 113.253 40.143 108.067 34.888 C 102.839 29.596 99.691 24.352 97.611 21.167 C 94.577 30.244 92.817 39.708 92.383 49.281 C 92.383 57.753 91.4 85.159 104.475 106.325 L 83.563 106.325 C 78.335 106.325 73.044 106.373 68.856 105.833 C 55.253 104.246 46.898 102.129 40.102 95.25 C 40.102 101.081 39.568 122.767 50.558 137.583 C 57.908 147.214 67.795 152.384 77.19 155.115 C 85.56 178.927 100.225 190.5 121.137 190.5 C 141.5 190.5 153.854 178.821 160.348 167.677 C 166.862 178.964 179.279 190.5 199.559 190.5 C 220.33 190.5 234.953 178.943 243.344 154.945 C 252.943 152.051 263.132 147.32 270.138 137.583 C 281.127 122.767 280.594 101.081 280.594 95.25 C 273.797 102.129 264.952 104.283 251.348 105.336 C 251.207 105.357 251.003 105.315 250.862 105.336 C 271.241 79.417 269.118 46.075 269.646 41.836 C 262.337 48.186 251.839 55.499 238.769 61.844 C 235.11 63.436 231.476 65.093 227.822 66.146 C 227.66 67.305 227.497 68.606 227.335 69.786 C 228.418 60.542 228.313 52.874 228.313 49.281 C 227.878 39.708 226.119 30.244 223.085 21.167 C 221.004 24.871 217.857 29.602 212.629 34.893 C 202.706 44.937 181.26 56.118 176.032 63.003 C 173.13 66.664 171.092 70.591 169.168 74.581 C 168.54 74.517 167.881 74.475 167.207 74.411 C 164.959 74.205 162.632 74.083 160.348 74.083 C 158.654 74.083 157.002 74.168 155.444 74.247 C 154.79 74.29 154.137 74.353 153.483 74.417 C 152.772 74.475 152.056 74.496 151.361 74.575 C 149.792 70.279 147.649 66.268 144.663 62.51 C 143.315 60.732 140.826 58.748 137.799 56.557 C 143.027 39.624 153.546 24.866 160.348 15.875 C 167.144 24.871 177.668 39.624 182.897 56.557 C 185.511 54.446 188.569 52.377 191.716 50.271 C 181.793 21.706 160.348 0 160.348 0 Z  M 50.558 42.333 C 50.558 46.567 48.989 79.417 68.856 105.336 C 73.551 105.876 78.335 105.833 83.563 105.833 C 72.573 95.25 65.792 81.465 62.65 63.997 C 67.345 67.178 72.49 69.824 77.184 71.935 C 82.413 74.581 88.258 76.793 94.019 78.38 C 93.486 74.147 92.916 70.342 92.383 66.643 C 89.235 65.585 85.586 64.103 81.926 62.505 C 68.856 56.16 58.4 48.683 50.558 42.333 Z  M 217.365 44.482 L 217.365 48.615 C 217.899 75.073 212.566 95.806 200.541 107.987 C 205.236 106.929 210.015 105.833 215.243 105.833 C 221.799 96.017 224.883 84.878 226.515 74.909 C 226.394 75.883 226.311 76.687 226.19 77.724 C 231.947 76.131 237.786 74.083 243.014 71.438 C 248.243 68.792 252.859 66.146 257.559 63.5 C 254.412 80.963 247.145 95.25 236.155 105.833 L 216.22 105.833 C 210.992 106.373 205.869 106.929 201.686 107.982 C 199.072 108.522 196.944 109.596 194.33 110.135 C 193.985 110.257 193.698 110.342 193.348 110.464 C 194.513 104.987 195.271 100.912 195.637 98.06 C 196.504 96.376 196.953 94.503 196.944 92.604 C 196.944 86.074 191.596 81.153 183.874 78.052 C 182.708 77.534 181.302 77.163 179.953 76.729 C 179.849 76.687 179.728 76.607 179.624 76.565 C 180.931 74.062 182.301 71.522 183.874 69.289 C 185.443 67.178 192.736 62.383 197.436 59.198 C 204.232 54.965 211.604 49.779 217.365 44.487 L 217.365 44.482 Z  M 102.347 44.979 C 108.109 50.271 115.313 54.965 122.115 59.203 C 126.815 62.383 134.145 67.199 135.185 68.792 C 137.208 71.189 138.824 73.898 140.256 76.729 C 138.803 77.205 137.559 77.803 136.335 78.385 C 128.89 81.481 123.751 86.217 123.751 92.604 C 123.751 93.186 123.835 93.7 123.913 94.26 C 123.892 94.589 123.751 94.922 123.751 95.25 C 123.751 97.356 124.797 103.23 126.365 110.628 C 128.671 111.416 130.652 112.406 132.576 113.443 C 130.553 112.384 128.446 111.416 126.365 110.628 C 124.284 109.575 121.628 109.019 119.014 108.479 C 107.513 96.308 101.814 76.274 102.347 49.276 L 102.347 44.979 Z  M 160.348 84.667 C 177.6 84.667 186.488 90.498 186.488 92.604 C 186.488 94.71 177.6 100.542 160.348 100.542 C 143.095 100.542 134.207 94.71 134.207 92.604 C 134.207 90.498 143.095 84.667 160.348 84.667 Z  M 136.168 106.828 C 142.912 109.68 151.606 111.125 160.348 111.125 C 168.765 111.125 177.078 109.781 183.712 107.156 C 183.017 110.173 182.138 113.379 181.26 116.914 C 181.548 116.702 181.935 116.623 182.243 116.417 C 182.243 116.417 181.793 116.914 181.26 116.914 C 180.727 116.914 180.769 117.406 180.769 117.406 C 177.114 120.052 173.951 123.322 170.804 126.508 C 169.758 128.095 168.739 129.048 167.698 130.635 C 166.454 132.329 165.393 134.07 164.269 135.768 C 162.737 136.033 161.226 136.652 159.856 137.583 C 158.783 137.011 157.625 136.619 156.427 136.424 C 155.375 134.656 154.23 132.946 152.997 131.302 C 151.951 129.709 150.932 128.593 149.892 127 C 147.278 123.814 143.581 120.714 139.927 118.068 C 139.394 118.068 139.435 117.406 139.435 117.406 C 139.435 117.406 138.986 116.914 138.453 116.914 C 137.595 113.152 136.8 109.781 136.168 106.823 L 136.168 106.828 Z  M 52.189 113.771 C 59.503 115.877 68.814 116.417 79.804 116.417 L 99.247 116.417 C 105.003 116.417 110.231 117.015 114.931 118.073 C 120.258 119.022 125.358 120.985 129.962 123.857 L 134.699 127 C 135.227 127.54 135.797 127.995 136.33 127.995 C 138.944 130.101 141.6 132.789 143.686 135.435 C 144.214 135.969 144.601 137.044 145.646 137.583 L 146.3 138.081 C 146.3 138.345 146.336 138.451 146.457 138.573 C 136.659 142.235 119.689 146.759 93.527 147.833 C 81.581 146.367 67.241 142.563 58.891 131.302 C 55.232 126.01 53.235 119.602 52.189 113.771 Z  M 269.155 113.771 C 267.586 119.602 265.459 126.01 261.804 131.302 C 253.905 141.944 240.589 146.061 229.458 147.505 C 203.051 146.637 185.631 142.256 175.379 138.573 C 175.54 138.208 175.761 137.874 176.032 137.583 C 176.565 137.044 177.114 135.969 178.155 135.435 C 180.241 132.789 182.897 130.101 185.511 127.99 C 186.039 127.455 186.938 127.037 187.471 126.508 C 188.512 125.45 190.143 124.91 191.716 123.862 C 195.899 121.216 201.153 119.66 206.909 118.068 C 211.097 117.015 216.226 116.417 221.454 116.417 L 240.892 116.417 C 251.881 116.417 261.318 115.358 269.16 113.771 L 269.155 113.771 Z  M 154.137 146.516 L 155.12 146.516 L 155.12 152.961 C 154.074 156.665 146.744 179.917 121.137 179.917 C 106.498 179.917 96.565 173.567 89.768 158.75 C 123.751 157.692 144.726 150.749 154.142 146.51 L 154.137 146.516 Z  M 165.576 146.516 L 166.067 146.516 C 175.99 150.744 196.944 157.692 230.927 158.75 C 224.131 173.038 214.197 179.917 199.559 179.917 C 173.951 179.917 166.621 156.66 165.576 152.961 L 165.576 147.177 C 165.576 146.965 165.597 146.722 165.576 146.51 L 165.576 146.516 Z " fill="rgb(0,0,0)"/></g></svg>