<?xml version="1.0" standalone="no"?><!-- Generator: Gravit.io --><svg xmlns="http://www.w3.org/2000/svg" xmlns:xlink="http://www.w3.org/1999/xlink" style="isolation:isolate" viewBox="0 0 300 300" width="300" height="300"><defs><clipPath id="_clipPath_X9atrXKkYQ4JtFS3Jdg1VV7gffGbER1n"><rect width="300" height="300"/></clipPath></defs><g clip-path="url(#_clipPath_X9atrXKkYQ4JtFS3Jdg1VV7gffGbER1n)"><g id="Group"><path d=" M 128.971 224.735 C 128.498 228.318 99.752 243.419 93.128 215.521 C 93.128 215.521 84.256 215.393 84.256 184.168 C 79.287 188.647 73.491 190.31 66.511 188.903 C 58.113 179.305 57.521 166.635 82.481 143.856 L 85.202 136.178 C 78.355 134.345 72.174 130.333 67.458 124.66 C 67.458 124.66 49.477 100.218 70.533 81.662 C 87.923 66.305 99.634 76.927 97.386 81.662 C 97.386 81.662 112.883 80.382 121.992 89.852 C 121.992 89.852 132.52 84.733 147.543 84.989 C 156.312 84.775 165.034 86.428 173.213 89.852 C 182.204 80.382 197.7 81.534 197.7 81.534 C 195.571 76.927 207.164 66.433 224.671 81.662 C 245.728 100.218 227.629 124.66 227.629 124.66 C 227.629 124.66 234.253 122.741 234.963 135.154 C 235.791 150.767 212.25 172.266 212.25 172.266 L 212.25 181.864 C 212.25 212.961 202.077 215.521 202.077 215.521 C 195.453 243.419 166.707 228.318 166.352 224.735 L 128.853 224.735 L 128.971 224.735 Z " fill-rule="evenodd" fill="rgb(0,0,0)" fill-opacity="0.2"/><path d=" M 133.111 219.616 C 132.756 223.327 104.011 238.3 97.386 210.402 C 97.386 210.402 88.633 210.402 88.633 179.177 C 83.664 183.528 77.749 185.319 70.77 183.784 C 62.371 174.314 61.78 161.772 86.74 138.865 L 89.461 131.187 C 82.657 129.331 76.519 125.321 71.835 119.669 C 71.835 119.669 53.736 95.227 74.792 76.671 C 92.3 61.314 103.893 71.936 101.763 76.543 C 101.763 76.543 117.26 75.263 126.369 84.733 C 126.369 84.733 136.897 79.614 151.92 79.87 C 160.689 79.656 169.41 81.309 177.59 84.733 C 186.58 75.391 202.077 76.543 202.077 76.543 C 199.829 71.808 211.541 61.314 228.93 76.543 C 250.105 95.099 232.006 119.541 232.006 119.541 C 232.006 119.541 238.63 117.622 239.34 130.035 C 240.168 145.648 216.627 167.275 216.627 167.275 L 216.627 176.873 C 216.627 207.97 206.454 210.402 206.454 210.402 C 199.829 238.3 171.084 223.199 170.729 219.616 L 133.111 219.616 Z " fill-rule="evenodd" fill="rgb(255,255,255)"/><path d=" M 104.247 75.903 L 106.495 75.903 L 106.85 76.031 L 107.678 76.031 L 108.033 76.159 L 108.979 76.159 L 109.334 76.287 L 109.807 76.287 L 110.28 76.415 L 110.754 76.543 L 111.227 76.543 L 111.7 76.671 L 112.173 76.799 L 112.765 76.927 L 113.238 77.055 L 113.711 77.183 L 114.184 77.31 L 114.776 77.438 L 115.249 77.566 L 115.84 77.822 L 116.313 77.95 L 116.55 77.95 L 116.787 78.078 L 117.023 78.206 L 117.378 78.334 L 117.615 78.334 L 117.851 78.59 L 118.088 78.59 L 118.443 78.718 L 118.679 78.846 L 118.916 78.974 L 119.153 78.974 L 119.389 79.23 L 119.507 79.23 L 119.862 79.486 L 120.099 79.486 L 120.335 79.742 L 120.572 79.742 L 120.809 79.998 L 121.164 80.126 L 121.4 80.254 L 121.637 80.382 L 121.873 80.638 L 122.11 80.638 L 122.347 80.894 L 122.583 81.022 L 122.82 81.278 L 123.056 81.278 L 123.411 81.534 L 123.648 81.79 L 123.884 81.917 L 124.121 82.045 L 124.358 82.301 L 124.594 82.429 L 124.831 82.685 L 125.067 82.813 L 125.304 83.069 L 125.54 83.325 L 125.659 83.453 L 125.895 83.709 L 126.132 83.837 L 126.369 84.093 L 126.487 84.093 L 126.842 83.837 L 127.078 83.837 L 127.551 83.581 L 127.906 83.453 L 128.38 83.197 L 128.971 83.069 L 129.562 82.813 L 130.272 82.685 L 130.509 82.557 L 130.864 82.429 L 131.219 82.301 L 131.692 82.173 L 132.047 82.173 L 132.402 81.917 L 132.875 81.917 L 133.23 81.662 L 133.703 81.662 L 134.176 81.406 L 134.531 81.406 L 135.004 81.278 L 135.477 81.15 L 135.95 81.022 L 136.542 81.022 L 137.015 80.766 L 137.488 80.766 L 138.08 80.638 L 138.553 80.51 L 139.144 80.382 L 139.736 80.382 L 140.209 80.126 L 141.392 80.126 L 141.983 79.87 L 143.166 79.87 L 143.876 79.742 L 144.468 79.742 L 145.059 79.614 L 145.769 79.614 L 146.36 79.486 L 148.371 79.486 L 149.081 79.358 L 156.652 79.358 L 157.362 79.486 L 158.545 79.486 L 159.254 79.614 L 159.846 79.614 L 160.437 79.742 L 161.029 79.742 L 161.739 79.87 L 162.33 79.998 L 162.922 79.998 L 163.395 80.126 L 163.986 80.254 L 164.578 80.382 L 165.051 80.382 L 165.642 80.638 L 166.116 80.638 L 166.707 80.766 L 167.18 80.894 L 167.653 81.022 L 168.127 81.022 L 168.6 81.278 L 169.073 81.278 L 169.546 81.406 L 170.019 81.534 L 170.374 81.662 L 170.847 81.79 L 171.32 81.917 L 171.675 82.045 L 172.03 82.173 L 172.385 82.173 L 172.74 82.429 L 173.095 82.429 L 173.45 82.685 L 174.16 82.813 L 174.751 83.069 L 175.224 83.197 L 175.697 83.453 L 176.171 83.581 L 176.525 83.709 L 176.88 83.837 L 177.117 83.965 L 177.353 84.093 L 177.59 83.837 L 177.708 83.709 L 177.945 83.453 L 178.182 83.325 L 178.418 83.069 L 178.655 82.813 L 178.891 82.685 L 179.128 82.429 L 179.365 82.301 L 179.601 82.045 L 179.838 81.917 L 180.074 81.79 L 180.311 81.534 L 180.547 81.406 L 180.784 81.278 L 181.139 81.022 L 181.376 80.894 L 181.612 80.766 L 181.849 80.638 L 182.085 80.382 L 182.322 80.382 L 182.558 80.126 L 182.913 79.998 L 183.15 79.87 L 183.387 79.742 L 183.623 79.614 L 183.86 79.486 L 184.096 79.358 L 184.451 79.23 L 184.688 79.102 L 184.924 78.974 L 185.161 78.974 L 185.398 78.718 L 185.752 78.718 L 185.989 78.59 L 186.226 78.462 L 186.462 78.334 L 186.699 78.334 L 187.054 78.078 L 187.29 78.078 L 187.527 77.95 L 188 77.822 L 188.591 77.566 L 189.065 77.566 L 189.538 77.31 L 190.129 77.183 L 190.602 77.055 L 191.076 77.055 L 191.549 76.799 L 192.14 76.799 L 192.613 76.671 L 193.087 76.543 L 193.56 76.543 L 194.033 76.415 L 194.388 76.415 L 194.861 76.287 L 195.334 76.287 L 195.807 76.159 L 196.99 76.159 L 197.345 76.031 L 199.12 76.031 L 199.475 75.903 L 201.249 75.903 L 201.249 74.111 L 201.367 74.111 L 201.367 73.727 L 201.486 73.599 L 201.486 73.471 L 201.604 73.471 L 201.604 73.215 L 201.722 73.087 L 201.84 72.959 L 201.84 72.831 L 202.077 72.703 L 202.077 72.448 L 202.314 72.448 L 202.314 72.192 L 202.55 72.064 L 202.55 71.936 L 202.787 71.808 L 202.787 71.68 L 203.023 71.552 L 203.023 71.424 L 203.26 71.296 L 203.378 71.168 L 203.615 70.912 L 203.851 70.784 L 203.97 70.656 L 204.206 70.528 L 204.325 70.4 L 204.561 70.272 L 204.561 70.144 L 204.798 70.016 L 205.034 70.016 L 205.271 69.76 L 205.389 69.76 L 205.626 69.632 L 205.744 69.504 L 205.981 69.504 L 206.217 69.248 L 206.454 69.248 L 206.572 69.12 L 206.809 69.12 L 207.045 68.992 L 207.282 68.992 L 207.519 68.864 L 207.755 68.736 L 208.228 68.736 L 208.465 68.608 L 208.702 68.608 L 208.938 68.48 L 209.411 68.48 L 209.648 68.352 L 210.713 68.352 L 211.067 68.224 L 213.67 68.224 L 213.907 68.352 L 214.616 68.352 L 214.853 68.48 L 215.208 68.48 L 215.563 68.608 L 215.799 68.736 L 216.154 68.736 L 216.509 68.864 L 216.864 68.992 L 217.219 68.992 L 217.574 69.248 L 217.81 69.248 L 218.165 69.504 L 218.52 69.504 L 218.875 69.76 L 219.23 69.76 L 219.585 70.016 L 219.94 70.144 L 220.294 70.272 L 220.649 70.528 L 221.004 70.656 L 221.359 70.912 L 221.714 71.04 L 222.187 71.296 L 222.542 71.424 L 222.897 71.68 L 223.252 71.936 L 223.607 72.192 L 224.08 72.448 L 224.435 72.703 L 224.79 72.959 L 225.145 73.215 L 225.618 73.471 L 225.973 73.727 L 226.327 73.983 L 226.801 74.367 L 227.156 74.623 L 227.629 75.007 L 227.984 75.263 L 228.338 75.647 L 228.812 76.031 L 229.167 76.287 L 229.403 76.543 L 229.758 76.799 L 229.995 77.055 L 230.231 77.183 L 230.468 77.438 L 230.704 77.694 L 230.823 77.822 L 231.059 78.078 L 231.296 78.334 L 231.532 78.59 L 231.769 78.718 L 232.006 78.974 L 232.124 79.23 L 232.36 79.486 L 232.597 79.742 L 232.715 79.87 L 232.952 80.126 L 233.189 80.382 L 233.307 80.638 L 233.543 80.766 L 233.662 81.022 L 233.898 81.278 L 234.017 81.534 L 234.253 81.79 L 234.371 81.917 L 234.608 82.173 L 234.608 82.429 L 234.845 82.685 L 235.081 82.941 L 235.081 83.197 L 235.318 83.325 L 235.436 83.581 L 235.673 83.837 L 235.673 84.093 L 235.909 84.349 L 236.028 84.605 L 236.146 84.733 L 236.264 84.989 L 236.383 85.245 L 236.501 85.501 L 236.737 85.757 L 236.737 86.013 L 236.856 86.141 L 236.974 86.397 L 237.092 86.652 L 237.211 86.908 L 237.329 87.164 L 237.447 87.42 L 237.447 87.548 L 237.684 87.804 L 237.684 88.06 L 237.802 88.316 L 237.92 88.572 L 237.92 88.828 L 238.039 88.956 L 238.157 89.212 L 238.157 89.468 L 238.275 89.724 L 238.394 89.98 L 238.394 90.108 L 238.512 90.236 L 238.512 90.492 L 238.63 90.748 L 238.63 91.004 L 238.748 91.259 L 238.748 91.515 L 238.985 91.899 L 238.985 92.411 L 239.103 92.923 L 239.222 93.307 L 239.222 93.819 L 239.34 94.331 L 239.34 94.715 L 239.458 95.227 L 239.458 96.506 L 239.576 97.018 L 239.576 100.601 L 239.458 100.985 L 239.458 101.881 L 239.34 102.265 L 239.34 102.905 L 239.222 103.289 L 239.103 103.673 L 239.103 104.057 L 238.985 104.569 L 238.867 104.953 L 238.867 105.336 L 238.63 105.72 L 238.63 106.104 L 238.512 106.488 L 238.394 106.872 L 238.275 107.256 L 238.275 107.64 L 238.039 108.024 L 238.039 108.408 L 237.802 108.792 L 237.802 109.176 L 237.565 109.56 L 237.565 109.816 L 237.329 110.199 L 237.211 110.583 L 237.092 110.839 L 236.974 111.223 L 236.856 111.607 L 236.737 111.863 L 236.501 112.247 L 236.501 112.503 L 236.264 112.887 L 236.146 113.143 L 236.028 113.399 L 235.909 113.783 L 235.791 114.039 L 235.554 114.295 L 235.318 114.806 L 235.081 115.446 L 234.845 115.83 L 234.608 116.342 L 234.253 116.854 L 234.017 117.238 L 233.78 117.622 L 233.662 118.006 L 233.425 118.39 L 233.189 118.646 L 233.07 118.902 L 233.07 119.03 L 233.78 119.03 L 234.017 119.157 L 234.253 119.157 L 234.49 119.285 L 234.608 119.285 L 234.845 119.413 L 234.963 119.413 L 235.2 119.541 L 235.318 119.669 L 235.554 119.797 L 235.673 119.925 L 235.909 120.053 L 236.146 120.181 L 236.264 120.309 L 236.501 120.437 L 236.501 120.565 L 236.619 120.565 L 236.619 120.693 L 236.856 120.821 L 236.974 121.077 L 237.092 121.205 L 237.211 121.333 L 237.211 121.461 L 237.447 121.461 L 237.447 121.717 L 237.684 121.973 L 237.802 122.229 L 237.92 122.485 L 237.92 122.613 L 238.157 122.741 L 238.157 122.997 L 238.275 123.253 L 238.275 123.381 L 238.512 123.509 L 238.512 123.892 L 238.63 124.02 L 238.63 124.276 L 238.748 124.404 L 238.748 124.66 L 238.867 124.788 L 238.867 125.044 L 238.985 125.172 L 238.985 125.428 L 239.103 125.556 L 239.103 126.068 L 239.222 126.324 L 239.222 126.452 L 239.34 126.708 L 239.34 127.22 L 239.458 127.476 L 239.458 128.244 L 239.576 128.499 L 239.576 129.523 L 239.695 129.907 L 239.695 133.234 L 239.576 133.618 L 239.576 134.002 L 239.458 134.386 L 239.34 134.898 L 239.34 135.282 L 239.222 135.666 L 239.103 136.05 L 238.985 136.434 L 238.867 136.818 L 238.748 137.202 L 238.63 137.586 L 238.512 137.969 L 238.394 138.481 L 238.157 138.865 L 238.157 139.249 L 237.92 139.633 L 237.684 140.017 L 237.565 140.401 L 237.447 140.785 L 237.211 141.297 L 237.092 141.681 L 236.856 142.065 L 236.619 142.449 L 236.501 142.832 L 236.264 143.216 L 236.028 143.6 L 235.909 144.112 L 235.673 144.496 L 235.436 144.88 L 235.2 145.264 L 234.963 145.648 L 234.726 146.032 L 234.49 146.416 L 234.253 146.8 L 234.017 147.183 L 233.78 147.567 L 233.543 147.951 L 233.307 148.335 L 233.07 148.719 L 232.834 149.103 L 232.597 149.487 L 232.36 149.871 L 232.006 150.255 L 231.769 150.639 L 231.532 151.023 L 231.296 151.407 L 231.059 151.79 L 230.704 152.174 L 230.468 152.558 L 230.231 152.942 L 229.64 153.582 L 229.167 154.35 L 228.575 154.99 L 228.102 155.758 L 227.51 156.398 L 226.919 157.037 L 226.446 157.677 L 225.854 158.317 L 225.381 158.957 L 224.79 159.597 L 224.316 160.109 L 223.843 160.749 L 223.37 161.26 L 222.779 161.772 L 222.305 162.284 L 221.832 162.796 L 221.477 163.308 L 221.004 163.82 L 220.531 164.204 L 220.176 164.588 L 219.821 164.972 L 219.466 165.356 L 219.111 165.74 L 218.402 166.379 L 217.929 166.891 L 217.455 167.275 L 217.219 167.531 L 217.1 167.659 L 217.1 181.096 L 216.982 181.736 L 216.982 183.528 L 216.864 184.168 L 216.864 185.319 L 216.746 185.959 L 216.746 187.111 L 216.627 187.751 L 216.627 188.263 L 216.509 188.775 L 216.509 189.414 L 216.391 189.926 L 216.272 190.438 L 216.272 190.95 L 216.154 191.462 L 216.154 191.974 L 216.036 192.486 L 215.918 192.87 L 215.918 193.382 L 215.681 193.893 L 215.681 194.277 L 215.563 194.789 L 215.563 195.173 L 215.326 195.685 L 215.326 196.069 L 215.208 196.453 L 215.089 196.837 L 215.089 197.349 L 214.853 197.733 L 214.853 198.117 L 214.735 198.5 L 214.616 198.884 L 214.498 199.14 L 214.38 199.524 L 214.261 199.908 L 214.143 200.292 L 214.143 200.548 L 213.907 200.932 L 213.907 201.188 L 213.67 201.572 L 213.67 201.828 L 213.433 202.084 L 213.433 202.468 L 213.197 202.724 L 213.197 202.98 L 212.96 203.235 L 212.96 203.491 L 212.724 203.875 L 212.724 204.131 L 212.487 204.259 L 212.487 204.515 L 212.25 204.771 L 212.25 205.283 L 212.014 205.539 L 211.896 205.795 L 211.777 205.923 L 211.659 206.179 L 211.541 206.307 L 211.422 206.563 L 211.304 206.691 L 211.186 206.947 L 211.067 207.075 L 210.949 207.331 L 210.831 207.459 L 210.713 207.587 L 210.594 207.842 L 210.476 207.842 L 210.358 208.098 L 210.239 208.226 L 210.121 208.354 L 210.003 208.482 L 209.885 208.61 L 209.766 208.738 L 209.53 208.994 L 209.293 209.25 L 209.056 209.506 L 208.82 209.634 L 208.583 209.89 L 208.465 210.018 L 208.228 210.146 L 208.11 210.274 L 207.874 210.402 L 207.755 210.53 L 207.519 210.53 L 207.4 210.786 L 207.164 210.786 L 207.045 210.914 L 206.809 210.914 L 206.809 211.042 L 206.691 211.426 L 206.691 211.682 L 206.572 212.066 L 206.454 212.322 L 206.336 212.577 L 206.336 212.961 L 206.217 213.217 L 206.099 213.601 L 205.981 213.857 L 205.862 214.113 L 205.862 214.369 L 205.626 214.753 L 205.626 215.009 L 205.508 215.265 L 205.389 215.521 L 205.271 215.777 L 205.153 216.033 L 205.034 216.289 L 204.916 216.545 L 204.798 216.801 L 204.68 217.057 L 204.561 217.312 L 204.443 217.568 L 204.325 217.824 L 204.206 218.08 L 203.97 218.336 L 203.97 218.592 L 203.733 218.72 L 203.733 218.976 L 203.497 219.232 L 203.378 219.488 L 203.26 219.616 L 203.142 219.872 L 202.905 220.128 L 202.905 220.256 L 202.669 220.512 L 202.55 220.64 L 202.314 220.896 L 202.314 221.024 L 202.077 221.28 L 201.959 221.408 L 201.722 221.664 L 201.604 221.791 L 201.486 222.047 L 201.249 222.047 L 201.249 222.303 L 201.012 222.431 L 200.776 222.687 L 200.658 222.815 L 200.539 222.943 L 200.303 223.071 L 200.184 223.327 L 200.066 223.327 L 199.829 223.583 L 199.711 223.711 L 199.475 223.839 L 199.356 223.967 L 199.12 224.095 L 199.001 224.223 L 198.883 224.351 L 198.647 224.479 L 198.528 224.607 L 198.292 224.735 L 198.173 224.863 L 197.937 224.991 L 197.818 225.119 L 197.582 225.119 L 197.464 225.375 L 197.227 225.375 L 196.99 225.503 L 196.872 225.631 L 196.636 225.631 L 196.517 225.759 L 196.281 225.887 L 196.162 225.887 L 195.926 226.015 L 195.807 226.143 L 195.571 226.143 L 195.334 226.271 L 195.216 226.398 L 194.979 226.398 L 194.861 226.526 L 194.625 226.526 L 194.388 226.654 L 194.27 226.654 L 193.915 226.91 L 193.442 226.91 L 193.087 227.038 L 192.732 227.166 L 192.377 227.166 L 191.904 227.294 L 191.549 227.294 L 191.194 227.422 L 190.721 227.422 L 190.366 227.55 L 185.279 227.55 L 184.924 227.422 L 184.215 227.422 L 183.741 227.294 L 183.387 227.294 L 183.032 227.038 L 182.322 227.038 L 181.967 226.782 L 181.612 226.782 L 181.257 226.654 L 180.902 226.654 L 180.547 226.398 L 180.193 226.398 L 179.838 226.271 L 179.483 226.143 L 179.128 226.015 L 178.773 225.887 L 178.655 225.887 L 178.3 225.631 L 177.945 225.631 L 177.59 225.375 L 177.353 225.375 L 176.999 225.119 L 176.762 224.991 L 176.407 224.863 L 176.171 224.735 L 175.816 224.607 L 175.579 224.479 L 175.342 224.351 L 174.988 224.095 L 174.751 224.095 L 174.514 223.839 L 174.278 223.839 L 174.041 223.583 L 173.805 223.455 L 173.568 223.327 L 173.331 223.199 L 173.095 222.943 L 172.74 222.943 L 172.503 222.687 L 172.385 222.687 L 172.149 222.431 L 172.03 222.303 L 171.794 222.175 L 171.675 222.047 L 171.439 221.919 L 171.32 221.791 L 171.202 221.536 L 171.084 221.536 L 170.966 221.28 L 170.729 221.28 L 170.729 221.024 L 170.611 221.024 L 170.492 220.768 L 170.374 220.768 L 170.374 220.512 L 170.256 220.512 L 170.256 220.384 L 133.466 220.384 L 133.466 220.512 L 133.348 220.64 L 133.23 220.768 L 133.23 220.896 L 132.993 221.024 L 132.993 221.152 L 132.756 221.28 L 132.756 221.408 L 132.52 221.536 L 132.402 221.791 L 132.283 221.791 L 132.047 222.047 L 131.928 222.047 L 131.692 222.303 L 131.573 222.431 L 131.337 222.559 L 131.1 222.687 L 130.982 222.815 L 130.745 222.943 L 130.509 223.199 L 130.272 223.199 L 130.036 223.455 L 129.799 223.583 L 129.562 223.711 L 129.326 223.839 L 129.089 223.967 L 128.853 224.095 L 128.498 224.351 L 128.261 224.351 L 128.025 224.607 L 127.67 224.607 L 127.433 224.863 L 127.078 224.991 L 126.842 225.119 L 126.487 225.247 L 126.132 225.375 L 125.895 225.503 L 125.54 225.631 L 125.186 225.759 L 124.831 225.887 L 124.594 226.015 L 124.239 226.015 L 123.884 226.271 L 123.529 226.271 L 123.175 226.398 L 122.82 226.526 L 122.465 226.654 L 122.11 226.654 L 121.755 226.782 L 121.4 226.91 L 121.045 226.91 L 120.69 227.038 L 120.335 227.166 L 119.862 227.166 L 119.507 227.294 L 119.153 227.294 L 118.798 227.422 L 117.97 227.422 L 117.615 227.55 L 112.528 227.55 L 112.173 227.422 L 111.818 227.422 L 111.345 227.294 L 110.99 227.166 L 110.635 227.166 L 110.28 226.91 L 109.807 226.91 L 109.452 226.782 L 109.216 226.782 L 109.098 226.654 L 108.861 226.654 L 108.743 226.526 L 108.506 226.398 L 108.269 226.398 L 108.151 226.271 L 107.915 226.271 L 107.796 226.015 L 107.441 226.015 L 107.205 225.759 L 106.968 225.759 L 106.85 225.631 L 106.495 225.631 L 106.377 225.375 L 106.14 225.375 L 106.022 225.247 L 105.785 225.119 L 105.667 225.119 L 105.43 224.863 L 105.312 224.863 L 105.075 224.607 L 104.957 224.607 L 104.721 224.351 L 104.602 224.351 L 104.366 224.095 L 104.247 224.095 L 104.129 223.839 L 103.893 223.839 L 103.774 223.583 L 103.538 223.455 L 103.419 223.327 L 103.301 223.071 L 103.064 223.071 L 102.946 222.815 L 102.71 222.687 L 102.591 222.431 L 102.473 222.431 L 102.236 222.175 L 102.236 222.047 L 102 221.791 L 101.882 221.664 L 101.645 221.408 L 101.527 221.28 L 101.408 221.024 L 101.172 220.896 L 101.172 220.64 L 100.935 220.512 L 100.817 220.256 L 100.699 220.128 L 100.462 219.872 L 100.462 219.616 L 100.225 219.488 L 100.107 219.232 L 99.989 218.976 L 99.871 218.72 L 99.752 218.592 L 99.516 218.336 L 99.516 218.08 L 99.279 217.824 L 99.279 217.568 L 99.042 217.312 L 99.042 217.057 L 98.806 216.801 L 98.806 216.545 L 98.569 216.289 L 98.569 216.033 L 98.333 215.777 L 98.333 215.521 L 98.096 215.265 L 98.096 215.009 L 97.978 214.753 L 97.86 214.369 L 97.741 214.113 L 97.623 213.857 L 97.623 213.601 L 97.386 213.217 L 97.386 212.961 L 97.268 212.577 L 97.15 212.322 L 97.15 212.066 L 97.031 211.682 L 96.913 211.426 L 96.913 211.042 L 96.322 211.042 L 96.322 210.914 L 96.085 210.914 L 95.967 210.786 L 95.849 210.402 L 95.73 210.146 L 95.494 210.146 L 95.257 209.89 L 95.139 209.89 L 94.902 209.634 L 94.784 209.378 L 94.666 209.378 L 94.547 209.25 L 94.429 209.25 L 94.429 208.994 L 94.192 208.994 L 94.192 208.738 L 94.074 208.738 L 93.956 208.482 L 93.838 208.482 L 93.719 208.226 L 93.483 208.226 L 93.364 207.97 L 93.364 207.842 L 93.128 207.715 L 93.128 207.587 L 92.891 207.331 L 92.891 207.203 L 92.773 206.947 L 92.655 206.947 L 92.536 206.691 L 92.418 206.435 L 92.3 206.307 L 92.3 206.051 L 92.063 205.795 L 92.063 205.667 L 91.945 205.411 L 91.826 205.155 L 91.708 204.899 L 91.59 204.643 L 91.472 204.387 L 91.472 204.131 L 91.235 203.875 L 91.235 203.619 L 91.117 203.363 L 90.998 203.107 L 90.88 202.852 L 90.762 202.468 L 90.762 202.212 L 90.525 201.828 L 90.525 201.572 L 90.407 201.188 L 90.289 200.932 L 90.289 200.548 L 90.17 200.164 L 90.052 199.908 L 89.934 199.524 L 89.934 199.14 L 89.815 198.756 L 89.697 198.373 L 89.697 197.989 L 89.461 197.605 L 89.461 196.709 L 89.342 196.325 L 89.224 195.813 L 89.224 195.429 L 89.106 194.917 L 89.106 194.533 L 88.987 194.021 L 88.869 193.51 L 88.869 192.998 L 88.751 192.614 L 88.751 192.102 L 88.633 191.59 L 88.633 190.438 L 88.514 189.926 L 88.514 189.414 L 88.396 188.775 L 88.396 187.623 L 88.278 186.983 L 88.278 185.191 L 88.159 184.551 L 88.159 180.2 L 87.923 180.2 L 87.686 180.456 L 87.45 180.584 L 87.213 180.84 L 86.976 180.968 L 86.74 181.224 L 86.503 181.352 L 86.148 181.48 L 85.912 181.736 L 85.675 181.736 L 85.439 181.992 L 85.202 182.12 L 84.965 182.248 L 84.611 182.504 L 84.374 182.504 L 84.137 182.76 L 83.901 182.76 L 83.546 183.016 L 83.309 183.016 L 83.073 183.272 L 82.836 183.272 L 82.481 183.4 L 82.245 183.528 L 82.008 183.656 L 81.653 183.656 L 81.417 183.784 L 81.062 183.912 L 80.825 183.912 L 80.589 184.04 L 80.234 184.168 L 79.997 184.168 L 79.642 184.296 L 79.406 184.296 L 79.051 184.424 L 78.578 184.424 L 78.223 184.551 L 77.276 184.551 L 77.04 184.679 L 72.663 184.679 L 72.19 184.551 L 71.953 184.551 L 71.598 184.424 L 71.362 184.424 L 71.007 184.296 L 70.652 184.296 L 70.533 184.168 L 70.297 184.168 L 70.06 183.784 L 69.824 183.656 L 69.705 183.4 L 69.469 183.144 L 69.232 182.888 L 69.114 182.632 L 68.877 182.376 L 68.759 182.248 L 68.522 181.992 L 68.404 181.736 L 68.286 181.48 L 68.049 181.224 L 67.931 180.968 L 67.694 180.712 L 67.576 180.456 L 67.458 180.2 L 67.34 179.944 L 67.103 179.689 L 66.866 179.433 L 66.748 179.177 L 66.63 178.921 L 66.511 178.665 L 66.393 178.409 L 66.275 178.153 L 66.157 177.897 L 66.038 177.641 L 66.038 177.129 L 65.802 176.873 L 65.802 176.489 L 65.683 176.233 L 65.565 175.977 L 65.565 175.849 L 65.447 175.593 L 65.447 175.209 L 65.329 174.954 L 65.21 174.698 L 65.21 174.058 L 65.092 173.802 L 65.092 168.811 L 65.21 168.427 L 65.21 168.171 L 65.329 167.787 L 65.329 167.531 L 65.447 167.147 L 65.447 166.763 L 65.683 166.507 L 65.683 166.123 L 65.802 165.74 L 65.802 165.356 L 66.038 165.1 L 66.038 164.716 L 66.275 164.332 L 66.275 163.948 L 66.511 163.692 L 66.63 163.308 L 66.866 162.924 L 66.866 162.54 L 67.103 162.156 L 67.34 161.772 L 67.458 161.388 L 67.694 161.005 L 67.813 160.621 L 68.049 160.237 L 68.168 159.853 L 68.404 159.469 L 68.641 159.085 L 68.877 158.701 L 69.114 158.317 L 69.351 157.933 L 69.587 157.549 L 69.824 157.165 L 70.06 156.653 L 70.297 156.27 L 70.652 155.886 L 70.888 155.502 L 71.243 154.99 L 71.48 154.606 L 71.835 154.222 L 72.071 153.71 L 72.426 153.326 L 72.781 152.942 L 73.136 152.43 L 73.373 152.046 L 73.727 151.535 L 74.082 151.151 L 74.437 150.639 L 74.91 150.255 L 75.265 149.743 L 75.62 149.359 L 76.093 148.847 L 76.448 148.335 L 76.803 147.951 L 77.276 147.439 L 77.749 146.928 L 78.104 146.544 L 78.578 146.032 L 79.051 145.52 L 79.524 145.008 L 79.997 144.496 L 80.47 144.112 L 80.943 143.6 L 81.417 143.088 L 82.008 142.576 L 82.481 142.065 L 83.073 141.553 L 83.546 141.041 L 84.137 140.529 L 84.611 140.017 L 85.202 139.505 L 85.793 138.865 L 86.267 138.481 L 88.633 131.571 L 88.278 131.443 L 88.041 131.443 L 87.568 131.059 L 87.213 131.059 L 86.858 130.931 L 86.622 130.803 L 86.385 130.803 L 86.03 130.547 L 85.793 130.547 L 85.439 130.291 L 85.084 130.291 L 84.847 130.035 L 84.492 130.035 L 84.256 129.779 L 83.901 129.779 L 83.664 129.523 L 83.309 129.395 L 83.073 129.267 L 82.718 129.011 L 82.481 129.011 L 82.126 128.755 L 81.89 128.627 L 81.535 128.499 L 81.298 128.499 L 80.943 128.372 L 80.707 128.116 L 80.47 127.988 L 80.115 127.732 L 79.879 127.604 L 79.642 127.348 L 79.287 127.22 L 79.051 126.964 L 78.814 126.836 L 78.459 126.58 L 78.223 126.452 L 77.986 126.196 L 77.749 126.068 L 77.395 125.812 L 77.158 125.556 L 76.921 125.428 L 76.685 125.172 L 76.448 124.916 L 76.093 124.788 L 75.857 124.532 L 75.62 124.276 L 75.384 124.02 L 75.147 123.765 L 74.91 123.637 L 74.674 123.381 L 74.319 123.125 L 74.082 122.869 L 73.846 122.613 L 73.373 122.101 L 72.899 121.589 L 72.426 121.077 L 71.953 120.693 L 71.48 120.053 L 71.243 119.797 L 71.007 119.413 L 70.888 119.157 L 70.652 118.902 L 70.533 118.646 L 70.297 118.39 L 70.06 118.006 L 69.824 117.622 L 69.587 117.238 L 69.351 116.854 L 69.114 116.342 L 68.877 115.702 L 68.641 115.318 L 68.404 114.678 L 68.049 114.167 L 68.049 113.911 L 67.813 113.655 L 67.694 113.271 L 67.458 113.143 L 67.458 112.759 L 67.34 112.375 L 67.103 112.119 L 67.103 111.735 L 66.866 111.479 L 66.748 111.095 L 66.63 110.711 L 66.511 110.455 L 66.393 110.071 L 66.275 109.688 L 66.157 109.432 L 66.038 109.048 L 65.92 108.664 L 65.802 108.28 L 65.683 107.896 L 65.565 107.512 L 65.447 107.128 L 65.329 106.744 L 65.21 106.36 L 65.21 105.976 L 64.974 105.592 L 64.974 105.208 L 64.855 104.825 L 64.855 104.441 L 64.737 103.929 L 64.619 103.545 L 64.619 103.161 L 64.5 102.777 L 64.5 102.265 L 64.382 101.881 L 64.382 101.497 L 64.264 100.985 L 64.264 100.09 L 64.146 99.706 L 64.146 95.227 L 64.264 94.715 L 64.264 94.331 L 64.382 93.819 L 64.382 93.307 L 64.619 92.923 L 64.619 92.411 L 64.737 91.899 L 64.855 91.515 L 64.855 91.259 L 64.974 91.004 L 64.974 90.748 L 65.092 90.492 L 65.092 90.236 L 65.329 90.108 L 65.329 89.852 L 65.447 89.596 L 65.565 89.34 L 65.565 89.084 L 65.683 88.828 L 65.802 88.7 L 65.802 88.444 L 66.038 88.188 L 66.038 87.932 L 66.157 87.676 L 66.275 87.42 L 66.275 87.292 L 66.511 87.036 L 66.511 86.78 L 66.748 86.524 L 66.748 86.269 L 66.866 86.013 L 66.985 85.885 L 67.103 85.629 L 67.221 85.373 L 67.34 85.117 L 67.576 84.861 L 67.576 84.605 L 67.813 84.477 L 67.813 84.221 L 68.049 83.965 L 68.168 83.709 L 68.286 83.453 L 68.522 83.197 L 68.522 83.069 L 68.759 82.813 L 68.996 82.557 L 68.996 82.301 L 69.232 82.045 L 69.469 81.79 L 69.587 81.662 L 69.824 81.406 L 69.942 81.15 L 70.179 80.894 L 70.297 80.638 L 70.533 80.51 L 70.652 80.254 L 70.888 79.998 L 71.007 79.742 L 71.243 79.614 L 71.48 79.358 L 71.716 79.102 L 71.835 78.846 L 72.071 78.59 L 72.19 78.59 L 72.426 78.334 L 72.663 78.078 L 72.781 77.822 L 73.018 77.694 L 73.373 77.31 L 73.609 77.055 L 73.846 76.799 L 74.082 76.671 L 74.319 76.415 L 74.674 76.159 L 75.029 75.775 L 75.384 75.519 L 75.857 75.135 L 76.212 74.879 L 76.685 74.495 L 77.04 74.239 L 77.395 73.855 L 77.868 73.599 L 78.223 73.343 L 78.578 73.087 L 79.051 72.703 L 79.406 72.448 L 79.76 72.192 L 80.234 72.064 L 80.589 71.808 L 80.943 71.552 L 81.298 71.296 L 81.653 71.168 L 82.008 70.912 L 82.481 70.784 L 82.836 70.528 L 83.191 70.4 L 83.546 70.144 L 83.901 70.144 L 84.019 69.76 L 84.374 69.632 L 84.729 69.504 L 85.084 69.376 L 85.439 69.248 L 85.675 69.12 L 86.03 68.992 L 86.385 68.864 L 86.74 68.736 L 87.095 68.736 L 87.45 68.608 L 87.686 68.48 L 88.041 68.48 L 88.396 68.352 L 88.751 68.352 L 88.987 68.224 L 89.579 68.224 L 89.934 68.096 L 90.88 68.096 L 91.117 67.968 L 93.956 67.968 L 94.311 68.096 L 94.784 68.096 L 95.02 68.224 L 95.257 68.224 L 95.494 68.352 L 95.849 68.352 L 96.085 68.48 L 96.322 68.48 L 96.558 68.608 L 96.795 68.608 L 97.031 68.736 L 97.268 68.864 L 97.386 68.864 L 97.623 68.992 L 97.86 69.12 L 97.978 69.12 L 98.214 69.376 L 98.451 69.376 L 98.569 69.504 L 98.806 69.632 L 98.924 69.632 L 99.161 69.888 L 99.279 69.888 L 99.516 70.144 L 99.634 70.144 L 99.871 70.4 L 100.107 70.528 L 100.225 70.656 L 100.462 70.784 L 100.462 70.912 L 100.699 71.04 L 100.817 71.296 L 100.935 71.296 L 101.053 71.552 L 101.172 71.552 L 101.29 71.808 L 101.29 71.936 L 101.527 72.064 L 101.527 72.192 L 101.763 72.32 L 101.763 72.448 L 101.882 72.703 L 102 72.959 L 102 73.087 L 102.236 73.215 L 102.236 73.599 L 102.355 73.599 L 102.355 73.983 L 102.473 74.111 L 102.473 74.751 L 102.591 74.879 L 102.591 75.775 L 104.129 75.775 L 104.247 75.903 Z  M 177.59 85.245 L 177.117 85.245 L 176.762 85.117 L 176.525 84.989 L 176.171 84.861 L 175.816 84.605 L 175.461 84.605 L 174.988 84.349 L 174.396 84.093 L 173.805 83.965 L 173.213 83.709 L 172.74 83.709 L 172.385 83.453 L 172.03 83.453 L 171.675 83.325 L 171.32 83.197 L 170.847 83.069 L 170.492 82.941 L 170.019 82.813 L 169.664 82.685 L 169.191 82.685 L 168.718 82.429 L 168.245 82.429 L 167.89 82.173 L 167.298 82.173 L 166.825 82.045 L 166.352 81.917 L 165.879 81.917 L 165.287 81.662 L 164.814 81.662 L 164.223 81.534 L 163.75 81.406 L 163.276 81.406 L 162.685 81.278 L 162.093 81.15 L 161.62 81.15 L 161.029 81.022 L 160.319 81.022 L 159.728 80.894 L 159.136 80.766 L 157.835 80.766 L 157.243 80.638 L 155.942 80.638 L 155.232 80.51 L 146.479 80.51 L 145.769 80.638 L 145.177 80.638 L 144.586 80.766 L 143.994 80.766 L 143.166 81.022 L 142.575 81.022 L 141.983 81.15 L 141.392 81.15 L 140.919 81.406 L 139.736 81.406 L 139.144 81.662 L 138.671 81.662 L 138.08 81.79 L 137.607 81.917 L 137.252 81.917 L 136.778 82.173 L 136.069 82.173 L 135.596 82.301 L 135.122 82.429 L 134.767 82.557 L 134.294 82.685 L 133.821 82.813 L 133.348 82.813 L 132.993 83.069 L 132.638 83.069 L 132.165 83.325 L 131.81 83.325 L 131.455 83.453 L 131.1 83.581 L 130.745 83.709 L 130.391 83.837 L 129.799 84.093 L 129.208 84.221 L 128.616 84.477 L 128.143 84.605 L 127.788 84.733 L 127.433 84.989 L 127.078 84.989 L 126.842 85.245 L 126.605 85.245 L 126.487 85.373 L 125.895 85.373 L 125.659 85.117 L 125.422 84.861 L 125.304 84.605 L 125.067 84.477 L 124.831 84.221 L 124.594 84.093 L 124.358 83.837 L 124.121 83.709 L 123.884 83.453 L 123.648 83.325 L 123.529 83.197 L 123.293 82.941 L 123.056 82.813 L 122.82 82.685 L 122.583 82.429 L 122.347 82.301 L 122.11 82.173 L 121.873 82.045 L 121.637 81.79 L 121.4 81.79 L 121.164 81.534 L 120.927 81.406 L 120.572 81.278 L 120.335 81.15 L 120.099 81.022 L 119.862 80.894 L 119.626 80.766 L 119.507 80.51 L 119.271 80.382 L 119.034 80.254 L 118.798 80.126 L 118.324 80.126 L 117.97 79.87 L 117.733 79.87 L 117.496 79.742 L 117.26 79.614 L 117.023 79.486 L 116.787 79.486 L 116.55 79.358 L 116.313 79.23 L 115.959 79.23 L 115.722 78.974 L 115.249 78.974 L 114.776 78.59 L 114.302 78.462 L 113.711 78.334 L 113.238 78.206 L 112.765 78.078 L 112.291 77.95 L 111.818 77.822 L 111.345 77.822 L 110.872 77.566 L 110.044 77.566 L 109.571 77.438 L 109.098 77.31 L 106.968 77.31 L 106.495 77.183 L 105.312 77.183 L 104.957 77.055 L 101.408 77.055 L 101.408 76.927 L 101.29 76.927 L 101.29 76.671 L 101.172 76.543 L 101.172 76.031 L 101.29 76.031 L 101.29 75.647 L 101.408 75.519 L 101.408 74.367 L 101.29 74.239 L 101.29 73.983 L 101.172 73.855 L 101.172 73.727 L 101.053 73.471 L 100.935 73.215 L 100.817 73.215 L 100.817 72.959 L 100.58 72.959 L 100.462 72.831 L 100.462 72.703 L 100.225 72.575 L 100.225 72.448 L 100.107 72.32 L 99.989 72.192 L 99.871 72.064 L 99.752 71.936 L 99.634 71.936 L 99.516 71.68 L 99.397 71.68 L 99.279 71.424 L 99.161 71.424 L 98.924 71.296 L 98.924 71.168 L 98.688 71.04 L 98.569 71.04 L 98.333 70.784 L 98.214 70.784 L 98.096 70.656 L 97.86 70.528 L 97.741 70.528 L 97.505 70.4 L 97.386 70.272 L 97.15 70.272 L 97.031 70.144 L 96.795 70.016 L 96.558 70.016 L 96.44 69.888 L 96.203 69.888 L 95.967 69.76 L 95.849 69.632 L 95.375 69.632 L 95.139 69.504 L 94.902 69.504 L 94.666 69.376 L 94.192 69.376 L 93.956 69.248 L 93.483 69.248 L 93.246 69.12 L 89.934 69.12 L 89.579 69.248 L 89.342 69.248 L 88.987 69.376 L 88.751 69.376 L 88.396 69.504 L 88.041 69.504 L 87.804 69.632 L 87.45 69.632 L 87.095 69.888 L 86.858 69.888 L 86.503 70.016 L 86.148 70.144 L 85.793 70.144 L 85.557 70.4 L 85.202 70.4 L 84.847 70.656 L 84.492 70.784 L 84.137 70.912 L 83.782 71.168 L 83.428 71.168 L 83.073 71.424 L 82.718 71.68 L 82.363 71.808 L 82.008 72.064 L 81.653 72.192 L 81.298 72.448 L 80.943 72.703 L 80.589 72.831 L 80.234 73.087 L 79.879 73.343 L 79.406 73.599 L 79.051 73.855 L 78.696 74.111 L 78.341 74.367 L 77.868 74.751 L 77.513 75.007 L 77.158 75.263 L 76.803 75.647 L 76.33 75.903 L 75.975 76.287 L 75.502 76.543 L 75.147 76.927 L 74.91 77.183 L 74.674 77.438 L 74.437 77.566 L 74.201 77.822 L 73.964 78.078 L 73.727 78.206 L 73.491 78.462 L 73.373 78.718 L 73.136 78.846 L 72.899 79.102 L 72.663 79.358 L 72.426 79.614 L 72.308 79.742 L 72.071 79.998 L 71.953 80.254 L 71.716 80.382 L 71.48 80.638 L 71.362 80.894 L 71.125 81.15 L 71.007 81.278 L 70.77 81.534 L 70.652 81.79 L 70.415 82.045 L 70.297 82.173 L 70.179 82.429 L 69.942 82.685 L 69.824 82.813 L 69.705 83.069 L 69.469 83.325 L 69.469 83.581 L 69.232 83.709 L 69.114 83.965 L 68.996 84.221 L 68.759 84.477 L 68.759 84.605 L 68.522 84.861 L 68.522 85.117 L 68.286 85.373 L 68.168 85.629 L 68.049 85.757 L 67.931 86.013 L 67.931 86.269 L 67.694 86.397 L 67.694 86.652 L 67.458 86.908 L 67.458 87.164 L 67.34 87.292 L 67.221 87.548 L 67.103 87.804 L 67.103 88.06 L 66.985 88.316 L 66.866 88.444 L 66.748 88.7 L 66.748 88.956 L 66.63 89.212 L 66.511 89.34 L 66.511 89.596 L 66.275 90.108 L 66.157 90.236 L 66.038 90.492 L 66.038 90.748 L 65.92 91.004 L 65.92 91.132 L 65.802 91.387 L 65.802 91.643 L 65.683 92.027 L 65.565 92.539 L 65.565 92.923 L 65.329 93.435 L 65.329 94.331 L 65.21 94.715 L 65.21 95.611 L 65.092 96.122 L 65.092 100.729 L 65.21 101.241 L 65.21 102.009 L 65.329 102.393 L 65.329 102.905 L 65.565 103.289 L 65.565 104.185 L 65.683 104.569 L 65.802 104.953 L 65.802 105.336 L 66.038 105.72 L 66.038 106.104 L 66.157 106.488 L 66.275 106.872 L 66.393 107.128 L 66.511 107.512 L 66.63 107.896 L 66.63 108.28 L 66.866 108.664 L 66.866 108.92 L 67.103 109.304 L 67.103 109.688 L 67.34 109.943 L 67.458 110.327 L 67.576 110.711 L 67.694 110.967 L 67.813 111.351 L 67.931 111.607 L 68.168 111.863 L 68.168 112.247 L 68.404 112.503 L 68.404 112.759 L 68.641 113.143 L 68.759 113.399 L 68.877 113.655 L 69.114 114.167 L 69.469 114.678 L 69.705 115.19 L 69.942 115.702 L 70.179 116.086 L 70.415 116.47 L 70.652 116.854 L 70.888 117.238 L 71.007 117.622 L 71.243 117.878 L 71.362 118.134 L 71.598 118.39 L 71.716 118.646 L 71.953 119.03 L 72.071 119.157 L 72.544 119.669 L 73.018 120.181 L 73.491 120.693 L 73.964 121.205 L 74.437 121.717 L 74.674 121.845 L 74.91 122.101 L 75.147 122.357 L 75.384 122.613 L 75.62 122.869 L 75.975 122.997 L 76.212 123.253 L 76.448 123.509 L 76.685 123.765 L 76.921 123.892 L 77.158 124.148 L 77.395 124.404 L 77.631 124.532 L 77.986 124.788 L 78.223 124.916 L 78.459 125.172 L 78.696 125.428 L 78.932 125.556 L 79.287 125.812 L 79.524 125.94 L 79.76 126.196 L 79.997 126.324 L 80.352 126.452 L 80.589 126.708 L 80.825 126.836 L 81.062 127.092 L 81.417 127.22 L 81.653 127.348 L 81.89 127.604 L 82.245 127.604 L 82.481 127.86 L 82.836 127.988 L 83.073 128.116 L 83.309 128.372 L 83.664 128.372 L 83.901 128.627 L 84.256 128.755 L 84.492 128.883 L 84.847 129.011 L 85.084 129.139 L 85.439 129.267 L 85.675 129.395 L 86.03 129.523 L 86.267 129.523 L 86.622 129.779 L 86.858 129.779 L 87.213 129.907 L 87.568 130.035 L 87.804 130.163 L 88.159 130.163 L 88.514 130.291 L 88.751 130.419 L 89.106 130.419 L 89.461 130.547 L 89.579 130.547 L 89.579 130.675 L 89.697 130.803 L 89.697 130.931 L 89.815 131.059 L 89.815 131.315 L 87.095 138.993 L 87.095 139.121 L 86.976 139.249 L 86.385 139.761 L 85.793 140.273 L 85.202 140.785 L 84.729 141.297 L 84.137 141.809 L 83.546 142.321 L 83.073 142.832 L 82.6 143.344 L 82.008 143.856 L 81.535 144.368 L 81.062 144.88 L 80.589 145.392 L 80.115 145.904 L 79.642 146.288 L 79.169 146.8 L 78.814 147.311 L 78.341 147.823 L 77.868 148.207 L 77.513 148.719 L 77.04 149.103 L 76.685 149.615 L 76.33 150.127 L 75.857 150.511 L 75.502 151.023 L 75.147 151.407 L 74.792 151.918 L 74.437 152.302 L 74.082 152.686 L 73.727 153.198 L 73.491 153.582 L 73.136 154.094 L 72.781 154.478 L 72.544 154.862 L 72.19 155.374 L 71.953 155.886 L 71.598 156.27 L 71.362 156.653 L 71.125 157.037 L 70.77 157.421 L 70.533 157.805 L 70.297 158.317 L 70.06 158.701 L 69.824 159.085 L 69.587 159.469 L 69.469 159.853 L 69.232 160.237 L 68.996 160.621 L 68.759 161.005 L 68.641 161.26 L 68.404 161.644 L 68.286 162.028 L 68.049 162.412 L 68.049 162.796 L 67.813 163.18 L 67.694 163.436 L 67.458 163.82 L 67.458 164.204 L 67.221 164.588 L 67.221 164.844 L 66.985 165.228 L 66.985 165.612 L 66.748 165.867 L 66.748 166.251 L 66.63 166.507 L 66.63 167.147 L 66.511 167.531 L 66.511 167.787 L 66.275 168.171 L 66.275 168.427 L 66.157 168.811 L 66.157 169.067 L 66.038 169.451 L 66.038 170.73 L 65.92 171.114 L 65.92 173.034 L 66.038 173.418 L 66.038 173.93 L 66.157 174.186 L 66.157 174.442 L 66.275 174.698 L 66.275 174.954 L 66.393 175.209 L 66.393 175.465 L 66.511 175.721 L 66.63 175.977 L 66.63 176.233 L 66.866 176.489 L 66.866 176.745 L 66.985 177.001 L 66.985 177.257 L 67.221 177.513 L 67.221 177.769 L 67.458 178.025 L 67.458 178.281 L 67.694 178.537 L 67.694 178.793 L 67.931 179.049 L 67.931 179.305 L 68.168 179.561 L 68.286 179.689 L 68.404 179.944 L 68.641 180.2 L 68.641 180.456 L 68.877 180.712 L 69.114 180.968 L 69.114 181.096 L 69.351 181.352 L 69.587 181.608 L 69.705 181.864 L 69.942 182.12 L 70.06 182.248 L 70.297 182.504 L 70.415 182.76 L 70.652 183.016 L 70.77 183.144 L 70.888 183.272 L 71.362 183.272 L 71.716 183.4 L 71.953 183.4 L 72.308 183.528 L 73.254 183.528 L 73.609 183.656 L 78.341 183.656 L 78.696 183.528 L 78.932 183.528 L 79.169 183.4 L 79.524 183.4 L 79.76 183.272 L 79.997 183.272 L 80.352 183.144 L 80.589 183.144 L 80.825 183.016 L 81.062 182.888 L 81.417 182.888 L 81.653 182.76 L 81.89 182.632 L 82.126 182.632 L 82.363 182.376 L 82.718 182.376 L 82.954 182.248 L 83.191 182.12 L 83.428 181.992 L 83.664 181.864 L 83.901 181.736 L 84.137 181.608 L 84.492 181.48 L 84.729 181.224 L 84.965 181.224 L 85.202 180.968 L 85.439 180.968 L 85.675 180.712 L 85.912 180.584 L 86.148 180.328 L 86.385 180.2 L 86.622 180.072 L 86.858 179.816 L 87.095 179.689 L 87.331 179.433 L 87.568 179.305 L 87.804 179.049 L 88.041 178.921 L 88.278 178.665 L 88.869 178.665 L 88.869 178.793 L 88.987 178.793 L 88.987 180.584 L 89.106 181.224 L 89.106 185.191 L 89.224 185.831 L 89.224 187.111 L 89.342 187.623 L 89.342 188.775 L 89.461 189.414 L 89.461 190.438 L 89.579 190.95 L 89.579 191.59 L 89.697 192.102 L 89.697 192.486 L 89.815 192.998 L 89.815 193.51 L 89.934 194.021 L 89.934 194.405 L 90.052 194.917 L 90.052 195.301 L 90.289 195.813 L 90.289 196.709 L 90.407 197.093 L 90.525 197.477 L 90.525 197.861 L 90.644 198.245 L 90.762 198.628 L 90.762 199.012 L 90.998 199.396 L 90.998 200.036 L 91.235 200.42 L 91.235 200.676 L 91.353 201.06 L 91.472 201.316 L 91.472 201.7 L 91.708 201.956 L 91.708 202.212 L 91.826 202.596 L 91.826 202.852 L 92.063 203.107 L 92.063 203.363 L 92.181 203.619 L 92.3 203.875 L 92.418 204.131 L 92.418 204.387 L 92.655 204.515 L 92.655 204.771 L 92.773 205.027 L 92.891 205.283 L 93.009 205.411 L 93.009 205.667 L 93.246 205.795 L 93.246 206.051 L 93.364 206.179 L 93.483 206.307 L 93.601 206.563 L 93.601 206.691 L 93.838 206.819 L 93.838 206.947 L 93.956 207.203 L 94.074 207.203 L 94.192 207.459 L 94.429 207.715 L 94.547 207.97 L 94.666 207.97 L 94.666 208.098 L 94.902 208.226 L 94.902 208.354 L 95.02 208.354 L 95.02 208.482 L 95.257 208.61 L 95.494 208.866 L 95.612 208.994 L 95.849 209.122 L 95.849 209.25 L 96.085 209.25 L 96.203 209.506 L 96.558 209.506 L 96.558 209.634 L 96.795 209.634 L 96.795 209.762 L 97.15 209.762 L 97.268 209.89 L 97.505 209.89 L 97.741 210.018 L 97.741 210.146 L 97.86 210.274 L 97.86 210.658 L 97.978 210.914 L 98.096 211.298 L 98.096 211.554 L 98.214 211.81 L 98.333 212.194 L 98.333 212.449 L 98.569 212.705 L 98.569 213.089 L 98.688 213.345 L 98.806 213.601 L 98.806 213.857 L 99.042 214.113 L 99.042 214.497 L 99.161 214.753 L 99.279 215.009 L 99.397 215.265 L 99.516 215.521 L 99.634 215.777 L 99.752 216.033 L 99.752 216.161 L 99.989 216.417 L 99.989 216.673 L 100.225 216.929 L 100.225 217.184 L 100.462 217.44 L 100.462 217.568 L 100.699 217.824 L 100.817 218.08 L 100.935 218.208 L 101.053 218.464 L 101.172 218.72 L 101.29 218.848 L 101.527 219.104 L 101.527 219.232 L 101.763 219.488 L 101.763 219.616 L 102 219.872 L 102.118 220 L 102.236 220.256 L 102.473 220.384 L 102.473 220.512 L 102.71 220.768 L 102.828 220.896 L 102.946 221.024 L 103.183 221.28 L 103.183 221.408 L 103.419 221.536 L 103.538 221.664 L 103.774 221.919 L 103.893 221.919 L 104.011 222.175 L 104.247 222.303 L 104.247 222.431 L 104.484 222.559 L 104.721 222.687 L 104.721 222.815 L 104.957 222.943 L 105.194 223.071 L 105.194 223.199 L 105.43 223.327 L 105.667 223.455 L 105.785 223.455 L 105.904 223.711 L 106.14 223.711 L 106.258 223.839 L 106.495 223.967 L 106.613 224.095 L 106.85 224.095 L 106.85 224.351 L 107.087 224.351 L 107.323 224.479 L 107.441 224.479 L 107.678 224.607 L 107.796 224.735 L 108.033 224.735 L 108.151 224.863 L 108.388 224.991 L 108.506 224.991 L 108.624 225.119 L 108.861 225.119 L 108.979 225.247 L 109.216 225.247 L 109.334 225.375 L 109.571 225.375 L 109.689 225.503 L 110.162 225.631 L 110.517 225.759 L 110.872 225.759 L 111.227 225.887 L 111.582 226.015 L 111.937 226.015 L 112.291 226.143 L 113.001 226.143 L 113.474 226.271 L 114.894 226.271 L 115.249 226.398 L 117.496 226.398 L 117.851 226.271 L 118.679 226.271 L 119.034 226.143 L 119.389 226.143 L 119.744 226.015 L 120.099 226.015 L 120.454 225.887 L 120.809 225.887 L 121.164 225.759 L 121.518 225.631 L 121.873 225.631 L 122.228 225.375 L 122.583 225.375 L 122.938 225.247 L 123.175 225.247 L 123.529 224.991 L 123.884 224.991 L 124.239 224.863 L 124.594 224.735 L 124.831 224.607 L 125.186 224.479 L 125.54 224.351 L 125.777 224.223 L 126.132 224.095 L 126.369 223.967 L 126.723 223.839 L 126.96 223.711 L 127.315 223.583 L 127.551 223.455 L 127.788 223.327 L 128.025 223.199 L 128.38 223.071 L 128.616 222.815 L 128.853 222.815 L 129.089 222.559 L 129.326 222.559 L 129.562 222.303 L 129.799 222.303 L 129.917 222.047 L 130.154 221.919 L 130.391 221.791 L 130.627 221.664 L 130.745 221.536 L 130.982 221.408 L 131.1 221.28 L 131.219 221.152 L 131.455 221.024 L 131.573 220.896 L 131.692 220.768 L 131.81 220.64 L 131.928 220.512 L 132.047 220.512 L 132.165 220.256 L 132.283 220.128 L 132.402 220 L 132.402 219.872 L 132.52 219.872 L 132.52 219.616 L 132.638 219.488 L 132.638 219.36 L 132.756 219.36 L 132.756 219.232 L 132.875 219.232 L 132.993 219.104 L 170.847 219.104 L 170.847 219.232 L 170.966 219.232 L 170.966 219.488 L 171.084 219.488 L 171.084 219.744 L 171.202 219.872 L 171.202 220 L 171.32 220 L 171.439 220.256 L 171.675 220.384 L 171.675 220.512 L 171.794 220.512 L 172.03 220.768 L 172.267 221.024 L 172.385 221.024 L 172.622 221.28 L 172.74 221.28 L 172.977 221.536 L 173.095 221.536 L 173.331 221.791 L 173.45 221.919 L 173.686 222.047 L 173.923 222.175 L 174.16 222.303 L 174.396 222.431 L 174.633 222.559 L 174.869 222.687 L 175.106 222.815 L 175.342 223.071 L 175.579 223.071 L 175.934 223.327 L 176.171 223.327 L 176.407 223.583 L 176.762 223.583 L 176.999 223.839 L 177.235 223.839 L 177.59 224.095 L 177.945 224.095 L 178.182 224.351 L 178.655 224.351 L 178.891 224.607 L 179.246 224.607 L 179.601 224.863 L 179.956 224.863 L 180.193 224.991 L 180.547 225.119 L 180.902 225.247 L 181.257 225.247 L 181.612 225.375 L 181.967 225.503 L 182.322 225.503 L 182.677 225.759 L 183.387 225.759 L 183.741 225.887 L 184.096 225.887 L 184.451 226.015 L 184.806 226.015 L 185.161 226.143 L 185.516 226.143 L 185.871 226.271 L 187.763 226.271 L 188.118 226.398 L 190.366 226.398 L 190.721 226.271 L 191.549 226.271 L 191.904 226.143 L 192.259 226.015 L 192.613 226.015 L 192.968 225.887 L 193.323 225.759 L 193.678 225.759 L 194.033 225.503 L 194.388 225.503 L 194.625 225.375 L 194.743 225.375 L 194.979 225.247 L 195.098 225.247 L 195.334 225.119 L 195.453 224.991 L 195.689 224.991 L 195.807 224.863 L 196.044 224.863 L 196.162 224.607 L 196.517 224.607 L 196.636 224.351 L 196.872 224.351 L 196.99 224.223 L 197.227 224.223 L 197.345 223.967 L 197.582 223.967 L 197.7 223.839 L 197.818 223.711 L 198.055 223.583 L 198.173 223.455 L 198.292 223.455 L 198.528 223.199 L 198.647 223.199 L 198.883 222.943 L 199.12 222.687 L 199.356 222.687 L 199.356 222.431 L 199.593 222.303 L 199.711 222.175 L 199.948 222.047 L 200.066 221.919 L 200.184 221.664 L 200.421 221.664 L 200.421 221.408 L 200.658 221.28 L 200.776 221.024 L 201.012 221.024 L 201.012 220.768 L 201.249 220.512 L 201.367 220.512 L 201.486 220.256 L 201.722 220 L 201.722 219.872 L 201.959 219.616 L 202.077 219.488 L 202.195 219.232 L 202.314 219.104 L 202.432 218.848 L 202.55 218.72 L 202.787 218.464 L 202.787 218.208 L 203.023 218.08 L 203.023 217.824 L 203.26 217.568 L 203.26 217.44 L 203.497 217.184 L 203.497 216.929 L 203.733 216.673 L 203.733 216.417 L 203.97 216.161 L 203.97 216.033 L 204.206 215.777 L 204.206 215.521 L 204.443 215.265 L 204.443 215.009 L 204.561 214.753 L 204.68 214.497 L 204.798 214.113 L 204.798 213.857 L 205.034 213.601 L 205.034 213.345 L 205.153 213.089 L 205.271 212.705 L 205.271 212.449 L 205.508 212.194 L 205.508 211.81 L 205.626 211.554 L 205.626 211.298 L 205.744 210.914 L 205.862 210.658 L 205.862 210.274 L 205.981 210.274 L 205.981 210.146 L 206.099 210.146 L 206.099 210.018 L 206.336 210.018 L 206.336 209.89 L 206.691 209.89 L 206.691 209.762 L 206.927 209.762 L 206.927 209.634 L 207.164 209.634 L 207.282 209.378 L 207.4 209.378 L 207.637 209.25 L 207.755 209.122 L 207.874 208.994 L 208.11 208.866 L 208.347 208.61 L 208.465 208.61 L 208.702 208.354 L 208.938 208.098 L 209.056 207.842 L 209.175 207.842 L 209.293 207.587 L 209.411 207.587 L 209.53 207.331 L 209.766 207.075 L 210.003 206.819 L 210.003 206.691 L 210.239 206.435 L 210.476 206.179 L 210.476 205.923 L 210.713 205.923 L 210.713 205.667 L 210.831 205.411 L 210.949 205.283 L 211.067 205.027 L 211.186 204.771 L 211.304 204.643 L 211.422 204.387 L 211.541 204.131 L 211.659 203.875 L 211.777 203.619 L 211.896 203.491 L 212.014 203.235 L 212.132 202.98 L 212.25 202.724 L 212.369 202.34 L 212.487 202.084 L 212.605 201.828 L 212.724 201.572 L 212.842 201.188 L 212.96 200.932 L 212.96 200.676 L 213.197 200.292 L 213.197 200.036 L 213.433 199.652 L 213.433 199.268 L 213.552 199.012 L 213.67 198.628 L 213.788 198.245 L 213.907 197.861 L 213.907 197.477 L 214.143 197.093 L 214.143 196.709 L 214.261 196.325 L 214.38 195.941 L 214.38 195.557 L 214.616 195.045 L 214.616 194.661 L 214.735 194.277 L 214.735 193.765 L 214.853 193.254 L 214.971 192.87 L 214.971 192.358 L 215.089 191.846 L 215.208 191.462 L 215.208 190.95 L 215.326 190.438 L 215.326 189.926 L 215.444 189.414 L 215.444 188.775 L 215.563 188.263 L 215.563 187.751 L 215.681 187.111 L 215.681 186.599 L 215.799 185.959 L 215.799 184.807 L 215.918 184.168 L 215.918 182.888 L 216.036 182.248 L 216.036 178.409 L 216.154 177.641 L 216.154 167.019 L 216.272 167.019 L 216.272 166.891 L 216.627 166.635 L 216.864 166.251 L 217.337 165.867 L 217.81 165.356 L 218.52 164.716 L 218.875 164.46 L 219.23 164.076 L 219.585 163.692 L 219.94 163.308 L 220.413 162.796 L 220.768 162.412 L 221.241 161.9 L 221.714 161.388 L 222.187 160.877 L 222.66 160.365 L 223.134 159.853 L 223.725 159.213 L 224.198 158.701 L 224.671 158.061 L 225.263 157.421 L 225.736 156.781 L 226.327 156.142 L 226.801 155.502 L 227.392 154.862 L 227.865 154.222 L 228.457 153.454 L 228.93 152.814 L 229.521 152.046 L 229.758 151.663 L 229.995 151.279 L 230.349 151.023 L 230.586 150.639 L 230.823 150.255 L 231.059 149.871 L 231.296 149.487 L 231.532 149.103 L 231.887 148.719 L 232.124 148.335 L 232.36 147.951 L 232.597 147.567 L 232.834 147.183 L 233.07 146.8 L 233.307 146.416 L 233.543 146.032 L 233.78 145.648 L 234.017 145.264 L 234.253 144.88 L 234.371 144.496 L 234.608 144.112 L 234.845 143.728 L 235.081 143.344 L 235.318 142.96 L 235.436 142.576 L 235.673 142.193 L 235.909 141.809 L 236.028 141.425 L 236.264 141.041 L 236.383 140.657 L 236.619 140.273 L 236.737 139.889 L 236.856 139.505 L 237.092 139.121 L 237.092 138.737 L 237.329 138.353 L 237.447 137.969 L 237.565 137.458 L 237.684 137.074 L 237.802 136.69 L 237.92 136.306 L 238.039 135.922 L 238.157 135.666 L 238.275 135.282 L 238.275 134.898 L 238.394 134.514 L 238.512 134.13 L 238.512 133.618 L 238.63 133.234 L 238.63 132.467 L 238.748 132.083 L 238.748 128.116 L 238.63 127.86 L 238.63 127.348 L 238.512 127.092 L 238.512 126.708 L 238.394 126.452 L 238.394 126.068 L 238.275 125.812 L 238.275 125.428 L 238.157 125.3 L 238.157 125.044 L 237.802 125.044 L 237.802 124.404 L 237.684 124.148 L 237.565 123.892 L 237.565 123.765 L 237.447 123.637 L 237.447 123.509 L 237.329 123.253 L 237.211 122.997 L 237.092 122.741 L 236.856 122.485 L 236.856 122.357 L 236.737 122.229 L 236.619 121.973 L 236.501 121.973 L 236.501 121.845 L 236.383 121.845 L 236.383 121.589 L 236.146 121.589 L 236.146 121.461 L 236.028 121.333 L 235.791 121.205 L 235.673 120.949 L 235.436 120.949 L 235.436 120.821 L 235.2 120.821 L 235.081 120.693 L 234.845 120.693 L 234.845 120.437 L 234.49 120.437 L 234.253 120.309 L 234.017 120.309 L 233.898 120.181 L 233.307 120.181 L 233.07 120.053 L 231.414 120.053 L 231.296 119.797 L 231.296 119.285 L 231.532 119.03 L 231.769 118.646 L 231.887 118.39 L 232.006 118.134 L 232.242 117.878 L 232.36 117.622 L 232.597 117.238 L 232.834 116.982 L 233.07 116.598 L 233.307 116.086 L 233.543 115.702 L 233.78 115.19 L 234.017 114.678 L 234.253 114.167 L 234.608 113.655 L 234.608 113.399 L 234.845 113.143 L 234.845 112.887 L 235.081 112.503 L 235.2 112.247 L 235.318 111.991 L 235.436 111.607 L 235.554 111.351 L 235.791 110.967 L 235.791 110.711 L 236.028 110.327 L 236.028 110.071 L 236.264 109.688 L 236.264 109.304 L 236.501 109.048 L 236.501 108.664 L 236.737 108.28 L 236.737 107.896 L 236.974 107.512 L 236.974 107.256 L 237.211 106.872 L 237.211 106.488 L 237.329 106.104 L 237.447 105.72 L 237.447 105.336 L 237.684 104.953 L 237.684 104.569 L 237.802 104.185 L 237.802 103.801 L 237.92 103.417 L 237.92 102.905 L 238.039 102.521 L 238.039 102.137 L 238.157 101.753 L 238.157 101.369 L 238.275 100.857 L 238.275 100.09 L 238.394 99.706 L 238.394 95.227 L 238.275 94.715 L 238.275 94.331 L 238.157 93.819 L 238.157 93.435 L 238.039 92.923 L 237.92 92.539 L 237.92 92.027 L 237.802 91.771 L 237.802 91.259 L 237.684 91.132 L 237.684 90.876 L 237.565 90.62 L 237.565 90.364 L 237.447 90.236 L 237.447 89.98 L 237.211 89.724 L 237.211 89.34 L 236.974 89.084 L 236.974 88.572 L 236.737 88.444 L 236.737 88.188 L 236.619 87.932 L 236.501 87.676 L 236.501 87.548 L 236.264 87.292 L 236.264 87.036 L 236.146 86.78 L 236.028 86.652 L 235.909 86.397 L 235.791 86.141 L 235.673 85.885 L 235.554 85.757 L 235.436 85.501 L 235.318 85.245 L 235.2 84.989 L 234.963 84.733 L 234.963 84.605 L 234.726 84.349 L 234.726 84.093 L 234.49 83.837 L 234.371 83.709 L 234.135 83.453 L 234.135 83.197 L 233.898 82.941 L 233.78 82.813 L 233.543 82.557 L 233.425 82.301 L 233.189 82.173 L 233.07 81.917 L 232.952 81.662 L 232.715 81.406 L 232.597 81.278 L 232.36 81.022 L 232.124 80.766 L 232.006 80.51 L 231.769 80.382 L 231.651 80.126 L 231.414 79.87 L 231.178 79.742 L 231.059 79.486 L 230.823 79.23 L 230.586 78.974 L 230.349 78.846 L 230.113 78.59 L 229.995 78.334 L 229.758 78.206 L 229.521 77.95 L 229.285 77.694 L 229.048 77.566 L 228.812 77.31 L 228.575 77.055 L 228.102 76.671 L 227.747 76.415 L 227.392 76.031 L 226.919 75.775 L 226.564 75.391 L 226.209 75.135 L 225.736 74.879 L 225.381 74.495 L 225.026 74.239 L 224.671 73.983 L 224.198 73.727 L 223.843 73.471 L 223.488 73.215 L 223.134 72.959 L 222.779 72.831 L 222.424 72.575 L 222.069 72.32 L 221.714 72.192 L 221.241 71.936 L 220.886 71.808 L 220.531 71.552 L 220.294 71.424 L 219.94 71.296 L 219.585 71.04 L 219.23 70.912 L 218.875 70.784 L 218.52 70.656 L 218.165 70.528 L 217.81 70.4 L 217.574 70.272 L 217.219 70.272 L 216.864 70.016 L 216.509 70.016 L 216.272 69.888 L 215.918 69.888 L 215.563 69.76 L 215.326 69.632 L 214.971 69.632 L 214.735 69.504 L 214.143 69.504 L 213.788 69.376 L 212.96 69.376 L 212.724 69.248 L 209.411 69.248 L 209.175 69.376 L 208.702 69.376 L 208.583 69.504 L 208.347 69.504 L 208.11 69.632 L 207.874 69.632 L 207.637 69.76 L 207.4 69.76 L 207.282 69.888 L 207.045 69.888 L 206.809 70.016 L 206.691 70.016 L 206.454 70.272 L 206.099 70.272 L 205.862 70.528 L 205.744 70.528 L 205.626 70.656 L 205.389 70.656 L 205.271 70.912 L 205.034 70.912 L 205.034 71.04 L 204.798 71.168 L 204.68 71.168 L 204.443 71.424 L 204.206 71.552 L 204.088 71.68 L 203.97 71.808 L 203.851 71.936 L 203.733 72.064 L 203.615 72.064 L 203.497 72.32 L 203.26 72.575 L 203.142 72.831 L 203.023 72.831 L 203.023 72.959 L 202.787 73.087 L 202.787 73.343 L 202.669 73.471 L 202.669 73.599 L 202.55 73.727 L 202.55 73.855 L 202.432 73.983 L 202.432 74.239 L 202.314 74.239 L 202.314 76.031 L 202.432 76.159 L 202.432 77.055 L 202.195 77.055 L 202.077 77.183 L 196.99 77.183 L 196.517 77.31 L 195.689 77.31 L 195.334 77.438 L 194.861 77.438 L 194.506 77.566 L 194.033 77.566 L 193.56 77.694 L 193.087 77.694 L 192.613 77.822 L 192.14 77.95 L 191.667 77.95 L 191.194 78.206 L 190.721 78.206 L 190.248 78.462 L 189.656 78.462 L 189.183 78.718 L 188.71 78.718 L 188.237 78.974 L 187.763 79.102 L 187.409 79.23 L 187.172 79.23 L 186.935 79.486 L 186.699 79.486 L 186.462 79.614 L 186.226 79.614 L 185.989 79.87 L 185.634 79.87 L 185.398 79.998 L 185.161 80.126 L 184.924 80.254 L 184.688 80.254 L 184.451 80.51 L 184.215 80.51 L 183.978 80.766 L 183.741 80.766 L 183.387 81.022 L 183.15 81.022 L 182.913 81.278 L 182.677 81.406 L 182.44 81.534 L 182.204 81.662 L 181.967 81.79 L 181.73 82.045 L 181.494 82.045 L 181.257 82.301 L 181.021 82.429 L 180.784 82.685 L 180.547 82.685 L 180.311 82.941 L 180.074 83.197 L 179.838 83.325 L 179.601 83.453 L 179.365 83.709 L 179.246 83.837 L 179.01 84.093 L 178.773 84.221 L 178.536 84.477 L 178.3 84.605 L 178.063 84.861 L 177.945 85.117 L 177.708 85.245 L 177.59 85.373 L 177.59 85.245 Z " fill-rule="evenodd" fill="rgb(207,207,207)"/><path d=" M 98.214 138.609 C 100.58 112.375 124.003 91.771 152.512 91.771 C 182.558 91.771 206.927 114.678 206.927 142.704 L 206.927 145.136 L 208.11 138.225 C 208.11 138.225 219.94 128.372 228.338 127.86 C 236.619 127.22 229.64 145.648 208.82 164.076 C 208.233 164.575 207.599 165.004 206.927 165.356 L 206.927 183.784 C 206.927 189.926 205.034 195.429 201.84 199.908 C 201.486 210.146 194.27 218.336 185.516 218.336 C 180.074 218.336 175.106 215.137 172.149 210.146 L 132.875 210.146 C 130.036 215.137 125.067 218.336 119.507 218.336 C 110.872 218.336 103.656 210.146 103.301 199.908 C 99.986 195.3 98.195 189.623 98.214 183.784 L 98.214 154.35 L 96.085 166.251 C 96.085 166.251 84.019 176.105 75.738 176.617 C 67.458 177.257 74.555 158.701 95.257 140.401 C 96.677 139.121 97.623 138.737 98.451 138.609 L 98.214 138.609 Z " fill-rule="evenodd" fill="rgb(173,225,213)"/><path d=" M 175.461 182.632 L 170.138 173.674 L 180.547 174.954 L 187.172 170.73 L 193.323 177.513 L 202.195 177.001 L 198.055 184.935 C 191.587 179.58 182.862 178.686 175.579 182.632 L 175.461 182.632 Z  M 129.444 182.632 L 134.886 173.674 L 124.476 174.954 L 117.851 170.73 L 111.582 177.513 L 102.828 177.001 L 106.968 184.935 C 114.894 177.641 122.347 177.257 129.444 182.632 Z  M 180.311 99.194 C 180.311 99.194 184.569 86.652 205.981 88.7 C 227.274 90.62 213.197 83.325 213.197 83.325 C 210.594 81.917 206.927 72.703 219.348 80.51 C 234.253 90.108 237.802 115.702 207.045 122.101 C 201.486 123.381 199.593 114.039 195.807 109.816 C 191.314 105.177 186.004 101.564 180.193 99.194 L 180.311 99.194 Z  M 121.518 99.194 C 121.518 99.194 119.507 86.78 98.214 88.7 C 76.921 90.748 90.644 83.325 90.644 83.325 C 93.364 81.917 96.913 72.703 84.492 80.51 C 69.824 90.108 66.275 115.83 97.031 122.101 C 102.236 123.125 105.075 113.911 108.861 109.304 C 114.894 102.137 121.518 99.066 121.518 99.066 L 121.518 99.194 Z " fill-rule="evenodd" fill="rgb(244,251,249)"/><path d=" M 142.693 152.814 C 149.081 155.246 155.706 155.118 162.33 152.814 C 162.33 152.814 162.922 156.398 162.922 158.189 C 162.922 167.147 158.19 174.314 152.512 174.314 C 146.715 174.314 142.102 167.019 142.102 158.189 C 142.102 156.27 142.693 152.814 142.693 152.814 Z " fill-rule="evenodd" fill="rgb(237,76,76)"/><path d=" M 151.329 167.403 C 152.063 163.174 152.063 158.835 151.329 154.606 L 151.684 153.71 L 152.393 154.222 L 152.748 156.014 L 152.985 158.573 C 153.221 161.644 152.985 164.716 152.512 167.659 L 152.512 167.915 L 151.802 168.427 L 151.329 167.659 L 151.329 167.403 Z " fill="rgb(197,20,20)"/><path d=" M 98.214 124.66 L 96.322 124.148 L 95.612 124.148 C 92.338 123.385 89.132 122.315 86.03 120.949 C 82.319 119.241 79.006 116.662 76.33 113.399 C 73.519 109.817 71.931 105.299 71.835 100.601 L 71.953 97.786 C 72.881 90.406 76.779 83.847 82.6 79.87 C 85.148 78.051 87.941 76.669 90.88 75.775 L 92.655 75.775 C 93.009 75.775 93.246 75.903 93.601 76.159 C 94.22 76.598 94.647 77.291 94.784 78.078 C 95.02 78.59 95.02 79.102 94.902 79.614 C 94.902 80.254 94.547 80.894 94.311 81.662 C 93.724 82.777 92.916 83.739 91.945 84.477 C 91.617 84.739 91.259 84.954 90.88 85.117 L 88.751 86.397 C 89.922 86.619 91.112 86.705 92.3 86.652 C 94.473 86.628 96.643 86.5 98.806 86.269 L 99.871 86.269 L 101.763 86.141 L 105.075 86.141 C 109.264 86.452 113.359 87.624 117.142 89.596 C 118.399 90.321 119.588 91.178 120.69 92.155 C 121.873 93.307 122.82 94.459 123.648 95.739 C 132.243 90.941 141.775 88.439 151.447 88.444 L 152.867 88.444 C 159.399 88.544 165.888 89.62 172.149 91.643 C 174.988 92.667 177.827 93.819 180.547 95.355 L 180.666 95.099 C 182.24 92.85 184.261 91.013 186.58 89.724 C 190.248 87.548 194.388 86.524 198.41 86.269 L 200.658 86.141 L 204.443 86.141 L 207.4 86.397 L 208.583 86.524 C 210.79 86.655 213.001 86.655 215.208 86.524 C 214.397 85.872 213.525 85.314 212.605 84.861 C 211.921 84.435 211.318 83.87 210.831 83.197 C 210.387 82.733 209.99 82.218 209.648 81.662 C 209.35 81.018 209.15 80.327 209.056 79.614 L 209.056 78.334 C 209.105 77.969 209.226 77.62 209.411 77.31 L 209.766 76.671 C 210.147 76.227 210.641 75.915 211.186 75.775 L 212.132 75.519 L 212.369 75.519 L 214.143 75.903 C 215.382 76.249 216.574 76.765 217.692 77.438 C 219.622 78.584 221.479 79.866 223.252 81.278 C 224.458 82.309 225.567 83.466 226.564 84.733 C 230.015 89.005 232.018 94.421 232.242 100.09 C 232.318 105.26 230.537 110.26 227.274 114.039 C 223.795 117.927 219.429 120.753 214.616 122.229 C 212.071 123.144 209.459 123.829 206.809 124.276 C 208.146 127.769 209.099 131.42 209.648 135.154 C 212.987 132.672 216.508 130.489 220.176 128.627 C 222.817 127.375 225.603 126.514 228.457 126.068 L 228.93 126.068 C 229.64 126.068 230.113 126.196 230.704 126.452 C 231.488 126.765 232.153 127.35 232.597 128.116 C 233.307 129.267 233.425 130.675 233.307 131.955 L 233.307 132.595 L 233.07 133.362 C 233.07 133.746 233.07 134.002 232.834 134.386 C 232.406 136.172 231.77 137.893 230.941 139.505 C 229.836 141.742 228.57 143.881 227.156 145.904 C 224.84 149.365 222.268 152.618 219.466 155.63 C 217.014 158.316 214.449 160.879 211.777 163.308 C 211.304 163.82 210.831 164.332 210.358 164.588 L 210.239 164.844 C 210.208 172.309 210.13 179.775 210.003 187.239 C 209.333 193.46 206.847 199.288 202.905 203.875 C 202.291 206.729 201.166 209.425 199.593 211.81 C 197.577 214.732 194.884 217.027 191.785 218.464 C 187.879 220.179 183.508 220.179 179.601 218.464 C 177.05 217.349 174.779 215.595 172.977 213.345 L 152.571 213.345 L 132.165 213.345 L 130.391 215.265 C 127.253 218.15 123.271 219.738 119.153 219.744 C 115.219 219.698 111.435 218.106 108.506 215.265 C 105.305 212.274 103.102 208.227 102.236 203.747 C 97.628 198.382 95.016 191.363 94.902 184.04 L 94.902 168.939 C 90.449 172.201 85.691 174.946 80.707 177.129 L 76.566 178.153 C 75.782 178.279 74.985 178.279 74.201 178.153 C 73.746 178.052 73.308 177.88 72.899 177.641 C 72.186 177.248 71.606 176.621 71.243 175.849 C 70.777 174.636 70.654 173.3 70.888 172.01 L 70.888 171.242 C 71.189 169.931 71.585 168.647 72.071 167.403 C 72.704 165.845 73.455 164.347 74.319 162.924 C 75.717 160.211 77.34 157.641 79.169 155.246 C 82.799 150.332 86.882 145.83 91.353 141.809 L 92.773 140.529 L 93.838 139.633 L 94.547 138.865 C 94.784 138.865 94.902 138.609 95.139 138.481 C 95.521 133.693 96.558 128.992 98.214 124.532 L 98.214 124.66 Z  M 124.239 182.248 C 122.84 181.658 121.362 181.313 119.862 181.224 L 119.271 181.224 C 116.755 181.28 114.302 182.076 112.173 183.528 L 109.807 185.575 C 108.334 187.021 107.129 188.759 106.258 190.694 C 103.496 197.064 104.13 204.552 107.915 210.274 C 109.628 212.716 111.916 214.616 114.539 215.777 C 119.29 217.782 124.678 216.745 128.498 213.089 C 130.401 211.357 131.9 209.165 132.875 206.691 C 135.296 200.488 134.58 193.372 130.982 187.879 C 129.909 186.281 128.588 184.895 127.078 183.784 L 124.239 182.248 Z  M 192.377 183.272 C 190.418 182.077 188.234 181.377 185.989 181.224 L 185.398 181.224 C 184.029 181.267 182.675 181.526 181.376 181.992 L 177.59 184.04 C 176.241 185.126 175.045 186.419 174.041 187.879 C 173.331 189.031 172.622 190.182 172.149 191.462 C 169.803 197.574 170.471 204.555 173.923 210.018 C 176.54 214.115 180.796 216.631 185.398 216.801 C 188.739 216.869 191.985 215.592 194.506 213.217 C 196.382 211.509 197.878 209.366 198.883 206.947 C 201.652 200.098 200.548 192.139 196.044 186.471 L 192.377 183.272 Z  M 203.26 197.733 C 205.543 193.636 206.769 188.951 206.809 184.168 C 206.922 171.541 206.922 158.914 206.809 146.288 L 206.809 145.008 C 207.483 132.612 203.371 120.469 195.453 111.479 C 185.88 100.16 172.684 93.205 158.545 92.027 C 141.169 90.375 123.964 96.797 111.227 109.688 C 107.556 113.736 104.52 118.404 102.236 123.509 C 99.212 130.453 97.869 138.115 98.333 145.776 L 98.333 147.439 L 98.214 148.719 L 98.214 184.168 L 98.333 186.983 C 98.76 190.807 99.973 194.48 101.882 197.733 C 102.13 193.169 103.657 188.794 106.258 185.191 L 102.118 177.513 L 102.118 176.745 C 102.118 176.489 102.355 176.233 102.71 176.105 L 102.946 176.105 L 111.463 176.617 L 117.378 170.091 L 117.378 169.963 L 117.615 169.963 C 117.615 169.835 117.97 169.707 118.088 169.835 L 118.324 169.835 L 124.831 174.058 L 134.886 172.778 L 135.004 172.778 L 135.359 172.906 C 135.596 173.034 135.832 173.418 135.832 173.802 L 135.832 174.186 L 135.714 174.186 L 130.627 182.632 C 133.013 184.883 134.843 187.742 135.95 190.95 C 138.14 197.259 137.62 204.294 134.531 210.146 L 170.729 210.146 C 165.918 201.116 167.54 189.685 174.633 182.632 L 169.546 174.314 L 169.546 173.802 C 169.428 173.418 169.546 173.034 169.901 172.906 L 170.374 172.906 L 180.429 174.186 L 186.935 169.963 L 187.29 169.835 L 187.527 169.835 L 187.763 169.963 L 187.882 169.963 L 193.796 176.617 L 194.27 176.617 L 202.314 176.105 L 202.669 176.105 C 203.023 176.361 203.142 176.617 203.142 177.001 L 203.142 177.385 L 199.001 185.191 C 200.306 186.919 201.345 188.864 202.077 190.95 C 202.787 193.126 203.26 195.429 203.26 197.733 Z  M 197.7 183.784 L 200.658 178.025 L 193.442 178.537 L 193.087 178.537 L 192.85 178.281 L 187.054 171.882 L 180.902 175.721 L 180.902 175.849 L 180.429 175.849 L 171.912 174.954 L 175.934 181.608 C 178.118 179.921 180.625 178.784 183.268 178.281 L 185.989 178.281 C 190.407 178.39 194.611 180.365 197.7 183.784 Z  M 129.089 181.608 L 133.111 174.954 L 124.594 175.977 L 124.239 175.977 L 124.003 175.849 L 117.97 171.882 L 112.291 178.281 L 112.055 178.281 L 111.7 178.409 L 111.582 178.409 L 104.247 178.025 L 107.323 183.784 L 108.506 182.632 C 110.957 180.346 113.947 178.84 117.142 178.281 L 119.862 178.281 C 123.175 178.374 126.387 179.532 129.089 181.608 Z  M 95.02 142.576 C 89.591 147.616 84.602 153.185 80.115 159.213 C 78.082 162.26 76.263 165.469 74.674 168.811 C 74.231 170.05 73.914 171.337 73.727 172.65 L 73.727 173.93 C 73.727 174.186 73.846 174.57 74.082 174.698 L 74.319 174.826 L 74.792 175.082 L 75.738 175.082 C 77.6 174.793 79.425 174.278 81.18 173.546 C 84.385 172.217 87.441 170.5 90.289 168.427 L 94.547 165.356 L 94.902 163.82 L 94.902 148.591 L 95.02 146.16 L 95.02 142.576 Z  M 210.121 160.877 C 214.273 156.886 218.185 152.611 221.832 148.079 C 224.556 144.559 226.935 140.742 228.93 136.69 L 229.403 135.41 L 229.758 134.258 L 229.995 133.49 L 230.231 132.723 L 230.231 131.571 L 230.349 131.187 L 230.349 130.803 C 230.349 130.419 230.113 129.907 229.758 129.779 C 229.504 129.626 229.22 129.539 228.93 129.523 L 228.693 129.523 C 226.341 129.848 224.035 130.493 221.832 131.443 C 217.566 133.339 213.549 135.834 209.885 138.865 C 209.998 141.21 209.998 143.559 209.885 145.904 L 209.885 146.672 L 210.003 147.439 L 210.003 160.877 L 210.121 160.877 Z  M 170.256 148.975 L 169.783 150.255 L 169.073 150.639 C 164.002 153.23 158.563 154.875 152.985 155.502 C 147.296 155.877 141.609 154.735 136.424 152.174 C 136.019 151.938 135.624 151.682 135.241 151.407 L 135.122 151.407 L 134.767 149.999 L 136.069 149.615 L 136.424 149.871 L 136.778 150.127 C 140.004 151.967 143.55 153.057 147.188 153.326 C 151.718 153.873 156.302 153.438 160.674 152.046 C 163.537 151.152 166.311 149.952 168.955 148.463 L 170.138 148.975 L 170.256 148.975 Z  M 191.076 141.809 C 193.264 141.809 195.039 143.728 195.039 146.096 C 195.039 148.463 193.264 150.383 191.076 150.383 C 188.887 150.383 187.113 148.463 187.113 146.096 C 187.113 143.728 188.887 141.809 191.076 141.809 Z  M 113.001 141.809 C 110.813 141.809 109.038 143.728 109.038 146.096 C 109.038 148.463 110.813 150.383 113.001 150.383 C 115.19 150.383 116.964 148.463 116.964 146.096 C 116.964 143.728 115.19 141.809 113.001 141.809 Z  M 116.55 93.051 L 116.077 93.051 L 113.474 93.947 C 111.771 94.59 110.111 95.359 108.506 96.25 C 103.827 98.87 99.457 102.093 95.494 105.848 C 94.132 107.432 92.905 109.146 91.826 110.967 L 91.472 111.607 C 90.595 113.186 90.182 115.016 90.289 116.854 C 90.384 117.665 90.625 118.447 90.998 119.157 C 93.812 120.126 96.703 120.812 99.634 121.205 C 102.209 115.442 105.737 110.237 110.044 105.848 C 113.356 102.521 117.023 99.578 120.927 97.146 L 120.69 96.89 C 119.691 95.535 118.492 94.368 117.142 93.435 L 116.55 93.051 Z  M 187.527 93.051 C 185.956 94.069 184.556 95.367 183.387 96.89 C 190.328 101.062 196.375 106.776 201.131 113.655 C 202.787 115.958 204.206 118.518 205.389 121.077 L 207.164 120.693 L 207.874 120.565 L 211.422 119.669 L 212.96 119.157 C 213.33 118.446 213.571 117.664 213.67 116.854 C 213.784 115.015 213.371 113.183 212.487 111.607 L 212.25 110.839 C 210.675 108.097 208.627 105.707 206.217 103.801 C 202.397 100.242 198.086 97.349 193.442 95.227 C 191.574 94.314 189.634 93.586 187.645 93.051 L 187.409 93.051 L 187.527 93.051 Z  M 115.249 92.155 C 112.145 90.541 108.756 89.668 105.312 89.596 C 103.343 89.433 101.366 89.433 99.397 89.596 L 97.386 89.596 L 95.849 89.852 L 90.289 90.108 C 88.1 91.002 86.032 92.207 84.137 93.691 C 81.164 95.941 78.829 99.043 77.395 102.649 C 76.851 104.208 76.531 105.848 76.448 107.512 C 76.942 108.598 77.536 109.628 78.223 110.583 C 80.799 114.02 84.194 116.63 88.041 118.134 L 89.697 118.774 L 89.461 118.134 C 89.156 116.56 89.238 114.928 89.697 113.399 C 90.281 111.514 91.206 109.774 92.418 108.28 C 93.75 106.37 95.301 104.65 97.031 103.161 C 99.021 101.297 101.158 99.627 103.419 98.17 C 106.864 95.904 110.51 94.018 114.302 92.539 L 115.249 92.283 L 115.249 92.155 Z  M 213.788 90.108 C 211.577 90.201 209.363 90.116 207.164 89.852 L 204.916 89.596 L 203.97 89.596 C 200.193 89.448 196.415 89.835 192.732 90.748 L 188.828 92.283 L 189.656 92.539 C 191.618 93.2 193.519 94.057 195.334 95.099 C 200.355 97.817 205.011 101.262 209.175 105.336 L 210.594 106.872 L 211.659 108.152 L 212.487 109.432 C 213.197 110.711 213.907 111.991 214.261 113.399 L 214.735 115.574 C 214.735 116.47 214.735 117.238 214.498 118.134 L 214.261 118.774 C 215.468 118.327 216.652 117.815 217.81 117.238 C 221.374 115.446 224.435 112.664 226.682 109.176 L 227.51 107.512 C 227.432 105.243 226.908 103.018 225.973 100.985 C 224.026 97.145 221.059 94.024 217.455 92.027 C 216.307 91.315 215.122 90.675 213.907 90.108 L 213.788 90.108 Z  M 88.159 89.852 C 87.636 89.779 87.121 89.65 86.622 89.468 C 86.284 89.349 85.965 89.177 85.675 88.956 C 84.988 88.439 84.623 87.551 84.729 86.652 C 84.847 85.629 85.557 84.861 86.148 84.349 C 86.433 84.051 86.751 83.793 87.095 83.581 L 89.106 82.301 C 89.342 82.301 89.461 82.045 89.697 81.917 L 90.052 81.917 L 90.17 81.662 C 90.896 80.982 91.429 80.095 91.708 79.102 L 90.644 79.358 C 86.357 81.028 82.531 83.846 79.524 87.548 C 77.04 90.876 75.265 94.971 75.029 99.322 L 75.029 100.857 C 75.041 102.372 75.24 103.879 75.62 105.336 L 75.738 104.697 C 76.148 102.703 76.868 100.799 77.868 99.066 C 79.642 96.122 82.126 93.691 84.847 91.899 L 86.267 90.876 L 88.159 89.852 Z  M 228.338 105.208 C 228.714 103.876 228.952 102.502 229.048 101.113 L 229.048 99.322 C 228.668 94.336 226.654 89.662 223.37 86.141 C 220.311 82.763 216.471 80.332 212.25 79.102 L 212.487 79.998 C 212.805 80.647 213.249 81.214 213.788 81.662 L 213.907 81.79 L 214.143 81.79 L 214.616 82.045 L 215.208 82.429 C 216.026 82.887 216.816 83.4 217.574 83.965 L 217.929 84.349 C 218.638 84.861 219.23 85.629 219.348 86.524 C 219.444 87.108 219.316 87.709 218.993 88.188 C 218.812 88.534 218.571 88.838 218.283 89.084 C 217.915 89.318 217.516 89.49 217.1 89.596 C 216.712 89.711 216.317 89.797 215.918 89.852 L 216.272 89.98 C 217.493 90.631 218.678 91.357 219.821 92.155 C 223.26 94.597 225.972 98.064 227.629 102.137 C 227.994 103.174 228.272 104.245 228.457 105.336 L 228.338 105.208 Z " fill-rule="evenodd" fill="rgb(67,50,49)"/></g></g></svg>